<?xml version="1.0" encoding="UTF-8"?>
<svg id="Layer_2" data-name="Layer 2" xmlns="http://www.w3.org/2000/svg" viewBox="0 0 362.6 68.6">
  <defs>
    <style>
      .cls-1 {
        fill: #f4c4ec;
      }

      .cls-2 {
        fill: #e8eff2;
      }

      .cls-3 {
        fill: #e4ecf0;
      }

      .cls-4 {
        fill: #f8fafb;
      }

      .cls-5 {
        fill: #f5caee;
      }

      .cls-6 {
        fill: #fae3f6;
      }

      .cls-7 {
        fill: #f3f7f8;
      }

      .cls-8 {
        fill: #f7d1f0;
      }

      .cls-9 {
        fill: #f6cff0;
      }

      .cls-10 {
        fill: #ebf1f4;
      }

      .cls-11 {
        fill: #e0e9ee;
      }

      .cls-12 {
        fill: #f2f6f8;
      }

      .cls-13 {
        fill: #e2ebef;
      }

      .cls-14 {
        fill: #e1eaef;
      }

      .cls-15 {
        fill: #f8dbf3;
      }

      .cls-16 {
        fill: #f4f8f9;
      }

      .cls-17 {
        fill: #f5f8fa;
      }

      .cls-18 {
        fill: #e5edf1;
      }

      .cls-19 {
        fill: #f8d6f2;
      }

      .cls-20 {
        fill: #eff4f6;
      }

      .cls-21 {
        fill: #f9f2f8;
      }

      .cls-22 {
        fill: #fae6f7;
      }

      .cls-23 {
        fill: #f7eff6;
      }

      .cls-24 {
        fill: #f9fbfc;
      }

      .cls-25 {
        fill: #e6edf1;
      }

      .cls-26 {
        fill: #f5c8ee;
      }

      .cls-27 {
        fill: #dae5eb;
      }

      .cls-28 {
        fill: #f7fafb;
      }

      .cls-29 {
        fill: #fcfafc;
      }

      .cls-30 {
        fill: #fae4f7;
      }

      .cls-31 {
        fill: #fffdf6;
      }

      .cls-32 {
        fill: #fbf6fa;
      }

      .cls-33 {
        fill: #f7eef5;
      }

      .cls-34 {
        fill: #f2b9e9;
      }

      .cls-35 {
        fill: #eef3f6;
      }

      .cls-36 {
        fill: #fefefc;
      }

      .cls-37 {
        fill: #f8fcf3;
      }

      .cls-38 {
        fill: #e7eef2;
      }

      .cls-39 {
        fill: #f8d9f3;
      }

      .cls-40 {
        fill: #ecf2f5;
      }

      .cls-41 {
        fill: #f4f7f9;
      }

      .cls-42 {
        fill: #f6cdef;
      }

      .cls-43 {
        fill: #f7d2f1;
      }

      .cls-44 {
        fill: #f6f9fa;
      }

      .cls-45 {
        fill: #f6edf5;
      }

      .cls-46 {
        fill: #e9f0f3;
      }

      .cls-47 {
        fill: #eaf0f4;
      }

      .cls-48 {
        fill: #fefeff;
      }

      .cls-49 {
        fill: #fbebf9;
      }

      .cls-50 {
        fill: #f5eaf3;
      }

      .cls-51 {
        fill: #e3ecf0;
      }

      .cls-52 {
        fill: #f9f3f8;
      }

      .cls-53 {
        fill: #fefcfe;
      }

      .cls-54 {
        fill: #fffcf3;
      }

      .cls-55 {
        fill: #eff4f7;
      }

      .cls-56 {
        fill: #fefefe;
      }

      .cls-57 {
        fill: #f9e0f5;
      }

      .cls-58 {
        fill: #fcedf9;
      }

      .cls-59 {
        fill: #eaf1f4;
      }

      .cls-60 {
        fill: #f7d5f2;
      }

      .cls-61 {
        fill: #edf3f5;
      }

      .cls-62 {
        fill: #fbf7fb;
      }

      .cls-63 {
        fill: #f6ceef;
      }

      .cls-64 {
        fill: #f6cbee;
      }

      .cls-65 {
        fill: #fcf8fb;
      }

      .cls-66 {
        fill: #f8d8f3;
      }

      .cls-67 {
        fill: #fbe9f8;
      }

      .cls-68 {
        fill: #e8eff3;
      }

      .cls-69 {
        fill: #fdfbfd;
      }

      .cls-70 {
        fill: #f5c7ed;
      }

      .cls-71 {
        fill: #f9ddf4;
      }
    </style>
  </defs>
  <g id="Layer_3" data-name="Layer 3">
    <g>
      <rect class="cls-13" x="343" y="63.7" width="4.9" height="4.9"/>
      <rect class="cls-64" x="338.1" y="63.7" width="4.9" height="4.9"/>
      <rect class="cls-26" x="333.2" y="63.7" width="4.9" height="4.9"/>
      <rect class="cls-51" x="328.3" y="63.7" width="4.9" height="4.9"/>
      <rect class="cls-5" x="323.4" y="63.7" width="4.9" height="4.9"/>
      <rect class="cls-64" x="318.5" y="63.7" width="4.9" height="4.9"/>
      <rect class="cls-70" x="313.6" y="63.7" width="4.9" height="4.9"/>
      <rect class="cls-64" x="308.7" y="63.7" width="4.9" height="4.9"/>
      <rect class="cls-64" x="303.8" y="63.7" width="4.9" height="4.9"/>
      <rect class="cls-64" x="298.9" y="63.7" width="4.9" height="4.9"/>
      <rect class="cls-64" x="294" y="63.7" width="4.9" height="4.9"/>
      <rect class="cls-64" x="289.1" y="63.7" width="4.9" height="4.9"/>
      <rect class="cls-64" x="284.2" y="63.7" width="4.9" height="4.9"/>
      <rect class="cls-64" x="279.3" y="63.7" width="4.9" height="4.9"/>
      <rect class="cls-64" x="274.4" y="63.7" width="4.9" height="4.9"/>
      <rect class="cls-64" x="269.5" y="63.7" width="4.9" height="4.9"/>
      <rect class="cls-64" x="264.6" y="63.7" width="4.9" height="4.9"/>
      <rect class="cls-1" x="225.4" y="63.7" width="4.9" height="4.9"/>
      <rect class="cls-64" x="220.5" y="63.7" width="4.9" height="4.9"/>
      <rect class="cls-5" x="215.6" y="63.7" width="4.9" height="4.9"/>
      <rect class="cls-51" x="210.7" y="63.7" width="4.9" height="4.9"/>
      <rect class="cls-3" x="205.8" y="63.7" width="4.9" height="4.9"/>
      <rect class="cls-51" x="200.9" y="63.7" width="4.9" height="4.9"/>
      <rect class="cls-3" x="196" y="63.7" width="4.9" height="4.9"/>
      <rect class="cls-3" x="191.1" y="63.7" width="4.9" height="4.9"/>
      <rect class="cls-5" x="186.2" y="63.7" width="4.9" height="4.9"/>
      <rect class="cls-5" x="181.3" y="63.7" width="4.9" height="4.9"/>
      <rect class="cls-5" x="176.4" y="63.7" width="4.9" height="4.9"/>
      <rect class="cls-26" x="171.5" y="63.7" width="4.9" height="4.9"/>
      <rect class="cls-26" x="166.6" y="63.7" width="4.9" height="4.9"/>
      <rect class="cls-70" x="161.7" y="63.7" width="4.9" height="4.9"/>
      <rect class="cls-5" x="156.8" y="63.7" width="4.9" height="4.9"/>
      <rect class="cls-64" x="151.9" y="63.7" width="4.9" height="4.9"/>
      <rect class="cls-64" x="147" y="63.7" width="4.9" height="4.9"/>
      <rect class="cls-64" x="142.1" y="63.7" width="4.9" height="4.9"/>
      <rect class="cls-5" x="137.2" y="63.7" width="4.9" height="4.9"/>
      <rect class="cls-64" x="132.3" y="63.7" width="4.9" height="4.9"/>
      <rect class="cls-64" x="127.4" y="63.7" width="4.9" height="4.9"/>
      <rect class="cls-64" x="122.5" y="63.7" width="4.9" height="4.9"/>
      <rect class="cls-64" x="117.6" y="63.7" width="4.9" height="4.9"/>
      <rect class="cls-64" x="112.7" y="63.7" width="4.9" height="4.9"/>
      <rect class="cls-64" x="107.8" y="63.7" width="4.9" height="4.9"/>
      <rect class="cls-64" x="102.9" y="63.7" width="4.9" height="4.9"/>
      <rect class="cls-5" x="98" y="63.7" width="4.9" height="4.9"/>
      <rect class="cls-64" x="93.1" y="63.7" width="4.9" height="4.9"/>
      <rect class="cls-64" x="88.2" y="63.7" width="4.9" height="4.9"/>
      <rect class="cls-64" x="83.3" y="63.7" width="4.9" height="4.9"/>
      <rect class="cls-64" x="78.4" y="63.7" width="4.9" height="4.9"/>
      <rect class="cls-64" x="73.5" y="63.7" width="4.9" height="4.9"/>
      <rect class="cls-5" x="68.6" y="63.7" width="4.9" height="4.9"/>
      <rect class="cls-34" x="63.7" y="63.7" width="4.9" height="4.9"/>
      <rect class="cls-68" x="357.7" y="58.8" width="4.9" height="4.9"/>
      <rect class="cls-7" x="352.8" y="58.8" width="4.9" height="4.9"/>
      <rect class="cls-57" x="347.9" y="58.8" width="4.9" height="4.9"/>
      <rect class="cls-66" x="343" y="58.8" width="4.9" height="4.9"/>
      <rect class="cls-46" x="338.1" y="58.8" width="4.9" height="4.9"/>
      <rect class="cls-3" x="333.2" y="58.8" width="4.9" height="4.9"/>
      <rect class="cls-26" x="328.3" y="58.8" width="4.9" height="4.9"/>
      <rect class="cls-26" x="323.4" y="58.8" width="4.9" height="4.9"/>
      <rect class="cls-5" x="318.5" y="58.8" width="4.9" height="4.9"/>
      <rect class="cls-5" x="313.6" y="58.8" width="4.9" height="4.9"/>
      <rect class="cls-64" x="308.7" y="58.8" width="4.9" height="4.9"/>
      <rect class="cls-64" x="303.8" y="58.8" width="4.9" height="4.9"/>
      <rect class="cls-64" x="298.9" y="58.8" width="4.9" height="4.9"/>
      <rect class="cls-64" x="294" y="58.8" width="4.9" height="4.9"/>
      <rect class="cls-64" x="289.1" y="58.8" width="4.9" height="4.9"/>
      <rect class="cls-64" x="284.2" y="58.8" width="4.9" height="4.9"/>
      <rect class="cls-64" x="279.3" y="58.8" width="4.9" height="4.9"/>
      <rect class="cls-64" x="274.4" y="58.8" width="4.9" height="4.9"/>
      <rect class="cls-5" x="269.5" y="58.8" width="4.9" height="4.9"/>
      <rect class="cls-64" x="264.6" y="58.8" width="4.9" height="4.9"/>
      <rect class="cls-26" x="259.7" y="58.8" width="4.9" height="4.9"/>
      <rect class="cls-5" x="254.8" y="58.8" width="4.9" height="4.9"/>
      <rect class="cls-26" x="249.9" y="58.8" width="4.9" height="4.9"/>
      <rect class="cls-26" x="245" y="58.8" width="4.9" height="4.9"/>
      <rect class="cls-26" x="240.1" y="58.8" width="4.9" height="4.9"/>
      <rect class="cls-5" x="235.2" y="58.8" width="4.9" height="4.9"/>
      <rect class="cls-66" x="230.3" y="58.8" width="4.9" height="4.9"/>
      <rect class="cls-26" x="225.4" y="58.8" width="4.9" height="4.9"/>
      <rect class="cls-26" x="220.5" y="58.8" width="4.9" height="4.9"/>
      <rect class="cls-26" x="215.6" y="58.8" width="4.9" height="4.9"/>
      <rect class="cls-5" x="210.7" y="58.8" width="4.9" height="4.9"/>
      <rect class="cls-39" x="205.8" y="58.8" width="4.9" height="4.9"/>
      <rect class="cls-55" x="200.9" y="58.8" width="4.9" height="4.9"/>
      <rect class="cls-12" x="196" y="58.8" width="4.9" height="4.9"/>
      <rect class="cls-23" x="191.1" y="58.8" width="4.9" height="4.9"/>
      <rect class="cls-52" x="186.2" y="58.8" width="4.9" height="4.9"/>
      <rect class="cls-39" x="181.3" y="58.8" width="4.9" height="4.9"/>
      <rect class="cls-5" x="176.4" y="58.8" width="4.9" height="4.9"/>
      <rect class="cls-5" x="171.5" y="58.8" width="4.9" height="4.9"/>
      <rect class="cls-26" x="166.6" y="58.8" width="4.9" height="4.9"/>
      <rect class="cls-5" x="161.7" y="58.8" width="4.9" height="4.9"/>
      <rect class="cls-64" x="156.8" y="58.8" width="4.9" height="4.9"/>
      <rect class="cls-64" x="151.9" y="58.8" width="4.9" height="4.9"/>
      <rect class="cls-64" x="147" y="58.8" width="4.9" height="4.9"/>
      <rect class="cls-64" x="142.1" y="58.8" width="4.9" height="4.9"/>
      <rect class="cls-5" x="137.2" y="58.8" width="4.9" height="4.9"/>
      <rect class="cls-64" x="132.3" y="58.8" width="4.9" height="4.9"/>
      <rect class="cls-64" x="127.4" y="58.8" width="4.9" height="4.9"/>
      <rect class="cls-64" x="122.5" y="58.8" width="4.9" height="4.9"/>
      <rect class="cls-64" x="117.6" y="58.8" width="4.9" height="4.9"/>
      <rect class="cls-64" x="112.7" y="58.8" width="4.9" height="4.9"/>
      <rect class="cls-64" x="107.8" y="58.8" width="4.9" height="4.9"/>
      <rect class="cls-64" x="102.9" y="58.8" width="4.9" height="4.9"/>
      <rect class="cls-5" x="98" y="58.8" width="4.9" height="4.9"/>
      <rect class="cls-5" x="93.1" y="58.8" width="4.9" height="4.9"/>
      <rect class="cls-64" x="88.2" y="58.8" width="4.9" height="4.9"/>
      <rect class="cls-64" x="83.3" y="58.8" width="4.9" height="4.9"/>
      <rect class="cls-64" x="78.4" y="58.8" width="4.9" height="4.9"/>
      <rect class="cls-64" x="73.5" y="58.8" width="4.9" height="4.9"/>
      <rect class="cls-5" x="68.6" y="58.8" width="4.9" height="4.9"/>
      <rect class="cls-26" x="63.7" y="58.8" width="4.9" height="4.9"/>
      <rect class="cls-51" x="58.8" y="58.8" width="4.9" height="4.9"/>
      <rect class="cls-26" x="53.9" y="58.8" width="4.9" height="4.9"/>
      <rect class="cls-18" x="49" y="58.8" width="4.9" height="4.9"/>
      <rect class="cls-26" x="44.1" y="58.8" width="4.9" height="4.9"/>
      <rect class="cls-70" x="39.2" y="58.8" width="4.9" height="4.9"/>
      <rect class="cls-26" x="34.3" y="58.8" width="4.9" height="4.9"/>
      <rect class="cls-70" x="29.4" y="58.8" width="4.9" height="4.9"/>
      <rect class="cls-26" x="24.5" y="58.8" width="4.9" height="4.9"/>
      <rect class="cls-5" x="19.6" y="58.8" width="4.9" height="4.9"/>
      <rect class="cls-26" x="14.7" y="58.8" width="4.9" height="4.9"/>
      <rect class="cls-63" x="9.8" y="58.8" width="4.9" height="4.9"/>
      <rect class="cls-21" x="4.9" y="58.8" width="4.9" height="4.9"/>
      <rect class="cls-14" y="58.8" width="4.9" height="4.9"/>
      <rect class="cls-16" x="313.6" y="53.9" width="4.9" height="4.9"/>
      <rect class="cls-42" x="308.7" y="53.9" width="4.9" height="4.9"/>
      <rect class="cls-64" x="303.8" y="53.9" width="4.9" height="4.9"/>
      <rect class="cls-64" x="298.9" y="53.9" width="4.9" height="4.9"/>
      <rect class="cls-64" x="294" y="53.9" width="4.9" height="4.9"/>
      <rect class="cls-5" x="289.1" y="53.9" width="4.9" height="4.9"/>
      <rect class="cls-5" x="284.2" y="53.9" width="4.9" height="4.9"/>
      <rect class="cls-35" x="279.3" y="53.9" width="4.9" height="4.9"/>
      <rect class="cls-63" x="274.4" y="53.9" width="4.9" height="4.9"/>
      <rect class="cls-41" x="269.5" y="53.9" width="4.9" height="4.9"/>
      <rect class="cls-60" x="264.6" y="53.9" width="4.9" height="4.9"/>
      <rect class="cls-26" x="259.7" y="53.9" width="4.9" height="4.9"/>
      <rect class="cls-19" x="254.8" y="53.9" width="4.9" height="4.9"/>
      <rect class="cls-5" x="249.9" y="53.9" width="4.9" height="4.9"/>
      <rect class="cls-65" x="245" y="53.9" width="4.9" height="4.9"/>
      <rect class="cls-22" x="240.1" y="53.9" width="4.9" height="4.9"/>
      <rect class="cls-5" x="235.2" y="53.9" width="4.9" height="4.9"/>
      <rect class="cls-5" x="230.3" y="53.9" width="4.9" height="4.9"/>
      <rect class="cls-64" x="225.4" y="53.9" width="4.9" height="4.9"/>
      <rect class="cls-64" x="220.5" y="53.9" width="4.9" height="4.9"/>
      <rect class="cls-64" x="215.6" y="53.9" width="4.9" height="4.9"/>
      <rect class="cls-64" x="210.7" y="53.9" width="4.9" height="4.9"/>
      <rect class="cls-5" x="205.8" y="53.9" width="4.9" height="4.9"/>
      <rect class="cls-5" x="200.9" y="53.9" width="4.9" height="4.9"/>
      <rect class="cls-64" x="196" y="53.9" width="4.9" height="4.9"/>
      <rect class="cls-26" x="191.1" y="53.9" width="4.9" height="4.9"/>
      <rect class="cls-39" x="186.2" y="53.9" width="4.9" height="4.9"/>
      <rect class="cls-33" x="181.3" y="53.9" width="4.9" height="4.9"/>
      <rect class="cls-12" x="176.4" y="53.9" width="4.9" height="4.9"/>
      <rect class="cls-64" x="171.5" y="53.9" width="4.9" height="4.9"/>
      <rect class="cls-64" x="166.6" y="53.9" width="4.9" height="4.9"/>
      <rect class="cls-64" x="161.7" y="53.9" width="4.9" height="4.9"/>
      <rect class="cls-64" x="156.8" y="53.9" width="4.9" height="4.9"/>
      <rect class="cls-64" x="151.9" y="53.9" width="4.9" height="4.9"/>
      <rect class="cls-70" x="147" y="53.9" width="4.9" height="4.9"/>
      <rect class="cls-64" x="142.1" y="53.9" width="4.9" height="4.9"/>
      <rect class="cls-64" x="137.2" y="53.9" width="4.9" height="4.9"/>
      <rect class="cls-64" x="132.3" y="53.9" width="4.9" height="4.9"/>
      <rect class="cls-64" x="127.4" y="53.9" width="4.9" height="4.9"/>
      <rect class="cls-64" x="122.5" y="53.9" width="4.9" height="4.9"/>
      <rect class="cls-5" x="117.6" y="53.9" width="4.9" height="4.9"/>
      <rect class="cls-67" x="112.7" y="53.9" width="4.9" height="4.9"/>
      <rect class="cls-66" x="107.8" y="53.9" width="4.9" height="4.9"/>
      <rect class="cls-71" x="102.9" y="53.9" width="4.9" height="4.9"/>
      <rect class="cls-23" x="98" y="53.9" width="4.9" height="4.9"/>
      <rect class="cls-64" x="93.1" y="53.9" width="4.9" height="4.9"/>
      <rect class="cls-64" x="88.2" y="53.9" width="4.9" height="4.9"/>
      <rect class="cls-64" x="83.3" y="53.9" width="4.9" height="4.9"/>
      <rect class="cls-64" x="78.4" y="53.9" width="4.9" height="4.9"/>
      <rect class="cls-64" x="73.5" y="53.9" width="4.9" height="4.9"/>
      <rect class="cls-64" x="68.6" y="53.9" width="4.9" height="4.9"/>
      <rect class="cls-64" x="63.7" y="53.9" width="4.9" height="4.9"/>
      <rect class="cls-64" x="58.8" y="53.9" width="4.9" height="4.9"/>
      <rect class="cls-64" x="53.9" y="53.9" width="4.9" height="4.9"/>
      <rect class="cls-64" x="49" y="53.9" width="4.9" height="4.9"/>
      <rect class="cls-64" x="44.1" y="53.9" width="4.9" height="4.9"/>
      <rect class="cls-64" x="39.2" y="53.9" width="4.9" height="4.9"/>
      <rect class="cls-64" x="34.3" y="53.9" width="4.9" height="4.9"/>
      <rect class="cls-5" x="29.4" y="53.9" width="4.9" height="4.9"/>
      <rect class="cls-26" x="24.5" y="53.9" width="4.9" height="4.9"/>
      <rect class="cls-69" x="19.6" y="53.9" width="4.9" height="4.9"/>
      <rect class="cls-67" x="308.7" y="49" width="4.9" height="4.9"/>
      <rect class="cls-26" x="303.8" y="49" width="4.9" height="4.9"/>
      <rect class="cls-15" x="298.9" y="49" width="4.9" height="4.9"/>
      <rect class="cls-26" x="294" y="49" width="4.9" height="4.9"/>
      <rect class="cls-5" x="289.1" y="49" width="4.9" height="4.9"/>
      <rect class="cls-26" x="284.2" y="49" width="4.9" height="4.9"/>
      <rect class="cls-5" x="279.3" y="49" width="4.9" height="4.9"/>
      <rect class="cls-5" x="274.4" y="49" width="4.9" height="4.9"/>
      <rect class="cls-5" x="269.5" y="49" width="4.9" height="4.9"/>
      <rect class="cls-5" x="264.6" y="49" width="4.9" height="4.9"/>
      <rect class="cls-5" x="259.7" y="49" width="4.9" height="4.9"/>
      <rect class="cls-43" x="254.8" y="49" width="4.9" height="4.9"/>
      <rect class="cls-62" x="249.9" y="49" width="4.9" height="4.9"/>
      <rect class="cls-42" x="245" y="49" width="4.9" height="4.9"/>
      <rect class="cls-64" x="240.1" y="49" width="4.9" height="4.9"/>
      <rect class="cls-64" x="235.2" y="49" width="4.9" height="4.9"/>
      <rect class="cls-64" x="230.3" y="49" width="4.9" height="4.9"/>
      <rect class="cls-5" x="225.4" y="49" width="4.9" height="4.9"/>
      <rect class="cls-5" x="220.5" y="49" width="4.9" height="4.9"/>
      <rect class="cls-5" x="215.6" y="49" width="4.9" height="4.9"/>
      <rect class="cls-5" x="210.7" y="49" width="4.9" height="4.9"/>
      <rect class="cls-40" x="205.8" y="49" width="4.9" height="4.9"/>
      <rect class="cls-5" x="200.9" y="49" width="4.9" height="4.9"/>
      <rect class="cls-16" x="196" y="49" width="4.9" height="4.9"/>
      <rect class="cls-70" x="166.6" y="49" width="4.9" height="4.9"/>
      <rect class="cls-15" x="161.7" y="49" width="4.9" height="4.9"/>
      <rect class="cls-45" x="156.8" y="49" width="4.9" height="4.9"/>
      <rect class="cls-44" x="151.9" y="49" width="4.9" height="4.9"/>
      <rect class="cls-20" x="147" y="49" width="4.9" height="4.9"/>
      <rect class="cls-5" x="142.1" y="49" width="4.9" height="4.9"/>
      <rect class="cls-5" x="137.2" y="49" width="4.9" height="4.9"/>
      <rect class="cls-26" x="132.3" y="49" width="4.9" height="4.9"/>
      <rect class="cls-5" x="127.4" y="49" width="4.9" height="4.9"/>
      <rect class="cls-5" x="122.5" y="49" width="4.9" height="4.9"/>
      <rect class="cls-5" x="117.6" y="49" width="4.9" height="4.9"/>
      <rect class="cls-65" x="112.7" y="49" width="4.9" height="4.9"/>
      <rect class="cls-5" x="107.8" y="49" width="4.9" height="4.9"/>
      <rect class="cls-5" x="102.9" y="49" width="4.9" height="4.9"/>
      <rect class="cls-5" x="98" y="49" width="4.9" height="4.9"/>
      <rect class="cls-5" x="93.1" y="49" width="4.9" height="4.9"/>
      <rect class="cls-5" x="88.2" y="49" width="4.9" height="4.9"/>
      <rect class="cls-5" x="83.3" y="49" width="4.9" height="4.9"/>
      <rect class="cls-5" x="78.4" y="49" width="4.9" height="4.9"/>
      <rect class="cls-5" x="73.5" y="49" width="4.9" height="4.9"/>
      <rect class="cls-64" x="68.6" y="49" width="4.9" height="4.9"/>
      <rect class="cls-64" x="63.7" y="49" width="4.9" height="4.9"/>
      <rect class="cls-64" x="58.8" y="49" width="4.9" height="4.9"/>
      <rect class="cls-64" x="53.9" y="49" width="4.9" height="4.9"/>
      <rect class="cls-70" x="49" y="49" width="4.9" height="4.9"/>
      <rect class="cls-18" x="44.1" y="49" width="4.9" height="4.9"/>
      <rect class="cls-5" x="39.2" y="49" width="4.9" height="4.9"/>
      <rect class="cls-64" x="34.3" y="49" width="4.9" height="4.9"/>
      <rect class="cls-18" x="29.4" y="49" width="4.9" height="4.9"/>
      <rect class="cls-49" x="24.5" y="49" width="4.9" height="4.9"/>
      <rect class="cls-11" x="19.6" y="49" width="4.9" height="4.9"/>
      <rect class="cls-17" x="303.8" y="44.1" width="4.9" height="4.9"/>
      <rect class="cls-17" x="298.9" y="44.1" width="4.9" height="4.9"/>
      <rect class="cls-52" x="294" y="44.1" width="4.9" height="4.9"/>
      <rect class="cls-26" x="289.1" y="44.1" width="4.9" height="4.9"/>
      <rect class="cls-50" x="284.2" y="44.1" width="4.9" height="4.9"/>
      <rect class="cls-26" x="279.3" y="44.1" width="4.9" height="4.9"/>
      <rect class="cls-26" x="274.4" y="44.1" width="4.9" height="4.9"/>
      <rect class="cls-71" x="269.5" y="44.1" width="4.9" height="4.9"/>
      <rect class="cls-5" x="264.6" y="44.1" width="4.9" height="4.9"/>
      <rect class="cls-26" x="259.7" y="44.1" width="4.9" height="4.9"/>
      <rect class="cls-64" x="254.8" y="44.1" width="4.9" height="4.9"/>
      <rect class="cls-5" x="249.9" y="44.1" width="4.9" height="4.9"/>
      <rect class="cls-64" x="245" y="44.1" width="4.9" height="4.9"/>
      <rect class="cls-64" x="240.1" y="44.1" width="4.9" height="4.9"/>
      <rect class="cls-64" x="235.2" y="44.1" width="4.9" height="4.9"/>
      <rect class="cls-66" x="230.3" y="44.1" width="4.9" height="4.9"/>
      <rect class="cls-62" x="225.4" y="44.1" width="4.9" height="4.9"/>
      <rect class="cls-26" x="220.5" y="44.1" width="4.9" height="4.9"/>
      <rect class="cls-26" x="215.6" y="44.1" width="4.9" height="4.9"/>
      <rect class="cls-64" x="210.7" y="44.1" width="4.9" height="4.9"/>
      <rect class="cls-8" x="205.8" y="44.1" width="4.9" height="4.9"/>
      <rect class="cls-5" x="200.9" y="44.1" width="4.9" height="4.9"/>
      <rect class="cls-55" x="196" y="44.1" width="4.9" height="4.9"/>
      <rect class="cls-9" x="132.3" y="44.1" width="4.9" height="4.9"/>
      <rect class="cls-5" x="127.4" y="44.1" width="4.9" height="4.9"/>
      <rect class="cls-6" x="122.5" y="44.1" width="4.9" height="4.9"/>
      <rect class="cls-52" x="117.6" y="44.1" width="4.9" height="4.9"/>
      <rect class="cls-6" x="112.7" y="44.1" width="4.9" height="4.9"/>
      <rect class="cls-64" x="107.8" y="44.1" width="4.9" height="4.9"/>
      <rect class="cls-64" x="102.9" y="44.1" width="4.9" height="4.9"/>
      <rect class="cls-64" x="98" y="44.1" width="4.9" height="4.9"/>
      <rect class="cls-5" x="93.1" y="44.1" width="4.9" height="4.9"/>
      <rect class="cls-40" x="88.2" y="44.1" width="4.9" height="4.9"/>
      <rect class="cls-5" x="83.3" y="44.1" width="4.9" height="4.9"/>
      <rect class="cls-26" x="78.4" y="44.1" width="4.9" height="4.9"/>
      <rect class="cls-5" x="73.5" y="44.1" width="4.9" height="4.9"/>
      <rect class="cls-5" x="68.6" y="44.1" width="4.9" height="4.9"/>
      <rect class="cls-64" x="63.7" y="44.1" width="4.9" height="4.9"/>
      <rect class="cls-64" x="58.8" y="44.1" width="4.9" height="4.9"/>
      <rect class="cls-64" x="53.9" y="44.1" width="4.9" height="4.9"/>
      <rect class="cls-26" x="49" y="44.1" width="4.9" height="4.9"/>
      <rect class="cls-69" x="44.1" y="44.1" width="4.9" height="4.9"/>
      <rect class="cls-71" x="39.2" y="44.1" width="4.9" height="4.9"/>
      <rect class="cls-66" x="34.3" y="44.1" width="4.9" height="4.9"/>
      <rect class="cls-53" x="29.4" y="44.1" width="4.9" height="4.9"/>
      <rect class="cls-69" x="24.5" y="44.1" width="4.9" height="4.9"/>
      <rect class="cls-59" x="269.5" y="39.2" width="4.9" height="4.9"/>
      <rect class="cls-30" x="264.6" y="39.2" width="4.9" height="4.9"/>
      <rect class="cls-5" x="259.7" y="39.2" width="4.9" height="4.9"/>
      <rect class="cls-5" x="254.8" y="39.2" width="4.9" height="4.9"/>
      <rect class="cls-64" x="249.9" y="39.2" width="4.9" height="4.9"/>
      <rect class="cls-64" x="245" y="39.2" width="4.9" height="4.9"/>
      <rect class="cls-64" x="240.1" y="39.2" width="4.9" height="4.9"/>
      <rect class="cls-64" x="235.2" y="39.2" width="4.9" height="4.9"/>
      <rect class="cls-64" x="230.3" y="39.2" width="4.9" height="4.9"/>
      <rect class="cls-26" x="225.4" y="39.2" width="4.9" height="4.9"/>
      <rect class="cls-5" x="220.5" y="39.2" width="4.9" height="4.9"/>
      <rect class="cls-35" x="215.6" y="39.2" width="4.9" height="4.9"/>
      <rect class="cls-26" x="210.7" y="39.2" width="4.9" height="4.9"/>
      <rect class="cls-58" x="205.8" y="39.2" width="4.9" height="4.9"/>
      <rect class="cls-38" x="200.9" y="39.2" width="4.9" height="4.9"/>
      <rect class="cls-12" x="132.3" y="39.2" width="4.9" height="4.9"/>
      <rect class="cls-69" x="127.4" y="39.2" width="4.9" height="4.9"/>
      <rect class="cls-25" x="122.5" y="39.2" width="4.9" height="4.9"/>
      <rect class="cls-64" x="117.6" y="39.2" width="4.9" height="4.9"/>
      <rect class="cls-64" x="112.7" y="39.2" width="4.9" height="4.9"/>
      <rect class="cls-64" x="107.8" y="39.2" width="4.9" height="4.9"/>
      <rect class="cls-5" x="102.9" y="39.2" width="4.9" height="4.9"/>
      <rect class="cls-8" x="98" y="39.2" width="4.9" height="4.9"/>
      <rect class="cls-26" x="93.1" y="39.2" width="4.9" height="4.9"/>
      <rect class="cls-32" x="88.2" y="39.2" width="4.9" height="4.9"/>
      <rect class="cls-26" x="83.3" y="39.2" width="4.9" height="4.9"/>
      <rect class="cls-5" x="78.4" y="39.2" width="4.9" height="4.9"/>
      <rect class="cls-64" x="73.5" y="39.2" width="4.9" height="4.9"/>
      <rect class="cls-5" x="68.6" y="39.2" width="4.9" height="4.9"/>
      <rect class="cls-70" x="63.7" y="39.2" width="4.9" height="4.9"/>
      <rect class="cls-3" x="58.8" y="39.2" width="4.9" height="4.9"/>
      <rect class="cls-5" x="53.9" y="39.2" width="4.9" height="4.9"/>
      <rect class="cls-52" x="49" y="39.2" width="4.9" height="4.9"/>
      <rect class="cls-28" x="44.1" y="39.2" width="4.9" height="4.9"/>
      <rect class="cls-12" x="264.6" y="34.3" width="4.9" height="4.9"/>
      <rect class="cls-47" x="259.7" y="34.3" width="4.9" height="4.9"/>
      <rect class="cls-41" x="254.8" y="34.3" width="4.9" height="4.9"/>
      <rect class="cls-5" x="249.9" y="34.3" width="4.9" height="4.9"/>
      <rect class="cls-64" x="245" y="34.3" width="4.9" height="4.9"/>
      <rect class="cls-64" x="240.1" y="34.3" width="4.9" height="4.9"/>
      <rect class="cls-64" x="235.2" y="34.3" width="4.9" height="4.9"/>
      <rect class="cls-64" x="230.3" y="34.3" width="4.9" height="4.9"/>
      <rect class="cls-64" x="225.4" y="34.3" width="4.9" height="4.9"/>
      <rect class="cls-26" x="220.5" y="34.3" width="4.9" height="4.9"/>
      <rect class="cls-26" x="215.6" y="34.3" width="4.9" height="4.9"/>
      <rect class="cls-5" x="210.7" y="34.3" width="4.9" height="4.9"/>
      <rect class="cls-69" x="205.8" y="34.3" width="4.9" height="4.9"/>
      <rect class="cls-4" x="127.4" y="34.3" width="4.9" height="4.9"/>
      <rect class="cls-5" x="122.5" y="34.3" width="4.9" height="4.9"/>
      <rect class="cls-64" x="117.6" y="34.3" width="4.9" height="4.9"/>
      <rect class="cls-64" x="112.7" y="34.3" width="4.9" height="4.9"/>
      <rect class="cls-64" x="107.8" y="34.3" width="4.9" height="4.9"/>
      <rect class="cls-5" x="102.9" y="34.3" width="4.9" height="4.9"/>
      <rect class="cls-5" x="98" y="34.3" width="4.9" height="4.9"/>
      <rect class="cls-15" x="93.1" y="34.3" width="4.9" height="4.9"/>
      <rect class="cls-26" x="88.2" y="34.3" width="4.9" height="4.9"/>
      <rect class="cls-5" x="83.3" y="34.3" width="4.9" height="4.9"/>
      <rect class="cls-5" x="78.4" y="34.3" width="4.9" height="4.9"/>
      <rect class="cls-64" x="73.5" y="34.3" width="4.9" height="4.9"/>
      <rect class="cls-5" x="68.6" y="34.3" width="4.9" height="4.9"/>
      <rect class="cls-38" x="63.7" y="34.3" width="4.9" height="4.9"/>
      <rect class="cls-35" x="58.8" y="34.3" width="4.9" height="4.9"/>
      <rect class="cls-67" x="53.9" y="34.3" width="4.9" height="4.9"/>
      <rect class="cls-4" x="49" y="34.3" width="4.9" height="4.9"/>
      <rect class="cls-33" x="249.9" y="29.4" width="4.9" height="4.9"/>
      <rect class="cls-3" x="245" y="29.4" width="4.9" height="4.9"/>
      <rect class="cls-71" x="240.1" y="29.4" width="4.9" height="4.9"/>
      <rect class="cls-64" x="235.2" y="29.4" width="4.9" height="4.9"/>
      <rect class="cls-64" x="230.3" y="29.4" width="4.9" height="4.9"/>
      <rect class="cls-64" x="225.4" y="29.4" width="4.9" height="4.9"/>
      <rect class="cls-5" x="220.5" y="29.4" width="4.9" height="4.9"/>
      <rect class="cls-57" x="215.6" y="29.4" width="4.9" height="4.9"/>
      <rect class="cls-5" x="210.7" y="29.4" width="4.9" height="4.9"/>
      <rect class="cls-14" x="205.8" y="29.4" width="4.9" height="4.9"/>
      <rect class="cls-27" x="122.5" y="29.4" width="4.9" height="4.9"/>
      <rect class="cls-5" x="117.6" y="29.4" width="4.9" height="4.9"/>
      <rect class="cls-64" x="112.7" y="29.4" width="4.9" height="4.9"/>
      <rect class="cls-64" x="107.8" y="29.4" width="4.9" height="4.9"/>
      <rect class="cls-64" x="102.9" y="29.4" width="4.9" height="4.9"/>
      <rect class="cls-64" x="98" y="29.4" width="4.9" height="4.9"/>
      <rect class="cls-64" x="93.1" y="29.4" width="4.9" height="4.9"/>
      <rect class="cls-64" x="88.2" y="29.4" width="4.9" height="4.9"/>
      <rect class="cls-64" x="83.3" y="29.4" width="4.9" height="4.9"/>
      <rect class="cls-64" x="78.4" y="29.4" width="4.9" height="4.9"/>
      <rect class="cls-64" x="73.5" y="29.4" width="4.9" height="4.9"/>
      <rect class="cls-5" x="68.6" y="29.4" width="4.9" height="4.9"/>
      <rect class="cls-24" x="63.7" y="29.4" width="4.9" height="4.9"/>
      <rect class="cls-26" x="240.1" y="24.5" width="4.9" height="4.9"/>
      <rect class="cls-64" x="235.2" y="24.5" width="4.9" height="4.9"/>
      <rect class="cls-64" x="230.3" y="24.5" width="4.9" height="4.9"/>
      <rect class="cls-64" x="225.4" y="24.5" width="4.9" height="4.9"/>
      <rect class="cls-26" x="220.5" y="24.5" width="4.9" height="4.9"/>
      <rect class="cls-22" x="215.6" y="24.5" width="4.9" height="4.9"/>
      <rect class="cls-69" x="122.5" y="24.5" width="4.9" height="4.9"/>
      <rect class="cls-5" x="117.6" y="24.5" width="4.9" height="4.9"/>
      <rect class="cls-64" x="112.7" y="24.5" width="4.9" height="4.9"/>
      <rect class="cls-64" x="107.8" y="24.5" width="4.9" height="4.9"/>
      <rect class="cls-64" x="102.9" y="24.5" width="4.9" height="4.9"/>
      <rect class="cls-64" x="98" y="24.5" width="4.9" height="4.9"/>
      <rect class="cls-64" x="93.1" y="24.5" width="4.9" height="4.9"/>
      <rect class="cls-64" x="88.2" y="24.5" width="4.9" height="4.9"/>
      <rect class="cls-5" x="83.3" y="24.5" width="4.9" height="4.9"/>
      <rect class="cls-5" x="78.4" y="24.5" width="4.9" height="4.9"/>
      <rect class="cls-64" x="73.5" y="24.5" width="4.9" height="4.9"/>
      <rect class="cls-29" x="68.6" y="24.5" width="4.9" height="4.9"/>
      <rect class="cls-60" x="240.1" y="19.6" width="4.9" height="4.9"/>
      <rect class="cls-5" x="235.2" y="19.6" width="4.9" height="4.9"/>
      <rect class="cls-5" x="230.3" y="19.6" width="4.9" height="4.9"/>
      <rect class="cls-5" x="225.4" y="19.6" width="4.9" height="4.9"/>
      <rect class="cls-26" x="220.5" y="19.6" width="4.9" height="4.9"/>
      <rect class="cls-65" x="215.6" y="19.6" width="4.9" height="4.9"/>
      <rect class="cls-29" x="122.5" y="19.6" width="4.9" height="4.9"/>
      <rect class="cls-64" x="117.6" y="19.6" width="4.9" height="4.9"/>
      <rect class="cls-64" x="112.7" y="19.6" width="4.9" height="4.9"/>
      <rect class="cls-64" x="107.8" y="19.6" width="4.9" height="4.9"/>
      <rect class="cls-64" x="102.9" y="19.6" width="4.9" height="4.9"/>
      <rect class="cls-64" x="98" y="19.6" width="4.9" height="4.9"/>
      <rect class="cls-64" x="93.1" y="19.6" width="4.9" height="4.9"/>
      <rect class="cls-64" x="88.2" y="19.6" width="4.9" height="4.9"/>
      <rect class="cls-5" x="83.3" y="19.6" width="4.9" height="4.9"/>
      <rect class="cls-7" x="78.4" y="19.6" width="4.9" height="4.9"/>
      <rect class="cls-26" x="73.5" y="19.6" width="4.9" height="4.9"/>
      <rect class="cls-61" x="68.6" y="19.6" width="4.9" height="4.9"/>
      <rect class="cls-2" x="235.2" y="14.7" width="4.9" height="4.9"/>
      <rect class="cls-3" x="230.3" y="14.7" width="4.9" height="4.9"/>
      <rect class="cls-66" x="225.4" y="14.7" width="4.9" height="4.9"/>
      <rect class="cls-24" x="220.5" y="14.7" width="4.9" height="4.9"/>
      <rect class="cls-31" x="122.5" y="14.7" width="4.9" height="4.9"/>
      <rect class="cls-5" x="117.6" y="14.7" width="4.9" height="4.9"/>
      <rect class="cls-64" x="112.7" y="14.7" width="4.9" height="4.9"/>
      <rect class="cls-64" x="107.8" y="14.7" width="4.9" height="4.9"/>
      <rect class="cls-64" x="102.9" y="14.7" width="4.9" height="4.9"/>
      <rect class="cls-64" x="98" y="14.7" width="4.9" height="4.9"/>
      <rect class="cls-64" x="93.1" y="14.7" width="4.9" height="4.9"/>
      <rect class="cls-64" x="88.2" y="14.7" width="4.9" height="4.9"/>
      <rect class="cls-19" x="83.3" y="14.7" width="4.9" height="4.9"/>
      <rect class="cls-53" x="78.4" y="14.7" width="4.9" height="4.9"/>
      <rect class="cls-35" x="73.5" y="14.7" width="4.9" height="4.9"/>
      <rect class="cls-37" x="68.6" y="14.7" width="4.9" height="4.9"/>
      <rect class="cls-10" x="122.5" y="9.8" width="4.9" height="4.9"/>
      <rect class="cls-5" x="117.6" y="9.8" width="4.9" height="4.9"/>
      <rect class="cls-5" x="112.7" y="9.8" width="4.9" height="4.9"/>
      <rect class="cls-5" x="107.8" y="9.8" width="4.9" height="4.9"/>
      <rect class="cls-5" x="102.9" y="9.8" width="4.9" height="4.9"/>
      <rect class="cls-26" x="98" y="9.8" width="4.9" height="4.9"/>
      <rect class="cls-26" x="93.1" y="9.8" width="4.9" height="4.9"/>
      <rect class="cls-18" x="88.2" y="9.8" width="4.9" height="4.9"/>
      <rect class="cls-56" x="83.3" y="9.8" width="4.9" height="4.9"/>
      <rect class="cls-29" x="78.4" y="9.8" width="4.9" height="4.9"/>
      <rect class="cls-53" x="117.6" y="4.9" width="4.9" height="4.9"/>
      <rect class="cls-66" x="112.7" y="4.9" width="4.9" height="4.9"/>
      <rect class="cls-26" x="107.8" y="4.9" width="4.9" height="4.9"/>
      <rect class="cls-26" x="102.9" y="4.9" width="4.9" height="4.9"/>
      <rect class="cls-5" x="98" y="4.9" width="4.9" height="4.9"/>
      <rect class="cls-23" x="93.1" y="4.9" width="4.9" height="4.9"/>
      <rect class="cls-48" x="88.2" y="4.9" width="4.9" height="4.9"/>
      <rect class="cls-24" x="83.3" y="4.9" width="4.9" height="4.9"/>
      <rect class="cls-54" x="112.7" width="4.9" height="4.9"/>
      <rect class="cls-36" x="107.8" width="4.9" height="4.9"/>
      <rect class="cls-53" x="102.9" width="4.9" height="4.9"/>
      <rect class="cls-56" x="98" width="4.9" height="4.9"/>
      <rect class="cls-53" x="93.1" width="4.9" height="4.9"/>
      <rect class="cls-69" x="88.2" width="4.9" height="4.9"/>
    </g>
  </g>
</svg>