<?xml version="1.0" encoding="UTF-8"?>
<svg id="Layer_2" data-name="Layer 2" xmlns="http://www.w3.org/2000/svg" viewBox="0 0 245 112.7">
  <defs>
    <style>
      .cls-1 {
        fill: #e8eff2;
      }

      .cls-2 {
        fill: #e4ecf0;
      }

      .cls-3 {
        fill: #f8fafb;
      }

      .cls-4 {
        fill: #f5ebf4;
      }

      .cls-5 {
        fill: #fdfffc;
      }

      .cls-6 {
        fill: #f5caee;
      }

      .cls-7 {
        fill: #f3f7f8;
      }

      .cls-8 {
        fill: #edf2f5;
      }

      .cls-9 {
        fill: #f7d1f0;
      }

      .cls-10 {
        fill: #f6cff0;
      }

      .cls-11 {
        fill: #ebf1f4;
      }

      .cls-12 {
        fill: #f8f1f7;
      }

      .cls-13 {
        fill: #f2f6f8;
      }

      .cls-14 {
        fill: #fefff9;
      }

      .cls-15 {
        fill: #f8dbf3;
      }

      .cls-16 {
        fill: #f5f8fa;
      }

      .cls-17 {
        fill: #e5edf1;
      }

      .cls-18 {
        fill: #fff;
      }

      .cls-19 {
        fill: #eff4f6;
      }

      .cls-20 {
        fill: #f7eff6;
      }

      .cls-21 {
        fill: #e6edf1;
      }

      .cls-22 {
        fill: #f5c8ee;
      }

      .cls-23 {
        fill: #f7fafb;
      }

      .cls-24 {
        fill: #fcfafc;
      }

      .cls-25 {
        fill: #fae4f7;
      }

      .cls-26 {
        fill: #fbf6fa;
      }

      .cls-27 {
        fill: #f7eef5;
      }

      .cls-28 {
        fill: #eef3f6;
      }

      .cls-29 {
        fill: #fefefc;
      }

      .cls-30 {
        fill: #fefffd;
      }

      .cls-31 {
        fill: #fffefe;
      }

      .cls-32 {
        fill: #e7eef2;
      }

      .cls-33 {
        fill: #f8d9f3;
      }

      .cls-34 {
        fill: #fdfeff;
      }

      .cls-35 {
        fill: #ecf2f5;
      }

      .cls-36 {
        fill: #f4f7f9;
      }

      .cls-37 {
        fill: #f9dcf4;
      }

      .cls-38 {
        fill: #fae2f6;
      }

      .cls-39 {
        fill: #e3ebf0;
      }

      .cls-40 {
        fill: #f6cdef;
      }

      .cls-41 {
        fill: #fafcfc;
      }

      .cls-42 {
        fill: #eaf0f4;
      }

      .cls-43 {
        fill: #fbe7f7;
      }

      .cls-44 {
        fill: #fefeff;
      }

      .cls-45 {
        fill: #fbebf9;
      }

      .cls-46 {
        fill: #e3ecf0;
      }

      .cls-47 {
        fill: #f9f3f8;
      }

      .cls-48 {
        fill: #fafff6;
      }

      .cls-49 {
        fill: #fefcfe;
      }

      .cls-50 {
        fill: #f7d4f1;
      }

      .cls-51 {
        fill: #fffffd;
      }

      .cls-52 {
        fill: #fefefe;
      }

      .cls-53 {
        fill: #f9e0f5;
      }

      .cls-54 {
        fill: #fcedf9;
      }

      .cls-55 {
        fill: #eaf1f4;
      }

      .cls-56 {
        fill: #f7d5f2;
      }

      .cls-57 {
        fill: #edf3f5;
      }

      .cls-58 {
        fill: #fbf7fb;
      }

      .cls-59 {
        fill: #faf5f9;
      }

      .cls-60 {
        fill: #fdfffb;
      }

      .cls-61 {
        fill: #f6ceef;
      }

      .cls-62 {
        fill: #f6cbee;
      }

      .cls-63 {
        fill: #fcf8fb;
      }

      .cls-64 {
        fill: #feffff;
      }

      .cls-65 {
        fill: #f8d8f3;
      }

      .cls-66 {
        fill: #fbe9f8;
      }

      .cls-67 {
        fill: #e8eff3;
      }

      .cls-68 {
        fill: #fdfbfd;
      }

      .cls-69 {
        fill: #f5c7ed;
      }

      .cls-70 {
        fill: #f9ddf4;
      }
    </style>
  </defs>
  <g id="Layer_3" data-name="Layer 3">
    <g>
      <rect class="cls-6" x="240.1" y="107.8" width="4.9" height="4.9"/>
      <rect class="cls-22" x="235.2" y="107.8" width="4.9" height="4.9"/>
      <rect class="cls-6" x="230.3" y="107.8" width="4.9" height="4.9"/>
      <rect class="cls-22" x="225.4" y="107.8" width="4.9" height="4.9"/>
      <rect class="cls-22" x="220.5" y="107.8" width="4.9" height="4.9"/>
      <rect class="cls-6" x="215.6" y="107.8" width="4.9" height="4.9"/>
      <rect class="cls-62" x="210.7" y="107.8" width="4.9" height="4.9"/>
      <rect class="cls-62" x="205.8" y="107.8" width="4.9" height="4.9"/>
      <rect class="cls-62" x="200.9" y="107.8" width="4.9" height="4.9"/>
      <rect class="cls-22" x="196" y="107.8" width="4.9" height="4.9"/>
      <rect class="cls-2" x="191.1" y="107.8" width="4.9" height="4.9"/>
      <rect class="cls-62" x="186.2" y="107.8" width="4.9" height="4.9"/>
      <rect class="cls-6" x="181.3" y="107.8" width="4.9" height="4.9"/>
      <rect class="cls-6" x="176.4" y="107.8" width="4.9" height="4.9"/>
      <rect class="cls-6" x="171.5" y="107.8" width="4.9" height="4.9"/>
      <rect class="cls-6" x="166.6" y="107.8" width="4.9" height="4.9"/>
      <rect class="cls-62" x="161.7" y="107.8" width="4.9" height="4.9"/>
      <rect class="cls-62" x="156.8" y="107.8" width="4.9" height="4.9"/>
      <rect class="cls-62" x="151.9" y="107.8" width="4.9" height="4.9"/>
      <rect class="cls-62" x="147" y="107.8" width="4.9" height="4.9"/>
      <rect class="cls-22" x="142.1" y="107.8" width="4.9" height="4.9"/>
      <rect class="cls-70" x="137.2" y="107.8" width="4.9" height="4.9"/>
      <rect class="cls-52" x="132.3" y="107.8" width="4.9" height="4.9"/>
      <rect class="cls-49" x="127.4" y="107.8" width="4.9" height="4.9"/>
      <rect class="cls-52" x="122.5" y="107.8" width="4.9" height="4.9"/>
      <rect class="cls-64" x="117.6" y="107.8" width="4.9" height="4.9"/>
      <rect class="cls-18" x="112.7" y="107.8" width="4.9" height="4.9"/>
      <rect class="cls-18" x="107.8" y="107.8" width="4.9" height="4.9"/>
      <rect class="cls-18" x="102.9" y="107.8" width="4.9" height="4.9"/>
      <rect class="cls-30" x="98" y="107.8" width="4.9" height="4.9"/>
      <rect class="cls-22" x="93.1" y="107.8" width="4.9" height="4.9"/>
      <rect class="cls-62" x="88.2" y="107.8" width="4.9" height="4.9"/>
      <rect class="cls-6" x="83.3" y="107.8" width="4.9" height="4.9"/>
      <rect class="cls-6" x="78.4" y="107.8" width="4.9" height="4.9"/>
      <rect class="cls-6" x="73.5" y="107.8" width="4.9" height="4.9"/>
      <rect class="cls-6" x="68.6" y="107.8" width="4.9" height="4.9"/>
      <rect class="cls-62" x="63.7" y="107.8" width="4.9" height="4.9"/>
      <rect class="cls-62" x="58.8" y="107.8" width="4.9" height="4.9"/>
      <rect class="cls-62" x="53.9" y="107.8" width="4.9" height="4.9"/>
      <rect class="cls-62" x="49" y="107.8" width="4.9" height="4.9"/>
      <rect class="cls-62" x="44.1" y="107.8" width="4.9" height="4.9"/>
      <rect class="cls-62" x="39.2" y="107.8" width="4.9" height="4.9"/>
      <rect class="cls-62" x="34.3" y="107.8" width="4.9" height="4.9"/>
      <rect class="cls-62" x="29.4" y="107.8" width="4.9" height="4.9"/>
      <rect class="cls-62" x="24.5" y="107.8" width="4.9" height="4.9"/>
      <rect class="cls-62" x="19.6" y="107.8" width="4.9" height="4.9"/>
      <rect class="cls-62" x="14.7" y="107.8" width="4.9" height="4.9"/>
      <rect class="cls-62" x="9.8" y="107.8" width="4.9" height="4.9"/>
      <rect class="cls-62" x="4.9" y="107.8" width="4.9" height="4.9"/>
      <rect class="cls-62" y="107.8" width="4.9" height="4.9"/>
      <rect class="cls-35" x="240.1" y="102.9" width="4.9" height="4.9"/>
      <rect class="cls-63" x="235.2" y="102.9" width="4.9" height="4.9"/>
      <rect class="cls-58" x="230.3" y="102.9" width="4.9" height="4.9"/>
      <rect class="cls-20" x="225.4" y="102.9" width="4.9" height="4.9"/>
      <rect class="cls-26" x="220.5" y="102.9" width="4.9" height="4.9"/>
      <rect class="cls-22" x="215.6" y="102.9" width="4.9" height="4.9"/>
      <rect class="cls-62" x="210.7" y="102.9" width="4.9" height="4.9"/>
      <rect class="cls-62" x="205.8" y="102.9" width="4.9" height="4.9"/>
      <rect class="cls-69" x="200.9" y="102.9" width="4.9" height="4.9"/>
      <rect class="cls-22" x="196" y="102.9" width="4.9" height="4.9"/>
      <rect class="cls-22" x="191.1" y="102.9" width="4.9" height="4.9"/>
      <rect class="cls-22" x="186.2" y="102.9" width="4.9" height="4.9"/>
      <rect class="cls-62" x="181.3" y="102.9" width="4.9" height="4.9"/>
      <rect class="cls-69" x="176.4" y="102.9" width="4.9" height="4.9"/>
      <rect class="cls-61" x="171.5" y="102.9" width="4.9" height="4.9"/>
      <rect class="cls-6" x="166.6" y="102.9" width="4.9" height="4.9"/>
      <rect class="cls-62" x="161.7" y="102.9" width="4.9" height="4.9"/>
      <rect class="cls-62" x="156.8" y="102.9" width="4.9" height="4.9"/>
      <rect class="cls-62" x="151.9" y="102.9" width="4.9" height="4.9"/>
      <rect class="cls-6" x="147" y="102.9" width="4.9" height="4.9"/>
      <rect class="cls-17" x="142.1" y="102.9" width="4.9" height="4.9"/>
      <rect class="cls-56" x="137.2" y="102.9" width="4.9" height="4.9"/>
      <rect class="cls-67" x="132.3" y="102.9" width="4.9" height="4.9"/>
      <rect class="cls-22" x="127.4" y="102.9" width="4.9" height="4.9"/>
      <rect class="cls-54" x="122.5" y="102.9" width="4.9" height="4.9"/>
      <rect class="cls-29" x="117.6" y="102.9" width="4.9" height="4.9"/>
      <rect class="cls-18" x="112.7" y="102.9" width="4.9" height="4.9"/>
      <rect class="cls-18" x="107.8" y="102.9" width="4.9" height="4.9"/>
      <rect class="cls-18" x="102.9" y="102.9" width="4.9" height="4.9"/>
      <rect class="cls-34" x="98" y="102.9" width="4.9" height="4.9"/>
      <rect class="cls-70" x="93.1" y="102.9" width="4.9" height="4.9"/>
      <rect class="cls-22" x="88.2" y="102.9" width="4.9" height="4.9"/>
      <rect class="cls-69" x="83.3" y="102.9" width="4.9" height="4.9"/>
      <rect class="cls-38" x="78.4" y="102.9" width="4.9" height="4.9"/>
      <rect class="cls-6" x="73.5" y="102.9" width="4.9" height="4.9"/>
      <rect class="cls-62" x="68.6" y="102.9" width="4.9" height="4.9"/>
      <rect class="cls-62" x="63.7" y="102.9" width="4.9" height="4.9"/>
      <rect class="cls-62" x="58.8" y="102.9" width="4.9" height="4.9"/>
      <rect class="cls-62" x="53.9" y="102.9" width="4.9" height="4.9"/>
      <rect class="cls-62" x="49" y="102.9" width="4.9" height="4.9"/>
      <rect class="cls-62" x="44.1" y="102.9" width="4.9" height="4.9"/>
      <rect class="cls-62" x="39.2" y="102.9" width="4.9" height="4.9"/>
      <rect class="cls-62" x="34.3" y="102.9" width="4.9" height="4.9"/>
      <rect class="cls-62" x="29.4" y="102.9" width="4.9" height="4.9"/>
      <rect class="cls-62" x="24.5" y="102.9" width="4.9" height="4.9"/>
      <rect class="cls-62" x="19.6" y="102.9" width="4.9" height="4.9"/>
      <rect class="cls-62" x="14.7" y="102.9" width="4.9" height="4.9"/>
      <rect class="cls-62" x="9.8" y="102.9" width="4.9" height="4.9"/>
      <rect class="cls-62" x="4.9" y="102.9" width="4.9" height="4.9"/>
      <rect class="cls-62" y="102.9" width="4.9" height="4.9"/>
      <rect class="cls-6" x="240.1" y="98" width="4.9" height="4.9"/>
      <rect class="cls-62" x="235.2" y="98" width="4.9" height="4.9"/>
      <rect class="cls-62" x="230.3" y="98" width="4.9" height="4.9"/>
      <rect class="cls-6" x="225.4" y="98" width="4.9" height="4.9"/>
      <rect class="cls-62" x="220.5" y="98" width="4.9" height="4.9"/>
      <rect class="cls-9" x="215.6" y="98" width="4.9" height="4.9"/>
      <rect class="cls-63" x="210.7" y="98" width="4.9" height="4.9"/>
      <rect class="cls-68" x="205.8" y="98" width="4.9" height="4.9"/>
      <rect class="cls-26" x="200.9" y="98" width="4.9" height="4.9"/>
      <rect class="cls-28" x="196" y="98" width="4.9" height="4.9"/>
      <rect class="cls-49" x="191.1" y="98" width="4.9" height="4.9"/>
      <rect class="cls-49" x="186.2" y="98" width="4.9" height="4.9"/>
      <rect class="cls-52" x="181.3" y="98" width="4.9" height="4.9"/>
      <rect class="cls-31" x="176.4" y="98" width="4.9" height="4.9"/>
      <rect class="cls-24" x="171.5" y="98" width="4.9" height="4.9"/>
      <rect class="cls-6" x="166.6" y="98" width="4.9" height="4.9"/>
      <rect class="cls-62" x="161.7" y="98" width="4.9" height="4.9"/>
      <rect class="cls-62" x="156.8" y="98" width="4.9" height="4.9"/>
      <rect class="cls-62" x="151.9" y="98" width="4.9" height="4.9"/>
      <rect class="cls-62" x="147" y="98" width="4.9" height="4.9"/>
      <rect class="cls-62" x="142.1" y="98" width="4.9" height="4.9"/>
      <rect class="cls-62" x="137.2" y="98" width="4.9" height="4.9"/>
      <rect class="cls-62" x="132.3" y="98" width="4.9" height="4.9"/>
      <rect class="cls-62" x="127.4" y="98" width="4.9" height="4.9"/>
      <rect class="cls-62" x="122.5" y="98" width="4.9" height="4.9"/>
      <rect class="cls-22" x="117.6" y="98" width="4.9" height="4.9"/>
      <rect class="cls-65" x="112.7" y="98" width="4.9" height="4.9"/>
      <rect class="cls-70" x="107.8" y="98" width="4.9" height="4.9"/>
      <rect class="cls-6" x="102.9" y="98" width="4.9" height="4.9"/>
      <rect class="cls-22" x="98" y="98" width="4.9" height="4.9"/>
      <rect class="cls-6" x="93.1" y="98" width="4.9" height="4.9"/>
      <rect class="cls-10" x="88.2" y="98" width="4.9" height="4.9"/>
      <rect class="cls-22" x="83.3" y="98" width="4.9" height="4.9"/>
      <rect class="cls-37" x="78.4" y="98" width="4.9" height="4.9"/>
      <rect class="cls-61" x="73.5" y="98" width="4.9" height="4.9"/>
      <rect class="cls-6" x="68.6" y="98" width="4.9" height="4.9"/>
      <rect class="cls-62" x="63.7" y="98" width="4.9" height="4.9"/>
      <rect class="cls-62" x="58.8" y="98" width="4.9" height="4.9"/>
      <rect class="cls-62" x="53.9" y="98" width="4.9" height="4.9"/>
      <rect class="cls-62" x="49" y="98" width="4.9" height="4.9"/>
      <rect class="cls-62" x="44.1" y="98" width="4.9" height="4.9"/>
      <rect class="cls-62" x="39.2" y="98" width="4.9" height="4.9"/>
      <rect class="cls-62" x="34.3" y="98" width="4.9" height="4.9"/>
      <rect class="cls-62" x="29.4" y="98" width="4.9" height="4.9"/>
      <rect class="cls-62" x="24.5" y="98" width="4.9" height="4.9"/>
      <rect class="cls-62" x="19.6" y="98" width="4.9" height="4.9"/>
      <rect class="cls-62" x="14.7" y="98" width="4.9" height="4.9"/>
      <rect class="cls-62" x="9.8" y="98" width="4.9" height="4.9"/>
      <rect class="cls-62" x="4.9" y="98" width="4.9" height="4.9"/>
      <rect class="cls-62" y="98" width="4.9" height="4.9"/>
      <rect class="cls-58" x="240.1" y="93.1" width="4.9" height="4.9"/>
      <rect class="cls-10" x="235.2" y="93.1" width="4.9" height="4.9"/>
      <rect class="cls-61" x="230.3" y="93.1" width="4.9" height="4.9"/>
      <rect class="cls-45" x="225.4" y="93.1" width="4.9" height="4.9"/>
      <rect class="cls-6" x="220.5" y="93.1" width="4.9" height="4.9"/>
      <rect class="cls-22" x="215.6" y="93.1" width="4.9" height="4.9"/>
      <rect class="cls-6" x="210.7" y="93.1" width="4.9" height="4.9"/>
      <rect class="cls-6" x="205.8" y="93.1" width="4.9" height="4.9"/>
      <rect class="cls-6" x="200.9" y="93.1" width="4.9" height="4.9"/>
      <rect class="cls-6" x="196" y="93.1" width="4.9" height="4.9"/>
      <rect class="cls-6" x="191.1" y="93.1" width="4.9" height="4.9"/>
      <rect class="cls-9" x="186.2" y="93.1" width="4.9" height="4.9"/>
      <rect class="cls-22" x="181.3" y="93.1" width="4.9" height="4.9"/>
      <rect class="cls-24" x="176.4" y="93.1" width="4.9" height="4.9"/>
      <rect class="cls-64" x="171.5" y="93.1" width="4.9" height="4.9"/>
      <rect class="cls-63" x="166.6" y="93.1" width="4.9" height="4.9"/>
      <rect class="cls-69" x="161.7" y="93.1" width="4.9" height="4.9"/>
      <rect class="cls-62" x="156.8" y="93.1" width="4.9" height="4.9"/>
      <rect class="cls-62" x="151.9" y="93.1" width="4.9" height="4.9"/>
      <rect class="cls-62" x="147" y="93.1" width="4.9" height="4.9"/>
      <rect class="cls-62" x="142.1" y="93.1" width="4.9" height="4.9"/>
      <rect class="cls-62" x="137.2" y="93.1" width="4.9" height="4.9"/>
      <rect class="cls-62" x="132.3" y="93.1" width="4.9" height="4.9"/>
      <rect class="cls-6" x="127.4" y="93.1" width="4.9" height="4.9"/>
      <rect class="cls-62" x="122.5" y="93.1" width="4.9" height="4.9"/>
      <rect class="cls-62" x="117.6" y="93.1" width="4.9" height="4.9"/>
      <rect class="cls-6" x="112.7" y="93.1" width="4.9" height="4.9"/>
      <rect class="cls-6" x="107.8" y="93.1" width="4.9" height="4.9"/>
      <rect class="cls-6" x="102.9" y="93.1" width="4.9" height="4.9"/>
      <rect class="cls-62" x="98" y="93.1" width="4.9" height="4.9"/>
      <rect class="cls-6" x="93.1" y="93.1" width="4.9" height="4.9"/>
      <rect class="cls-6" x="88.2" y="93.1" width="4.9" height="4.9"/>
      <rect class="cls-6" x="83.3" y="93.1" width="4.9" height="4.9"/>
      <rect class="cls-6" x="78.4" y="93.1" width="4.9" height="4.9"/>
      <rect class="cls-49" x="73.5" y="93.1" width="4.9" height="4.9"/>
      <rect class="cls-62" x="68.6" y="93.1" width="4.9" height="4.9"/>
      <rect class="cls-62" x="63.7" y="93.1" width="4.9" height="4.9"/>
      <rect class="cls-6" x="58.8" y="93.1" width="4.9" height="4.9"/>
      <rect class="cls-6" x="53.9" y="93.1" width="4.9" height="4.9"/>
      <rect class="cls-62" x="49" y="93.1" width="4.9" height="4.9"/>
      <rect class="cls-62" x="44.1" y="93.1" width="4.9" height="4.9"/>
      <rect class="cls-62" x="39.2" y="93.1" width="4.9" height="4.9"/>
      <rect class="cls-62" x="34.3" y="93.1" width="4.9" height="4.9"/>
      <rect class="cls-62" x="29.4" y="93.1" width="4.9" height="4.9"/>
      <rect class="cls-62" x="24.5" y="93.1" width="4.9" height="4.9"/>
      <rect class="cls-62" x="19.6" y="93.1" width="4.9" height="4.9"/>
      <rect class="cls-62" x="14.7" y="93.1" width="4.9" height="4.9"/>
      <rect class="cls-6" x="9.8" y="93.1" width="4.9" height="4.9"/>
      <rect class="cls-6" x="4.9" y="93.1" width="4.9" height="4.9"/>
      <rect class="cls-62" y="93.1" width="4.9" height="4.9"/>
      <rect class="cls-68" x="220.5" y="88.2" width="4.9" height="4.9"/>
      <rect class="cls-19" x="215.6" y="88.2" width="4.9" height="4.9"/>
      <rect class="cls-6" x="210.7" y="88.2" width="4.9" height="4.9"/>
      <rect class="cls-6" x="205.8" y="88.2" width="4.9" height="4.9"/>
      <rect class="cls-43" x="200.9" y="88.2" width="4.9" height="4.9"/>
      <rect class="cls-35" x="196" y="88.2" width="4.9" height="4.9"/>
      <rect class="cls-6" x="191.1" y="88.2" width="4.9" height="4.9"/>
      <rect class="cls-62" x="186.2" y="88.2" width="4.9" height="4.9"/>
      <rect class="cls-6" x="181.3" y="88.2" width="4.9" height="4.9"/>
      <rect class="cls-6" x="176.4" y="88.2" width="4.9" height="4.9"/>
      <rect class="cls-56" x="171.5" y="88.2" width="4.9" height="4.9"/>
      <rect class="cls-68" x="166.6" y="88.2" width="4.9" height="4.9"/>
      <rect class="cls-52" x="161.7" y="88.2" width="4.9" height="4.9"/>
      <rect class="cls-49" x="156.8" y="88.2" width="4.9" height="4.9"/>
      <rect class="cls-58" x="151.9" y="88.2" width="4.9" height="4.9"/>
      <rect class="cls-62" x="147" y="88.2" width="4.9" height="4.9"/>
      <rect class="cls-69" x="142.1" y="88.2" width="4.9" height="4.9"/>
      <rect class="cls-62" x="137.2" y="88.2" width="4.9" height="4.9"/>
      <rect class="cls-56" x="132.3" y="88.2" width="4.9" height="4.9"/>
      <rect class="cls-49" x="127.4" y="88.2" width="4.9" height="4.9"/>
      <rect class="cls-49" x="122.5" y="88.2" width="4.9" height="4.9"/>
      <rect class="cls-49" x="117.6" y="88.2" width="4.9" height="4.9"/>
      <rect class="cls-58" x="112.7" y="88.2" width="4.9" height="4.9"/>
      <rect class="cls-58" x="107.8" y="88.2" width="4.9" height="4.9"/>
      <rect class="cls-69" x="102.9" y="88.2" width="4.9" height="4.9"/>
      <rect class="cls-62" x="98" y="88.2" width="4.9" height="4.9"/>
      <rect class="cls-62" x="93.1" y="88.2" width="4.9" height="4.9"/>
      <rect class="cls-62" x="88.2" y="88.2" width="4.9" height="4.9"/>
      <rect class="cls-62" x="83.3" y="88.2" width="4.9" height="4.9"/>
      <rect class="cls-62" x="78.4" y="88.2" width="4.9" height="4.9"/>
      <rect class="cls-69" x="73.5" y="88.2" width="4.9" height="4.9"/>
      <rect class="cls-47" x="68.6" y="88.2" width="4.9" height="4.9"/>
      <rect class="cls-44" x="63.7" y="88.2" width="4.9" height="4.9"/>
      <rect class="cls-52" x="58.8" y="88.2" width="4.9" height="4.9"/>
      <rect class="cls-68" x="53.9" y="88.2" width="4.9" height="4.9"/>
      <rect class="cls-6" x="49" y="88.2" width="4.9" height="4.9"/>
      <rect class="cls-62" x="44.1" y="88.2" width="4.9" height="4.9"/>
      <rect class="cls-62" x="39.2" y="88.2" width="4.9" height="4.9"/>
      <rect class="cls-62" x="34.3" y="88.2" width="4.9" height="4.9"/>
      <rect class="cls-62" x="29.4" y="88.2" width="4.9" height="4.9"/>
      <rect class="cls-62" x="24.5" y="88.2" width="4.9" height="4.9"/>
      <rect class="cls-62" x="19.6" y="88.2" width="4.9" height="4.9"/>
      <rect class="cls-62" x="14.7" y="88.2" width="4.9" height="4.9"/>
      <rect class="cls-22" x="9.8" y="88.2" width="4.9" height="4.9"/>
      <rect class="cls-63" x="4.9" y="88.2" width="4.9" height="4.9"/>
      <rect class="cls-61" y="88.2" width="4.9" height="4.9"/>
      <rect class="cls-55" x="210.7" y="83.3" width="4.9" height="4.9"/>
      <rect class="cls-21" x="205.8" y="83.3" width="4.9" height="4.9"/>
      <rect class="cls-63" x="196" y="83.3" width="4.9" height="4.9"/>
      <rect class="cls-6" x="191.1" y="83.3" width="4.9" height="4.9"/>
      <rect class="cls-22" x="186.2" y="83.3" width="4.9" height="4.9"/>
      <rect class="cls-22" x="181.3" y="83.3" width="4.9" height="4.9"/>
      <rect class="cls-22" x="176.4" y="83.3" width="4.9" height="4.9"/>
      <rect class="cls-22" x="171.5" y="83.3" width="4.9" height="4.9"/>
      <rect class="cls-22" x="166.6" y="83.3" width="4.9" height="4.9"/>
      <rect class="cls-6" x="161.7" y="83.3" width="4.9" height="4.9"/>
      <rect class="cls-50" x="156.8" y="83.3" width="4.9" height="4.9"/>
      <rect class="cls-70" x="151.9" y="83.3" width="4.9" height="4.9"/>
      <rect class="cls-47" x="147" y="83.3" width="4.9" height="4.9"/>
      <rect class="cls-59" x="142.1" y="83.3" width="4.9" height="4.9"/>
      <rect class="cls-47" x="137.2" y="83.3" width="4.9" height="4.9"/>
      <rect class="cls-70" x="132.3" y="83.3" width="4.9" height="4.9"/>
      <rect class="cls-62" x="127.4" y="83.3" width="4.9" height="4.9"/>
      <rect class="cls-6" x="122.5" y="83.3" width="4.9" height="4.9"/>
      <rect class="cls-70" x="117.6" y="83.3" width="4.9" height="4.9"/>
      <rect class="cls-51" x="112.7" y="83.3" width="4.9" height="4.9"/>
      <rect class="cls-5" x="107.8" y="83.3" width="4.9" height="4.9"/>
      <rect class="cls-4" x="102.9" y="83.3" width="4.9" height="4.9"/>
      <rect class="cls-22" x="98" y="83.3" width="4.9" height="4.9"/>
      <rect class="cls-22" x="93.1" y="83.3" width="4.9" height="4.9"/>
      <rect class="cls-6" x="88.2" y="83.3" width="4.9" height="4.9"/>
      <rect class="cls-10" x="83.3" y="83.3" width="4.9" height="4.9"/>
      <rect class="cls-6" x="78.4" y="83.3" width="4.9" height="4.9"/>
      <rect class="cls-6" x="73.5" y="83.3" width="4.9" height="4.9"/>
      <rect class="cls-6" x="68.6" y="83.3" width="4.9" height="4.9"/>
      <rect class="cls-6" x="63.7" y="83.3" width="4.9" height="4.9"/>
      <rect class="cls-22" x="58.8" y="83.3" width="4.9" height="4.9"/>
      <rect class="cls-26" x="53.9" y="83.3" width="4.9" height="4.9"/>
      <rect class="cls-6" x="49" y="83.3" width="4.9" height="4.9"/>
      <rect class="cls-69" x="44.1" y="83.3" width="4.9" height="4.9"/>
      <rect class="cls-6" x="39.2" y="83.3" width="4.9" height="4.9"/>
      <rect class="cls-22" x="34.3" y="83.3" width="4.9" height="4.9"/>
      <rect class="cls-6" x="29.4" y="83.3" width="4.9" height="4.9"/>
      <rect class="cls-22" x="24.5" y="83.3" width="4.9" height="4.9"/>
      <rect class="cls-2" x="19.6" y="83.3" width="4.9" height="4.9"/>
      <rect class="cls-22" x="14.7" y="83.3" width="4.9" height="4.9"/>
      <rect class="cls-49" x="9.8" y="83.3" width="4.9" height="4.9"/>
      <rect class="cls-27" x="4.9" y="83.3" width="4.9" height="4.9"/>
      <rect class="cls-68" y="83.3" width="4.9" height="4.9"/>
      <rect class="cls-59" x="191.1" y="78.4" width="4.9" height="4.9"/>
      <rect class="cls-1" x="186.2" y="78.4" width="4.9" height="4.9"/>
      <rect class="cls-6" x="181.3" y="78.4" width="4.9" height="4.9"/>
      <rect class="cls-69" x="176.4" y="78.4" width="4.9" height="4.9"/>
      <rect class="cls-63" x="171.5" y="78.4" width="4.9" height="4.9"/>
      <rect class="cls-24" x="166.6" y="78.4" width="4.9" height="4.9"/>
      <rect class="cls-6" x="161.7" y="78.4" width="4.9" height="4.9"/>
      <rect class="cls-6" x="156.8" y="78.4" width="4.9" height="4.9"/>
      <rect class="cls-6" x="151.9" y="78.4" width="4.9" height="4.9"/>
      <rect class="cls-6" x="147" y="78.4" width="4.9" height="4.9"/>
      <rect class="cls-6" x="142.1" y="78.4" width="4.9" height="4.9"/>
      <rect class="cls-6" x="137.2" y="78.4" width="4.9" height="4.9"/>
      <rect class="cls-6" x="132.3" y="78.4" width="4.9" height="4.9"/>
      <rect class="cls-6" x="127.4" y="78.4" width="4.9" height="4.9"/>
      <rect class="cls-62" x="122.5" y="78.4" width="4.9" height="4.9"/>
      <rect class="cls-62" x="117.6" y="78.4" width="4.9" height="4.9"/>
      <rect class="cls-38" x="112.7" y="78.4" width="4.9" height="4.9"/>
      <rect class="cls-68" x="107.8" y="78.4" width="4.9" height="4.9"/>
      <rect class="cls-52" x="102.9" y="78.4" width="4.9" height="4.9"/>
      <rect class="cls-52" x="98" y="78.4" width="4.9" height="4.9"/>
      <rect class="cls-47" x="93.1" y="78.4" width="4.9" height="4.9"/>
      <rect class="cls-59" x="88.2" y="78.4" width="4.9" height="4.9"/>
      <rect class="cls-22" x="83.3" y="78.4" width="4.9" height="4.9"/>
      <rect class="cls-22" x="78.4" y="78.4" width="4.9" height="4.9"/>
      <rect class="cls-62" x="73.5" y="78.4" width="4.9" height="4.9"/>
      <rect class="cls-62" x="68.6" y="78.4" width="4.9" height="4.9"/>
      <rect class="cls-62" x="63.7" y="78.4" width="4.9" height="4.9"/>
      <rect class="cls-6" x="58.8" y="78.4" width="4.9" height="4.9"/>
      <rect class="cls-15" x="53.9" y="78.4" width="4.9" height="4.9"/>
      <rect class="cls-49" x="49" y="78.4" width="4.9" height="4.9"/>
      <rect class="cls-68" x="44.1" y="78.4" width="4.9" height="4.9"/>
      <rect class="cls-62" x="39.2" y="78.4" width="4.9" height="4.9"/>
      <rect class="cls-6" x="34.3" y="78.4" width="4.9" height="4.9"/>
      <rect class="cls-57" x="29.4" y="78.4" width="4.9" height="4.9"/>
      <rect class="cls-22" x="24.5" y="78.4" width="4.9" height="4.9"/>
      <rect class="cls-69" x="19.6" y="78.4" width="4.9" height="4.9"/>
      <rect class="cls-68" x="14.7" y="78.4" width="4.9" height="4.9"/>
      <rect class="cls-40" x="9.8" y="78.4" width="4.9" height="4.9"/>
      <rect class="cls-6" x="4.9" y="78.4" width="4.9" height="4.9"/>
      <rect class="cls-6" y="78.4" width="4.9" height="4.9"/>
      <rect class="cls-24" x="156.8" y="73.5" width="4.9" height="4.9"/>
      <rect class="cls-36" x="151.9" y="73.5" width="4.9" height="4.9"/>
      <rect class="cls-6" x="147" y="73.5" width="4.9" height="4.9"/>
      <rect class="cls-22" x="142.1" y="73.5" width="4.9" height="4.9"/>
      <rect class="cls-22" x="137.2" y="73.5" width="4.9" height="4.9"/>
      <rect class="cls-22" x="132.3" y="73.5" width="4.9" height="4.9"/>
      <rect class="cls-22" x="127.4" y="73.5" width="4.9" height="4.9"/>
      <rect class="cls-61" x="122.5" y="73.5" width="4.9" height="4.9"/>
      <rect class="cls-6" x="117.6" y="73.5" width="4.9" height="4.9"/>
      <rect class="cls-62" x="112.7" y="73.5" width="4.9" height="4.9"/>
      <rect class="cls-62" x="107.8" y="73.5" width="4.9" height="4.9"/>
      <rect class="cls-62" x="102.9" y="73.5" width="4.9" height="4.9"/>
      <rect class="cls-62" x="98" y="73.5" width="4.9" height="4.9"/>
      <rect class="cls-6" x="93.1" y="73.5" width="4.9" height="4.9"/>
      <rect class="cls-6" x="88.2" y="73.5" width="4.9" height="4.9"/>
      <rect class="cls-24" x="83.3" y="73.5" width="4.9" height="4.9"/>
      <rect class="cls-49" x="78.4" y="73.5" width="4.9" height="4.9"/>
      <rect class="cls-13" x="73.5" y="73.5" width="4.9" height="4.9"/>
      <rect class="cls-6" x="68.6" y="73.5" width="4.9" height="4.9"/>
      <rect class="cls-62" x="63.7" y="73.5" width="4.9" height="4.9"/>
      <rect class="cls-62" x="58.8" y="73.5" width="4.9" height="4.9"/>
      <rect class="cls-62" x="53.9" y="73.5" width="4.9" height="4.9"/>
      <rect class="cls-62" x="49" y="73.5" width="4.9" height="4.9"/>
      <rect class="cls-22" x="44.1" y="73.5" width="4.9" height="4.9"/>
      <rect class="cls-52" x="39.2" y="73.5" width="4.9" height="4.9"/>
      <rect class="cls-12" x="34.3" y="73.5" width="4.9" height="4.9"/>
      <rect class="cls-6" x="29.4" y="73.5" width="4.9" height="4.9"/>
      <rect class="cls-66" x="24.5" y="73.5" width="4.9" height="4.9"/>
      <rect class="cls-24" x="19.6" y="73.5" width="4.9" height="4.9"/>
      <rect class="cls-62" x="14.7" y="73.5" width="4.9" height="4.9"/>
      <rect class="cls-62" x="9.8" y="73.5" width="4.9" height="4.9"/>
      <rect class="cls-62" x="4.9" y="73.5" width="4.9" height="4.9"/>
      <rect class="cls-62" y="73.5" width="4.9" height="4.9"/>
      <rect class="cls-39" x="142.1" y="68.6" width="4.9" height="4.9"/>
      <rect class="cls-49" x="127.4" y="68.6" width="4.9" height="4.9"/>
      <rect class="cls-17" x="122.5" y="68.6" width="4.9" height="4.9"/>
      <rect class="cls-6" x="117.6" y="68.6" width="4.9" height="4.9"/>
      <rect class="cls-62" x="112.7" y="68.6" width="4.9" height="4.9"/>
      <rect class="cls-62" x="107.8" y="68.6" width="4.9" height="4.9"/>
      <rect class="cls-62" x="102.9" y="68.6" width="4.9" height="4.9"/>
      <rect class="cls-62" x="98" y="68.6" width="4.9" height="4.9"/>
      <rect class="cls-6" x="93.1" y="68.6" width="4.9" height="4.9"/>
      <rect class="cls-6" x="88.2" y="68.6" width="4.9" height="4.9"/>
      <rect class="cls-6" x="83.3" y="68.6" width="4.9" height="4.9"/>
      <rect class="cls-6" x="78.4" y="68.6" width="4.9" height="4.9"/>
      <rect class="cls-52" x="73.5" y="68.6" width="4.9" height="4.9"/>
      <rect class="cls-62" x="68.6" y="68.6" width="4.9" height="4.9"/>
      <rect class="cls-62" x="63.7" y="68.6" width="4.9" height="4.9"/>
      <rect class="cls-62" x="58.8" y="68.6" width="4.9" height="4.9"/>
      <rect class="cls-62" x="53.9" y="68.6" width="4.9" height="4.9"/>
      <rect class="cls-62" x="49" y="68.6" width="4.9" height="4.9"/>
      <rect class="cls-6" x="44.1" y="68.6" width="4.9" height="4.9"/>
      <rect class="cls-6" x="39.2" y="68.6" width="4.9" height="4.9"/>
      <rect class="cls-62" x="34.3" y="68.6" width="4.9" height="4.9"/>
      <rect class="cls-22" x="29.4" y="68.6" width="4.9" height="4.9"/>
      <rect class="cls-22" x="24.5" y="68.6" width="4.9" height="4.9"/>
      <rect class="cls-6" x="19.6" y="68.6" width="4.9" height="4.9"/>
      <rect class="cls-6" x="14.7" y="68.6" width="4.9" height="4.9"/>
      <rect class="cls-62" x="9.8" y="68.6" width="4.9" height="4.9"/>
      <rect class="cls-62" x="4.9" y="68.6" width="4.9" height="4.9"/>
      <rect class="cls-62" y="68.6" width="4.9" height="4.9"/>
      <rect class="cls-13" x="127.4" y="63.7" width="4.9" height="4.9"/>
      <rect class="cls-20" x="122.5" y="63.7" width="4.9" height="4.9"/>
      <rect class="cls-6" x="117.6" y="63.7" width="4.9" height="4.9"/>
      <rect class="cls-62" x="112.7" y="63.7" width="4.9" height="4.9"/>
      <rect class="cls-22" x="107.8" y="63.7" width="4.9" height="4.9"/>
      <rect class="cls-10" x="102.9" y="63.7" width="4.9" height="4.9"/>
      <rect class="cls-62" x="98" y="63.7" width="4.9" height="4.9"/>
      <rect class="cls-62" x="93.1" y="63.7" width="4.9" height="4.9"/>
      <rect class="cls-62" x="88.2" y="63.7" width="4.9" height="4.9"/>
      <rect class="cls-62" x="83.3" y="63.7" width="4.9" height="4.9"/>
      <rect class="cls-10" x="78.4" y="63.7" width="4.9" height="4.9"/>
      <rect class="cls-44" x="73.5" y="63.7" width="4.9" height="4.9"/>
      <rect class="cls-6" x="68.6" y="63.7" width="4.9" height="4.9"/>
      <rect class="cls-62" x="63.7" y="63.7" width="4.9" height="4.9"/>
      <rect class="cls-62" x="58.8" y="63.7" width="4.9" height="4.9"/>
      <rect class="cls-62" x="53.9" y="63.7" width="4.9" height="4.9"/>
      <rect class="cls-62" x="49" y="63.7" width="4.9" height="4.9"/>
      <rect class="cls-62" x="44.1" y="63.7" width="4.9" height="4.9"/>
      <rect class="cls-62" x="39.2" y="63.7" width="4.9" height="4.9"/>
      <rect class="cls-22" x="34.3" y="63.7" width="4.9" height="4.9"/>
      <rect class="cls-40" x="29.4" y="63.7" width="4.9" height="4.9"/>
      <rect class="cls-62" x="24.5" y="63.7" width="4.9" height="4.9"/>
      <rect class="cls-62" x="19.6" y="63.7" width="4.9" height="4.9"/>
      <rect class="cls-62" x="14.7" y="63.7" width="4.9" height="4.9"/>
      <rect class="cls-62" x="9.8" y="63.7" width="4.9" height="4.9"/>
      <rect class="cls-62" x="4.9" y="63.7" width="4.9" height="4.9"/>
      <rect class="cls-62" y="63.7" width="4.9" height="4.9"/>
      <rect class="cls-3" x="112.7" y="58.8" width="4.9" height="4.9"/>
      <rect class="cls-24" x="107.8" y="58.8" width="4.9" height="4.9"/>
      <rect class="cls-61" x="102.9" y="58.8" width="4.9" height="4.9"/>
      <rect class="cls-62" x="98" y="58.8" width="4.9" height="4.9"/>
      <rect class="cls-62" x="93.1" y="58.8" width="4.9" height="4.9"/>
      <rect class="cls-62" x="88.2" y="58.8" width="4.9" height="4.9"/>
      <rect class="cls-62" x="83.3" y="58.8" width="4.9" height="4.9"/>
      <rect class="cls-6" x="78.4" y="58.8" width="4.9" height="4.9"/>
      <rect class="cls-34" x="73.5" y="58.8" width="4.9" height="4.9"/>
      <rect class="cls-63" x="68.6" y="58.8" width="4.9" height="4.9"/>
      <rect class="cls-22" x="63.7" y="58.8" width="4.9" height="4.9"/>
      <rect class="cls-6" x="58.8" y="58.8" width="4.9" height="4.9"/>
      <rect class="cls-6" x="53.9" y="58.8" width="4.9" height="4.9"/>
      <rect class="cls-6" x="49" y="58.8" width="4.9" height="4.9"/>
      <rect class="cls-62" x="44.1" y="58.8" width="4.9" height="4.9"/>
      <rect class="cls-62" x="39.2" y="58.8" width="4.9" height="4.9"/>
      <rect class="cls-6" x="34.3" y="58.8" width="4.9" height="4.9"/>
      <rect class="cls-68" x="29.4" y="58.8" width="4.9" height="4.9"/>
      <rect class="cls-22" x="24.5" y="58.8" width="4.9" height="4.9"/>
      <rect class="cls-6" x="19.6" y="58.8" width="4.9" height="4.9"/>
      <rect class="cls-17" x="14.7" y="58.8" width="4.9" height="4.9"/>
      <rect class="cls-62" x="9.8" y="58.8" width="4.9" height="4.9"/>
      <rect class="cls-6" x="4.9" y="58.8" width="4.9" height="4.9"/>
      <rect class="cls-6" y="58.8" width="4.9" height="4.9"/>
      <rect class="cls-49" x="107.8" y="53.9" width="4.9" height="4.9"/>
      <rect class="cls-61" x="102.9" y="53.9" width="4.9" height="4.9"/>
      <rect class="cls-62" x="98" y="53.9" width="4.9" height="4.9"/>
      <rect class="cls-62" x="93.1" y="53.9" width="4.9" height="4.9"/>
      <rect class="cls-62" x="88.2" y="53.9" width="4.9" height="4.9"/>
      <rect class="cls-62" x="83.3" y="53.9" width="4.9" height="4.9"/>
      <rect class="cls-62" x="78.4" y="53.9" width="4.9" height="4.9"/>
      <rect class="cls-6" x="73.5" y="53.9" width="4.9" height="4.9"/>
      <rect class="cls-20" x="68.6" y="53.9" width="4.9" height="4.9"/>
      <rect class="cls-49" x="63.7" y="53.9" width="4.9" height="4.9"/>
      <rect class="cls-52" x="58.8" y="53.9" width="4.9" height="4.9"/>
      <rect class="cls-49" x="53.9" y="53.9" width="4.9" height="4.9"/>
      <rect class="cls-6" x="49" y="53.9" width="4.9" height="4.9"/>
      <rect class="cls-6" x="44.1" y="53.9" width="4.9" height="4.9"/>
      <rect class="cls-62" x="39.2" y="53.9" width="4.9" height="4.9"/>
      <rect class="cls-6" x="34.3" y="53.9" width="4.9" height="4.9"/>
      <rect class="cls-6" x="29.4" y="53.9" width="4.9" height="4.9"/>
      <rect class="cls-49" x="24.5" y="53.9" width="4.9" height="4.9"/>
      <rect class="cls-58" x="19.6" y="53.9" width="4.9" height="4.9"/>
      <rect class="cls-6" x="14.7" y="53.9" width="4.9" height="4.9"/>
      <rect class="cls-62" x="9.8" y="53.9" width="4.9" height="4.9"/>
      <rect class="cls-8" x="4.9" y="53.9" width="4.9" height="4.9"/>
      <rect class="cls-49" y="53.9" width="4.9" height="4.9"/>
      <rect class="cls-67" x="107.8" y="49" width="4.9" height="4.9"/>
      <rect class="cls-48" x="102.9" y="49" width="4.9" height="4.9"/>
      <rect class="cls-10" x="98" y="49" width="4.9" height="4.9"/>
      <rect class="cls-6" x="93.1" y="49" width="4.9" height="4.9"/>
      <rect class="cls-6" x="88.2" y="49" width="4.9" height="4.9"/>
      <rect class="cls-6" x="83.3" y="49" width="4.9" height="4.9"/>
      <rect class="cls-6" x="78.4" y="49" width="4.9" height="4.9"/>
      <rect class="cls-6" x="73.5" y="49" width="4.9" height="4.9"/>
      <rect class="cls-6" x="68.6" y="49" width="4.9" height="4.9"/>
      <rect class="cls-22" x="63.7" y="49" width="4.9" height="4.9"/>
      <rect class="cls-2" x="58.8" y="49" width="4.9" height="4.9"/>
      <rect class="cls-49" x="53.9" y="49" width="4.9" height="4.9"/>
      <rect class="cls-6" x="49" y="49" width="4.9" height="4.9"/>
      <rect class="cls-6" x="44.1" y="49" width="4.9" height="4.9"/>
      <rect class="cls-6" x="39.2" y="49" width="4.9" height="4.9"/>
      <rect class="cls-62" x="34.3" y="49" width="4.9" height="4.9"/>
      <rect class="cls-6" x="29.4" y="49" width="4.9" height="4.9"/>
      <rect class="cls-22" x="24.5" y="49" width="4.9" height="4.9"/>
      <rect class="cls-53" x="19.6" y="49" width="4.9" height="4.9"/>
      <rect class="cls-52" x="14.7" y="49" width="4.9" height="4.9"/>
      <rect class="cls-18" x="9.8" y="49" width="4.9" height="4.9"/>
      <rect class="cls-49" x="4.9" y="49" width="4.9" height="4.9"/>
      <rect class="cls-59" y="49" width="4.9" height="4.9"/>
      <rect class="cls-16" x="98" y="44.1" width="4.9" height="4.9"/>
      <rect class="cls-49" x="93.1" y="44.1" width="4.9" height="4.9"/>
      <rect class="cls-49" x="88.2" y="44.1" width="4.9" height="4.9"/>
      <rect class="cls-68" x="83.3" y="44.1" width="4.9" height="4.9"/>
      <rect class="cls-49" x="78.4" y="44.1" width="4.9" height="4.9"/>
      <rect class="cls-64" x="73.5" y="44.1" width="4.9" height="4.9"/>
      <rect class="cls-49" x="68.6" y="44.1" width="4.9" height="4.9"/>
      <rect class="cls-24" x="63.7" y="44.1" width="4.9" height="4.9"/>
      <rect class="cls-62" x="58.8" y="44.1" width="4.9" height="4.9"/>
      <rect class="cls-6" x="53.9" y="44.1" width="4.9" height="4.9"/>
      <rect class="cls-62" x="49" y="44.1" width="4.9" height="4.9"/>
      <rect class="cls-33" x="44.1" y="44.1" width="4.9" height="4.9"/>
      <rect class="cls-2" x="39.2" y="44.1" width="4.9" height="4.9"/>
      <rect class="cls-6" x="34.3" y="44.1" width="4.9" height="4.9"/>
      <rect class="cls-6" x="29.4" y="44.1" width="4.9" height="4.9"/>
      <rect class="cls-6" x="24.5" y="44.1" width="4.9" height="4.9"/>
      <rect class="cls-62" x="19.6" y="44.1" width="4.9" height="4.9"/>
      <rect class="cls-62" x="14.7" y="44.1" width="4.9" height="4.9"/>
      <rect class="cls-6" x="9.8" y="44.1" width="4.9" height="4.9"/>
      <rect class="cls-62" x="4.9" y="44.1" width="4.9" height="4.9"/>
      <rect class="cls-6" y="44.1" width="4.9" height="4.9"/>
      <rect class="cls-18" x="73.5" y="39.2" width="4.9" height="4.9"/>
      <rect class="cls-27" x="68.6" y="39.2" width="4.9" height="4.9"/>
      <rect class="cls-6" x="63.7" y="39.2" width="4.9" height="4.9"/>
      <rect class="cls-62" x="58.8" y="39.2" width="4.9" height="4.9"/>
      <rect class="cls-62" x="53.9" y="39.2" width="4.9" height="4.9"/>
      <rect class="cls-62" x="49" y="39.2" width="4.9" height="4.9"/>
      <rect class="cls-24" x="44.1" y="39.2" width="4.9" height="4.9"/>
      <rect class="cls-25" x="39.2" y="39.2" width="4.9" height="4.9"/>
      <rect class="cls-22" x="34.3" y="39.2" width="4.9" height="4.9"/>
      <rect class="cls-6" x="29.4" y="39.2" width="4.9" height="4.9"/>
      <rect class="cls-6" x="24.5" y="39.2" width="4.9" height="4.9"/>
      <rect class="cls-62" x="19.6" y="39.2" width="4.9" height="4.9"/>
      <rect class="cls-62" x="14.7" y="39.2" width="4.9" height="4.9"/>
      <rect class="cls-62" x="9.8" y="39.2" width="4.9" height="4.9"/>
      <rect class="cls-62" x="4.9" y="39.2" width="4.9" height="4.9"/>
      <rect class="cls-62" y="39.2" width="4.9" height="4.9"/>
      <rect class="cls-11" x="78.4" y="34.3" width="4.9" height="4.9"/>
      <rect class="cls-68" x="73.5" y="34.3" width="4.9" height="4.9"/>
      <rect class="cls-26" x="68.6" y="34.3" width="4.9" height="4.9"/>
      <rect class="cls-6" x="63.7" y="34.3" width="4.9" height="4.9"/>
      <rect class="cls-62" x="58.8" y="34.3" width="4.9" height="4.9"/>
      <rect class="cls-62" x="53.9" y="34.3" width="4.9" height="4.9"/>
      <rect class="cls-6" x="49" y="34.3" width="4.9" height="4.9"/>
      <rect class="cls-6" x="44.1" y="34.3" width="4.9" height="4.9"/>
      <rect class="cls-12" x="39.2" y="34.3" width="4.9" height="4.9"/>
      <rect class="cls-47" x="34.3" y="34.3" width="4.9" height="4.9"/>
      <rect class="cls-49" x="29.4" y="34.3" width="4.9" height="4.9"/>
      <rect class="cls-9" x="24.5" y="34.3" width="4.9" height="4.9"/>
      <rect class="cls-6" x="19.6" y="34.3" width="4.9" height="4.9"/>
      <rect class="cls-6" x="14.7" y="34.3" width="4.9" height="4.9"/>
      <rect class="cls-6" x="9.8" y="34.3" width="4.9" height="4.9"/>
      <rect class="cls-62" x="4.9" y="34.3" width="4.9" height="4.9"/>
      <rect class="cls-62" y="34.3" width="4.9" height="4.9"/>
      <rect class="cls-7" x="73.5" y="29.4" width="4.9" height="4.9"/>
      <rect class="cls-60" x="68.6" y="29.4" width="4.9" height="4.9"/>
      <rect class="cls-52" x="63.7" y="29.4" width="4.9" height="4.9"/>
      <rect class="cls-62" x="58.8" y="29.4" width="4.9" height="4.9"/>
      <rect class="cls-10" x="53.9" y="29.4" width="4.9" height="4.9"/>
      <rect class="cls-9" x="49" y="29.4" width="4.9" height="4.9"/>
      <rect class="cls-2" x="44.1" y="29.4" width="4.9" height="4.9"/>
      <rect class="cls-6" x="39.2" y="29.4" width="4.9" height="4.9"/>
      <rect class="cls-6" x="34.3" y="29.4" width="4.9" height="4.9"/>
      <rect class="cls-56" x="29.4" y="29.4" width="4.9" height="4.9"/>
      <rect class="cls-7" x="24.5" y="29.4" width="4.9" height="4.9"/>
      <rect class="cls-53" x="19.6" y="29.4" width="4.9" height="4.9"/>
      <rect class="cls-52" x="14.7" y="29.4" width="4.9" height="4.9"/>
      <rect class="cls-6" x="9.8" y="29.4" width="4.9" height="4.9"/>
      <rect class="cls-62" x="4.9" y="29.4" width="4.9" height="4.9"/>
      <rect class="cls-62" y="29.4" width="4.9" height="4.9"/>
      <rect class="cls-46" x="73.5" y="24.5" width="4.9" height="4.9"/>
      <rect class="cls-68" x="68.6" y="24.5" width="4.9" height="4.9"/>
      <rect class="cls-49" x="63.7" y="24.5" width="4.9" height="4.9"/>
      <rect class="cls-49" x="58.8" y="24.5" width="4.9" height="4.9"/>
      <rect class="cls-52" x="53.9" y="24.5" width="4.9" height="4.9"/>
      <rect class="cls-6" x="49" y="24.5" width="4.9" height="4.9"/>
      <rect class="cls-62" x="44.1" y="24.5" width="4.9" height="4.9"/>
      <rect class="cls-62" x="39.2" y="24.5" width="4.9" height="4.9"/>
      <rect class="cls-62" x="34.3" y="24.5" width="4.9" height="4.9"/>
      <rect class="cls-62" x="29.4" y="24.5" width="4.9" height="4.9"/>
      <rect class="cls-62" x="24.5" y="24.5" width="4.9" height="4.9"/>
      <rect class="cls-22" x="19.6" y="24.5" width="4.9" height="4.9"/>
      <rect class="cls-14" x="14.7" y="24.5" width="4.9" height="4.9"/>
      <rect class="cls-22" x="9.8" y="24.5" width="4.9" height="4.9"/>
      <rect class="cls-62" x="4.9" y="24.5" width="4.9" height="4.9"/>
      <rect class="cls-62" y="24.5" width="4.9" height="4.9"/>
      <rect class="cls-68" x="58.8" y="19.6" width="4.9" height="4.9"/>
      <rect class="cls-52" x="53.9" y="19.6" width="4.9" height="4.9"/>
      <rect class="cls-6" x="49" y="19.6" width="4.9" height="4.9"/>
      <rect class="cls-6" x="44.1" y="19.6" width="4.9" height="4.9"/>
      <rect class="cls-6" x="39.2" y="19.6" width="4.9" height="4.9"/>
      <rect class="cls-62" x="34.3" y="19.6" width="4.9" height="4.9"/>
      <rect class="cls-62" x="29.4" y="19.6" width="4.9" height="4.9"/>
      <rect class="cls-62" x="24.5" y="19.6" width="4.9" height="4.9"/>
      <rect class="cls-62" x="19.6" y="19.6" width="4.9" height="4.9"/>
      <rect class="cls-6" x="14.7" y="19.6" width="4.9" height="4.9"/>
      <rect class="cls-6" x="9.8" y="19.6" width="4.9" height="4.9"/>
      <rect class="cls-62" x="4.9" y="19.6" width="4.9" height="4.9"/>
      <rect class="cls-62" y="19.6" width="4.9" height="4.9"/>
      <rect class="cls-23" x="58.8" y="14.7" width="4.9" height="4.9"/>
      <rect class="cls-24" x="53.9" y="14.7" width="4.9" height="4.9"/>
      <rect class="cls-58" x="49" y="14.7" width="4.9" height="4.9"/>
      <rect class="cls-69" x="44.1" y="14.7" width="4.9" height="4.9"/>
      <rect class="cls-62" x="39.2" y="14.7" width="4.9" height="4.9"/>
      <rect class="cls-62" x="34.3" y="14.7" width="4.9" height="4.9"/>
      <rect class="cls-62" x="29.4" y="14.7" width="4.9" height="4.9"/>
      <rect class="cls-62" x="24.5" y="14.7" width="4.9" height="4.9"/>
      <rect class="cls-22" x="19.6" y="14.7" width="4.9" height="4.9"/>
      <rect class="cls-22" x="14.7" y="14.7" width="4.9" height="4.9"/>
      <rect class="cls-62" x="9.8" y="14.7" width="4.9" height="4.9"/>
      <rect class="cls-62" x="4.9" y="14.7" width="4.9" height="4.9"/>
      <rect class="cls-62" y="14.7" width="4.9" height="4.9"/>
      <rect class="cls-41" x="49" y="9.8" width="4.9" height="4.9"/>
      <rect class="cls-52" x="44.1" y="9.8" width="4.9" height="4.9"/>
      <rect class="cls-52" x="39.2" y="9.8" width="4.9" height="4.9"/>
      <rect class="cls-49" x="34.3" y="9.8" width="4.9" height="4.9"/>
      <rect class="cls-68" x="29.4" y="9.8" width="4.9" height="4.9"/>
      <rect class="cls-42" x="24.5" y="9.8" width="4.9" height="4.9"/>
      <rect class="cls-52" x="19.6" y="9.8" width="4.9" height="4.9"/>
      <rect class="cls-6" x="14.7" y="9.8" width="4.9" height="4.9"/>
      <rect class="cls-62" x="9.8" y="9.8" width="4.9" height="4.9"/>
      <rect class="cls-62" x="4.9" y="9.8" width="4.9" height="4.9"/>
      <rect class="cls-62" y="9.8" width="4.9" height="4.9"/>
      <rect class="cls-52" x="19.6" y="4.9" width="4.9" height="4.9"/>
      <rect class="cls-50" x="14.7" y="4.9" width="4.9" height="4.9"/>
      <rect class="cls-6" x="9.8" y="4.9" width="4.9" height="4.9"/>
      <rect class="cls-6" x="4.9" y="4.9" width="4.9" height="4.9"/>
      <rect class="cls-6" y="4.9" width="4.9" height="4.9"/>
      <rect class="cls-32" x="9.8" width="4.9" height="4.9"/>
    </g>
  </g>
</svg>