<?xml version="1.0" encoding="UTF-8"?>
<svg id="Layer_2" data-name="Layer 2" xmlns="http://www.w3.org/2000/svg" viewBox="0 0 214.2 85.68">
  <defs>
    <style>
      .cls-1 {
        fill: #f2d5e6;
      }

      .cls-2 {
        fill: #f7e6f0;
      }

      .cls-3 {
        fill: #ecc2db;
      }

      .cls-4 {
        fill: #f3d8e8;
      }

      .cls-5 {
        fill: #f5e0ec;
      }

      .cls-6 {
        fill: #f0c3f0;
      }

      .cls-7 {
        fill: #fdffff;
      }

      .cls-8 {
        fill: #fff;
      }

      .cls-9 {
        fill: #eabcd7;
      }

      .cls-10 {
        fill: #f4dae9;
      }

      .cls-11 {
        fill: #f1d2e4;
      }

      .cls-12 {
        fill: #efcce1;
      }

      .cls-13 {
        fill: #f6e1ed;
      }

      .cls-14 {
        fill: #ebbed8;
      }

      .cls-15 {
        fill: #f2ffa6;
      }

      .cls-16 {
        fill: #f8e9f2;
      }

      .cls-17 {
        fill: #fefefc;
      }

      .cls-18 {
        fill: #f2d3e5;
      }

      .cls-19 {
        fill: #eec8de;
      }

      .cls-20 {
        fill: #fcffff;
      }

      .cls-21 {
        fill: #f4dbe9;
      }

      .cls-22 {
        fill: #f0cee2;
      }

      .cls-23 {
        fill: #f7e4ef;
      }

      .cls-24 {
        fill: #fefffb;
      }

      .cls-25 {
        fill: #fefefd;
      }

      .cls-26 {
        fill: #f7e5ef;
      }

      .cls-27 {
        fill: #efc9df;
      }

      .cls-28 {
        fill: #f5dfec;
      }

      .cls-29 {
        fill: #f8e7f1;
      }

      .cls-30 {
        fill: #eec7de;
      }

      .cls-31 {
        fill: #f6e2ee;
      }

      .cls-32 {
        fill: #f8eaf2;
      }

      .cls-33 {
        fill: #fefeff;
      }

      .cls-34 {
        fill: #fefffc;
      }

      .cls-35 {
        fill: #f3d7e7;
      }

      .cls-36 {
        fill: #f0c2f0;
      }

      .cls-37 {
        fill: #f0cde1;
      }

      .cls-38 {
        fill: #fdfffd;
      }

      .cls-39 {
        fill: #fcfffe;
      }

      .cls-40 {
        fill: #fffffd;
      }

      .cls-41 {
        fill: #f2d6e6;
      }

      .cls-42 {
        fill: #fefefe;
      }

      .cls-43 {
        fill: #edc4dc;
      }

      .cls-44 {
        fill: #fffffe;
      }

      .cls-45 {
        fill: #feffff;
      }

      .cls-46 {
        fill: #f9ecf4;
      }

      .cls-47 {
        fill: #f1d1e3;
      }
    </style>
  </defs>
  <g id="Layer_1-2" data-name="Layer 1">
    <g>
      <rect class="cls-6" x="97.92" y="79.56" width="6.12" height="6.12"/>
      <rect class="cls-6" x="91.8" y="79.56" width="6.12" height="6.12"/>
      <rect class="cls-6" x="85.68" y="79.56" width="6.12" height="6.12"/>
      <rect class="cls-6" x="79.56" y="79.56" width="6.12" height="6.12"/>
      <rect class="cls-6" x="73.44" y="79.56" width="6.12" height="6.12"/>
      <rect class="cls-6" x="67.32" y="79.56" width="6.12" height="6.12"/>
      <rect class="cls-6" x="61.2" y="79.56" width="6.12" height="6.12"/>
      <rect class="cls-6" x="55.08" y="79.56" width="6.12" height="6.12"/>
      <rect class="cls-6" x="42.84" y="79.56" width="6.12" height="6.12"/>
      <rect class="cls-6" x="36.72" y="79.56" width="6.12" height="6.12"/>
      <rect class="cls-6" x="97.92" y="73.44" width="6.12" height="6.12"/>
      <rect class="cls-6" x="91.8" y="73.44" width="6.12" height="6.12"/>
      <rect class="cls-6" x="85.68" y="73.44" width="6.12" height="6.12"/>
      <rect class="cls-6" x="79.56" y="73.44" width="6.12" height="6.12"/>
      <rect class="cls-6" x="73.44" y="73.44" width="6.12" height="6.12"/>
      <rect class="cls-6" x="67.32" y="73.44" width="6.12" height="6.12"/>
      <rect class="cls-6" x="61.2" y="73.44" width="6.12" height="6.12"/>
      <rect class="cls-6" x="55.08" y="73.44" width="6.12" height="6.12"/>
      <rect class="cls-6" x="48.96" y="73.44" width="6.12" height="6.12"/>
      <rect class="cls-6" x="42.84" y="73.44" width="6.12" height="6.12"/>
      <rect class="cls-6" x="36.72" y="73.44" width="6.12" height="6.12"/>
      <rect class="cls-6" x="30.6" y="73.44" width="6.12" height="6.12"/>
      <rect class="cls-6" x="128.52" y="67.32" width="6.12" height="6.12"/>
      <rect class="cls-6" x="122.4" y="67.32" width="6.12" height="6.12"/>
      <rect class="cls-6" x="116.28" y="67.32" width="6.12" height="6.12"/>
      <rect class="cls-6" x="110.16" y="67.32" width="6.12" height="6.12"/>
      <rect class="cls-6" x="104.04" y="67.32" width="6.12" height="6.12"/>
      <rect class="cls-6" x="97.92" y="67.32" width="6.12" height="6.12"/>
      <rect class="cls-6" x="91.8" y="67.32" width="6.12" height="6.12"/>
      <rect class="cls-6" x="85.68" y="67.32" width="6.12" height="6.12"/>
      <rect class="cls-6" x="79.56" y="67.32" width="6.12" height="6.12"/>
      <rect class="cls-6" x="73.44" y="67.32" width="6.12" height="6.12"/>
      <rect class="cls-6" x="67.32" y="67.32" width="6.12" height="6.12"/>
      <rect class="cls-6" x="61.2" y="67.32" width="6.12" height="6.12"/>
      <rect class="cls-6" x="55.08" y="67.32" width="6.12" height="6.12"/>
      <rect class="cls-6" x="48.96" y="67.32" width="6.12" height="6.12"/>
      <rect class="cls-6" x="42.84" y="67.32" width="6.12" height="6.12"/>
      <rect class="cls-6" x="36.72" y="67.32" width="6.12" height="6.12"/>
      <rect class="cls-6" x="30.6" y="67.32" width="6.12" height="6.12"/>
      <rect class="cls-6" x="24.48" y="67.32" width="6.12" height="6.12"/>
      <rect class="cls-6" x="18.36" y="67.32" width="6.12" height="6.12"/>
      <rect class="cls-6" x="12.24" y="67.32" width="6.12" height="6.12"/>
      <rect class="cls-6" x="6.12" y="67.32" width="6.12" height="6.12"/>
      <rect class="cls-6" x="134.64" y="61.2" width="6.12" height="6.12"/>
      <rect class="cls-6" x="128.52" y="61.2" width="6.12" height="6.12"/>
      <rect class="cls-6" x="122.4" y="61.2" width="6.12" height="6.12"/>
      <rect class="cls-6" x="116.28" y="61.2" width="6.12" height="6.12"/>
      <rect class="cls-6" x="110.16" y="61.2" width="6.12" height="6.12"/>
      <rect class="cls-6" x="104.04" y="61.2" width="6.12" height="6.12"/>
      <rect class="cls-6" x="97.92" y="61.2" width="6.12" height="6.12"/>
      <rect class="cls-6" x="91.8" y="61.2" width="6.12" height="6.12"/>
      <rect class="cls-6" x="85.68" y="61.2" width="6.12" height="6.12"/>
      <rect class="cls-6" x="79.56" y="61.2" width="6.12" height="6.12"/>
      <rect class="cls-6" x="73.44" y="61.2" width="6.12" height="6.12"/>
      <rect class="cls-6" x="67.32" y="61.2" width="6.12" height="6.12"/>
      <rect class="cls-6" x="61.2" y="61.2" width="6.12" height="6.12"/>
      <rect class="cls-6" x="55.08" y="61.2" width="6.12" height="6.12"/>
      <rect class="cls-6" x="48.96" y="61.2" width="6.12" height="6.12"/>
      <rect class="cls-6" x="42.84" y="61.2" width="6.12" height="6.12"/>
      <rect class="cls-6" x="36.72" y="61.2" width="6.12" height="6.12"/>
      <rect class="cls-6" x="30.6" y="61.2" width="6.12" height="6.12"/>
      <rect class="cls-6" x="24.48" y="61.2" width="6.12" height="6.12"/>
      <rect class="cls-6" x="18.36" y="61.2" width="6.12" height="6.12"/>
      <rect class="cls-6" x="12.24" y="61.2" width="6.12" height="6.12"/>
      <rect class="cls-6" x="6.12" y="61.2" width="6.12" height="6.12"/>
      <rect class="cls-6" x="153" y="55.08" width="6.12" height="6.12"/>
      <rect class="cls-6" x="146.88" y="55.08" width="6.12" height="6.12"/>
      <rect class="cls-6" x="140.76" y="55.08" width="6.12" height="6.12"/>
      <rect class="cls-6" x="134.64" y="55.08" width="6.12" height="6.12"/>
      <rect class="cls-6" x="128.52" y="55.08" width="6.12" height="6.12"/>
      <rect class="cls-6" x="122.4" y="55.08" width="6.12" height="6.12"/>
      <rect class="cls-6" x="116.28" y="55.08" width="6.12" height="6.12"/>
      <rect class="cls-6" x="110.16" y="55.08" width="6.12" height="6.12"/>
      <rect class="cls-6" x="104.04" y="55.08" width="6.12" height="6.12"/>
      <rect class="cls-6" x="97.92" y="55.08" width="6.12" height="6.12"/>
      <rect class="cls-6" x="91.8" y="55.08" width="6.12" height="6.12"/>
      <rect class="cls-6" x="85.68" y="55.08" width="6.12" height="6.12"/>
      <rect class="cls-6" x="79.56" y="55.08" width="6.12" height="6.12"/>
      <rect class="cls-6" x="73.44" y="55.08" width="6.12" height="6.12"/>
      <rect class="cls-6" x="67.32" y="55.08" width="6.12" height="6.12"/>
      <rect class="cls-2" x="61.2" y="55.08" width="6.12" height="6.12"/>
      <rect class="cls-7" x="55.08" y="55.08" width="6.12" height="6.12"/>
      <rect class="cls-6" x="48.96" y="55.08" width="6.12" height="6.12"/>
      <rect class="cls-6" x="42.84" y="55.08" width="6.12" height="6.12"/>
      <rect class="cls-6" x="36.72" y="55.08" width="6.12" height="6.12"/>
      <rect class="cls-6" x="30.6" y="55.08" width="6.12" height="6.12"/>
      <rect class="cls-6" x="24.48" y="55.08" width="6.12" height="6.12"/>
      <rect class="cls-6" x="18.36" y="55.08" width="6.12" height="6.12"/>
      <rect class="cls-6" x="12.24" y="55.08" width="6.12" height="6.12"/>
      <rect class="cls-6" x="6.12" y="55.08" width="6.12" height="6.12"/>
      <rect class="cls-6" y="55.08" width="6.12" height="6.12"/>
      <rect class="cls-6" x="183.6" y="48.96" width="6.12" height="6.12"/>
      <rect class="cls-6" x="177.48" y="48.96" width="6.12" height="6.12"/>
      <rect class="cls-6" x="171.36" y="48.96" width="6.12" height="6.12"/>
      <rect class="cls-6" x="165.24" y="48.96" width="6.12" height="6.12"/>
      <rect class="cls-6" x="159.12" y="48.96" width="6.12" height="6.12"/>
      <rect class="cls-6" x="153" y="48.96" width="6.12" height="6.12"/>
      <rect class="cls-6" x="146.88" y="48.96" width="6.12" height="6.12"/>
      <rect class="cls-6" x="140.76" y="48.96" width="6.12" height="6.12"/>
      <rect class="cls-6" x="134.64" y="48.96" width="6.12" height="6.12"/>
      <rect class="cls-6" x="128.52" y="48.96" width="6.12" height="6.12"/>
      <rect class="cls-6" x="122.4" y="48.96" width="6.12" height="6.12"/>
      <rect class="cls-6" x="116.28" y="48.96" width="6.12" height="6.12"/>
      <rect class="cls-6" x="110.16" y="48.96" width="6.12" height="6.12"/>
      <rect class="cls-6" x="104.04" y="48.96" width="6.12" height="6.12"/>
      <rect class="cls-6" x="97.92" y="48.96" width="6.12" height="6.12"/>
      <rect class="cls-6" x="91.8" y="48.96" width="6.12" height="6.12"/>
      <rect class="cls-6" x="85.68" y="48.96" width="6.12" height="6.12"/>
      <rect class="cls-6" x="79.56" y="48.96" width="6.12" height="6.12"/>
      <rect class="cls-6" x="73.44" y="48.96" width="6.12" height="6.12"/>
      <rect class="cls-6" x="67.32" y="48.96" width="6.12" height="6.12"/>
      <rect class="cls-29" x="61.2" y="48.96" width="6.12" height="6.12"/>
      <rect class="cls-7" x="55.08" y="48.96" width="6.12" height="6.12"/>
      <rect class="cls-6" x="48.96" y="48.96" width="6.12" height="6.12"/>
      <rect class="cls-6" x="42.84" y="48.96" width="6.12" height="6.12"/>
      <rect class="cls-6" x="36.72" y="48.96" width="6.12" height="6.12"/>
      <rect class="cls-6" x="30.6" y="48.96" width="6.12" height="6.12"/>
      <rect class="cls-6" x="24.48" y="48.96" width="6.12" height="6.12"/>
      <rect class="cls-6" x="18.36" y="48.96" width="6.12" height="6.12"/>
      <rect class="cls-7" x="12.24" y="48.96" width="6.12" height="6.12"/>
      <rect class="cls-6" x="6.12" y="48.96" width="6.12" height="6.12"/>
      <rect class="cls-6" y="48.96" width="6.12" height="6.12"/>
      <rect class="cls-6" x="208.08" y="42.84" width="6.12" height="6.12"/>
      <rect class="cls-6" x="201.96" y="42.84" width="6.12" height="6.12"/>
      <rect class="cls-6" x="195.84" y="42.84" width="6.12" height="6.12"/>
      <rect class="cls-6" x="189.72" y="42.84" width="6.12" height="6.12"/>
      <rect class="cls-6" x="183.6" y="42.84" width="6.12" height="6.12"/>
      <rect class="cls-6" x="177.48" y="42.84" width="6.12" height="6.12"/>
      <rect class="cls-6" x="171.36" y="42.84" width="6.12" height="6.12"/>
      <rect class="cls-6" x="165.24" y="42.84" width="6.12" height="6.12"/>
      <rect class="cls-6" x="159.12" y="42.84" width="6.12" height="6.12"/>
      <rect class="cls-7" x="153" y="42.84" width="6.12" height="6.12"/>
      <rect class="cls-4" x="146.88" y="42.84" width="6.12" height="6.12"/>
      <rect class="cls-6" x="140.76" y="42.84" width="6.12" height="6.12"/>
      <rect class="cls-6" x="134.64" y="42.84" width="6.12" height="6.12"/>
      <rect class="cls-6" x="128.52" y="42.84" width="6.12" height="6.12"/>
      <rect class="cls-6" x="122.4" y="42.84" width="6.12" height="6.12"/>
      <rect class="cls-6" x="116.28" y="42.84" width="6.12" height="6.12"/>
      <rect class="cls-6" x="110.16" y="42.84" width="6.12" height="6.12"/>
      <rect class="cls-6" x="104.04" y="42.84" width="6.12" height="6.12"/>
      <rect class="cls-6" x="97.92" y="42.84" width="6.12" height="6.12"/>
      <rect class="cls-6" x="91.8" y="42.84" width="6.12" height="6.12"/>
      <rect class="cls-6" x="85.68" y="42.84" width="6.12" height="6.12"/>
      <rect class="cls-6" x="79.56" y="42.84" width="6.12" height="6.12"/>
      <rect class="cls-6" x="73.44" y="42.84" width="6.12" height="6.12"/>
      <rect class="cls-7" x="67.32" y="42.84" width="6.12" height="6.12"/>
      <rect class="cls-42" x="61.2" y="42.84" width="6.12" height="6.12"/>
      <rect class="cls-47" x="55.08" y="42.84" width="6.12" height="6.12"/>
      <rect class="cls-6" x="48.96" y="42.84" width="6.12" height="6.12"/>
      <rect class="cls-6" x="42.84" y="42.84" width="6.12" height="6.12"/>
      <rect class="cls-6" x="36.72" y="42.84" width="6.12" height="6.12"/>
      <rect class="cls-6" x="30.6" y="42.84" width="6.12" height="6.12"/>
      <rect class="cls-6" x="24.48" y="42.84" width="6.12" height="6.12"/>
      <rect class="cls-6" x="18.36" y="42.84" width="6.12" height="6.12"/>
      <rect class="cls-26" x="12.24" y="42.84" width="6.12" height="6.12"/>
      <rect class="cls-35" x="6.12" y="42.84" width="6.12" height="6.12"/>
      <rect class="cls-6" y="42.84" width="6.12" height="6.12"/>
      <rect class="cls-7" x="208.08" y="36.72" width="6.12" height="6.12"/>
      <rect class="cls-7" x="201.96" y="36.72" width="6.12" height="6.12"/>
      <rect class="cls-7" x="195.84" y="36.72" width="6.12" height="6.12"/>
      <rect class="cls-6" x="189.72" y="36.72" width="6.12" height="6.12"/>
      <rect class="cls-6" x="183.6" y="36.72" width="6.12" height="6.12"/>
      <rect class="cls-7" x="177.48" y="36.72" width="6.12" height="6.12"/>
      <rect class="cls-7" x="171.36" y="36.72" width="6.12" height="6.12"/>
      <rect class="cls-23" x="165.24" y="36.72" width="6.12" height="6.12"/>
      <rect class="cls-28" x="159.12" y="36.72" width="6.12" height="6.12"/>
      <rect class="cls-23" x="153" y="36.72" width="6.12" height="6.12"/>
      <rect class="cls-46" x="146.88" y="36.72" width="6.12" height="6.12"/>
      <rect class="cls-6" x="140.76" y="36.72" width="6.12" height="6.12"/>
      <rect class="cls-6" x="134.64" y="36.72" width="6.12" height="6.12"/>
      <rect class="cls-6" x="128.52" y="36.72" width="6.12" height="6.12"/>
      <rect class="cls-6" x="122.4" y="36.72" width="6.12" height="6.12"/>
      <rect class="cls-7" x="116.28" y="36.72" width="6.12" height="6.12"/>
      <rect class="cls-7" x="110.16" y="36.72" width="6.12" height="6.12"/>
      <rect class="cls-6" x="104.04" y="36.72" width="6.12" height="6.12"/>
      <rect class="cls-6" x="97.92" y="36.72" width="6.12" height="6.12"/>
      <rect class="cls-6" x="91.8" y="36.72" width="6.12" height="6.12"/>
      <rect class="cls-6" x="85.68" y="36.72" width="6.12" height="6.12"/>
      <rect class="cls-6" x="79.56" y="36.72" width="6.12" height="6.12"/>
      <rect class="cls-6" x="73.44" y="36.72" width="6.12" height="6.12"/>
      <rect class="cls-38" x="67.32" y="36.72" width="6.12" height="6.12"/>
      <rect class="cls-8" x="61.2" y="36.72" width="6.12" height="6.12"/>
      <rect class="cls-26" x="55.08" y="36.72" width="6.12" height="6.12"/>
      <rect class="cls-6" x="48.96" y="36.72" width="6.12" height="6.12"/>
      <rect class="cls-36" x="42.84" y="36.72" width="6.12" height="6.12"/>
      <rect class="cls-6" x="36.72" y="36.72" width="6.12" height="6.12"/>
      <rect class="cls-6" x="30.6" y="36.72" width="6.12" height="6.12"/>
      <rect class="cls-6" x="24.48" y="36.72" width="6.12" height="6.12"/>
      <rect class="cls-6" x="18.36" y="36.72" width="6.12" height="6.12"/>
      <rect class="cls-20" x="12.24" y="36.72" width="6.12" height="6.12"/>
      <rect class="cls-28" x="6.12" y="36.72" width="6.12" height="6.12"/>
      <rect class="cls-7" y="36.72" width="6.12" height="6.12"/>
      <rect class="cls-12" x="165.24" y="30.6" width="6.12" height="6.12"/>
      <rect class="cls-16" x="159.12" y="30.6" width="6.12" height="6.12"/>
      <rect class="cls-42" x="153" y="30.6" width="6.12" height="6.12"/>
      <rect class="cls-16" x="146.88" y="30.6" width="6.12" height="6.12"/>
      <rect class="cls-13" x="140.76" y="30.6" width="6.12" height="6.12"/>
      <rect class="cls-29" x="134.64" y="30.6" width="6.12" height="6.12"/>
      <rect class="cls-29" x="128.52" y="30.6" width="6.12" height="6.12"/>
      <rect class="cls-35" x="122.4" y="30.6" width="6.12" height="6.12"/>
      <rect class="cls-13" x="116.28" y="30.6" width="6.12" height="6.12"/>
      <rect class="cls-46" x="110.16" y="30.6" width="6.12" height="6.12"/>
      <rect class="cls-47" x="104.04" y="30.6" width="6.12" height="6.12"/>
      <rect class="cls-7" x="97.92" y="30.6" width="6.12" height="6.12"/>
      <rect class="cls-7" x="91.8" y="30.6" width="6.12" height="6.12"/>
      <rect class="cls-7" x="85.68" y="30.6" width="6.12" height="6.12"/>
      <rect class="cls-29" x="79.56" y="30.6" width="6.12" height="6.12"/>
      <rect class="cls-33" x="73.44" y="30.6" width="6.12" height="6.12"/>
      <rect class="cls-8" x="67.32" y="30.6" width="6.12" height="6.12"/>
      <rect class="cls-34" x="61.2" y="30.6" width="6.12" height="6.12"/>
      <rect class="cls-42" x="55.08" y="30.6" width="6.12" height="6.12"/>
      <rect class="cls-11" x="48.96" y="30.6" width="6.12" height="6.12"/>
      <rect class="cls-5" x="42.84" y="30.6" width="6.12" height="6.12"/>
      <rect class="cls-21" x="36.72" y="30.6" width="6.12" height="6.12"/>
      <rect class="cls-13" x="30.6" y="30.6" width="6.12" height="6.12"/>
      <rect class="cls-23" x="24.48" y="30.6" width="6.12" height="6.12"/>
      <rect class="cls-11" x="18.36" y="30.6" width="6.12" height="6.12"/>
      <rect class="cls-29" x="12.24" y="30.6" width="6.12" height="6.12"/>
      <rect class="cls-41" x="6.12" y="30.6" width="6.12" height="6.12"/>
      <rect class="cls-6" x="165.24" y="24.48" width="6.12" height="6.12"/>
      <rect class="cls-31" x="159.12" y="24.48" width="6.12" height="6.12"/>
      <rect class="cls-39" x="153" y="24.48" width="6.12" height="6.12"/>
      <rect class="cls-29" x="146.88" y="24.48" width="6.12" height="6.12"/>
      <rect class="cls-32" x="140.76" y="24.48" width="6.12" height="6.12"/>
      <rect class="cls-17" x="134.64" y="24.48" width="6.12" height="6.12"/>
      <rect class="cls-32" x="128.52" y="24.48" width="6.12" height="6.12"/>
      <rect class="cls-4" x="122.4" y="24.48" width="6.12" height="6.12"/>
      <rect class="cls-7" x="116.28" y="24.48" width="6.12" height="6.12"/>
      <rect class="cls-23" x="110.16" y="24.48" width="6.12" height="6.12"/>
      <rect class="cls-29" x="104.04" y="24.48" width="6.12" height="6.12"/>
      <rect class="cls-17" x="97.92" y="24.48" width="6.12" height="6.12"/>
      <rect class="cls-40" x="91.8" y="24.48" width="6.12" height="6.12"/>
      <rect class="cls-40" x="85.68" y="24.48" width="6.12" height="6.12"/>
      <rect class="cls-40" x="79.56" y="24.48" width="6.12" height="6.12"/>
      <rect class="cls-8" x="73.44" y="24.48" width="6.12" height="6.12"/>
      <rect class="cls-7" x="67.32" y="24.48" width="6.12" height="6.12"/>
      <rect class="cls-38" x="61.2" y="24.48" width="6.12" height="6.12"/>
      <rect class="cls-23" x="55.08" y="24.48" width="6.12" height="6.12"/>
      <rect class="cls-14" x="48.96" y="24.48" width="6.12" height="6.12"/>
      <rect class="cls-22" x="42.84" y="24.48" width="6.12" height="6.12"/>
      <rect class="cls-7" x="30.6" y="24.48" width="6.12" height="6.12"/>
      <rect class="cls-10" x="24.48" y="24.48" width="6.12" height="6.12"/>
      <rect class="cls-43" x="18.36" y="24.48" width="6.12" height="6.12"/>
      <rect class="cls-6" x="12.24" y="24.48" width="6.12" height="6.12"/>
      <rect class="cls-19" x="153" y="18.36" width="6.12" height="6.12"/>
      <rect class="cls-9" x="146.88" y="18.36" width="6.12" height="6.12"/>
      <rect class="cls-3" x="140.76" y="18.36" width="6.12" height="6.12"/>
      <rect class="cls-1" x="134.64" y="18.36" width="6.12" height="6.12"/>
      <rect class="cls-6" x="128.52" y="18.36" width="6.12" height="6.12"/>
      <rect class="cls-7" x="116.28" y="18.36" width="6.12" height="6.12"/>
      <rect class="cls-29" x="110.16" y="18.36" width="6.12" height="6.12"/>
      <rect class="cls-30" x="104.04" y="18.36" width="6.12" height="6.12"/>
      <rect class="cls-15" x="97.92" y="18.36" width="6.12" height="6.12"/>
      <rect class="cls-37" x="91.8" y="18.36" width="6.12" height="6.12"/>
      <rect class="cls-8" x="85.68" y="18.36" width="6.12" height="6.12"/>
      <rect class="cls-8" x="79.56" y="18.36" width="6.12" height="6.12"/>
      <rect class="cls-44" x="73.44" y="18.36" width="6.12" height="6.12"/>
      <rect class="cls-40" x="67.32" y="18.36" width="6.12" height="6.12"/>
      <rect class="cls-34" x="61.2" y="18.36" width="6.12" height="6.12"/>
      <rect class="cls-7" x="55.08" y="18.36" width="6.12" height="6.12"/>
      <rect class="cls-42" x="140.76" y="12.24" width="6.12" height="6.12"/>
      <rect class="cls-46" x="116.28" y="12.24" width="6.12" height="6.12"/>
      <rect class="cls-11" x="110.16" y="12.24" width="6.12" height="6.12"/>
      <rect class="cls-7" x="104.04" y="12.24" width="6.12" height="6.12"/>
      <rect class="cls-6" x="97.92" y="12.24" width="6.12" height="6.12"/>
      <rect class="cls-18" x="91.8" y="12.24" width="6.12" height="6.12"/>
      <rect class="cls-45" x="85.68" y="12.24" width="6.12" height="6.12"/>
      <rect class="cls-44" x="79.56" y="12.24" width="6.12" height="6.12"/>
      <rect class="cls-44" x="73.44" y="12.24" width="6.12" height="6.12"/>
      <rect class="cls-25" x="67.32" y="12.24" width="6.12" height="6.12"/>
      <rect class="cls-23" x="61.2" y="12.24" width="6.12" height="6.12"/>
      <rect class="cls-27" x="55.08" y="12.24" width="6.12" height="6.12"/>
      <rect class="cls-4" x="85.68" y="6.12" width="6.12" height="6.12"/>
      <rect class="cls-24" x="79.56" y="6.12" width="6.12" height="6.12"/>
      <rect class="cls-23" x="73.44" y="6.12" width="6.12" height="6.12"/>
      <rect class="cls-46" x="67.32" y="6.12" width="6.12" height="6.12"/>
      <rect class="cls-6" x="61.2" y="6.12" width="6.12" height="6.12"/>
      <rect class="cls-6" x="79.56" width="6.12" height="6.12"/>
      <rect class="cls-29" x="73.44" width="6.12" height="6.12"/>
    </g>
  </g>
</svg>