<?xml version="1.0" encoding="UTF-8"?>
<svg id="Layer_2" data-name="Layer 2" xmlns="http://www.w3.org/2000/svg" viewBox="0 0 147 58.8">
  <defs>
    <style>
      .cls-1 {
        fill: #fbfcfd;
      }

      .cls-2 {
        fill: #e4ecf0;
      }

      .cls-3 {
        fill: #f5caee;
      }

      .cls-4 {
        fill: #f7d1f0;
      }

      .cls-5 {
        fill: #f6cff0;
      }

      .cls-6 {
        fill: #f8dbf3;
      }

      .cls-7 {
        fill: #e5edf1;
      }

      .cls-8 {
        fill: #eff4f6;
      }

      .cls-9 {
        fill: #f9fbfc;
      }

      .cls-10 {
        fill: #f5c8ee;
      }

      .cls-11 {
        fill: #fcfafc;
      }

      .cls-12 {
        fill: #c4d6df;
      }

      .cls-13 {
        fill: #eef3f6;
      }

      .cls-14 {
        fill: #cedde5;
      }

      .cls-15 {
        fill: #ecf2f5;
      }

      .cls-16 {
        fill: #f6cdef;
      }

      .cls-17 {
        fill: #fbebf9;
      }

      .cls-18 {
        fill: #f5eaf3;
      }

      .cls-19 {
        fill: #f9f3f8;
      }

      .cls-20 {
        fill: #fefcfe;
      }

      .cls-21 {
        fill: #fbeaf8;
      }

      .cls-22 {
        fill: #e6eef2;
      }

      .cls-23 {
        fill: #eaf1f4;
      }

      .cls-24 {
        fill: #fbf7fb;
      }

      .cls-25 {
        fill: #f6ceef;
      }

      .cls-26 {
        fill: #f6cbee;
      }

      .cls-27 {
        fill: #fcf8fb;
      }

      .cls-28 {
        fill: #f7f9fa;
      }

      .cls-29 {
        fill: #fdfbfd;
      }

      .cls-30 {
        fill: #f5c7ed;
      }

      .cls-31 {
        fill: #f9ddf4;
      }
    </style>
  </defs>
  <g id="Layer_3" data-name="Layer 3">
    <g>
      <rect class="cls-10" x="127.4" y="53.9" width="4.9" height="4.9"/>
      <rect class="cls-3" x="122.5" y="53.9" width="4.9" height="4.9"/>
      <rect class="cls-10" x="117.6" y="53.9" width="4.9" height="4.9"/>
      <rect class="cls-10" x="112.7" y="53.9" width="4.9" height="4.9"/>
      <rect class="cls-10" x="107.8" y="53.9" width="4.9" height="4.9"/>
      <rect class="cls-2" x="102.9" y="53.9" width="4.9" height="4.9"/>
      <rect class="cls-3" x="98" y="53.9" width="4.9" height="4.9"/>
      <rect class="cls-10" x="93.1" y="53.9" width="4.9" height="4.9"/>
      <rect class="cls-10" x="88.2" y="53.9" width="4.9" height="4.9"/>
      <rect class="cls-10" x="83.3" y="53.9" width="4.9" height="4.9"/>
      <rect class="cls-10" x="78.4" y="53.9" width="4.9" height="4.9"/>
      <rect class="cls-10" x="73.5" y="53.9" width="4.9" height="4.9"/>
      <rect class="cls-3" x="68.6" y="53.9" width="4.9" height="4.9"/>
      <rect class="cls-10" x="63.7" y="53.9" width="4.9" height="4.9"/>
      <rect class="cls-10" x="58.8" y="53.9" width="4.9" height="4.9"/>
      <rect class="cls-10" x="53.9" y="53.9" width="4.9" height="4.9"/>
      <rect class="cls-2" x="49" y="53.9" width="4.9" height="4.9"/>
      <rect class="cls-15" x="142.1" y="49" width="4.9" height="4.9"/>
      <rect class="cls-10" x="137.2" y="49" width="4.9" height="4.9"/>
      <rect class="cls-3" x="132.3" y="49" width="4.9" height="4.9"/>
      <rect class="cls-3" x="127.4" y="49" width="4.9" height="4.9"/>
      <rect class="cls-3" x="122.5" y="49" width="4.9" height="4.9"/>
      <rect class="cls-3" x="117.6" y="49" width="4.9" height="4.9"/>
      <rect class="cls-3" x="112.7" y="49" width="4.9" height="4.9"/>
      <rect class="cls-3" x="107.8" y="49" width="4.9" height="4.9"/>
      <rect class="cls-26" x="102.9" y="49" width="4.9" height="4.9"/>
      <rect class="cls-26" x="98" y="49" width="4.9" height="4.9"/>
      <rect class="cls-3" x="93.1" y="49" width="4.9" height="4.9"/>
      <rect class="cls-3" x="88.2" y="49" width="4.9" height="4.9"/>
      <rect class="cls-3" x="83.3" y="49" width="4.9" height="4.9"/>
      <rect class="cls-3" x="78.4" y="49" width="4.9" height="4.9"/>
      <rect class="cls-3" x="73.5" y="49" width="4.9" height="4.9"/>
      <rect class="cls-3" x="68.6" y="49" width="4.9" height="4.9"/>
      <rect class="cls-3" x="63.7" y="49" width="4.9" height="4.9"/>
      <rect class="cls-3" x="58.8" y="49" width="4.9" height="4.9"/>
      <rect class="cls-3" x="53.9" y="49" width="4.9" height="4.9"/>
      <rect class="cls-3" x="49" y="49" width="4.9" height="4.9"/>
      <rect class="cls-10" x="44.1" y="49" width="4.9" height="4.9"/>
      <rect class="cls-10" x="39.2" y="49" width="4.9" height="4.9"/>
      <rect class="cls-10" x="34.3" y="49" width="4.9" height="4.9"/>
      <rect class="cls-3" x="29.4" y="49" width="4.9" height="4.9"/>
      <rect class="cls-10" x="24.5" y="49" width="4.9" height="4.9"/>
      <rect class="cls-3" x="19.6" y="49" width="4.9" height="4.9"/>
      <rect class="cls-3" x="14.7" y="49" width="4.9" height="4.9"/>
      <rect class="cls-16" x="9.8" y="49" width="4.9" height="4.9"/>
      <rect class="cls-3" x="4.9" y="49" width="4.9" height="4.9"/>
      <rect class="cls-13" y="49" width="4.9" height="4.9"/>
      <rect class="cls-31" x="137.2" y="44.1" width="4.9" height="4.9"/>
      <rect class="cls-3" x="132.3" y="44.1" width="4.9" height="4.9"/>
      <rect class="cls-3" x="127.4" y="44.1" width="4.9" height="4.9"/>
      <rect class="cls-26" x="122.5" y="44.1" width="4.9" height="4.9"/>
      <rect class="cls-26" x="117.6" y="44.1" width="4.9" height="4.9"/>
      <rect class="cls-26" x="112.7" y="44.1" width="4.9" height="4.9"/>
      <rect class="cls-26" x="107.8" y="44.1" width="4.9" height="4.9"/>
      <rect class="cls-26" x="102.9" y="44.1" width="4.9" height="4.9"/>
      <rect class="cls-26" x="98" y="44.1" width="4.9" height="4.9"/>
      <rect class="cls-26" x="93.1" y="44.1" width="4.9" height="4.9"/>
      <rect class="cls-3" x="88.2" y="44.1" width="4.9" height="4.9"/>
      <rect class="cls-5" x="83.3" y="44.1" width="4.9" height="4.9"/>
      <rect class="cls-26" x="78.4" y="44.1" width="4.9" height="4.9"/>
      <rect class="cls-19" x="73.5" y="44.1" width="4.9" height="4.9"/>
      <rect class="cls-26" x="68.6" y="44.1" width="4.9" height="4.9"/>
      <rect class="cls-26" x="63.7" y="44.1" width="4.9" height="4.9"/>
      <rect class="cls-26" x="58.8" y="44.1" width="4.9" height="4.9"/>
      <rect class="cls-26" x="53.9" y="44.1" width="4.9" height="4.9"/>
      <rect class="cls-26" x="49" y="44.1" width="4.9" height="4.9"/>
      <rect class="cls-26" x="44.1" y="44.1" width="4.9" height="4.9"/>
      <rect class="cls-3" x="39.2" y="44.1" width="4.9" height="4.9"/>
      <rect class="cls-3" x="34.3" y="44.1" width="4.9" height="4.9"/>
      <rect class="cls-26" x="29.4" y="44.1" width="4.9" height="4.9"/>
      <rect class="cls-3" x="24.5" y="44.1" width="4.9" height="4.9"/>
      <rect class="cls-3" x="19.6" y="44.1" width="4.9" height="4.9"/>
      <rect class="cls-10" x="14.7" y="44.1" width="4.9" height="4.9"/>
      <rect class="cls-29" x="9.8" y="44.1" width="4.9" height="4.9"/>
      <rect class="cls-2" x="127.4" y="39.2" width="4.9" height="4.9"/>
      <rect class="cls-8" x="107.8" y="39.2" width="4.9" height="4.9"/>
      <rect class="cls-6" x="102.9" y="39.2" width="4.9" height="4.9"/>
      <rect class="cls-3" x="98" y="39.2" width="4.9" height="4.9"/>
      <rect class="cls-7" x="93.1" y="39.2" width="4.9" height="4.9"/>
      <rect class="cls-18" x="88.2" y="39.2" width="4.9" height="4.9"/>
      <rect class="cls-10" x="83.3" y="39.2" width="4.9" height="4.9"/>
      <rect class="cls-26" x="78.4" y="39.2" width="4.9" height="4.9"/>
      <rect class="cls-26" x="73.5" y="39.2" width="4.9" height="4.9"/>
      <rect class="cls-26" x="68.6" y="39.2" width="4.9" height="4.9"/>
      <rect class="cls-3" x="63.7" y="39.2" width="4.9" height="4.9"/>
      <rect class="cls-3" x="58.8" y="39.2" width="4.9" height="4.9"/>
      <rect class="cls-16" x="53.9" y="39.2" width="4.9" height="4.9"/>
      <rect class="cls-26" x="49" y="39.2" width="4.9" height="4.9"/>
      <rect class="cls-26" x="44.1" y="39.2" width="4.9" height="4.9"/>
      <rect class="cls-26" x="39.2" y="39.2" width="4.9" height="4.9"/>
      <rect class="cls-3" x="34.3" y="39.2" width="4.9" height="4.9"/>
      <rect class="cls-24" x="29.4" y="39.2" width="4.9" height="4.9"/>
      <rect class="cls-10" x="24.5" y="39.2" width="4.9" height="4.9"/>
      <rect class="cls-10" x="19.6" y="39.2" width="4.9" height="4.9"/>
      <rect class="cls-20" x="14.7" y="39.2" width="4.9" height="4.9"/>
      <rect class="cls-24" x="102.9" y="34.3" width="4.9" height="4.9"/>
      <rect class="cls-10" x="98" y="34.3" width="4.9" height="4.9"/>
      <rect class="cls-26" x="93.1" y="34.3" width="4.9" height="4.9"/>
      <rect class="cls-22" x="88.2" y="34.3" width="4.9" height="4.9"/>
      <rect class="cls-3" x="83.3" y="34.3" width="4.9" height="4.9"/>
      <rect class="cls-26" x="78.4" y="34.3" width="4.9" height="4.9"/>
      <rect class="cls-10" x="73.5" y="34.3" width="4.9" height="4.9"/>
      <rect class="cls-26" x="68.6" y="34.3" width="4.9" height="4.9"/>
      <rect class="cls-19" x="63.7" y="34.3" width="4.9" height="4.9"/>
      <rect class="cls-24" x="58.8" y="34.3" width="4.9" height="4.9"/>
      <rect class="cls-3" x="53.9" y="34.3" width="4.9" height="4.9"/>
      <rect class="cls-3" x="49" y="34.3" width="4.9" height="4.9"/>
      <rect class="cls-3" x="44.1" y="34.3" width="4.9" height="4.9"/>
      <rect class="cls-26" x="39.2" y="34.3" width="4.9" height="4.9"/>
      <rect class="cls-3" x="34.3" y="34.3" width="4.9" height="4.9"/>
      <rect class="cls-9" x="29.4" y="34.3" width="4.9" height="4.9"/>
      <rect class="cls-14" x="24.5" y="34.3" width="4.9" height="4.9"/>
      <rect class="cls-28" x="19.6" y="34.3" width="4.9" height="4.9"/>
      <rect class="cls-3" x="93.1" y="29.4" width="4.9" height="4.9"/>
      <rect class="cls-3" x="88.2" y="29.4" width="4.9" height="4.9"/>
      <rect class="cls-26" x="83.3" y="29.4" width="4.9" height="4.9"/>
      <rect class="cls-3" x="78.4" y="29.4" width="4.9" height="4.9"/>
      <rect class="cls-3" x="73.5" y="29.4" width="4.9" height="4.9"/>
      <rect class="cls-3" x="68.6" y="29.4" width="4.9" height="4.9"/>
      <rect class="cls-26" x="63.7" y="29.4" width="4.9" height="4.9"/>
      <rect class="cls-26" x="58.8" y="29.4" width="4.9" height="4.9"/>
      <rect class="cls-26" x="53.9" y="29.4" width="4.9" height="4.9"/>
      <rect class="cls-4" x="49" y="29.4" width="4.9" height="4.9"/>
      <rect class="cls-12" x="44.1" y="29.4" width="4.9" height="4.9"/>
      <rect class="cls-1" x="39.2" y="29.4" width="4.9" height="4.9"/>
      <rect class="cls-15" x="34.3" y="29.4" width="4.9" height="4.9"/>
      <rect class="cls-19" x="93.1" y="24.5" width="4.9" height="4.9"/>
      <rect class="cls-3" x="88.2" y="24.5" width="4.9" height="4.9"/>
      <rect class="cls-26" x="83.3" y="24.5" width="4.9" height="4.9"/>
      <rect class="cls-26" x="78.4" y="24.5" width="4.9" height="4.9"/>
      <rect class="cls-3" x="73.5" y="24.5" width="4.9" height="4.9"/>
      <rect class="cls-26" x="68.6" y="24.5" width="4.9" height="4.9"/>
      <rect class="cls-26" x="63.7" y="24.5" width="4.9" height="4.9"/>
      <rect class="cls-3" x="58.8" y="24.5" width="4.9" height="4.9"/>
      <rect class="cls-10" x="53.9" y="24.5" width="4.9" height="4.9"/>
      <rect class="cls-17" x="49" y="24.5" width="4.9" height="4.9"/>
      <rect class="cls-2" x="93.1" y="19.6" width="4.9" height="4.9"/>
      <rect class="cls-26" x="88.2" y="19.6" width="4.9" height="4.9"/>
      <rect class="cls-26" x="83.3" y="19.6" width="4.9" height="4.9"/>
      <rect class="cls-26" x="78.4" y="19.6" width="4.9" height="4.9"/>
      <rect class="cls-26" x="73.5" y="19.6" width="4.9" height="4.9"/>
      <rect class="cls-26" x="68.6" y="19.6" width="4.9" height="4.9"/>
      <rect class="cls-3" x="63.7" y="19.6" width="4.9" height="4.9"/>
      <rect class="cls-10" x="58.8" y="19.6" width="4.9" height="4.9"/>
      <rect class="cls-10" x="53.9" y="19.6" width="4.9" height="4.9"/>
      <rect class="cls-25" x="93.1" y="14.7" width="4.9" height="4.9"/>
      <rect class="cls-3" x="88.2" y="14.7" width="4.9" height="4.9"/>
      <rect class="cls-26" x="83.3" y="14.7" width="4.9" height="4.9"/>
      <rect class="cls-26" x="78.4" y="14.7" width="4.9" height="4.9"/>
      <rect class="cls-26" x="73.5" y="14.7" width="4.9" height="4.9"/>
      <rect class="cls-26" x="68.6" y="14.7" width="4.9" height="4.9"/>
      <rect class="cls-3" x="63.7" y="14.7" width="4.9" height="4.9"/>
      <rect class="cls-29" x="58.8" y="14.7" width="4.9" height="4.9"/>
      <rect class="cls-3" x="53.9" y="14.7" width="4.9" height="4.9"/>
      <rect class="cls-11" x="93.1" y="9.8" width="4.9" height="4.9"/>
      <rect class="cls-10" x="88.2" y="9.8" width="4.9" height="4.9"/>
      <rect class="cls-3" x="83.3" y="9.8" width="4.9" height="4.9"/>
      <rect class="cls-3" x="78.4" y="9.8" width="4.9" height="4.9"/>
      <rect class="cls-10" x="73.5" y="9.8" width="4.9" height="4.9"/>
      <rect class="cls-30" x="68.6" y="9.8" width="4.9" height="4.9"/>
      <rect class="cls-21" x="63.7" y="9.8" width="4.9" height="4.9"/>
      <rect class="cls-27" x="58.8" y="9.8" width="4.9" height="4.9"/>
      <rect class="cls-20" x="88.2" y="4.9" width="4.9" height="4.9"/>
      <rect class="cls-10" x="83.3" y="4.9" width="4.9" height="4.9"/>
      <rect class="cls-3" x="78.4" y="4.9" width="4.9" height="4.9"/>
      <rect class="cls-3" x="73.5" y="4.9" width="4.9" height="4.9"/>
      <rect class="cls-29" x="68.6" y="4.9" width="4.9" height="4.9"/>
      <rect class="cls-29" x="63.7" y="4.9" width="4.9" height="4.9"/>
      <rect class="cls-23" x="83.3" width="4.9" height="4.9"/>
      <rect class="cls-29" x="78.4" width="4.9" height="4.9"/>
      <rect class="cls-20" x="73.5" width="4.9" height="4.9"/>
      <rect class="cls-7" x="68.6" width="4.9" height="4.9"/>
    </g>
  </g>
</svg>