<?xml version="1.0" encoding="UTF-8"?>
<svg id="Layer_2" data-name="Layer 2" xmlns="http://www.w3.org/2000/svg" viewBox="0 0 166.6 19.6">
  <defs>
    <style>
      .cls-1 {
        fill: #f4c4ec;
      }

      .cls-2 {
        fill: #e4ecf0;
      }

      .cls-3 {
        fill: #f5caee;
      }

      .cls-4 {
        fill: #f3f7f8;
      }

      .cls-5 {
        fill: #edf2f5;
      }

      .cls-6 {
        fill: #f2f6f8;
      }

      .cls-7 {
        fill: #f8dbf3;
      }

      .cls-8 {
        fill: #f4f8f9;
      }

      .cls-9 {
        fill: #e5edf1;
      }

      .cls-10 {
        fill: #f8d6f2;
      }

      .cls-11 {
        fill: #fae6f7;
      }

      .cls-12 {
        fill: #f7eff6;
      }

      .cls-13 {
        fill: #f9fbfc;
      }

      .cls-14 {
        fill: #e6edf1;
      }

      .cls-15 {
        fill: #f5c8ee;
      }

      .cls-16 {
        fill: #fcfafc;
      }

      .cls-17 {
        fill: #d5e2e8;
      }

      .cls-18 {
        fill: #f4c1eb;
      }

      .cls-19 {
        fill: #e7eef2;
      }

      .cls-20 {
        fill: #f8d9f3;
      }

      .cls-21 {
        fill: #f4f7f9;
      }

      .cls-22 {
        fill: #f2b7e8;
      }

      .cls-23 {
        fill: #fefcfe;
      }

      .cls-24 {
        fill: #eff4f7;
      }

      .cls-25 {
        fill: #f5c5ed;
      }

      .cls-26 {
        fill: #fbf7fb;
      }

      .cls-27 {
        fill: #f6ceef;
      }

      .cls-28 {
        fill: #f6cbee;
      }

      .cls-29 {
        fill: #f8d8f3;
      }

      .cls-30 {
        fill: #f9dff5;
      }

      .cls-31 {
        fill: #fdfbfd;
      }

      .cls-32 {
        fill: #f5c7ed;
      }
    </style>
  </defs>
  <g id="Layer_3" data-name="Layer 3">
    <g>
      <rect class="cls-15" x="161.7" y="14.7" width="4.9" height="4.9"/>
      <rect class="cls-9" x="156.8" y="14.7" width="4.9" height="4.9"/>
      <rect class="cls-14" x="151.9" y="14.7" width="4.9" height="4.9"/>
      <rect class="cls-14" x="147" y="14.7" width="4.9" height="4.9"/>
      <rect class="cls-15" x="142.1" y="14.7" width="4.9" height="4.9"/>
      <rect class="cls-15" x="137.2" y="14.7" width="4.9" height="4.9"/>
      <rect class="cls-15" x="132.3" y="14.7" width="4.9" height="4.9"/>
      <rect class="cls-25" x="127.4" y="14.7" width="4.9" height="4.9"/>
      <rect class="cls-32" x="122.5" y="14.7" width="4.9" height="4.9"/>
      <rect class="cls-25" x="117.6" y="14.7" width="4.9" height="4.9"/>
      <rect class="cls-1" x="112.7" y="14.7" width="4.9" height="4.9"/>
      <rect class="cls-18" x="107.8" y="14.7" width="4.9" height="4.9"/>
      <rect class="cls-22" x="102.9" y="14.7" width="4.9" height="4.9"/>
      <rect class="cls-2" x="98" y="14.7" width="4.9" height="4.9"/>
      <rect class="cls-15" x="93.1" y="14.7" width="4.9" height="4.9"/>
      <rect class="cls-3" x="88.2" y="14.7" width="4.9" height="4.9"/>
      <rect class="cls-15" x="78.4" y="14.7" width="4.9" height="4.9"/>
      <rect class="cls-15" x="73.5" y="14.7" width="4.9" height="4.9"/>
      <rect class="cls-2" x="68.6" y="14.7" width="4.9" height="4.9"/>
      <rect class="cls-3" x="63.7" y="14.7" width="4.9" height="4.9"/>
      <rect class="cls-3" x="58.8" y="14.7" width="4.9" height="4.9"/>
      <rect class="cls-15" x="53.9" y="14.7" width="4.9" height="4.9"/>
      <rect class="cls-15" x="49" y="14.7" width="4.9" height="4.9"/>
      <rect class="cls-3" x="44.1" y="14.7" width="4.9" height="4.9"/>
      <rect class="cls-15" x="39.2" y="14.7" width="4.9" height="4.9"/>
      <rect class="cls-28" x="34.3" y="14.7" width="4.9" height="4.9"/>
      <rect class="cls-15" x="29.4" y="14.7" width="4.9" height="4.9"/>
      <rect class="cls-15" x="24.5" y="14.7" width="4.9" height="4.9"/>
      <rect class="cls-3" x="19.6" y="14.7" width="4.9" height="4.9"/>
      <rect class="cls-15" x="14.7" y="14.7" width="4.9" height="4.9"/>
      <rect class="cls-15" x="9.8" y="14.7" width="4.9" height="4.9"/>
      <rect class="cls-32" x="4.9" y="14.7" width="4.9" height="4.9"/>
      <rect class="cls-19" x="142.1" y="9.8" width="4.9" height="4.9"/>
      <rect class="cls-6" x="137.2" y="9.8" width="4.9" height="4.9"/>
      <rect class="cls-24" x="132.3" y="9.8" width="4.9" height="4.9"/>
      <rect class="cls-30" x="127.4" y="9.8" width="4.9" height="4.9"/>
      <rect class="cls-4" x="122.5" y="9.8" width="4.9" height="4.9"/>
      <rect class="cls-8" x="117.6" y="9.8" width="4.9" height="4.9"/>
      <rect class="cls-19" x="112.7" y="9.8" width="4.9" height="4.9"/>
      <rect class="cls-28" x="98" y="9.8" width="4.9" height="4.9"/>
      <rect class="cls-3" x="93.1" y="9.8" width="4.9" height="4.9"/>
      <rect class="cls-3" x="88.2" y="9.8" width="4.9" height="4.9"/>
      <rect class="cls-3" x="83.3" y="9.8" width="4.9" height="4.9"/>
      <rect class="cls-15" x="78.4" y="9.8" width="4.9" height="4.9"/>
      <rect class="cls-3" x="73.5" y="9.8" width="4.9" height="4.9"/>
      <rect class="cls-3" x="68.6" y="9.8" width="4.9" height="4.9"/>
      <rect class="cls-3" x="63.7" y="9.8" width="4.9" height="4.9"/>
      <rect class="cls-28" x="58.8" y="9.8" width="4.9" height="4.9"/>
      <rect class="cls-20" x="53.9" y="9.8" width="4.9" height="4.9"/>
      <rect class="cls-10" x="49" y="9.8" width="4.9" height="4.9"/>
      <rect class="cls-5" x="44.1" y="9.8" width="4.9" height="4.9"/>
      <rect class="cls-24" x="39.2" y="9.8" width="4.9" height="4.9"/>
      <rect class="cls-26" x="34.3" y="9.8" width="4.9" height="4.9"/>
      <rect class="cls-21" x="29.4" y="9.8" width="4.9" height="4.9"/>
      <rect class="cls-11" x="24.5" y="9.8" width="4.9" height="4.9"/>
      <rect class="cls-12" x="19.6" y="9.8" width="4.9" height="4.9"/>
      <rect class="cls-26" x="14.7" y="9.8" width="4.9" height="4.9"/>
      <rect class="cls-28" x="9.8" y="9.8" width="4.9" height="4.9"/>
      <rect class="cls-15" x="4.9" y="9.8" width="4.9" height="4.9"/>
      <rect class="cls-3" y="9.8" width="4.9" height="4.9"/>
      <rect class="cls-13" x="93.1" y="4.9" width="4.9" height="4.9"/>
      <rect class="cls-29" x="88.2" y="4.9" width="4.9" height="4.9"/>
      <rect class="cls-7" x="83.3" y="4.9" width="4.9" height="4.9"/>
      <rect class="cls-31" x="78.4" y="4.9" width="4.9" height="4.9"/>
      <rect class="cls-31" x="73.5" y="4.9" width="4.9" height="4.9"/>
      <rect class="cls-4" x="68.6" y="4.9" width="4.9" height="4.9"/>
      <rect class="cls-16" x="63.7" y="4.9" width="4.9" height="4.9"/>
      <rect class="cls-3" x="58.8" y="4.9" width="4.9" height="4.9"/>
      <rect class="cls-3" x="53.9" y="4.9" width="4.9" height="4.9"/>
      <rect class="cls-3" x="49" y="4.9" width="4.9" height="4.9"/>
      <rect class="cls-3" x="44.1" y="4.9" width="4.9" height="4.9"/>
      <rect class="cls-27" x="39.2" y="4.9" width="4.9" height="4.9"/>
      <rect class="cls-32" x="34.3" y="4.9" width="4.9" height="4.9"/>
      <rect class="cls-15" x="29.4" y="4.9" width="4.9" height="4.9"/>
      <rect class="cls-15" x="24.5" y="4.9" width="4.9" height="4.9"/>
      <rect class="cls-15" x="19.6" y="4.9" width="4.9" height="4.9"/>
      <rect class="cls-23" x="14.7" y="4.9" width="4.9" height="4.9"/>
      <rect class="cls-17" x="9.8" y="4.9" width="4.9" height="4.9"/>
      <rect class="cls-15" x="34.3" width="4.9" height="4.9"/>
      <rect class="cls-15" x="29.4" width="4.9" height="4.9"/>
      <rect class="cls-15" x="24.5" width="4.9" height="4.9"/>
      <rect class="cls-15" x="19.6" width="4.9" height="4.9"/>
      <rect class="cls-16" x="14.7" width="4.9" height="4.9"/>
    </g>
  </g>
</svg>