<?xml version="1.0" encoding="UTF-8"?>
<svg id="Layer_2" data-name="Layer 2" xmlns="http://www.w3.org/2000/svg" viewBox="0 0 112.7 34.3">
  <defs>
    <style>
      .cls-1 {
        fill: #e4ecf0;
      }

      .cls-2 {
        fill: #f5caee;
      }

      .cls-3 {
        fill: #f7d1f0;
      }

      .cls-4 {
        fill: #ebf1f4;
      }

      .cls-5 {
        fill: #e2ebef;
      }

      .cls-6 {
        fill: #e1eaef;
      }

      .cls-7 {
        fill: #e5edf1;
      }

      .cls-8 {
        fill: #f9f2f8;
      }

      .cls-9 {
        fill: #f7eff6;
      }

      .cls-10 {
        fill: #f5c8ee;
      }

      .cls-11 {
        fill: #fcfafc;
      }

      .cls-12 {
        fill: #fbf6fa;
      }

      .cls-13 {
        fill: #f7eef5;
      }

      .cls-14 {
        fill: #e7eef2;
      }

      .cls-15 {
        fill: #f8d9f3;
      }

      .cls-16 {
        fill: #fafcfc;
      }

      .cls-17 {
        fill: #e3ecf0;
      }

      .cls-18 {
        fill: #f0f5f7;
      }

      .cls-19 {
        fill: #eff4f7;
      }

      .cls-20 {
        fill: #f5c5ed;
      }

      .cls-21 {
        fill: #fbf7fb;
      }

      .cls-22 {
        fill: #f6ceef;
      }

      .cls-23 {
        fill: #f6cbee;
      }

      .cls-24 {
        fill: #fcf8fb;
      }

      .cls-25 {
        fill: #f4e9f2;
      }

      .cls-26 {
        fill: #f1f5f7;
      }

      .cls-27 {
        fill: #fdfbfd;
      }

      .cls-28 {
        fill: #f5c7ed;
      }
    </style>
  </defs>
  <g id="Layer_3" data-name="Layer 3">
    <g>
      <rect class="cls-17" x="107.8" y="29.4" width="4.9" height="4.9"/>
      <rect class="cls-2" x="102.9" y="29.4" width="4.9" height="4.9"/>
      <rect class="cls-23" x="98" y="29.4" width="4.9" height="4.9"/>
      <rect class="cls-2" x="93.1" y="29.4" width="4.9" height="4.9"/>
      <rect class="cls-20" x="88.2" y="29.4" width="4.9" height="4.9"/>
      <rect class="cls-10" x="83.3" y="29.4" width="4.9" height="4.9"/>
      <rect class="cls-2" x="78.4" y="29.4" width="4.9" height="4.9"/>
      <rect class="cls-10" x="73.5" y="29.4" width="4.9" height="4.9"/>
      <rect class="cls-10" x="68.6" y="29.4" width="4.9" height="4.9"/>
      <rect class="cls-10" x="63.7" y="29.4" width="4.9" height="4.9"/>
      <rect class="cls-2" x="58.8" y="29.4" width="4.9" height="4.9"/>
      <rect class="cls-2" x="53.9" y="29.4" width="4.9" height="4.9"/>
      <rect class="cls-2" x="49" y="29.4" width="4.9" height="4.9"/>
      <rect class="cls-2" x="44.1" y="29.4" width="4.9" height="4.9"/>
      <rect class="cls-2" x="39.2" y="29.4" width="4.9" height="4.9"/>
      <rect class="cls-2" x="34.3" y="29.4" width="4.9" height="4.9"/>
      <rect class="cls-7" x="19.6" y="29.4" width="4.9" height="4.9"/>
      <rect class="cls-2" x="14.7" y="29.4" width="4.9" height="4.9"/>
      <rect class="cls-10" x="9.8" y="29.4" width="4.9" height="4.9"/>
      <rect class="cls-6" x="4.9" y="29.4" width="4.9" height="4.9"/>
      <rect class="cls-20" y="29.4" width="4.9" height="4.9"/>
      <rect class="cls-25" x="93.1" y="24.5" width="4.9" height="4.9"/>
      <rect class="cls-10" x="88.2" y="24.5" width="4.9" height="4.9"/>
      <rect class="cls-2" x="83.3" y="24.5" width="4.9" height="4.9"/>
      <rect class="cls-23" x="78.4" y="24.5" width="4.9" height="4.9"/>
      <rect class="cls-23" x="73.5" y="24.5" width="4.9" height="4.9"/>
      <rect class="cls-23" x="68.6" y="24.5" width="4.9" height="4.9"/>
      <rect class="cls-23" x="63.7" y="24.5" width="4.9" height="4.9"/>
      <rect class="cls-23" x="58.8" y="24.5" width="4.9" height="4.9"/>
      <rect class="cls-23" x="53.9" y="24.5" width="4.9" height="4.9"/>
      <rect class="cls-23" x="49" y="24.5" width="4.9" height="4.9"/>
      <rect class="cls-23" x="44.1" y="24.5" width="4.9" height="4.9"/>
      <rect class="cls-23" x="39.2" y="24.5" width="4.9" height="4.9"/>
      <rect class="cls-23" x="34.3" y="24.5" width="4.9" height="4.9"/>
      <rect class="cls-23" x="29.4" y="24.5" width="4.9" height="4.9"/>
      <rect class="cls-2" x="24.5" y="24.5" width="4.9" height="4.9"/>
      <rect class="cls-10" x="19.6" y="24.5" width="4.9" height="4.9"/>
      <rect class="cls-8" x="14.7" y="24.5" width="4.9" height="4.9"/>
      <rect class="cls-12" x="9.8" y="24.5" width="4.9" height="4.9"/>
      <rect class="cls-5" x="88.2" y="19.6" width="4.9" height="4.9"/>
      <rect class="cls-15" x="83.3" y="19.6" width="4.9" height="4.9"/>
      <rect class="cls-10" x="78.4" y="19.6" width="4.9" height="4.9"/>
      <rect class="cls-2" x="73.5" y="19.6" width="4.9" height="4.9"/>
      <rect class="cls-23" x="68.6" y="19.6" width="4.9" height="4.9"/>
      <rect class="cls-23" x="63.7" y="19.6" width="4.9" height="4.9"/>
      <rect class="cls-23" x="58.8" y="19.6" width="4.9" height="4.9"/>
      <rect class="cls-3" x="53.9" y="19.6" width="4.9" height="4.9"/>
      <rect class="cls-28" x="49" y="19.6" width="4.9" height="4.9"/>
      <rect class="cls-2" x="44.1" y="19.6" width="4.9" height="4.9"/>
      <rect class="cls-2" x="39.2" y="19.6" width="4.9" height="4.9"/>
      <rect class="cls-2" x="34.3" y="19.6" width="4.9" height="4.9"/>
      <rect class="cls-2" x="29.4" y="19.6" width="4.9" height="4.9"/>
      <rect class="cls-10" x="24.5" y="19.6" width="4.9" height="4.9"/>
      <rect class="cls-1" x="19.6" y="19.6" width="4.9" height="4.9"/>
      <rect class="cls-2" x="78.4" y="14.7" width="4.9" height="4.9"/>
      <rect class="cls-2" x="73.5" y="14.7" width="4.9" height="4.9"/>
      <rect class="cls-23" x="68.6" y="14.7" width="4.9" height="4.9"/>
      <rect class="cls-2" x="63.7" y="14.7" width="4.9" height="4.9"/>
      <rect class="cls-22" x="58.8" y="14.7" width="4.9" height="4.9"/>
      <rect class="cls-23" x="53.9" y="14.7" width="4.9" height="4.9"/>
      <rect class="cls-10" x="49" y="14.7" width="4.9" height="4.9"/>
      <rect class="cls-9" x="44.1" y="14.7" width="4.9" height="4.9"/>
      <rect class="cls-21" x="39.2" y="14.7" width="4.9" height="4.9"/>
      <rect class="cls-24" x="34.3" y="14.7" width="4.9" height="4.9"/>
      <rect class="cls-13" x="29.4" y="14.7" width="4.9" height="4.9"/>
      <rect class="cls-2" x="24.5" y="14.7" width="4.9" height="4.9"/>
      <rect class="cls-12" x="19.6" y="14.7" width="4.9" height="4.9"/>
      <rect class="cls-26" x="78.4" y="9.8" width="4.9" height="4.9"/>
      <rect class="cls-18" x="68.6" y="9.8" width="4.9" height="4.9"/>
      <rect class="cls-10" x="63.7" y="9.8" width="4.9" height="4.9"/>
      <rect class="cls-11" x="58.8" y="9.8" width="4.9" height="4.9"/>
      <rect class="cls-2" x="53.9" y="9.8" width="4.9" height="4.9"/>
      <rect class="cls-23" x="49" y="9.8" width="4.9" height="4.9"/>
      <rect class="cls-23" x="44.1" y="9.8" width="4.9" height="4.9"/>
      <rect class="cls-23" x="39.2" y="9.8" width="4.9" height="4.9"/>
      <rect class="cls-10" x="34.3" y="9.8" width="4.9" height="4.9"/>
      <rect class="cls-4" x="29.4" y="9.8" width="4.9" height="4.9"/>
      <rect class="cls-24" x="24.5" y="9.8" width="4.9" height="4.9"/>
      <rect class="cls-16" x="63.7" y="4.9" width="4.9" height="4.9"/>
      <rect class="cls-11" x="53.9" y="4.9" width="4.9" height="4.9"/>
      <rect class="cls-2" x="49" y="4.9" width="4.9" height="4.9"/>
      <rect class="cls-2" x="44.1" y="4.9" width="4.9" height="4.9"/>
      <rect class="cls-2" x="39.2" y="4.9" width="4.9" height="4.9"/>
      <rect class="cls-14" x="34.3" y="4.9" width="4.9" height="4.9"/>
      <rect class="cls-27" x="49" width="4.9" height="4.9"/>
      <rect class="cls-11" x="44.1" width="4.9" height="4.9"/>
      <rect class="cls-19" x="39.2" width="4.9" height="4.9"/>
    </g>
  </g>
</svg>