<?xml version="1.0" encoding="UTF-8"?>
<svg id="Layer_2" data-name="Layer 2" xmlns="http://www.w3.org/2000/svg" viewBox="0 0 53.9 19.6">
  <defs>
    <style>
      .cls-1 {
        fill: #e6d1f5;
      }

      .cls-2 {
        fill: #bc7bea;
      }

      .cls-3 {
        fill: #bd7eeb;
      }

      .cls-4 {
        fill: #b268e7;
      }

      .cls-5 {
        fill: #c185ec;
      }

      .cls-6 {
        fill: #b587e2;
      }

      .cls-7 {
        fill: #bb79ea;
      }

      .cls-8 {
        fill: #dec3f2;
      }

      .cls-9 {
        fill: #e1c4f6;
      }

      .cls-10 {
        fill: #c082eb;
      }

      .cls-11 {
        fill: #d0a2f0;
      }

      .cls-12 {
        fill: #e2c9f3;
      }

      .cls-13 {
        fill: #ca96ef;
      }

      .cls-14 {
        fill: #e3cbf4;
      }

      .cls-15 {
        fill: #e4cdf4;
      }
    </style>
  </defs>
  <g id="Layer_3" data-name="Layer 3">
    <g>
      <rect class="cls-12" x="34.3" y="14.7" width="4.9" height="4.9"/>
      <rect class="cls-8" x="29.4" y="14.7" width="4.9" height="4.9"/>
      <rect class="cls-3" x="24.5" y="14.7" width="4.9" height="4.9"/>
      <rect class="cls-2" x="19.6" y="14.7" width="4.9" height="4.9"/>
      <rect class="cls-2" x="14.7" y="14.7" width="4.9" height="4.9"/>
      <rect class="cls-4" x="9.8" y="14.7" width="4.9" height="4.9"/>
      <rect class="cls-15" x="4.9" y="14.7" width="4.9" height="4.9"/>
      <rect class="cls-9" x="49" y="9.8" width="4.9" height="4.9"/>
      <rect class="cls-1" x="44.1" y="9.8" width="4.9" height="4.9"/>
      <rect class="cls-13" x="39.2" y="9.8" width="4.9" height="4.9"/>
      <rect class="cls-10" x="34.3" y="9.8" width="4.9" height="4.9"/>
      <rect class="cls-2" x="29.4" y="9.8" width="4.9" height="4.9"/>
      <rect class="cls-10" x="24.5" y="9.8" width="4.9" height="4.9"/>
      <rect class="cls-10" x="19.6" y="9.8" width="4.9" height="4.9"/>
      <rect class="cls-10" x="14.7" y="9.8" width="4.9" height="4.9"/>
      <rect class="cls-7" x="9.8" y="9.8" width="4.9" height="4.9"/>
      <rect class="cls-5" x="4.9" y="9.8" width="4.9" height="4.9"/>
      <rect class="cls-12" y="9.8" width="4.9" height="4.9"/>
      <rect class="cls-11" x="34.3" y="4.9" width="4.9" height="4.9"/>
      <rect class="cls-14" x="29.4" y="4.9" width="4.9" height="4.9"/>
      <rect class="cls-2" x="24.5" y="4.9" width="4.9" height="4.9"/>
      <rect class="cls-3" x="19.6" y="4.9" width="4.9" height="4.9"/>
      <rect class="cls-2" x="14.7" y="4.9" width="4.9" height="4.9"/>
      <rect class="cls-2" x="9.8" y="4.9" width="4.9" height="4.9"/>
      <rect class="cls-7" x="19.6" width="4.9" height="4.9"/>
      <rect class="cls-6" x="14.7" width="4.9" height="4.9"/>
    </g>
  </g>
</svg>