<?xml version="1.0" encoding="UTF-8"?>
<svg id="Layer_2" data-name="Layer 2" xmlns="http://www.w3.org/2000/svg" viewBox="0 0 156.8 39.2">
  <defs>
    <style>
      .cls-1 {
        fill: #b66fe8;
      }

      .cls-2 {
        fill: #b874e9;
      }

      .cls-3 {
        fill: #c19ce7;
      }

      .cls-4 {
        fill: #f3ecfa;
      }

      .cls-5 {
        fill: #c791ee;
      }

      .cls-6 {
        fill: #e6d1f5;
      }

      .cls-7 {
        fill: #ede3f8;
      }

      .cls-8 {
        fill: #bc7bea;
      }

      .cls-9 {
        fill: #bd7eeb;
      }

      .cls-10 {
        fill: #e1c8f3;
      }

      .cls-11 {
        fill: #b78ae3;
      }

      .cls-12 {
        fill: #dbbdf1;
      }

      .cls-13 {
        fill: #e1cef3;
      }

      .cls-14 {
        fill: #cd9df0;
      }

      .cls-15 {
        fill: #c185ec;
      }

      .cls-16 {
        fill: #d3b8ee;
      }

      .cls-17 {
        fill: #bb79ea;
      }

      .cls-18 {
        fill: #e7d8f5;
      }

      .cls-19 {
        fill: #dcbbf4;
      }

      .cls-20 {
        fill: #a873dd;
      }

      .cls-21 {
        fill: #dec3f2;
      }

      .cls-22 {
        fill: #e1c4f6;
      }

      .cls-23 {
        fill: #e5cff5;
      }

      .cls-24 {
        fill: #e0c7f3;
      }

      .cls-25 {
        fill: #c082eb;
      }

      .cls-26 {
        fill: #d5bbef;
      }

      .cls-27 {
        fill: #d7b1f3;
      }

      .cls-28 {
        fill: #ddc0f1;
      }

      .cls-29 {
        fill: #cfb2ec;
      }

      .cls-30 {
        fill: #e2c9f3;
      }

      .cls-31 {
        fill: #e3cbf4;
      }

      .cls-32 {
        fill: #d5acf2;
      }

      .cls-33 {
        fill: #e4cdf4;
      }

      .cls-34 {
        fill: #e8d9f6;
      }

      .cls-35 {
        fill: #b36ae8;
      }

      .cls-36 {
        fill: #dfcbf2;
      }

      .cls-37 {
        fill: #d2b7ed;
      }

      .cls-38 {
        fill: #b56de8;
      }

      .cls-39 {
        fill: #ddc1f1;
      }
    </style>
  </defs>
  <g id="Layer_3" data-name="Layer 3">
    <g>
      <rect class="cls-12" x="151.9" y="34.3" width="4.9" height="4.9"/>
      <rect class="cls-12" x="147" y="34.3" width="4.9" height="4.9"/>
      <rect class="cls-21" x="142.1" y="34.3" width="4.9" height="4.9"/>
      <rect class="cls-39" x="137.2" y="34.3" width="4.9" height="4.9"/>
      <rect class="cls-28" x="132.3" y="34.3" width="4.9" height="4.9"/>
      <rect class="cls-21" x="127.4" y="34.3" width="4.9" height="4.9"/>
      <rect class="cls-35" x="122.5" y="34.3" width="4.9" height="4.9"/>
      <rect class="cls-38" x="117.6" y="34.3" width="4.9" height="4.9"/>
      <rect class="cls-2" x="112.7" y="34.3" width="4.9" height="4.9"/>
      <rect class="cls-1" x="107.8" y="34.3" width="4.9" height="4.9"/>
      <rect class="cls-1" x="102.9" y="34.3" width="4.9" height="4.9"/>
      <rect class="cls-8" x="98" y="34.3" width="4.9" height="4.9"/>
      <rect class="cls-30" x="93.1" y="34.3" width="4.9" height="4.9"/>
      <rect class="cls-30" x="88.2" y="34.3" width="4.9" height="4.9"/>
      <rect class="cls-9" x="83.3" y="34.3" width="4.9" height="4.9"/>
      <rect class="cls-8" x="78.4" y="34.3" width="4.9" height="4.9"/>
      <rect class="cls-8" x="73.5" y="34.3" width="4.9" height="4.9"/>
      <rect class="cls-33" x="68.6" y="34.3" width="4.9" height="4.9"/>
      <rect class="cls-30" x="63.7" y="34.3" width="4.9" height="4.9"/>
      <rect class="cls-33" x="58.8" y="34.3" width="4.9" height="4.9"/>
      <rect class="cls-10" x="53.9" y="34.3" width="4.9" height="4.9"/>
      <rect class="cls-10" x="49" y="34.3" width="4.9" height="4.9"/>
      <rect class="cls-33" x="44.1" y="34.3" width="4.9" height="4.9"/>
      <rect class="cls-33" x="39.2" y="34.3" width="4.9" height="4.9"/>
      <rect class="cls-33" x="34.3" y="34.3" width="4.9" height="4.9"/>
      <rect class="cls-9" x="29.4" y="34.3" width="4.9" height="4.9"/>
      <rect class="cls-8" x="24.5" y="34.3" width="4.9" height="4.9"/>
      <rect class="cls-33" x="19.6" y="34.3" width="4.9" height="4.9"/>
      <rect class="cls-33" x="14.7" y="34.3" width="4.9" height="4.9"/>
      <rect class="cls-23" x="9.8" y="34.3" width="4.9" height="4.9"/>
      <rect class="cls-6" x="4.9" y="34.3" width="4.9" height="4.9"/>
      <rect class="cls-33" y="34.3" width="4.9" height="4.9"/>
      <rect class="cls-7" x="127.4" y="29.4" width="4.9" height="4.9"/>
      <rect class="cls-32" x="122.5" y="29.4" width="4.9" height="4.9"/>
      <rect class="cls-15" x="117.6" y="29.4" width="4.9" height="4.9"/>
      <rect class="cls-31" x="112.7" y="29.4" width="4.9" height="4.9"/>
      <rect class="cls-27" x="107.8" y="29.4" width="4.9" height="4.9"/>
      <rect class="cls-9" x="102.9" y="29.4" width="4.9" height="4.9"/>
      <rect class="cls-9" x="98" y="29.4" width="4.9" height="4.9"/>
      <rect class="cls-9" x="93.1" y="29.4" width="4.9" height="4.9"/>
      <rect class="cls-9" x="88.2" y="29.4" width="4.9" height="4.9"/>
      <rect class="cls-9" x="83.3" y="29.4" width="4.9" height="4.9"/>
      <rect class="cls-9" x="78.4" y="29.4" width="4.9" height="4.9"/>
      <rect class="cls-9" x="73.5" y="29.4" width="4.9" height="4.9"/>
      <rect class="cls-25" x="68.6" y="29.4" width="4.9" height="4.9"/>
      <rect class="cls-25" x="63.7" y="29.4" width="4.9" height="4.9"/>
      <rect class="cls-25" x="58.8" y="29.4" width="4.9" height="4.9"/>
      <rect class="cls-9" x="53.9" y="29.4" width="4.9" height="4.9"/>
      <rect class="cls-9" x="49" y="29.4" width="4.9" height="4.9"/>
      <rect class="cls-25" x="44.1" y="29.4" width="4.9" height="4.9"/>
      <rect class="cls-9" x="39.2" y="29.4" width="4.9" height="4.9"/>
      <rect class="cls-9" x="34.3" y="29.4" width="4.9" height="4.9"/>
      <rect class="cls-6" x="29.4" y="29.4" width="4.9" height="4.9"/>
      <rect class="cls-17" x="24.5" y="29.4" width="4.9" height="4.9"/>
      <rect class="cls-8" x="19.6" y="29.4" width="4.9" height="4.9"/>
      <rect class="cls-9" x="14.7" y="29.4" width="4.9" height="4.9"/>
      <rect class="cls-24" x="9.8" y="29.4" width="4.9" height="4.9"/>
      <rect class="cls-11" x="107.8" y="24.5" width="4.9" height="4.9"/>
      <rect class="cls-9" x="102.9" y="24.5" width="4.9" height="4.9"/>
      <rect class="cls-25" x="98" y="24.5" width="4.9" height="4.9"/>
      <rect class="cls-25" x="93.1" y="24.5" width="4.9" height="4.9"/>
      <rect class="cls-25" x="88.2" y="24.5" width="4.9" height="4.9"/>
      <rect class="cls-25" x="83.3" y="24.5" width="4.9" height="4.9"/>
      <rect class="cls-25" x="78.4" y="24.5" width="4.9" height="4.9"/>
      <rect class="cls-25" x="73.5" y="24.5" width="4.9" height="4.9"/>
      <rect class="cls-8" x="68.6" y="24.5" width="4.9" height="4.9"/>
      <rect class="cls-19" x="63.7" y="24.5" width="4.9" height="4.9"/>
      <rect class="cls-33" x="58.8" y="24.5" width="4.9" height="4.9"/>
      <rect class="cls-9" x="53.9" y="24.5" width="4.9" height="4.9"/>
      <rect class="cls-37" x="49" y="24.5" width="4.9" height="4.9"/>
      <rect class="cls-15" x="44.1" y="24.5" width="4.9" height="4.9"/>
      <rect class="cls-8" x="39.2" y="24.5" width="4.9" height="4.9"/>
      <rect class="cls-9" x="34.3" y="24.5" width="4.9" height="4.9"/>
      <rect class="cls-22" x="29.4" y="24.5" width="4.9" height="4.9"/>
      <rect class="cls-29" x="107.8" y="19.6" width="4.9" height="4.9"/>
      <rect class="cls-9" x="102.9" y="19.6" width="4.9" height="4.9"/>
      <rect class="cls-9" x="98" y="19.6" width="4.9" height="4.9"/>
      <rect class="cls-14" x="93.1" y="19.6" width="4.9" height="4.9"/>
      <rect class="cls-9" x="88.2" y="19.6" width="4.9" height="4.9"/>
      <rect class="cls-9" x="83.3" y="19.6" width="4.9" height="4.9"/>
      <rect class="cls-25" x="78.4" y="19.6" width="4.9" height="4.9"/>
      <rect class="cls-25" x="73.5" y="19.6" width="4.9" height="4.9"/>
      <rect class="cls-25" x="68.6" y="19.6" width="4.9" height="4.9"/>
      <rect class="cls-8" x="63.7" y="19.6" width="4.9" height="4.9"/>
      <rect class="cls-5" x="58.8" y="19.6" width="4.9" height="4.9"/>
      <rect class="cls-13" x="53.9" y="19.6" width="4.9" height="4.9"/>
      <rect class="cls-9" x="49" y="19.6" width="4.9" height="4.9"/>
      <rect class="cls-25" x="44.1" y="19.6" width="4.9" height="4.9"/>
      <rect class="cls-8" x="39.2" y="19.6" width="4.9" height="4.9"/>
      <rect class="cls-18" x="34.3" y="19.6" width="4.9" height="4.9"/>
      <rect class="cls-18" x="29.4" y="19.6" width="4.9" height="4.9"/>
      <rect class="cls-6" x="102.9" y="14.7" width="4.9" height="4.9"/>
      <rect class="cls-34" x="98" y="14.7" width="4.9" height="4.9"/>
      <rect class="cls-26" x="88.2" y="14.7" width="4.9" height="4.9"/>
      <rect class="cls-30" x="83.3" y="14.7" width="4.9" height="4.9"/>
      <rect class="cls-9" x="78.4" y="14.7" width="4.9" height="4.9"/>
      <rect class="cls-25" x="73.5" y="14.7" width="4.9" height="4.9"/>
      <rect class="cls-25" x="68.6" y="14.7" width="4.9" height="4.9"/>
      <rect class="cls-25" x="63.7" y="14.7" width="4.9" height="4.9"/>
      <rect class="cls-25" x="58.8" y="14.7" width="4.9" height="4.9"/>
      <rect class="cls-25" x="53.9" y="14.7" width="4.9" height="4.9"/>
      <rect class="cls-25" x="49" y="14.7" width="4.9" height="4.9"/>
      <rect class="cls-25" x="44.1" y="14.7" width="4.9" height="4.9"/>
      <rect class="cls-9" x="39.2" y="14.7" width="4.9" height="4.9"/>
      <rect class="cls-7" x="34.3" y="14.7" width="4.9" height="4.9"/>
      <rect class="cls-20" x="83.3" y="9.8" width="4.9" height="4.9"/>
      <rect class="cls-9" x="78.4" y="9.8" width="4.9" height="4.9"/>
      <rect class="cls-31" x="73.5" y="9.8" width="4.9" height="4.9"/>
      <rect class="cls-31" x="68.6" y="9.8" width="4.9" height="4.9"/>
      <rect class="cls-8" x="63.7" y="9.8" width="4.9" height="4.9"/>
      <rect class="cls-30" x="58.8" y="9.8" width="4.9" height="4.9"/>
      <rect class="cls-3" x="53.9" y="9.8" width="4.9" height="4.9"/>
      <rect class="cls-8" x="49" y="9.8" width="4.9" height="4.9"/>
      <rect class="cls-9" x="44.1" y="9.8" width="4.9" height="4.9"/>
      <rect class="cls-30" x="39.2" y="9.8" width="4.9" height="4.9"/>
      <rect class="cls-7" x="34.3" y="9.8" width="4.9" height="4.9"/>
      <rect class="cls-34" x="78.4" y="4.9" width="4.9" height="4.9"/>
      <rect class="cls-9" x="73.5" y="4.9" width="4.9" height="4.9"/>
      <rect class="cls-15" x="68.6" y="4.9" width="4.9" height="4.9"/>
      <rect class="cls-34" x="63.7" y="4.9" width="4.9" height="4.9"/>
      <rect class="cls-11" x="49" y="4.9" width="4.9" height="4.9"/>
      <rect class="cls-16" x="44.1" y="4.9" width="4.9" height="4.9"/>
      <rect class="cls-4" x="39.2" y="4.9" width="4.9" height="4.9"/>
      <rect class="cls-18" x="73.5" width="4.9" height="4.9"/>
      <rect class="cls-36" x="68.6" width="4.9" height="4.9"/>
    </g>
  </g>
</svg>