<?xml version="1.0" encoding="UTF-8"?>
<svg id="Layer_2" data-name="Layer 2" xmlns="http://www.w3.org/2000/svg" viewBox="0 0 122.5 39.2">
  <defs>
    <style>
      .cls-1 {
        fill: #dbb8f4;
      }

      .cls-2 {
        fill: #c19ce7;
      }

      .cls-3 {
        fill: #f3ecfa;
      }

      .cls-4 {
        fill: #ede3f8;
      }

      .cls-5 {
        fill: #bc7bea;
      }

      .cls-6 {
        fill: #bd7eeb;
      }

      .cls-7 {
        fill: #ecdaf9;
      }

      .cls-8 {
        fill: #bc94e5;
      }

      .cls-9 {
        fill: #aa76de;
      }

      .cls-10 {
        fill: #e2c7f6;
      }

      .cls-11 {
        fill: #e1cef3;
      }

      .cls-12 {
        fill: #cd9df0;
      }

      .cls-13 {
        fill: #c185ec;
      }

      .cls-14 {
        fill: #b587e2;
      }

      .cls-15 {
        fill: #d3b8ee;
      }

      .cls-16 {
        fill: #bb79ea;
      }

      .cls-17 {
        fill: #e7d8f5;
      }

      .cls-18 {
        fill: #dcc6f1;
      }

      .cls-19 {
        fill: #a873dd;
      }

      .cls-20 {
        fill: #dec3f2;
      }

      .cls-21 {
        fill: #e1c4f6;
      }

      .cls-22 {
        fill: #c082eb;
      }

      .cls-23 {
        fill: #cfa0f0;
      }

      .cls-24 {
        fill: #d5bbef;
      }

      .cls-25 {
        fill: #e2c9f3;
      }

      .cls-26 {
        fill: #c287ec;
      }

      .cls-27 {
        fill: #9d62d9;
      }

      .cls-28 {
        fill: #b181e0;
      }

      .cls-29 {
        fill: #e0c2f5;
      }

      .cls-30 {
        fill: #d8c0f0;
      }

      .cls-31 {
        fill: #c38aed;
      }

      .cls-32 {
        fill: #c29de7;
      }

      .cls-33 {
        fill: #e8d9f6;
      }

      .cls-34 {
        fill: #c8a7ea;
      }

      .cls-35 {
        fill: #b07fe0;
      }

      .cls-36 {
        fill: #d2b7ed;
      }

      .cls-37 {
        fill: #caaaea;
      }

      .cls-38 {
        fill: #cb98ef;
      }
    </style>
  </defs>
  <g id="Layer_3" data-name="Layer 3">
    <g>
      <rect class="cls-34" x="117.6" y="34.3" width="4.9" height="4.9"/>
      <rect class="cls-6" x="112.7" y="34.3" width="4.9" height="4.9"/>
      <rect class="cls-27" x="107.8" y="34.3" width="4.9" height="4.9"/>
      <rect class="cls-6" x="102.9" y="34.3" width="4.9" height="4.9"/>
      <rect class="cls-22" x="98" y="34.3" width="4.9" height="4.9"/>
      <rect class="cls-6" x="93.1" y="34.3" width="4.9" height="4.9"/>
      <rect class="cls-25" x="88.2" y="34.3" width="4.9" height="4.9"/>
      <rect class="cls-5" x="83.3" y="34.3" width="4.9" height="4.9"/>
      <rect class="cls-5" x="78.4" y="34.3" width="4.9" height="4.9"/>
      <rect class="cls-5" x="73.5" y="34.3" width="4.9" height="4.9"/>
      <rect class="cls-5" x="68.6" y="34.3" width="4.9" height="4.9"/>
      <rect class="cls-6" x="63.7" y="34.3" width="4.9" height="4.9"/>
      <rect class="cls-6" x="58.8" y="34.3" width="4.9" height="4.9"/>
      <rect class="cls-22" x="53.9" y="34.3" width="4.9" height="4.9"/>
      <rect class="cls-6" x="49" y="34.3" width="4.9" height="4.9"/>
      <rect class="cls-6" x="44.1" y="34.3" width="4.9" height="4.9"/>
      <rect class="cls-6" x="39.2" y="34.3" width="4.9" height="4.9"/>
      <rect class="cls-5" x="34.3" y="34.3" width="4.9" height="4.9"/>
      <rect class="cls-25" x="29.4" y="34.3" width="4.9" height="4.9"/>
      <rect class="cls-5" x="24.5" y="34.3" width="4.9" height="4.9"/>
      <rect class="cls-6" x="19.6" y="34.3" width="4.9" height="4.9"/>
      <rect class="cls-6" x="14.7" y="34.3" width="4.9" height="4.9"/>
      <rect class="cls-27" x="9.8" y="34.3" width="4.9" height="4.9"/>
      <rect class="cls-16" x="4.9" y="34.3" width="4.9" height="4.9"/>
      <rect class="cls-27" y="34.3" width="4.9" height="4.9"/>
      <rect class="cls-32" x="107.8" y="29.4" width="4.9" height="4.9"/>
      <rect class="cls-5" x="102.9" y="29.4" width="4.9" height="4.9"/>
      <rect class="cls-22" x="98" y="29.4" width="4.9" height="4.9"/>
      <rect class="cls-22" x="93.1" y="29.4" width="4.9" height="4.9"/>
      <rect class="cls-22" x="88.2" y="29.4" width="4.9" height="4.9"/>
      <rect class="cls-6" x="83.3" y="29.4" width="4.9" height="4.9"/>
      <rect class="cls-22" x="78.4" y="29.4" width="4.9" height="4.9"/>
      <rect class="cls-6" x="73.5" y="29.4" width="4.9" height="4.9"/>
      <rect class="cls-6" x="68.6" y="29.4" width="4.9" height="4.9"/>
      <rect class="cls-22" x="63.7" y="29.4" width="4.9" height="4.9"/>
      <rect class="cls-6" x="58.8" y="29.4" width="4.9" height="4.9"/>
      <rect class="cls-6" x="53.9" y="29.4" width="4.9" height="4.9"/>
      <rect class="cls-6" x="49" y="29.4" width="4.9" height="4.9"/>
      <rect class="cls-6" x="44.1" y="29.4" width="4.9" height="4.9"/>
      <rect class="cls-22" x="39.2" y="29.4" width="4.9" height="4.9"/>
      <rect class="cls-6" x="34.3" y="29.4" width="4.9" height="4.9"/>
      <rect class="cls-6" x="29.4" y="29.4" width="4.9" height="4.9"/>
      <rect class="cls-6" x="24.5" y="29.4" width="4.9" height="4.9"/>
      <rect class="cls-6" x="19.6" y="29.4" width="4.9" height="4.9"/>
      <rect class="cls-6" x="14.7" y="29.4" width="4.9" height="4.9"/>
      <rect class="cls-10" x="9.8" y="29.4" width="4.9" height="4.9"/>
      <rect class="cls-22" x="98" y="24.5" width="4.9" height="4.9"/>
      <rect class="cls-23" x="93.1" y="24.5" width="4.9" height="4.9"/>
      <rect class="cls-5" x="88.2" y="24.5" width="4.9" height="4.9"/>
      <rect class="cls-6" x="83.3" y="24.5" width="4.9" height="4.9"/>
      <rect class="cls-6" x="78.4" y="24.5" width="4.9" height="4.9"/>
      <rect class="cls-6" x="73.5" y="24.5" width="4.9" height="4.9"/>
      <rect class="cls-6" x="68.6" y="24.5" width="4.9" height="4.9"/>
      <rect class="cls-22" x="63.7" y="24.5" width="4.9" height="4.9"/>
      <rect class="cls-31" x="58.8" y="24.5" width="4.9" height="4.9"/>
      <rect class="cls-35" x="53.9" y="24.5" width="4.9" height="4.9"/>
      <rect class="cls-29" x="49" y="24.5" width="4.9" height="4.9"/>
      <rect class="cls-22" x="44.1" y="24.5" width="4.9" height="4.9"/>
      <rect class="cls-22" x="39.2" y="24.5" width="4.9" height="4.9"/>
      <rect class="cls-22" x="34.3" y="24.5" width="4.9" height="4.9"/>
      <rect class="cls-22" x="29.4" y="24.5" width="4.9" height="4.9"/>
      <rect class="cls-22" x="24.5" y="24.5" width="4.9" height="4.9"/>
      <rect class="cls-6" x="19.6" y="24.5" width="4.9" height="4.9"/>
      <rect class="cls-6" x="14.7" y="24.5" width="4.9" height="4.9"/>
      <rect class="cls-33" x="9.8" y="24.5" width="4.9" height="4.9"/>
      <rect class="cls-4" x="102.9" y="19.6" width="4.9" height="4.9"/>
      <rect class="cls-22" x="98" y="19.6" width="4.9" height="4.9"/>
      <rect class="cls-16" x="93.1" y="19.6" width="4.9" height="4.9"/>
      <rect class="cls-26" x="88.2" y="19.6" width="4.9" height="4.9"/>
      <rect class="cls-15" x="83.3" y="19.6" width="4.9" height="4.9"/>
      <rect class="cls-13" x="78.4" y="19.6" width="4.9" height="4.9"/>
      <rect class="cls-18" x="73.5" y="19.6" width="4.9" height="4.9"/>
      <rect class="cls-22" x="68.6" y="19.6" width="4.9" height="4.9"/>
      <rect class="cls-6" x="63.7" y="19.6" width="4.9" height="4.9"/>
      <rect class="cls-30" x="58.8" y="19.6" width="4.9" height="4.9"/>
      <rect class="cls-14" x="53.9" y="19.6" width="4.9" height="4.9"/>
      <rect class="cls-5" x="49" y="19.6" width="4.9" height="4.9"/>
      <rect class="cls-22" x="44.1" y="19.6" width="4.9" height="4.9"/>
      <rect class="cls-22" x="39.2" y="19.6" width="4.9" height="4.9"/>
      <rect class="cls-22" x="34.3" y="19.6" width="4.9" height="4.9"/>
      <rect class="cls-6" x="29.4" y="19.6" width="4.9" height="4.9"/>
      <rect class="cls-36" x="24.5" y="19.6" width="4.9" height="4.9"/>
      <rect class="cls-19" x="19.6" y="19.6" width="4.9" height="4.9"/>
      <rect class="cls-14" x="14.7" y="19.6" width="4.9" height="4.9"/>
      <rect class="cls-7" x="9.8" y="19.6" width="4.9" height="4.9"/>
      <rect class="cls-4" x="102.9" y="14.7" width="4.9" height="4.9"/>
      <rect class="cls-6" x="98" y="14.7" width="4.9" height="4.9"/>
      <rect class="cls-22" x="93.1" y="14.7" width="4.9" height="4.9"/>
      <rect class="cls-6" x="88.2" y="14.7" width="4.9" height="4.9"/>
      <rect class="cls-5" x="83.3" y="14.7" width="4.9" height="4.9"/>
      <rect class="cls-28" x="78.4" y="14.7" width="4.9" height="4.9"/>
      <rect class="cls-13" x="73.5" y="14.7" width="4.9" height="4.9"/>
      <rect class="cls-33" x="68.6" y="14.7" width="4.9" height="4.9"/>
      <rect class="cls-33" x="63.7" y="14.7" width="4.9" height="4.9"/>
      <rect class="cls-21" x="58.8" y="14.7" width="4.9" height="4.9"/>
      <rect class="cls-6" x="53.9" y="14.7" width="4.9" height="4.9"/>
      <rect class="cls-6" x="49" y="14.7" width="4.9" height="4.9"/>
      <rect class="cls-22" x="44.1" y="14.7" width="4.9" height="4.9"/>
      <rect class="cls-22" x="39.2" y="14.7" width="4.9" height="4.9"/>
      <rect class="cls-6" x="34.3" y="14.7" width="4.9" height="4.9"/>
      <rect class="cls-6" x="29.4" y="14.7" width="4.9" height="4.9"/>
      <rect class="cls-20" x="24.5" y="14.7" width="4.9" height="4.9"/>
      <rect class="cls-34" x="19.6" y="14.7" width="4.9" height="4.9"/>
      <rect class="cls-17" x="14.7" y="14.7" width="4.9" height="4.9"/>
      <rect class="cls-9" x="102.9" y="9.8" width="4.9" height="4.9"/>
      <rect class="cls-6" x="98" y="9.8" width="4.9" height="4.9"/>
      <rect class="cls-6" x="93.1" y="9.8" width="4.9" height="4.9"/>
      <rect class="cls-22" x="88.2" y="9.8" width="4.9" height="4.9"/>
      <rect class="cls-6" x="83.3" y="9.8" width="4.9" height="4.9"/>
      <rect class="cls-12" x="78.4" y="9.8" width="4.9" height="4.9"/>
      <rect class="cls-5" x="73.5" y="9.8" width="4.9" height="4.9"/>
      <rect class="cls-6" x="68.6" y="9.8" width="4.9" height="4.9"/>
      <rect class="cls-8" x="58.8" y="9.8" width="4.9" height="4.9"/>
      <rect class="cls-11" x="53.9" y="9.8" width="4.9" height="4.9"/>
      <rect class="cls-38" x="49" y="9.8" width="4.9" height="4.9"/>
      <rect class="cls-22" x="44.1" y="9.8" width="4.9" height="4.9"/>
      <rect class="cls-22" x="39.2" y="9.8" width="4.9" height="4.9"/>
      <rect class="cls-16" x="34.3" y="9.8" width="4.9" height="4.9"/>
      <rect class="cls-4" x="29.4" y="9.8" width="4.9" height="4.9"/>
      <rect class="cls-22" x="93.1" y="4.9" width="4.9" height="4.9"/>
      <rect class="cls-16" x="88.2" y="4.9" width="4.9" height="4.9"/>
      <rect class="cls-21" x="83.3" y="4.9" width="4.9" height="4.9"/>
      <rect class="cls-17" x="78.4" y="4.9" width="4.9" height="4.9"/>
      <rect class="cls-4" x="73.5" y="4.9" width="4.9" height="4.9"/>
      <rect class="cls-28" x="68.6" y="4.9" width="4.9" height="4.9"/>
      <rect class="cls-3" x="49" y="4.9" width="4.9" height="4.9"/>
      <rect class="cls-37" x="44.1" y="4.9" width="4.9" height="4.9"/>
      <rect class="cls-1" x="39.2" y="4.9" width="4.9" height="4.9"/>
      <rect class="cls-4" x="34.3" y="4.9" width="4.9" height="4.9"/>
      <rect class="cls-2" x="29.4" y="4.9" width="4.9" height="4.9"/>
      <rect class="cls-28" x="44.1" width="4.9" height="4.9"/>
      <rect class="cls-24" x="39.2" width="4.9" height="4.9"/>
    </g>
  </g>
</svg>