<?xml version="1.0" encoding="UTF-8"?>
<svg id="Layer_2" data-name="Layer 2" xmlns="http://www.w3.org/2000/svg" viewBox="0 0 161.7 44.1">
  <defs>
    <style>
      .cls-1 {
        fill: #d2a7f1;
      }

      .cls-2 {
        fill: #e6cef7;
      }

      .cls-3 {
        fill: #a64fe3;
      }

      .cls-4 {
        fill: #b874e9;
      }

      .cls-5 {
        fill: #c19ce7;
      }

      .cls-6 {
        fill: #c791ee;
      }

      .cls-7 {
        fill: #e6d1f5;
      }

      .cls-8 {
        fill: #bc7bea;
      }

      .cls-9 {
        fill: #bd7eeb;
      }

      .cls-10 {
        fill: #aa76de;
      }

      .cls-11 {
        fill: #e2c7f6;
      }

      .cls-12 {
        fill: #b78ae3;
      }

      .cls-13 {
        fill: #c185ec;
      }

      .cls-14 {
        fill: #b587e2;
      }

      .cls-15 {
        fill: #d3b8ee;
      }

      .cls-16 {
        fill: #bb79ea;
      }

      .cls-17 {
        fill: #dcc6f1;
      }

      .cls-18 {
        fill: #830bd9;
      }

      .cls-19 {
        fill: #dec3f2;
      }

      .cls-20 {
        fill: #e1c4f6;
      }

      .cls-21 {
        fill: #e0c6f3;
      }

      .cls-22 {
        fill: #c082eb;
      }

      .cls-23 {
        fill: #cfa0f0;
      }

      .cls-24 {
        fill: #bb92e5;
      }

      .cls-25 {
        fill: #d0a2f0;
      }

      .cls-26 {
        fill: #e2c9f3;
      }

      .cls-27 {
        fill: #c287ec;
      }

      .cls-28 {
        fill: #9d62d9;
      }

      .cls-29 {
        fill: #b181e0;
      }

      .cls-30 {
        fill: #ca96ef;
      }

      .cls-31 {
        fill: #e3cbf4;
      }

      .cls-32 {
        fill: #e4cdf4;
      }

      .cls-33 {
        fill: #a36bdb;
      }

      .cls-34 {
        fill: #c29de7;
      }

      .cls-35 {
        fill: #e8d9f6;
      }

      .cls-36 {
        fill: #c8a7ea;
      }

      .cls-37 {
        fill: #c68fed;
      }

      .cls-38 {
        fill: #dac3f0;
      }

      .cls-39 {
        fill: #caaaea;
      }

      .cls-40 {
        fill: #cb98ef;
      }
    </style>
  </defs>
  <g id="Layer_3" data-name="Layer 3">
    <g>
      <rect class="cls-18" x="147" y="39.2" width="4.9" height="4.9"/>
      <rect class="cls-3" x="142.1" y="39.2" width="4.9" height="4.9"/>
      <rect class="cls-8" x="137.2" y="39.2" width="4.9" height="4.9"/>
      <rect class="cls-9" x="132.3" y="39.2" width="4.9" height="4.9"/>
      <rect class="cls-8" x="127.4" y="39.2" width="4.9" height="4.9"/>
      <rect class="cls-26" x="122.5" y="39.2" width="4.9" height="4.9"/>
      <rect class="cls-8" x="117.6" y="39.2" width="4.9" height="4.9"/>
      <rect class="cls-8" x="112.7" y="39.2" width="4.9" height="4.9"/>
      <rect class="cls-8" x="107.8" y="39.2" width="4.9" height="4.9"/>
      <rect class="cls-9" x="102.9" y="39.2" width="4.9" height="4.9"/>
      <rect class="cls-8" x="98" y="39.2" width="4.9" height="4.9"/>
      <rect class="cls-8" x="93.1" y="39.2" width="4.9" height="4.9"/>
      <rect class="cls-9" x="88.2" y="39.2" width="4.9" height="4.9"/>
      <rect class="cls-9" x="83.3" y="39.2" width="4.9" height="4.9"/>
      <rect class="cls-4" x="39.2" y="39.2" width="4.9" height="4.9"/>
      <rect class="cls-8" x="34.3" y="39.2" width="4.9" height="4.9"/>
      <rect class="cls-8" x="29.4" y="39.2" width="4.9" height="4.9"/>
      <rect class="cls-8" x="24.5" y="39.2" width="4.9" height="4.9"/>
      <rect class="cls-8" x="19.6" y="39.2" width="4.9" height="4.9"/>
      <rect class="cls-9" x="14.7" y="39.2" width="4.9" height="4.9"/>
      <rect class="cls-9" x="9.8" y="39.2" width="4.9" height="4.9"/>
      <rect class="cls-8" x="4.9" y="39.2" width="4.9" height="4.9"/>
      <rect class="cls-37" y="39.2" width="4.9" height="4.9"/>
      <rect class="cls-32" x="156.8" y="34.3" width="4.9" height="4.9"/>
      <rect class="cls-5" x="151.9" y="34.3" width="4.9" height="4.9"/>
      <rect class="cls-24" x="147" y="34.3" width="4.9" height="4.9"/>
      <rect class="cls-10" x="142.1" y="34.3" width="4.9" height="4.9"/>
      <rect class="cls-9" x="137.2" y="34.3" width="4.9" height="4.9"/>
      <rect class="cls-22" x="132.3" y="34.3" width="4.9" height="4.9"/>
      <rect class="cls-8" x="127.4" y="34.3" width="4.9" height="4.9"/>
      <rect class="cls-8" x="122.5" y="34.3" width="4.9" height="4.9"/>
      <rect class="cls-9" x="117.6" y="34.3" width="4.9" height="4.9"/>
      <rect class="cls-22" x="112.7" y="34.3" width="4.9" height="4.9"/>
      <rect class="cls-9" x="107.8" y="34.3" width="4.9" height="4.9"/>
      <rect class="cls-8" x="102.9" y="34.3" width="4.9" height="4.9"/>
      <rect class="cls-16" x="98" y="34.3" width="4.9" height="4.9"/>
      <rect class="cls-9" x="93.1" y="34.3" width="4.9" height="4.9"/>
      <rect class="cls-8" x="88.2" y="34.3" width="4.9" height="4.9"/>
      <rect class="cls-8" x="83.3" y="34.3" width="4.9" height="4.9"/>
      <rect class="cls-8" x="78.4" y="34.3" width="4.9" height="4.9"/>
      <rect class="cls-31" x="73.5" y="34.3" width="4.9" height="4.9"/>
      <rect class="cls-9" x="68.6" y="34.3" width="4.9" height="4.9"/>
      <rect class="cls-22" x="63.7" y="34.3" width="4.9" height="4.9"/>
      <rect class="cls-40" x="58.8" y="34.3" width="4.9" height="4.9"/>
      <rect class="cls-6" x="53.9" y="34.3" width="4.9" height="4.9"/>
      <rect class="cls-9" x="49" y="34.3" width="4.9" height="4.9"/>
      <rect class="cls-22" x="44.1" y="34.3" width="4.9" height="4.9"/>
      <rect class="cls-9" x="39.2" y="34.3" width="4.9" height="4.9"/>
      <rect class="cls-22" x="34.3" y="34.3" width="4.9" height="4.9"/>
      <rect class="cls-9" x="29.4" y="34.3" width="4.9" height="4.9"/>
      <rect class="cls-9" x="24.5" y="34.3" width="4.9" height="4.9"/>
      <rect class="cls-8" x="19.6" y="34.3" width="4.9" height="4.9"/>
      <rect class="cls-8" x="14.7" y="34.3" width="4.9" height="4.9"/>
      <rect class="cls-8" x="9.8" y="34.3" width="4.9" height="4.9"/>
      <rect class="cls-21" x="4.9" y="34.3" width="4.9" height="4.9"/>
      <rect class="cls-25" x="122.5" y="29.4" width="4.9" height="4.9"/>
      <rect class="cls-8" x="117.6" y="29.4" width="4.9" height="4.9"/>
      <rect class="cls-22" x="112.7" y="29.4" width="4.9" height="4.9"/>
      <rect class="cls-22" x="107.8" y="29.4" width="4.9" height="4.9"/>
      <rect class="cls-27" x="102.9" y="29.4" width="4.9" height="4.9"/>
      <rect class="cls-26" x="98" y="29.4" width="4.9" height="4.9"/>
      <rect class="cls-8" x="93.1" y="29.4" width="4.9" height="4.9"/>
      <rect class="cls-30" x="88.2" y="29.4" width="4.9" height="4.9"/>
      <rect class="cls-22" x="83.3" y="29.4" width="4.9" height="4.9"/>
      <rect class="cls-27" x="78.4" y="29.4" width="4.9" height="4.9"/>
      <rect class="cls-8" x="73.5" y="29.4" width="4.9" height="4.9"/>
      <rect class="cls-20" x="68.6" y="29.4" width="4.9" height="4.9"/>
      <rect class="cls-17" x="63.7" y="29.4" width="4.9" height="4.9"/>
      <rect class="cls-9" x="58.8" y="29.4" width="4.9" height="4.9"/>
      <rect class="cls-9" x="53.9" y="29.4" width="4.9" height="4.9"/>
      <rect class="cls-22" x="49" y="29.4" width="4.9" height="4.9"/>
      <rect class="cls-22" x="44.1" y="29.4" width="4.9" height="4.9"/>
      <rect class="cls-22" x="39.2" y="29.4" width="4.9" height="4.9"/>
      <rect class="cls-22" x="34.3" y="29.4" width="4.9" height="4.9"/>
      <rect class="cls-8" x="29.4" y="29.4" width="4.9" height="4.9"/>
      <rect class="cls-8" x="24.5" y="29.4" width="4.9" height="4.9"/>
      <rect class="cls-27" x="19.6" y="29.4" width="4.9" height="4.9"/>
      <rect class="cls-12" x="14.7" y="29.4" width="4.9" height="4.9"/>
      <rect class="cls-23" x="9.8" y="29.4" width="4.9" height="4.9"/>
      <rect class="cls-38" x="4.9" y="29.4" width="4.9" height="4.9"/>
      <rect class="cls-1" x="117.6" y="24.5" width="4.9" height="4.9"/>
      <rect class="cls-35" x="112.7" y="24.5" width="4.9" height="4.9"/>
      <rect class="cls-26" x="107.8" y="24.5" width="4.9" height="4.9"/>
      <rect class="cls-31" x="102.9" y="24.5" width="4.9" height="4.9"/>
      <rect class="cls-34" x="98" y="24.5" width="4.9" height="4.9"/>
      <rect class="cls-8" x="93.1" y="24.5" width="4.9" height="4.9"/>
      <rect class="cls-13" x="88.2" y="24.5" width="4.9" height="4.9"/>
      <rect class="cls-26" x="83.3" y="24.5" width="4.9" height="4.9"/>
      <rect class="cls-8" x="78.4" y="24.5" width="4.9" height="4.9"/>
      <rect class="cls-8" x="73.5" y="24.5" width="4.9" height="4.9"/>
      <rect class="cls-8" x="68.6" y="24.5" width="4.9" height="4.9"/>
      <rect class="cls-22" x="63.7" y="24.5" width="4.9" height="4.9"/>
      <rect class="cls-30" x="58.8" y="24.5" width="4.9" height="4.9"/>
      <rect class="cls-40" x="53.9" y="24.5" width="4.9" height="4.9"/>
      <rect class="cls-9" x="49" y="24.5" width="4.9" height="4.9"/>
      <rect class="cls-9" x="44.1" y="24.5" width="4.9" height="4.9"/>
      <rect class="cls-1" x="39.2" y="24.5" width="4.9" height="4.9"/>
      <rect class="cls-8" x="34.3" y="24.5" width="4.9" height="4.9"/>
      <rect class="cls-29" x="29.4" y="24.5" width="4.9" height="4.9"/>
      <rect class="cls-34" x="93.1" y="19.6" width="4.9" height="4.9"/>
      <rect class="cls-19" x="88.2" y="19.6" width="4.9" height="4.9"/>
      <rect class="cls-30" x="83.3" y="19.6" width="4.9" height="4.9"/>
      <rect class="cls-9" x="78.4" y="19.6" width="4.9" height="4.9"/>
      <rect class="cls-9" x="73.5" y="19.6" width="4.9" height="4.9"/>
      <rect class="cls-31" x="68.6" y="19.6" width="4.9" height="4.9"/>
      <rect class="cls-22" x="63.7" y="19.6" width="4.9" height="4.9"/>
      <rect class="cls-22" x="58.8" y="19.6" width="4.9" height="4.9"/>
      <rect class="cls-9" x="53.9" y="19.6" width="4.9" height="4.9"/>
      <rect class="cls-15" x="49" y="19.6" width="4.9" height="4.9"/>
      <rect class="cls-20" x="44.1" y="19.6" width="4.9" height="4.9"/>
      <rect class="cls-8" x="39.2" y="19.6" width="4.9" height="4.9"/>
      <rect class="cls-33" x="34.3" y="19.6" width="4.9" height="4.9"/>
      <rect class="cls-7" x="29.4" y="19.6" width="4.9" height="4.9"/>
      <rect class="cls-2" x="78.4" y="14.7" width="4.9" height="4.9"/>
      <rect class="cls-22" x="73.5" y="14.7" width="4.9" height="4.9"/>
      <rect class="cls-22" x="68.6" y="14.7" width="4.9" height="4.9"/>
      <rect class="cls-22" x="63.7" y="14.7" width="4.9" height="4.9"/>
      <rect class="cls-22" x="58.8" y="14.7" width="4.9" height="4.9"/>
      <rect class="cls-22" x="53.9" y="14.7" width="4.9" height="4.9"/>
      <rect class="cls-22" x="49" y="14.7" width="4.9" height="4.9"/>
      <rect class="cls-9" x="44.1" y="14.7" width="4.9" height="4.9"/>
      <rect class="cls-14" x="39.2" y="14.7" width="4.9" height="4.9"/>
      <rect class="cls-36" x="73.5" y="9.8" width="4.9" height="4.9"/>
      <rect class="cls-9" x="68.6" y="9.8" width="4.9" height="4.9"/>
      <rect class="cls-28" x="63.7" y="9.8" width="4.9" height="4.9"/>
      <rect class="cls-22" x="58.8" y="9.8" width="4.9" height="4.9"/>
      <rect class="cls-22" x="53.9" y="9.8" width="4.9" height="4.9"/>
      <rect class="cls-9" x="49" y="9.8" width="4.9" height="4.9"/>
      <rect class="cls-25" x="44.1" y="9.8" width="4.9" height="4.9"/>
      <rect class="cls-20" x="39.2" y="9.8" width="4.9" height="4.9"/>
      <rect class="cls-9" x="63.7" y="4.9" width="4.9" height="4.9"/>
      <rect class="cls-9" x="58.8" y="4.9" width="4.9" height="4.9"/>
      <rect class="cls-9" x="53.9" y="4.9" width="4.9" height="4.9"/>
      <rect class="cls-8" x="49" y="4.9" width="4.9" height="4.9"/>
      <rect class="cls-39" x="44.1" y="4.9" width="4.9" height="4.9"/>
      <rect class="cls-8" x="58.8" width="4.9" height="4.9"/>
      <rect class="cls-8" x="53.9" width="4.9" height="4.9"/>
      <rect class="cls-11" x="49" width="4.9" height="4.9"/>
      <rect class="cls-24" x="44.1" width="4.9" height="4.9"/>
    </g>
  </g>
</svg>