<?xml version="1.0" encoding="UTF-8"?>
<svg id="Layer_2" data-name="Layer 2" xmlns="http://www.w3.org/2000/svg" viewBox="0 0 112.7 34.3">
  <defs>
    <style>
      .cls-1 {
        fill: #e6cef7;
      }

      .cls-2 {
        fill: #b874e9;
      }

      .cls-3 {
        fill: #c19ce7;
      }

      .cls-4 {
        fill: #dfc0f5;
      }

      .cls-5 {
        fill: #ede3f8;
      }

      .cls-6 {
        fill: #bc7bea;
      }

      .cls-7 {
        fill: #bd7eeb;
      }

      .cls-8 {
        fill: #bc94e5;
      }

      .cls-9 {
        fill: #e1c8f3;
      }

      .cls-10 {
        fill: #aa76de;
      }

      .cls-11 {
        fill: #e1cef3;
      }

      .cls-12 {
        fill: #bb79ea;
      }

      .cls-13 {
        fill: #dcc6f1;
      }

      .cls-14 {
        fill: #dec3f2;
      }

      .cls-15 {
        fill: #e5cff5;
      }

      .cls-16 {
        fill: #e0c6f3;
      }

      .cls-17 {
        fill: #c082eb;
      }

      .cls-18 {
        fill: #ebe0f7;
      }

      .cls-19 {
        fill: #d0a2f0;
      }

      .cls-20 {
        fill: #e2c9f3;
      }

      .cls-21 {
        fill: #c287ec;
      }

      .cls-22 {
        fill: #b98ee3;
      }

      .cls-23 {
        fill: #e3cbf4;
      }

      .cls-24 {
        fill: #d8c0f0;
      }

      .cls-25 {
        fill: #c6a4e9;
      }

      .cls-26 {
        fill: #c29de7;
      }

      .cls-27 {
        fill: #e8d9f6;
      }

      .cls-28 {
        fill: #c68fed;
      }
    </style>
  </defs>
  <g id="Layer_3" data-name="Layer 3">
    <g>
      <rect class="cls-9" x="107.8" y="29.4" width="4.9" height="4.9"/>
      <rect class="cls-7" x="102.9" y="29.4" width="4.9" height="4.9"/>
      <rect class="cls-17" x="98" y="29.4" width="4.9" height="4.9"/>
      <rect class="cls-7" x="93.1" y="29.4" width="4.9" height="4.9"/>
      <rect class="cls-2" x="88.2" y="29.4" width="4.9" height="4.9"/>
      <rect class="cls-6" x="83.3" y="29.4" width="4.9" height="4.9"/>
      <rect class="cls-7" x="78.4" y="29.4" width="4.9" height="4.9"/>
      <rect class="cls-6" x="73.5" y="29.4" width="4.9" height="4.9"/>
      <rect class="cls-6" x="68.6" y="29.4" width="4.9" height="4.9"/>
      <rect class="cls-6" x="63.7" y="29.4" width="4.9" height="4.9"/>
      <rect class="cls-7" x="58.8" y="29.4" width="4.9" height="4.9"/>
      <rect class="cls-7" x="53.9" y="29.4" width="4.9" height="4.9"/>
      <rect class="cls-7" x="49" y="29.4" width="4.9" height="4.9"/>
      <rect class="cls-7" x="44.1" y="29.4" width="4.9" height="4.9"/>
      <rect class="cls-7" x="39.2" y="29.4" width="4.9" height="4.9"/>
      <rect class="cls-7" x="34.3" y="29.4" width="4.9" height="4.9"/>
      <rect class="cls-23" x="19.6" y="29.4" width="4.9" height="4.9"/>
      <rect class="cls-7" x="14.7" y="29.4" width="4.9" height="4.9"/>
      <rect class="cls-6" x="9.8" y="29.4" width="4.9" height="4.9"/>
      <rect class="cls-14" x="4.9" y="29.4" width="4.9" height="4.9"/>
      <rect class="cls-2" y="29.4" width="4.9" height="4.9"/>
      <rect class="cls-4" x="93.1" y="24.5" width="4.9" height="4.9"/>
      <rect class="cls-6" x="88.2" y="24.5" width="4.9" height="4.9"/>
      <rect class="cls-7" x="83.3" y="24.5" width="4.9" height="4.9"/>
      <rect class="cls-17" x="78.4" y="24.5" width="4.9" height="4.9"/>
      <rect class="cls-17" x="73.5" y="24.5" width="4.9" height="4.9"/>
      <rect class="cls-17" x="68.6" y="24.5" width="4.9" height="4.9"/>
      <rect class="cls-17" x="63.7" y="24.5" width="4.9" height="4.9"/>
      <rect class="cls-17" x="58.8" y="24.5" width="4.9" height="4.9"/>
      <rect class="cls-17" x="53.9" y="24.5" width="4.9" height="4.9"/>
      <rect class="cls-17" x="49" y="24.5" width="4.9" height="4.9"/>
      <rect class="cls-17" x="44.1" y="24.5" width="4.9" height="4.9"/>
      <rect class="cls-17" x="39.2" y="24.5" width="4.9" height="4.9"/>
      <rect class="cls-17" x="34.3" y="24.5" width="4.9" height="4.9"/>
      <rect class="cls-17" x="29.4" y="24.5" width="4.9" height="4.9"/>
      <rect class="cls-7" x="24.5" y="24.5" width="4.9" height="4.9"/>
      <rect class="cls-6" x="19.6" y="24.5" width="4.9" height="4.9"/>
      <rect class="cls-25" x="14.7" y="24.5" width="4.9" height="4.9"/>
      <rect class="cls-24" x="9.8" y="24.5" width="4.9" height="4.9"/>
      <rect class="cls-16" x="88.2" y="19.6" width="4.9" height="4.9"/>
      <rect class="cls-19" x="83.3" y="19.6" width="4.9" height="4.9"/>
      <rect class="cls-6" x="78.4" y="19.6" width="4.9" height="4.9"/>
      <rect class="cls-7" x="73.5" y="19.6" width="4.9" height="4.9"/>
      <rect class="cls-17" x="68.6" y="19.6" width="4.9" height="4.9"/>
      <rect class="cls-17" x="63.7" y="19.6" width="4.9" height="4.9"/>
      <rect class="cls-17" x="58.8" y="19.6" width="4.9" height="4.9"/>
      <rect class="cls-28" x="53.9" y="19.6" width="4.9" height="4.9"/>
      <rect class="cls-12" x="49" y="19.6" width="4.9" height="4.9"/>
      <rect class="cls-7" x="44.1" y="19.6" width="4.9" height="4.9"/>
      <rect class="cls-7" x="39.2" y="19.6" width="4.9" height="4.9"/>
      <rect class="cls-7" x="34.3" y="19.6" width="4.9" height="4.9"/>
      <rect class="cls-7" x="29.4" y="19.6" width="4.9" height="4.9"/>
      <rect class="cls-6" x="24.5" y="19.6" width="4.9" height="4.9"/>
      <rect class="cls-20" x="19.6" y="19.6" width="4.9" height="4.9"/>
      <rect class="cls-7" x="78.4" y="14.7" width="4.9" height="4.9"/>
      <rect class="cls-7" x="73.5" y="14.7" width="4.9" height="4.9"/>
      <rect class="cls-17" x="68.6" y="14.7" width="4.9" height="4.9"/>
      <rect class="cls-7" x="63.7" y="14.7" width="4.9" height="4.9"/>
      <rect class="cls-21" x="58.8" y="14.7" width="4.9" height="4.9"/>
      <rect class="cls-17" x="53.9" y="14.7" width="4.9" height="4.9"/>
      <rect class="cls-6" x="49" y="14.7" width="4.9" height="4.9"/>
      <rect class="cls-22" x="44.1" y="14.7" width="4.9" height="4.9"/>
      <rect class="cls-13" x="39.2" y="14.7" width="4.9" height="4.9"/>
      <rect class="cls-11" x="34.3" y="14.7" width="4.9" height="4.9"/>
      <rect class="cls-1" x="29.4" y="14.7" width="4.9" height="4.9"/>
      <rect class="cls-7" x="24.5" y="14.7" width="4.9" height="4.9"/>
      <rect class="cls-24" x="19.6" y="14.7" width="4.9" height="4.9"/>
      <rect class="cls-26" x="78.4" y="9.8" width="4.9" height="4.9"/>
      <rect class="cls-3" x="68.6" y="9.8" width="4.9" height="4.9"/>
      <rect class="cls-6" x="63.7" y="9.8" width="4.9" height="4.9"/>
      <rect class="cls-27" x="58.8" y="9.8" width="4.9" height="4.9"/>
      <rect class="cls-7" x="53.9" y="9.8" width="4.9" height="4.9"/>
      <rect class="cls-17" x="49" y="9.8" width="4.9" height="4.9"/>
      <rect class="cls-17" x="44.1" y="9.8" width="4.9" height="4.9"/>
      <rect class="cls-17" x="39.2" y="9.8" width="4.9" height="4.9"/>
      <rect class="cls-6" x="34.3" y="9.8" width="4.9" height="4.9"/>
      <rect class="cls-10" x="29.4" y="9.8" width="4.9" height="4.9"/>
      <rect class="cls-11" x="24.5" y="9.8" width="4.9" height="4.9"/>
      <rect class="cls-18" x="63.7" y="4.9" width="4.9" height="4.9"/>
      <rect class="cls-27" x="53.9" y="4.9" width="4.9" height="4.9"/>
      <rect class="cls-7" x="49" y="4.9" width="4.9" height="4.9"/>
      <rect class="cls-7" x="44.1" y="4.9" width="4.9" height="4.9"/>
      <rect class="cls-7" x="39.2" y="4.9" width="4.9" height="4.9"/>
      <rect class="cls-15" x="34.3" y="4.9" width="4.9" height="4.9"/>
      <rect class="cls-5" x="49" width="4.9" height="4.9"/>
      <rect class="cls-27" x="44.1" width="4.9" height="4.9"/>
      <rect class="cls-8" x="39.2" width="4.9" height="4.9"/>
    </g>
  </g>
</svg>