<?xml version="1.0" encoding="UTF-8"?>
<svg id="Layer_2" data-name="Layer 2" xmlns="http://www.w3.org/2000/svg" viewBox="0 0 156.8 39.2">
  <defs>
    <style>
      .cls-1 {
        fill: #f4c4ec;
      }

      .cls-2 {
        fill: #f1e2ef;
      }

      .cls-3 {
        fill: #e4ecf0;
      }

      .cls-4 {
        fill: #f5caee;
      }

      .cls-5 {
        fill: #fae3f6;
      }

      .cls-6 {
        fill: #e0e9ee;
      }

      .cls-7 {
        fill: #e1eaef;
      }

      .cls-8 {
        fill: #f4f8f9;
      }

      .cls-9 {
        fill: #f5f8fa;
      }

      .cls-10 {
        fill: #e5edf1;
      }

      .cls-11 {
        fill: #f8d6f2;
      }

      .cls-12 {
        fill: #dee8ed;
      }

      .cls-13 {
        fill: #f9fbfc;
      }

      .cls-14 {
        fill: #e6edf1;
      }

      .cls-15 {
        fill: #f5c8ee;
      }

      .cls-16 {
        fill: #f7fafb;
      }

      .cls-17 {
        fill: #fcfafc;
      }

      .cls-18 {
        fill: #f4c1eb;
      }

      .cls-19 {
        fill: #eef3f6;
      }

      .cls-20 {
        fill: #e7eef2;
      }

      .cls-21 {
        fill: #f4f7f9;
      }

      .cls-22 {
        fill: #e3ebf0;
      }

      .cls-23 {
        fill: #f6cdef;
      }

      .cls-24 {
        fill: #f7d2f1;
      }

      .cls-25 {
        fill: #fbe7f7;
      }

      .cls-26 {
        fill: #f4c3ec;
      }

      .cls-27 {
        fill: #dfe9ee;
      }

      .cls-28 {
        fill: #e3ecf0;
      }

      .cls-29 {
        fill: #fefcfe;
      }

      .cls-30 {
        fill: #f0f5f7;
      }

      .cls-31 {
        fill: #f5c5ed;
      }

      .cls-32 {
        fill: #eaf1f4;
      }

      .cls-33 {
        fill: #faf5f9;
      }

      .cls-34 {
        fill: #f6cbee;
      }

      .cls-35 {
        fill: #fcf8fb;
      }

      .cls-36 {
        fill: #e8eff3;
      }

      .cls-37 {
        fill: #f9dff5;
      }

      .cls-38 {
        fill: #fdfbfd;
      }

      .cls-39 {
        fill: #f5c7ed;
      }
    </style>
  </defs>
  <g id="Layer_3" data-name="Layer 3">
    <g>
      <rect class="cls-12" x="151.9" y="34.3" width="4.9" height="4.9"/>
      <rect class="cls-12" x="147" y="34.3" width="4.9" height="4.9"/>
      <rect class="cls-7" x="142.1" y="34.3" width="4.9" height="4.9"/>
      <rect class="cls-6" x="137.2" y="34.3" width="4.9" height="4.9"/>
      <rect class="cls-27" x="132.3" y="34.3" width="4.9" height="4.9"/>
      <rect class="cls-7" x="127.4" y="34.3" width="4.9" height="4.9"/>
      <rect class="cls-18" x="122.5" y="34.3" width="4.9" height="4.9"/>
      <rect class="cls-26" x="117.6" y="34.3" width="4.9" height="4.9"/>
      <rect class="cls-31" x="112.7" y="34.3" width="4.9" height="4.9"/>
      <rect class="cls-1" x="107.8" y="34.3" width="4.9" height="4.9"/>
      <rect class="cls-1" x="102.9" y="34.3" width="4.9" height="4.9"/>
      <rect class="cls-15" x="98" y="34.3" width="4.9" height="4.9"/>
      <rect class="cls-3" x="93.1" y="34.3" width="4.9" height="4.9"/>
      <rect class="cls-3" x="88.2" y="34.3" width="4.9" height="4.9"/>
      <rect class="cls-4" x="83.3" y="34.3" width="4.9" height="4.9"/>
      <rect class="cls-15" x="78.4" y="34.3" width="4.9" height="4.9"/>
      <rect class="cls-15" x="73.5" y="34.3" width="4.9" height="4.9"/>
      <rect class="cls-14" x="68.6" y="34.3" width="4.9" height="4.9"/>
      <rect class="cls-3" x="63.7" y="34.3" width="4.9" height="4.9"/>
      <rect class="cls-14" x="58.8" y="34.3" width="4.9" height="4.9"/>
      <rect class="cls-28" x="53.9" y="34.3" width="4.9" height="4.9"/>
      <rect class="cls-28" x="49" y="34.3" width="4.9" height="4.9"/>
      <rect class="cls-14" x="44.1" y="34.3" width="4.9" height="4.9"/>
      <rect class="cls-14" x="39.2" y="34.3" width="4.9" height="4.9"/>
      <rect class="cls-14" x="34.3" y="34.3" width="4.9" height="4.9"/>
      <rect class="cls-4" x="29.4" y="34.3" width="4.9" height="4.9"/>
      <rect class="cls-15" x="24.5" y="34.3" width="4.9" height="4.9"/>
      <rect class="cls-14" x="19.6" y="34.3" width="4.9" height="4.9"/>
      <rect class="cls-14" x="14.7" y="34.3" width="4.9" height="4.9"/>
      <rect class="cls-20" x="9.8" y="34.3" width="4.9" height="4.9"/>
      <rect class="cls-36" x="4.9" y="34.3" width="4.9" height="4.9"/>
      <rect class="cls-14" y="34.3" width="4.9" height="4.9"/>
      <rect class="cls-38" x="127.4" y="29.4" width="4.9" height="4.9"/>
      <rect class="cls-2" x="122.5" y="29.4" width="4.9" height="4.9"/>
      <rect class="cls-23" x="117.6" y="29.4" width="4.9" height="4.9"/>
      <rect class="cls-10" x="112.7" y="29.4" width="4.9" height="4.9"/>
      <rect class="cls-37" x="107.8" y="29.4" width="4.9" height="4.9"/>
      <rect class="cls-4" x="102.9" y="29.4" width="4.9" height="4.9"/>
      <rect class="cls-4" x="98" y="29.4" width="4.9" height="4.9"/>
      <rect class="cls-4" x="93.1" y="29.4" width="4.9" height="4.9"/>
      <rect class="cls-4" x="88.2" y="29.4" width="4.9" height="4.9"/>
      <rect class="cls-4" x="83.3" y="29.4" width="4.9" height="4.9"/>
      <rect class="cls-4" x="78.4" y="29.4" width="4.9" height="4.9"/>
      <rect class="cls-4" x="73.5" y="29.4" width="4.9" height="4.9"/>
      <rect class="cls-34" x="68.6" y="29.4" width="4.9" height="4.9"/>
      <rect class="cls-34" x="63.7" y="29.4" width="4.9" height="4.9"/>
      <rect class="cls-34" x="58.8" y="29.4" width="4.9" height="4.9"/>
      <rect class="cls-4" x="53.9" y="29.4" width="4.9" height="4.9"/>
      <rect class="cls-4" x="49" y="29.4" width="4.9" height="4.9"/>
      <rect class="cls-34" x="44.1" y="29.4" width="4.9" height="4.9"/>
      <rect class="cls-4" x="39.2" y="29.4" width="4.9" height="4.9"/>
      <rect class="cls-4" x="34.3" y="29.4" width="4.9" height="4.9"/>
      <rect class="cls-36" x="29.4" y="29.4" width="4.9" height="4.9"/>
      <rect class="cls-39" x="24.5" y="29.4" width="4.9" height="4.9"/>
      <rect class="cls-15" x="19.6" y="29.4" width="4.9" height="4.9"/>
      <rect class="cls-4" x="14.7" y="29.4" width="4.9" height="4.9"/>
      <rect class="cls-22" x="9.8" y="29.4" width="4.9" height="4.9"/>
      <rect class="cls-19" x="107.8" y="24.5" width="4.9" height="4.9"/>
      <rect class="cls-4" x="102.9" y="24.5" width="4.9" height="4.9"/>
      <rect class="cls-34" x="98" y="24.5" width="4.9" height="4.9"/>
      <rect class="cls-34" x="93.1" y="24.5" width="4.9" height="4.9"/>
      <rect class="cls-34" x="88.2" y="24.5" width="4.9" height="4.9"/>
      <rect class="cls-34" x="83.3" y="24.5" width="4.9" height="4.9"/>
      <rect class="cls-34" x="78.4" y="24.5" width="4.9" height="4.9"/>
      <rect class="cls-34" x="73.5" y="24.5" width="4.9" height="4.9"/>
      <rect class="cls-15" x="68.6" y="24.5" width="4.9" height="4.9"/>
      <rect class="cls-5" x="63.7" y="24.5" width="4.9" height="4.9"/>
      <rect class="cls-14" x="58.8" y="24.5" width="4.9" height="4.9"/>
      <rect class="cls-4" x="53.9" y="24.5" width="4.9" height="4.9"/>
      <rect class="cls-8" x="49" y="24.5" width="4.9" height="4.9"/>
      <rect class="cls-23" x="44.1" y="24.5" width="4.9" height="4.9"/>
      <rect class="cls-15" x="39.2" y="24.5" width="4.9" height="4.9"/>
      <rect class="cls-4" x="34.3" y="24.5" width="4.9" height="4.9"/>
      <rect class="cls-25" x="29.4" y="24.5" width="4.9" height="4.9"/>
      <rect class="cls-21" x="107.8" y="19.6" width="4.9" height="4.9"/>
      <rect class="cls-4" x="102.9" y="19.6" width="4.9" height="4.9"/>
      <rect class="cls-4" x="98" y="19.6" width="4.9" height="4.9"/>
      <rect class="cls-11" x="93.1" y="19.6" width="4.9" height="4.9"/>
      <rect class="cls-4" x="88.2" y="19.6" width="4.9" height="4.9"/>
      <rect class="cls-4" x="83.3" y="19.6" width="4.9" height="4.9"/>
      <rect class="cls-34" x="78.4" y="19.6" width="4.9" height="4.9"/>
      <rect class="cls-34" x="73.5" y="19.6" width="4.9" height="4.9"/>
      <rect class="cls-34" x="68.6" y="19.6" width="4.9" height="4.9"/>
      <rect class="cls-15" x="63.7" y="19.6" width="4.9" height="4.9"/>
      <rect class="cls-24" x="58.8" y="19.6" width="4.9" height="4.9"/>
      <rect class="cls-35" x="53.9" y="19.6" width="4.9" height="4.9"/>
      <rect class="cls-4" x="49" y="19.6" width="4.9" height="4.9"/>
      <rect class="cls-34" x="44.1" y="19.6" width="4.9" height="4.9"/>
      <rect class="cls-15" x="39.2" y="19.6" width="4.9" height="4.9"/>
      <rect class="cls-13" x="34.3" y="19.6" width="4.9" height="4.9"/>
      <rect class="cls-13" x="29.4" y="19.6" width="4.9" height="4.9"/>
      <rect class="cls-36" x="102.9" y="14.7" width="4.9" height="4.9"/>
      <rect class="cls-17" x="98" y="14.7" width="4.9" height="4.9"/>
      <rect class="cls-9" x="88.2" y="14.7" width="4.9" height="4.9"/>
      <rect class="cls-3" x="83.3" y="14.7" width="4.9" height="4.9"/>
      <rect class="cls-4" x="78.4" y="14.7" width="4.9" height="4.9"/>
      <rect class="cls-34" x="73.5" y="14.7" width="4.9" height="4.9"/>
      <rect class="cls-34" x="68.6" y="14.7" width="4.9" height="4.9"/>
      <rect class="cls-34" x="63.7" y="14.7" width="4.9" height="4.9"/>
      <rect class="cls-34" x="58.8" y="14.7" width="4.9" height="4.9"/>
      <rect class="cls-34" x="53.9" y="14.7" width="4.9" height="4.9"/>
      <rect class="cls-34" x="49" y="14.7" width="4.9" height="4.9"/>
      <rect class="cls-34" x="44.1" y="14.7" width="4.9" height="4.9"/>
      <rect class="cls-4" x="39.2" y="14.7" width="4.9" height="4.9"/>
      <rect class="cls-38" x="34.3" y="14.7" width="4.9" height="4.9"/>
      <rect class="cls-32" x="83.3" y="9.8" width="4.9" height="4.9"/>
      <rect class="cls-4" x="78.4" y="9.8" width="4.9" height="4.9"/>
      <rect class="cls-10" x="73.5" y="9.8" width="4.9" height="4.9"/>
      <rect class="cls-10" x="68.6" y="9.8" width="4.9" height="4.9"/>
      <rect class="cls-15" x="63.7" y="9.8" width="4.9" height="4.9"/>
      <rect class="cls-3" x="58.8" y="9.8" width="4.9" height="4.9"/>
      <rect class="cls-30" x="53.9" y="9.8" width="4.9" height="4.9"/>
      <rect class="cls-15" x="49" y="9.8" width="4.9" height="4.9"/>
      <rect class="cls-4" x="44.1" y="9.8" width="4.9" height="4.9"/>
      <rect class="cls-3" x="39.2" y="9.8" width="4.9" height="4.9"/>
      <rect class="cls-38" x="34.3" y="9.8" width="4.9" height="4.9"/>
      <rect class="cls-17" x="78.4" y="4.9" width="4.9" height="4.9"/>
      <rect class="cls-4" x="73.5" y="4.9" width="4.9" height="4.9"/>
      <rect class="cls-23" x="68.6" y="4.9" width="4.9" height="4.9"/>
      <rect class="cls-17" x="63.7" y="4.9" width="4.9" height="4.9"/>
      <rect class="cls-19" x="49" y="4.9" width="4.9" height="4.9"/>
      <rect class="cls-33" x="44.1" y="4.9" width="4.9" height="4.9"/>
      <rect class="cls-29" x="39.2" y="4.9" width="4.9" height="4.9"/>
      <rect class="cls-13" x="73.5" width="4.9" height="4.9"/>
      <rect class="cls-16" x="68.6" width="4.9" height="4.9"/>
    </g>
  </g>
</svg>