<?xml version="1.0" encoding="UTF-8"?>
<svg id="Layer_2" data-name="Layer 2" xmlns="http://www.w3.org/2000/svg" viewBox="0 0 122.5 39.2">
  <defs>
    <style>
      .cls-1 {
        fill: #e8eff2;
      }

      .cls-2 {
        fill: #e4ecf0;
      }

      .cls-3 {
        fill: #f5ebf4;
      }

      .cls-4 {
        fill: #f5caee;
      }

      .cls-5 {
        fill: #edf2f5;
      }

      .cls-6 {
        fill: #fcf0fa;
      }

      .cls-7 {
        fill: #f6cff0;
      }

      .cls-8 {
        fill: #ebf1f4;
      }

      .cls-9 {
        fill: #f2f6f8;
      }

      .cls-10 {
        fill: #e1eaef;
      }

      .cls-11 {
        fill: #f4f8f9;
      }

      .cls-12 {
        fill: #f5f8fa;
      }

      .cls-13 {
        fill: #f8d6f2;
      }

      .cls-14 {
        fill: #fae6f7;
      }

      .cls-15 {
        fill: #f9fbfc;
      }

      .cls-16 {
        fill: #f5c8ee;
      }

      .cls-17 {
        fill: #fcfafc;
      }

      .cls-18 {
        fill: #fbf6fa;
      }

      .cls-19 {
        fill: #ecf2f5;
      }

      .cls-20 {
        fill: #fae2f6;
      }

      .cls-21 {
        fill: #f6cdef;
      }

      .cls-22 {
        fill: #f5eaf3;
      }

      .cls-23 {
        fill: #f9f3f8;
      }

      .cls-24 {
        fill: #fefcfe;
      }

      .cls-25 {
        fill: #f0f5f7;
      }

      .cls-26 {
        fill: #eff4f7;
      }

      .cls-27 {
        fill: #eaf1f4;
      }

      .cls-28 {
        fill: #f7d5f2;
      }

      .cls-29 {
        fill: #edf3f5;
      }

      .cls-30 {
        fill: #fbf7fb;
      }

      .cls-31 {
        fill: #faf5f9;
      }

      .cls-32 {
        fill: #f6ceef;
      }

      .cls-33 {
        fill: #f6cbee;
      }

      .cls-34 {
        fill: #fcf8fb;
      }

      .cls-35 {
        fill: #f8d8f3;
      }

      .cls-36 {
        fill: #f1f5f7;
      }

      .cls-37 {
        fill: #fdfbfd;
      }

      .cls-38 {
        fill: #f5c7ed;
      }
    </style>
  </defs>
  <g id="Layer_3" data-name="Layer 3">
    <g>
      <rect class="cls-9" x="117.6" y="34.3" width="4.9" height="4.9"/>
      <rect class="cls-4" x="112.7" y="34.3" width="4.9" height="4.9"/>
      <rect class="cls-1" x="107.8" y="34.3" width="4.9" height="4.9"/>
      <rect class="cls-4" x="102.9" y="34.3" width="4.9" height="4.9"/>
      <rect class="cls-33" x="98" y="34.3" width="4.9" height="4.9"/>
      <rect class="cls-4" x="93.1" y="34.3" width="4.9" height="4.9"/>
      <rect class="cls-2" x="88.2" y="34.3" width="4.9" height="4.9"/>
      <rect class="cls-16" x="83.3" y="34.3" width="4.9" height="4.9"/>
      <rect class="cls-16" x="78.4" y="34.3" width="4.9" height="4.9"/>
      <rect class="cls-16" x="73.5" y="34.3" width="4.9" height="4.9"/>
      <rect class="cls-16" x="68.6" y="34.3" width="4.9" height="4.9"/>
      <rect class="cls-4" x="63.7" y="34.3" width="4.9" height="4.9"/>
      <rect class="cls-4" x="58.8" y="34.3" width="4.9" height="4.9"/>
      <rect class="cls-33" x="53.9" y="34.3" width="4.9" height="4.9"/>
      <rect class="cls-4" x="49" y="34.3" width="4.9" height="4.9"/>
      <rect class="cls-4" x="44.1" y="34.3" width="4.9" height="4.9"/>
      <rect class="cls-4" x="39.2" y="34.3" width="4.9" height="4.9"/>
      <rect class="cls-16" x="34.3" y="34.3" width="4.9" height="4.9"/>
      <rect class="cls-2" x="29.4" y="34.3" width="4.9" height="4.9"/>
      <rect class="cls-16" x="24.5" y="34.3" width="4.9" height="4.9"/>
      <rect class="cls-4" x="19.6" y="34.3" width="4.9" height="4.9"/>
      <rect class="cls-4" x="14.7" y="34.3" width="4.9" height="4.9"/>
      <rect class="cls-1" x="9.8" y="34.3" width="4.9" height="4.9"/>
      <rect class="cls-38" x="4.9" y="34.3" width="4.9" height="4.9"/>
      <rect class="cls-1" y="34.3" width="4.9" height="4.9"/>
      <rect class="cls-36" x="107.8" y="29.4" width="4.9" height="4.9"/>
      <rect class="cls-16" x="102.9" y="29.4" width="4.9" height="4.9"/>
      <rect class="cls-33" x="98" y="29.4" width="4.9" height="4.9"/>
      <rect class="cls-33" x="93.1" y="29.4" width="4.9" height="4.9"/>
      <rect class="cls-33" x="88.2" y="29.4" width="4.9" height="4.9"/>
      <rect class="cls-4" x="83.3" y="29.4" width="4.9" height="4.9"/>
      <rect class="cls-33" x="78.4" y="29.4" width="4.9" height="4.9"/>
      <rect class="cls-4" x="73.5" y="29.4" width="4.9" height="4.9"/>
      <rect class="cls-4" x="68.6" y="29.4" width="4.9" height="4.9"/>
      <rect class="cls-33" x="63.7" y="29.4" width="4.9" height="4.9"/>
      <rect class="cls-4" x="58.8" y="29.4" width="4.9" height="4.9"/>
      <rect class="cls-4" x="53.9" y="29.4" width="4.9" height="4.9"/>
      <rect class="cls-4" x="49" y="29.4" width="4.9" height="4.9"/>
      <rect class="cls-4" x="44.1" y="29.4" width="4.9" height="4.9"/>
      <rect class="cls-33" x="39.2" y="29.4" width="4.9" height="4.9"/>
      <rect class="cls-4" x="34.3" y="29.4" width="4.9" height="4.9"/>
      <rect class="cls-4" x="29.4" y="29.4" width="4.9" height="4.9"/>
      <rect class="cls-4" x="24.5" y="29.4" width="4.9" height="4.9"/>
      <rect class="cls-4" x="19.6" y="29.4" width="4.9" height="4.9"/>
      <rect class="cls-4" x="14.7" y="29.4" width="4.9" height="4.9"/>
      <rect class="cls-3" x="9.8" y="29.4" width="4.9" height="4.9"/>
      <rect class="cls-33" x="98" y="24.5" width="4.9" height="4.9"/>
      <rect class="cls-35" x="93.1" y="24.5" width="4.9" height="4.9"/>
      <rect class="cls-16" x="88.2" y="24.5" width="4.9" height="4.9"/>
      <rect class="cls-4" x="83.3" y="24.5" width="4.9" height="4.9"/>
      <rect class="cls-4" x="78.4" y="24.5" width="4.9" height="4.9"/>
      <rect class="cls-4" x="73.5" y="24.5" width="4.9" height="4.9"/>
      <rect class="cls-4" x="68.6" y="24.5" width="4.9" height="4.9"/>
      <rect class="cls-33" x="63.7" y="24.5" width="4.9" height="4.9"/>
      <rect class="cls-7" x="58.8" y="24.5" width="4.9" height="4.9"/>
      <rect class="cls-19" x="53.9" y="24.5" width="4.9" height="4.9"/>
      <rect class="cls-14" x="49" y="24.5" width="4.9" height="4.9"/>
      <rect class="cls-33" x="44.1" y="24.5" width="4.9" height="4.9"/>
      <rect class="cls-33" x="39.2" y="24.5" width="4.9" height="4.9"/>
      <rect class="cls-33" x="34.3" y="24.5" width="4.9" height="4.9"/>
      <rect class="cls-33" x="29.4" y="24.5" width="4.9" height="4.9"/>
      <rect class="cls-33" x="24.5" y="24.5" width="4.9" height="4.9"/>
      <rect class="cls-4" x="19.6" y="24.5" width="4.9" height="4.9"/>
      <rect class="cls-4" x="14.7" y="24.5" width="4.9" height="4.9"/>
      <rect class="cls-17" x="9.8" y="24.5" width="4.9" height="4.9"/>
      <rect class="cls-37" x="102.9" y="19.6" width="4.9" height="4.9"/>
      <rect class="cls-33" x="98" y="19.6" width="4.9" height="4.9"/>
      <rect class="cls-38" x="93.1" y="19.6" width="4.9" height="4.9"/>
      <rect class="cls-32" x="88.2" y="19.6" width="4.9" height="4.9"/>
      <rect class="cls-31" x="83.3" y="19.6" width="4.9" height="4.9"/>
      <rect class="cls-21" x="78.4" y="19.6" width="4.9" height="4.9"/>
      <rect class="cls-30" x="73.5" y="19.6" width="4.9" height="4.9"/>
      <rect class="cls-33" x="68.6" y="19.6" width="4.9" height="4.9"/>
      <rect class="cls-4" x="63.7" y="19.6" width="4.9" height="4.9"/>
      <rect class="cls-18" x="58.8" y="19.6" width="4.9" height="4.9"/>
      <rect class="cls-29" x="53.9" y="19.6" width="4.9" height="4.9"/>
      <rect class="cls-16" x="49" y="19.6" width="4.9" height="4.9"/>
      <rect class="cls-33" x="44.1" y="19.6" width="4.9" height="4.9"/>
      <rect class="cls-33" x="39.2" y="19.6" width="4.9" height="4.9"/>
      <rect class="cls-33" x="34.3" y="19.6" width="4.9" height="4.9"/>
      <rect class="cls-4" x="29.4" y="19.6" width="4.9" height="4.9"/>
      <rect class="cls-11" x="24.5" y="19.6" width="4.9" height="4.9"/>
      <rect class="cls-27" x="19.6" y="19.6" width="4.9" height="4.9"/>
      <rect class="cls-29" x="14.7" y="19.6" width="4.9" height="4.9"/>
      <rect class="cls-6" x="9.8" y="19.6" width="4.9" height="4.9"/>
      <rect class="cls-37" x="102.9" y="14.7" width="4.9" height="4.9"/>
      <rect class="cls-4" x="98" y="14.7" width="4.9" height="4.9"/>
      <rect class="cls-33" x="93.1" y="14.7" width="4.9" height="4.9"/>
      <rect class="cls-4" x="88.2" y="14.7" width="4.9" height="4.9"/>
      <rect class="cls-16" x="83.3" y="14.7" width="4.9" height="4.9"/>
      <rect class="cls-5" x="78.4" y="14.7" width="4.9" height="4.9"/>
      <rect class="cls-21" x="73.5" y="14.7" width="4.9" height="4.9"/>
      <rect class="cls-17" x="68.6" y="14.7" width="4.9" height="4.9"/>
      <rect class="cls-17" x="63.7" y="14.7" width="4.9" height="4.9"/>
      <rect class="cls-22" x="58.8" y="14.7" width="4.9" height="4.9"/>
      <rect class="cls-4" x="53.9" y="14.7" width="4.9" height="4.9"/>
      <rect class="cls-4" x="49" y="14.7" width="4.9" height="4.9"/>
      <rect class="cls-33" x="44.1" y="14.7" width="4.9" height="4.9"/>
      <rect class="cls-33" x="39.2" y="14.7" width="4.9" height="4.9"/>
      <rect class="cls-4" x="34.3" y="14.7" width="4.9" height="4.9"/>
      <rect class="cls-4" x="29.4" y="14.7" width="4.9" height="4.9"/>
      <rect class="cls-10" x="24.5" y="14.7" width="4.9" height="4.9"/>
      <rect class="cls-9" x="19.6" y="14.7" width="4.9" height="4.9"/>
      <rect class="cls-15" x="14.7" y="14.7" width="4.9" height="4.9"/>
      <rect class="cls-8" x="102.9" y="9.8" width="4.9" height="4.9"/>
      <rect class="cls-4" x="98" y="9.8" width="4.9" height="4.9"/>
      <rect class="cls-4" x="93.1" y="9.8" width="4.9" height="4.9"/>
      <rect class="cls-33" x="88.2" y="9.8" width="4.9" height="4.9"/>
      <rect class="cls-4" x="83.3" y="9.8" width="4.9" height="4.9"/>
      <rect class="cls-13" x="78.4" y="9.8" width="4.9" height="4.9"/>
      <rect class="cls-16" x="73.5" y="9.8" width="4.9" height="4.9"/>
      <rect class="cls-4" x="68.6" y="9.8" width="4.9" height="4.9"/>
      <rect class="cls-26" x="58.8" y="9.8" width="4.9" height="4.9"/>
      <rect class="cls-34" x="53.9" y="9.8" width="4.9" height="4.9"/>
      <rect class="cls-28" x="49" y="9.8" width="4.9" height="4.9"/>
      <rect class="cls-33" x="44.1" y="9.8" width="4.9" height="4.9"/>
      <rect class="cls-33" x="39.2" y="9.8" width="4.9" height="4.9"/>
      <rect class="cls-38" x="34.3" y="9.8" width="4.9" height="4.9"/>
      <rect class="cls-37" x="29.4" y="9.8" width="4.9" height="4.9"/>
      <rect class="cls-33" x="93.1" y="4.9" width="4.9" height="4.9"/>
      <rect class="cls-38" x="88.2" y="4.9" width="4.9" height="4.9"/>
      <rect class="cls-22" x="83.3" y="4.9" width="4.9" height="4.9"/>
      <rect class="cls-15" x="78.4" y="4.9" width="4.9" height="4.9"/>
      <rect class="cls-37" x="73.5" y="4.9" width="4.9" height="4.9"/>
      <rect class="cls-5" x="68.6" y="4.9" width="4.9" height="4.9"/>
      <rect class="cls-24" x="49" y="4.9" width="4.9" height="4.9"/>
      <rect class="cls-23" x="44.1" y="4.9" width="4.9" height="4.9"/>
      <rect class="cls-20" x="39.2" y="4.9" width="4.9" height="4.9"/>
      <rect class="cls-37" x="34.3" y="4.9" width="4.9" height="4.9"/>
      <rect class="cls-25" x="29.4" y="4.9" width="4.9" height="4.9"/>
      <rect class="cls-5" x="44.1" width="4.9" height="4.9"/>
      <rect class="cls-12" x="39.2" width="4.9" height="4.9"/>
    </g>
  </g>
</svg>