<?xml version="1.0" encoding="UTF-8"?>
<svg id="Layer_2" data-name="Layer 2" xmlns="http://www.w3.org/2000/svg" viewBox="0 0 53.9 19.6">
  <defs>
    <style>
      .cls-1 {
        fill: #e4ecf0;
      }

      .cls-2 {
        fill: #f5caee;
      }

      .cls-3 {
        fill: #f4c0eb;
      }

      .cls-4 {
        fill: #e1eaef;
      }

      .cls-5 {
        fill: #e5edf1;
      }

      .cls-6 {
        fill: #e6edf1;
      }

      .cls-7 {
        fill: #f5c8ee;
      }

      .cls-8 {
        fill: #efdeec;
      }

      .cls-9 {
        fill: #f6cdef;
      }

      .cls-10 {
        fill: #f5eaf3;
      }

      .cls-11 {
        fill: #f7d4f1;
      }

      .cls-12 {
        fill: #edf3f5;
      }

      .cls-13 {
        fill: #f6cbee;
      }

      .cls-14 {
        fill: #e8eff3;
      }

      .cls-15 {
        fill: #f5c7ed;
      }
    </style>
  </defs>
  <g id="Layer_3" data-name="Layer 3">
    <g>
      <rect class="cls-1" x="34.3" y="14.7" width="4.9" height="4.9"/>
      <rect class="cls-4" x="29.4" y="14.7" width="4.9" height="4.9"/>
      <rect class="cls-2" x="24.5" y="14.7" width="4.9" height="4.9"/>
      <rect class="cls-7" x="19.6" y="14.7" width="4.9" height="4.9"/>
      <rect class="cls-7" x="14.7" y="14.7" width="4.9" height="4.9"/>
      <rect class="cls-3" x="9.8" y="14.7" width="4.9" height="4.9"/>
      <rect class="cls-6" x="4.9" y="14.7" width="4.9" height="4.9"/>
      <rect class="cls-10" x="49" y="9.8" width="4.9" height="4.9"/>
      <rect class="cls-14" x="44.1" y="9.8" width="4.9" height="4.9"/>
      <rect class="cls-11" x="39.2" y="9.8" width="4.9" height="4.9"/>
      <rect class="cls-13" x="34.3" y="9.8" width="4.9" height="4.9"/>
      <rect class="cls-7" x="29.4" y="9.8" width="4.9" height="4.9"/>
      <rect class="cls-13" x="24.5" y="9.8" width="4.9" height="4.9"/>
      <rect class="cls-13" x="19.6" y="9.8" width="4.9" height="4.9"/>
      <rect class="cls-13" x="14.7" y="9.8" width="4.9" height="4.9"/>
      <rect class="cls-15" x="9.8" y="9.8" width="4.9" height="4.9"/>
      <rect class="cls-9" x="4.9" y="9.8" width="4.9" height="4.9"/>
      <rect class="cls-1" y="9.8" width="4.9" height="4.9"/>
      <rect class="cls-8" x="34.3" y="4.9" width="4.9" height="4.9"/>
      <rect class="cls-5" x="29.4" y="4.9" width="4.9" height="4.9"/>
      <rect class="cls-7" x="24.5" y="4.9" width="4.9" height="4.9"/>
      <rect class="cls-2" x="19.6" y="4.9" width="4.9" height="4.9"/>
      <rect class="cls-7" x="14.7" y="4.9" width="4.9" height="4.9"/>
      <rect class="cls-7" x="9.8" y="4.9" width="4.9" height="4.9"/>
      <rect class="cls-15" x="19.6" width="4.9" height="4.9"/>
      <rect class="cls-12" x="14.7" width="4.9" height="4.9"/>
    </g>
  </g>
</svg>