<?xml version="1.0" encoding="UTF-8"?>
<svg id="Layer_2" data-name="Layer 2" xmlns="http://www.w3.org/2000/svg" viewBox="0 0 88.2 19.6">
  <defs>
    <style>
      .cls-1 {
        fill: #e4ecf0;
      }

      .cls-2 {
        fill: #f5caee;
      }

      .cls-3 {
        fill: #f7d1f0;
      }

      .cls-4 {
        fill: #e1eaef;
      }

      .cls-5 {
        fill: #f8dbf3;
      }

      .cls-6 {
        fill: #f4f8f9;
      }

      .cls-7 {
        fill: #e6edf1;
      }

      .cls-8 {
        fill: #f5c8ee;
      }

      .cls-9 {
        fill: #d7e4ea;
      }

      .cls-10 {
        fill: #e9f0f3;
      }

      .cls-11 {
        fill: #fbeaf8;
      }

      .cls-12 {
        fill: #e6eef2;
      }

      .cls-13 {
        fill: #eaf1f4;
      }

      .cls-14 {
        fill: #f7d5f2;
      }

      .cls-15 {
        fill: #f6ceef;
      }

      .cls-16 {
        fill: #f6cbee;
      }

      .cls-17 {
        fill: #f4e9f2;
      }

      .cls-18 {
        fill: #f5c7ed;
      }

      .cls-19 {
        fill: #f9ddf4;
      }
    </style>
  </defs>
  <g id="Layer_3" data-name="Layer 3">
    <g>
      <rect class="cls-9" x="83.3" y="14.7" width="4.9" height="4.9"/>
      <rect class="cls-2" x="78.4" y="14.7" width="4.9" height="4.9"/>
      <rect class="cls-8" x="73.5" y="14.7" width="4.9" height="4.9"/>
      <rect class="cls-8" x="68.6" y="14.7" width="4.9" height="4.9"/>
      <rect class="cls-1" x="63.7" y="14.7" width="4.9" height="4.9"/>
      <rect class="cls-8" x="58.8" y="14.7" width="4.9" height="4.9"/>
      <rect class="cls-2" x="53.9" y="14.7" width="4.9" height="4.9"/>
      <rect class="cls-8" x="49" y="14.7" width="4.9" height="4.9"/>
      <rect class="cls-7" x="44.1" y="14.7" width="4.9" height="4.9"/>
      <rect class="cls-2" x="39.2" y="14.7" width="4.9" height="4.9"/>
      <rect class="cls-16" x="34.3" y="14.7" width="4.9" height="4.9"/>
      <rect class="cls-16" x="29.4" y="14.7" width="4.9" height="4.9"/>
      <rect class="cls-16" x="24.5" y="14.7" width="4.9" height="4.9"/>
      <rect class="cls-16" x="19.6" y="14.7" width="4.9" height="4.9"/>
      <rect class="cls-8" x="14.7" y="14.7" width="4.9" height="4.9"/>
      <rect class="cls-8" x="9.8" y="14.7" width="4.9" height="4.9"/>
      <rect class="cls-3" x="4.9" y="14.7" width="4.9" height="4.9"/>
      <rect class="cls-8" y="14.7" width="4.9" height="4.9"/>
      <rect class="cls-4" x="78.4" y="9.8" width="4.9" height="4.9"/>
      <rect class="cls-19" x="73.5" y="9.8" width="4.9" height="4.9"/>
      <rect class="cls-6" x="68.6" y="9.8" width="4.9" height="4.9"/>
      <rect class="cls-2" x="63.7" y="9.8" width="4.9" height="4.9"/>
      <rect class="cls-8" x="58.8" y="9.8" width="4.9" height="4.9"/>
      <rect class="cls-8" x="53.9" y="9.8" width="4.9" height="4.9"/>
      <rect class="cls-8" x="49" y="9.8" width="4.9" height="4.9"/>
      <rect class="cls-5" x="44.1" y="9.8" width="4.9" height="4.9"/>
      <rect class="cls-17" x="39.2" y="9.8" width="4.9" height="4.9"/>
      <rect class="cls-15" x="34.3" y="9.8" width="4.9" height="4.9"/>
      <rect class="cls-8" x="29.4" y="9.8" width="4.9" height="4.9"/>
      <rect class="cls-8" x="24.5" y="9.8" width="4.9" height="4.9"/>
      <rect class="cls-16" x="19.6" y="9.8" width="4.9" height="4.9"/>
      <rect class="cls-11" x="14.7" y="9.8" width="4.9" height="4.9"/>
      <rect class="cls-12" x="9.8" y="9.8" width="4.9" height="4.9"/>
      <rect class="cls-15" x="53.9" y="4.9" width="4.9" height="4.9"/>
      <rect class="cls-8" x="49" y="4.9" width="4.9" height="4.9"/>
      <rect class="cls-2" x="44.1" y="4.9" width="4.9" height="4.9"/>
      <rect class="cls-8" x="39.2" y="4.9" width="4.9" height="4.9"/>
      <rect class="cls-13" x="34.3" y="4.9" width="4.9" height="4.9"/>
      <rect class="cls-14" x="29.4" y="4.9" width="4.9" height="4.9"/>
      <rect class="cls-18" x="24.5" y="4.9" width="4.9" height="4.9"/>
      <rect class="cls-8" x="44.1" width="4.9" height="4.9"/>
      <rect class="cls-2" x="39.2" width="4.9" height="4.9"/>
      <rect class="cls-8" x="34.3" width="4.9" height="4.9"/>
      <rect class="cls-10" x="29.4" width="4.9" height="4.9"/>
    </g>
  </g>
</svg>