<?xml version="1.0" encoding="UTF-8"?>
<svg id="Layer_2" data-name="Layer 2" xmlns="http://www.w3.org/2000/svg" viewBox="0 0 250.92 110.16">
  <defs>
    <style>
      .cls-1 {
        fill: #f7e6f0;
      }

      .cls-2 {
        fill: #f3d8e8;
      }

      .cls-3 {
        fill: #f5e0ec;
      }

      .cls-4 {
        fill: #f0c3f0;
      }

      .cls-5 {
        fill: #fdffff;
      }

      .cls-6 {
        fill: #fff;
      }

      .cls-7 {
        fill: #efcbe0;
      }

      .cls-8 {
        fill: #e7afcf;
      }

      .cls-9 {
        fill: #fefffe;
      }

      .cls-10 {
        fill: #f4dae9;
      }

      .cls-11 {
        fill: #f1d2e4;
      }

      .cls-12 {
        fill: #edc3db;
      }

      .cls-13 {
        fill: #de94bf;
      }

      .cls-14 {
        fill: #f6e1ed;
      }

      .cls-15 {
        fill: #f4dcea;
      }

      .cls-16 {
        fill: #f2caf2;
      }

      .cls-17 {
        fill: #ebaaeb;
      }

      .cls-18 {
        fill: #f8e9f2;
      }

      .cls-19 {
        fill: #fefefc;
      }

      .cls-20 {
        fill: #f2d3e5;
      }

      .cls-21 {
        fill: #eec8de;
      }

      .cls-22 {
        fill: #fcffff;
      }

      .cls-23 {
        fill: #f4dbe9;
      }

      .cls-24 {
        fill: #fffefe;
      }

      .cls-25 {
        fill: #f0cee2;
      }

      .cls-26 {
        fill: #f9ebf3;
      }

      .cls-27 {
        fill: #f7e4ef;
      }

      .cls-28 {
        fill: #fdfeff;
      }

      .cls-29 {
        fill: #fcfffd;
      }

      .cls-30 {
        fill: #f5dfec;
      }

      .cls-31 {
        fill: #fffeff;
      }

      .cls-32 {
        fill: #f8e7f1;
      }

      .cls-33 {
        fill: #e79ae7;
      }

      .cls-34 {
        fill: #fffffc;
      }

      .cls-35 {
        fill: #fffefd;
      }

      .cls-36 {
        fill: #f6e2ee;
      }

      .cls-37 {
        fill: #f8eaf2;
      }

      .cls-38 {
        fill: #edc6dd;
      }

      .cls-39 {
        fill: #fefeff;
      }

      .cls-40 {
        fill: #f3d7e7;
      }

      .cls-41 {
        fill: #f0cde1;
      }

      .cls-42 {
        fill: #f1c4f1;
      }

      .cls-43 {
        fill: #fffffd;
      }

      .cls-44 {
        fill: #f2d6e6;
      }

      .cls-45 {
        fill: #fefefe;
      }

      .cls-46 {
        fill: #fffffe;
      }

      .cls-47 {
        fill: #feffff;
      }

      .cls-48 {
        fill: #f9ecf4;
      }

      .cls-49 {
        fill: #f5ddeb;
      }

      .cls-50 {
        fill: #f1d1e3;
      }
    </style>
  </defs>
  <g id="Layer_1-2" data-name="Layer 1">
    <g>
      <rect class="cls-4" x="134.64" y="104.04" width="6.12" height="6.12"/>
      <rect class="cls-4" x="128.52" y="104.04" width="6.12" height="6.12"/>
      <rect class="cls-4" x="122.4" y="104.04" width="6.12" height="6.12"/>
      <rect class="cls-4" x="116.28" y="104.04" width="6.12" height="6.12"/>
      <rect class="cls-4" x="110.16" y="104.04" width="6.12" height="6.12"/>
      <rect class="cls-4" x="104.04" y="104.04" width="6.12" height="6.12"/>
      <rect class="cls-4" x="153" y="97.92" width="6.12" height="6.12"/>
      <rect class="cls-4" x="146.88" y="97.92" width="6.12" height="6.12"/>
      <rect class="cls-4" x="140.76" y="97.92" width="6.12" height="6.12"/>
      <rect class="cls-4" x="134.64" y="97.92" width="6.12" height="6.12"/>
      <rect class="cls-4" x="128.52" y="97.92" width="6.12" height="6.12"/>
      <rect class="cls-4" x="122.4" y="97.92" width="6.12" height="6.12"/>
      <rect class="cls-4" x="116.28" y="97.92" width="6.12" height="6.12"/>
      <rect class="cls-4" x="110.16" y="97.92" width="6.12" height="6.12"/>
      <rect class="cls-4" x="104.04" y="97.92" width="6.12" height="6.12"/>
      <rect class="cls-4" x="97.92" y="97.92" width="6.12" height="6.12"/>
      <rect class="cls-4" x="91.8" y="97.92" width="6.12" height="6.12"/>
      <rect class="cls-4" x="85.68" y="97.92" width="6.12" height="6.12"/>
      <rect class="cls-17" x="55.08" y="97.92" width="6.12" height="6.12"/>
      <rect class="cls-4" x="48.96" y="97.92" width="6.12" height="6.12"/>
      <rect class="cls-4" x="42.84" y="97.92" width="6.12" height="6.12"/>
      <rect class="cls-4" x="36.72" y="97.92" width="6.12" height="6.12"/>
      <rect class="cls-33" x="30.6" y="97.92" width="6.12" height="6.12"/>
      <rect class="cls-4" x="208.08" y="91.8" width="6.12" height="6.12"/>
      <rect class="cls-4" x="201.96" y="91.8" width="6.12" height="6.12"/>
      <rect class="cls-4" x="195.84" y="91.8" width="6.12" height="6.12"/>
      <rect class="cls-4" x="189.72" y="91.8" width="6.12" height="6.12"/>
      <rect class="cls-4" x="183.6" y="91.8" width="6.12" height="6.12"/>
      <rect class="cls-4" x="159.12" y="91.8" width="6.12" height="6.12"/>
      <rect class="cls-4" x="153" y="91.8" width="6.12" height="6.12"/>
      <rect class="cls-4" x="146.88" y="91.8" width="6.12" height="6.12"/>
      <rect class="cls-4" x="140.76" y="91.8" width="6.12" height="6.12"/>
      <rect class="cls-4" x="134.64" y="91.8" width="6.12" height="6.12"/>
      <rect class="cls-4" x="128.52" y="91.8" width="6.12" height="6.12"/>
      <rect class="cls-4" x="122.4" y="91.8" width="6.12" height="6.12"/>
      <rect class="cls-4" x="116.28" y="91.8" width="6.12" height="6.12"/>
      <rect class="cls-4" x="110.16" y="91.8" width="6.12" height="6.12"/>
      <rect class="cls-4" x="104.04" y="91.8" width="6.12" height="6.12"/>
      <rect class="cls-4" x="97.92" y="91.8" width="6.12" height="6.12"/>
      <rect class="cls-4" x="91.8" y="91.8" width="6.12" height="6.12"/>
      <rect class="cls-4" x="85.68" y="91.8" width="6.12" height="6.12"/>
      <rect class="cls-4" x="79.56" y="91.8" width="6.12" height="6.12"/>
      <rect class="cls-4" x="61.2" y="91.8" width="6.12" height="6.12"/>
      <rect class="cls-4" x="55.08" y="91.8" width="6.12" height="6.12"/>
      <rect class="cls-4" x="48.96" y="91.8" width="6.12" height="6.12"/>
      <rect class="cls-4" x="42.84" y="91.8" width="6.12" height="6.12"/>
      <rect class="cls-4" x="36.72" y="91.8" width="6.12" height="6.12"/>
      <rect class="cls-4" x="30.6" y="91.8" width="6.12" height="6.12"/>
      <rect class="cls-4" x="232.56" y="85.68" width="6.12" height="6.12"/>
      <rect class="cls-4" x="226.44" y="85.68" width="6.12" height="6.12"/>
      <rect class="cls-4" x="220.32" y="85.68" width="6.12" height="6.12"/>
      <rect class="cls-4" x="214.2" y="85.68" width="6.12" height="6.12"/>
      <rect class="cls-4" x="208.08" y="85.68" width="6.12" height="6.12"/>
      <rect class="cls-4" x="201.96" y="85.68" width="6.12" height="6.12"/>
      <rect class="cls-4" x="195.84" y="85.68" width="6.12" height="6.12"/>
      <rect class="cls-4" x="189.72" y="85.68" width="6.12" height="6.12"/>
      <rect class="cls-4" x="183.6" y="85.68" width="6.12" height="6.12"/>
      <rect class="cls-4" x="177.48" y="85.68" width="6.12" height="6.12"/>
      <rect class="cls-4" x="171.36" y="85.68" width="6.12" height="6.12"/>
      <rect class="cls-4" x="165.24" y="85.68" width="6.12" height="6.12"/>
      <rect class="cls-4" x="159.12" y="85.68" width="6.12" height="6.12"/>
      <rect class="cls-4" x="153" y="85.68" width="6.12" height="6.12"/>
      <rect class="cls-4" x="146.88" y="85.68" width="6.12" height="6.12"/>
      <rect class="cls-4" x="140.76" y="85.68" width="6.12" height="6.12"/>
      <rect class="cls-4" x="134.64" y="85.68" width="6.12" height="6.12"/>
      <rect class="cls-4" x="128.52" y="85.68" width="6.12" height="6.12"/>
      <rect class="cls-4" x="122.4" y="85.68" width="6.12" height="6.12"/>
      <rect class="cls-4" x="116.28" y="85.68" width="6.12" height="6.12"/>
      <rect class="cls-4" x="110.16" y="85.68" width="6.12" height="6.12"/>
      <rect class="cls-4" x="104.04" y="85.68" width="6.12" height="6.12"/>
      <rect class="cls-4" x="97.92" y="85.68" width="6.12" height="6.12"/>
      <rect class="cls-4" x="91.8" y="85.68" width="6.12" height="6.12"/>
      <rect class="cls-4" x="85.68" y="85.68" width="6.12" height="6.12"/>
      <rect class="cls-4" x="79.56" y="85.68" width="6.12" height="6.12"/>
      <rect class="cls-4" x="73.44" y="85.68" width="6.12" height="6.12"/>
      <rect class="cls-4" x="67.32" y="85.68" width="6.12" height="6.12"/>
      <rect class="cls-4" x="61.2" y="85.68" width="6.12" height="6.12"/>
      <rect class="cls-4" x="55.08" y="85.68" width="6.12" height="6.12"/>
      <rect class="cls-4" x="48.96" y="85.68" width="6.12" height="6.12"/>
      <rect class="cls-4" x="42.84" y="85.68" width="6.12" height="6.12"/>
      <rect class="cls-4" x="36.72" y="85.68" width="6.12" height="6.12"/>
      <rect class="cls-4" x="30.6" y="85.68" width="6.12" height="6.12"/>
      <rect class="cls-4" x="24.48" y="85.68" width="6.12" height="6.12"/>
      <rect class="cls-4" x="238.68" y="79.56" width="6.12" height="6.12"/>
      <rect class="cls-4" x="232.56" y="79.56" width="6.12" height="6.12"/>
      <rect class="cls-4" x="226.44" y="79.56" width="6.12" height="6.12"/>
      <rect class="cls-4" x="220.32" y="79.56" width="6.12" height="6.12"/>
      <rect class="cls-4" x="214.2" y="79.56" width="6.12" height="6.12"/>
      <rect class="cls-4" x="208.08" y="79.56" width="6.12" height="6.12"/>
      <rect class="cls-4" x="201.96" y="79.56" width="6.12" height="6.12"/>
      <rect class="cls-4" x="195.84" y="79.56" width="6.12" height="6.12"/>
      <rect class="cls-4" x="189.72" y="79.56" width="6.12" height="6.12"/>
      <rect class="cls-4" x="183.6" y="79.56" width="6.12" height="6.12"/>
      <rect class="cls-4" x="177.48" y="79.56" width="6.12" height="6.12"/>
      <rect class="cls-4" x="171.36" y="79.56" width="6.12" height="6.12"/>
      <rect class="cls-4" x="165.24" y="79.56" width="6.12" height="6.12"/>
      <rect class="cls-4" x="159.12" y="79.56" width="6.12" height="6.12"/>
      <rect class="cls-4" x="153" y="79.56" width="6.12" height="6.12"/>
      <rect class="cls-4" x="146.88" y="79.56" width="6.12" height="6.12"/>
      <rect class="cls-4" x="140.76" y="79.56" width="6.12" height="6.12"/>
      <rect class="cls-4" x="134.64" y="79.56" width="6.12" height="6.12"/>
      <rect class="cls-4" x="128.52" y="79.56" width="6.12" height="6.12"/>
      <rect class="cls-4" x="122.4" y="79.56" width="6.12" height="6.12"/>
      <rect class="cls-4" x="116.28" y="79.56" width="6.12" height="6.12"/>
      <rect class="cls-4" x="110.16" y="79.56" width="6.12" height="6.12"/>
      <rect class="cls-4" x="104.04" y="79.56" width="6.12" height="6.12"/>
      <rect class="cls-4" x="97.92" y="79.56" width="6.12" height="6.12"/>
      <rect class="cls-4" x="91.8" y="79.56" width="6.12" height="6.12"/>
      <rect class="cls-4" x="85.68" y="79.56" width="6.12" height="6.12"/>
      <rect class="cls-4" x="79.56" y="79.56" width="6.12" height="6.12"/>
      <rect class="cls-4" x="73.44" y="79.56" width="6.12" height="6.12"/>
      <rect class="cls-4" x="67.32" y="79.56" width="6.12" height="6.12"/>
      <rect class="cls-4" x="61.2" y="79.56" width="6.12" height="6.12"/>
      <rect class="cls-4" x="55.08" y="79.56" width="6.12" height="6.12"/>
      <rect class="cls-4" x="48.96" y="79.56" width="6.12" height="6.12"/>
      <rect class="cls-4" x="42.84" y="79.56" width="6.12" height="6.12"/>
      <rect class="cls-4" x="36.72" y="79.56" width="6.12" height="6.12"/>
      <rect class="cls-4" x="30.6" y="79.56" width="6.12" height="6.12"/>
      <rect class="cls-4" x="24.48" y="79.56" width="6.12" height="6.12"/>
      <rect class="cls-4" x="18.36" y="79.56" width="6.12" height="6.12"/>
      <rect class="cls-4" x="12.24" y="79.56" width="6.12" height="6.12"/>
      <rect class="cls-4" x="244.8" y="73.44" width="6.12" height="6.12"/>
      <rect class="cls-4" x="238.68" y="73.44" width="6.12" height="6.12"/>
      <rect class="cls-4" x="232.56" y="73.44" width="6.12" height="6.12"/>
      <rect class="cls-4" x="226.44" y="73.44" width="6.12" height="6.12"/>
      <rect class="cls-4" x="220.32" y="73.44" width="6.12" height="6.12"/>
      <rect class="cls-4" x="214.2" y="73.44" width="6.12" height="6.12"/>
      <rect class="cls-4" x="208.08" y="73.44" width="6.12" height="6.12"/>
      <rect class="cls-4" x="201.96" y="73.44" width="6.12" height="6.12"/>
      <rect class="cls-4" x="195.84" y="73.44" width="6.12" height="6.12"/>
      <rect class="cls-4" x="189.72" y="73.44" width="6.12" height="6.12"/>
      <rect class="cls-4" x="183.6" y="73.44" width="6.12" height="6.12"/>
      <rect class="cls-4" x="177.48" y="73.44" width="6.12" height="6.12"/>
      <rect class="cls-4" x="171.36" y="73.44" width="6.12" height="6.12"/>
      <rect class="cls-4" x="165.24" y="73.44" width="6.12" height="6.12"/>
      <rect class="cls-4" x="159.12" y="73.44" width="6.12" height="6.12"/>
      <rect class="cls-4" x="153" y="73.44" width="6.12" height="6.12"/>
      <rect class="cls-4" x="146.88" y="73.44" width="6.12" height="6.12"/>
      <rect class="cls-4" x="140.76" y="73.44" width="6.12" height="6.12"/>
      <rect class="cls-4" x="134.64" y="73.44" width="6.12" height="6.12"/>
      <rect class="cls-4" x="128.52" y="73.44" width="6.12" height="6.12"/>
      <rect class="cls-4" x="122.4" y="73.44" width="6.12" height="6.12"/>
      <rect class="cls-4" x="116.28" y="73.44" width="6.12" height="6.12"/>
      <rect class="cls-4" x="110.16" y="73.44" width="6.12" height="6.12"/>
      <rect class="cls-4" x="104.04" y="73.44" width="6.12" height="6.12"/>
      <rect class="cls-4" x="97.92" y="73.44" width="6.12" height="6.12"/>
      <rect class="cls-4" x="91.8" y="73.44" width="6.12" height="6.12"/>
      <rect class="cls-4" x="85.68" y="73.44" width="6.12" height="6.12"/>
      <rect class="cls-4" x="79.56" y="73.44" width="6.12" height="6.12"/>
      <rect class="cls-4" x="73.44" y="73.44" width="6.12" height="6.12"/>
      <rect class="cls-4" x="67.32" y="73.44" width="6.12" height="6.12"/>
      <rect class="cls-4" x="61.2" y="73.44" width="6.12" height="6.12"/>
      <rect class="cls-4" x="55.08" y="73.44" width="6.12" height="6.12"/>
      <rect class="cls-4" x="48.96" y="73.44" width="6.12" height="6.12"/>
      <rect class="cls-4" x="42.84" y="73.44" width="6.12" height="6.12"/>
      <rect class="cls-4" x="36.72" y="73.44" width="6.12" height="6.12"/>
      <rect class="cls-4" x="30.6" y="73.44" width="6.12" height="6.12"/>
      <rect class="cls-4" x="24.48" y="73.44" width="6.12" height="6.12"/>
      <rect class="cls-4" x="18.36" y="73.44" width="6.12" height="6.12"/>
      <rect class="cls-18" x="12.24" y="73.44" width="6.12" height="6.12"/>
      <rect class="cls-6" x="6.12" y="73.44" width="6.12" height="6.12"/>
      <rect class="cls-5" y="73.44" width="6.12" height="6.12"/>
      <rect class="cls-4" x="244.8" y="67.32" width="6.12" height="6.12"/>
      <rect class="cls-4" x="238.68" y="67.32" width="6.12" height="6.12"/>
      <rect class="cls-4" x="232.56" y="67.32" width="6.12" height="6.12"/>
      <rect class="cls-4" x="226.44" y="67.32" width="6.12" height="6.12"/>
      <rect class="cls-4" x="220.32" y="67.32" width="6.12" height="6.12"/>
      <rect class="cls-4" x="214.2" y="67.32" width="6.12" height="6.12"/>
      <rect class="cls-4" x="208.08" y="67.32" width="6.12" height="6.12"/>
      <rect class="cls-4" x="201.96" y="67.32" width="6.12" height="6.12"/>
      <rect class="cls-4" x="195.84" y="67.32" width="6.12" height="6.12"/>
      <rect class="cls-4" x="189.72" y="67.32" width="6.12" height="6.12"/>
      <rect class="cls-4" x="183.6" y="67.32" width="6.12" height="6.12"/>
      <rect class="cls-4" x="177.48" y="67.32" width="6.12" height="6.12"/>
      <rect class="cls-4" x="171.36" y="67.32" width="6.12" height="6.12"/>
      <rect class="cls-4" x="165.24" y="67.32" width="6.12" height="6.12"/>
      <rect class="cls-4" x="159.12" y="67.32" width="6.12" height="6.12"/>
      <rect class="cls-4" x="153" y="67.32" width="6.12" height="6.12"/>
      <rect class="cls-4" x="146.88" y="67.32" width="6.12" height="6.12"/>
      <rect class="cls-4" x="140.76" y="67.32" width="6.12" height="6.12"/>
      <rect class="cls-4" x="134.64" y="67.32" width="6.12" height="6.12"/>
      <rect class="cls-4" x="128.52" y="67.32" width="6.12" height="6.12"/>
      <rect class="cls-4" x="122.4" y="67.32" width="6.12" height="6.12"/>
      <rect class="cls-4" x="116.28" y="67.32" width="6.12" height="6.12"/>
      <rect class="cls-4" x="110.16" y="67.32" width="6.12" height="6.12"/>
      <rect class="cls-4" x="104.04" y="67.32" width="6.12" height="6.12"/>
      <rect class="cls-41" x="97.92" y="67.32" width="6.12" height="6.12"/>
      <rect class="cls-27" x="91.8" y="67.32" width="6.12" height="6.12"/>
      <rect class="cls-5" x="85.68" y="67.32" width="6.12" height="6.12"/>
      <rect class="cls-4" x="79.56" y="67.32" width="6.12" height="6.12"/>
      <rect class="cls-38" x="73.44" y="67.32" width="6.12" height="6.12"/>
      <rect class="cls-48" x="67.32" y="67.32" width="6.12" height="6.12"/>
      <rect class="cls-4" x="61.2" y="67.32" width="6.12" height="6.12"/>
      <rect class="cls-4" x="55.08" y="67.32" width="6.12" height="6.12"/>
      <rect class="cls-4" x="48.96" y="67.32" width="6.12" height="6.12"/>
      <rect class="cls-50" x="42.84" y="67.32" width="6.12" height="6.12"/>
      <rect class="cls-46" x="36.72" y="67.32" width="6.12" height="6.12"/>
      <rect class="cls-46" x="30.6" y="67.32" width="6.12" height="6.12"/>
      <rect class="cls-46" x="24.48" y="67.32" width="6.12" height="6.12"/>
      <rect class="cls-46" x="18.36" y="67.32" width="6.12" height="6.12"/>
      <rect class="cls-45" x="12.24" y="67.32" width="6.12" height="6.12"/>
      <rect class="cls-46" x="6.12" y="67.32" width="6.12" height="6.12"/>
      <rect class="cls-8" y="67.32" width="6.12" height="6.12"/>
      <rect class="cls-4" x="238.68" y="61.2" width="6.12" height="6.12"/>
      <rect class="cls-4" x="232.56" y="61.2" width="6.12" height="6.12"/>
      <rect class="cls-4" x="226.44" y="61.2" width="6.12" height="6.12"/>
      <rect class="cls-4" x="220.32" y="61.2" width="6.12" height="6.12"/>
      <rect class="cls-4" x="214.2" y="61.2" width="6.12" height="6.12"/>
      <rect class="cls-4" x="208.08" y="61.2" width="6.12" height="6.12"/>
      <rect class="cls-4" x="201.96" y="61.2" width="6.12" height="6.12"/>
      <rect class="cls-4" x="195.84" y="61.2" width="6.12" height="6.12"/>
      <rect class="cls-4" x="189.72" y="61.2" width="6.12" height="6.12"/>
      <rect class="cls-4" x="183.6" y="61.2" width="6.12" height="6.12"/>
      <rect class="cls-4" x="177.48" y="61.2" width="6.12" height="6.12"/>
      <rect class="cls-4" x="171.36" y="61.2" width="6.12" height="6.12"/>
      <rect class="cls-4" x="165.24" y="61.2" width="6.12" height="6.12"/>
      <rect class="cls-4" x="159.12" y="61.2" width="6.12" height="6.12"/>
      <rect class="cls-4" x="153" y="61.2" width="6.12" height="6.12"/>
      <rect class="cls-4" x="146.88" y="61.2" width="6.12" height="6.12"/>
      <rect class="cls-4" x="140.76" y="61.2" width="6.12" height="6.12"/>
      <rect class="cls-4" x="134.64" y="61.2" width="6.12" height="6.12"/>
      <rect class="cls-4" x="128.52" y="61.2" width="6.12" height="6.12"/>
      <rect class="cls-4" x="122.4" y="61.2" width="6.12" height="6.12"/>
      <rect class="cls-4" x="116.28" y="61.2" width="6.12" height="6.12"/>
      <rect class="cls-4" x="110.16" y="61.2" width="6.12" height="6.12"/>
      <rect class="cls-4" x="104.04" y="61.2" width="6.12" height="6.12"/>
      <rect class="cls-4" x="97.92" y="61.2" width="6.12" height="6.12"/>
      <rect class="cls-4" x="91.8" y="61.2" width="6.12" height="6.12"/>
      <rect class="cls-5" x="85.68" y="61.2" width="6.12" height="6.12"/>
      <rect class="cls-7" x="79.56" y="61.2" width="6.12" height="6.12"/>
      <rect class="cls-45" x="73.44" y="61.2" width="6.12" height="6.12"/>
      <rect class="cls-46" x="67.32" y="61.2" width="6.12" height="6.12"/>
      <rect class="cls-4" x="61.2" y="61.2" width="6.12" height="6.12"/>
      <rect class="cls-4" x="55.08" y="61.2" width="6.12" height="6.12"/>
      <rect class="cls-4" x="48.96" y="61.2" width="6.12" height="6.12"/>
      <rect class="cls-4" x="42.84" y="61.2" width="6.12" height="6.12"/>
      <rect class="cls-29" x="36.72" y="61.2" width="6.12" height="6.12"/>
      <rect class="cls-43" x="30.6" y="61.2" width="6.12" height="6.12"/>
      <rect class="cls-43" x="24.48" y="61.2" width="6.12" height="6.12"/>
      <rect class="cls-45" x="18.36" y="61.2" width="6.12" height="6.12"/>
      <rect class="cls-24" x="12.24" y="61.2" width="6.12" height="6.12"/>
      <rect class="cls-35" x="6.12" y="61.2" width="6.12" height="6.12"/>
      <rect class="cls-5" y="61.2" width="6.12" height="6.12"/>
      <rect class="cls-4" x="226.44" y="55.08" width="6.12" height="6.12"/>
      <rect class="cls-4" x="220.32" y="55.08" width="6.12" height="6.12"/>
      <rect class="cls-4" x="214.2" y="55.08" width="6.12" height="6.12"/>
      <rect class="cls-4" x="208.08" y="55.08" width="6.12" height="6.12"/>
      <rect class="cls-4" x="201.96" y="55.08" width="6.12" height="6.12"/>
      <rect class="cls-4" x="195.84" y="55.08" width="6.12" height="6.12"/>
      <rect class="cls-4" x="189.72" y="55.08" width="6.12" height="6.12"/>
      <rect class="cls-4" x="183.6" y="55.08" width="6.12" height="6.12"/>
      <rect class="cls-4" x="177.48" y="55.08" width="6.12" height="6.12"/>
      <rect class="cls-4" x="171.36" y="55.08" width="6.12" height="6.12"/>
      <rect class="cls-4" x="165.24" y="55.08" width="6.12" height="6.12"/>
      <rect class="cls-4" x="159.12" y="55.08" width="6.12" height="6.12"/>
      <rect class="cls-4" x="153" y="55.08" width="6.12" height="6.12"/>
      <rect class="cls-4" x="146.88" y="55.08" width="6.12" height="6.12"/>
      <rect class="cls-4" x="140.76" y="55.08" width="6.12" height="6.12"/>
      <rect class="cls-4" x="134.64" y="55.08" width="6.12" height="6.12"/>
      <rect class="cls-4" x="128.52" y="55.08" width="6.12" height="6.12"/>
      <rect class="cls-4" x="122.4" y="55.08" width="6.12" height="6.12"/>
      <rect class="cls-4" x="116.28" y="55.08" width="6.12" height="6.12"/>
      <rect class="cls-4" x="110.16" y="55.08" width="6.12" height="6.12"/>
      <rect class="cls-4" x="104.04" y="55.08" width="6.12" height="6.12"/>
      <rect class="cls-4" x="97.92" y="55.08" width="6.12" height="6.12"/>
      <rect class="cls-4" x="91.8" y="55.08" width="6.12" height="6.12"/>
      <rect class="cls-4" x="85.68" y="55.08" width="6.12" height="6.12"/>
      <rect class="cls-5" x="79.56" y="55.08" width="6.12" height="6.12"/>
      <rect class="cls-47" x="73.44" y="55.08" width="6.12" height="6.12"/>
      <rect class="cls-47" x="67.32" y="55.08" width="6.12" height="6.12"/>
      <rect class="cls-3" x="61.2" y="55.08" width="6.12" height="6.12"/>
      <rect class="cls-5" x="55.08" y="55.08" width="6.12" height="6.12"/>
      <rect class="cls-4" x="48.96" y="55.08" width="6.12" height="6.12"/>
      <rect class="cls-4" x="42.84" y="55.08" width="6.12" height="6.12"/>
      <rect class="cls-5" x="36.72" y="55.08" width="6.12" height="6.12"/>
      <rect class="cls-27" x="30.6" y="55.08" width="6.12" height="6.12"/>
      <rect class="cls-27" x="24.48" y="55.08" width="6.12" height="6.12"/>
      <rect class="cls-5" x="18.36" y="55.08" width="6.12" height="6.12"/>
      <rect class="cls-4" x="226.44" y="48.96" width="6.12" height="6.12"/>
      <rect class="cls-4" x="220.32" y="48.96" width="6.12" height="6.12"/>
      <rect class="cls-4" x="214.2" y="48.96" width="6.12" height="6.12"/>
      <rect class="cls-4" x="208.08" y="48.96" width="6.12" height="6.12"/>
      <rect class="cls-4" x="201.96" y="48.96" width="6.12" height="6.12"/>
      <rect class="cls-4" x="195.84" y="48.96" width="6.12" height="6.12"/>
      <rect class="cls-4" x="189.72" y="48.96" width="6.12" height="6.12"/>
      <rect class="cls-4" x="183.6" y="48.96" width="6.12" height="6.12"/>
      <rect class="cls-4" x="177.48" y="48.96" width="6.12" height="6.12"/>
      <rect class="cls-4" x="171.36" y="48.96" width="6.12" height="6.12"/>
      <rect class="cls-4" x="165.24" y="48.96" width="6.12" height="6.12"/>
      <rect class="cls-4" x="159.12" y="48.96" width="6.12" height="6.12"/>
      <rect class="cls-4" x="153" y="48.96" width="6.12" height="6.12"/>
      <rect class="cls-4" x="146.88" y="48.96" width="6.12" height="6.12"/>
      <rect class="cls-4" x="140.76" y="48.96" width="6.12" height="6.12"/>
      <rect class="cls-5" x="134.64" y="48.96" width="6.12" height="6.12"/>
      <rect class="cls-42" x="128.52" y="48.96" width="6.12" height="6.12"/>
      <rect class="cls-4" x="122.4" y="48.96" width="6.12" height="6.12"/>
      <rect class="cls-4" x="116.28" y="48.96" width="6.12" height="6.12"/>
      <rect class="cls-4" x="110.16" y="48.96" width="6.12" height="6.12"/>
      <rect class="cls-4" x="104.04" y="48.96" width="6.12" height="6.12"/>
      <rect class="cls-4" x="97.92" y="48.96" width="6.12" height="6.12"/>
      <rect class="cls-4" x="91.8" y="48.96" width="6.12" height="6.12"/>
      <rect class="cls-4" x="85.68" y="48.96" width="6.12" height="6.12"/>
      <rect class="cls-2" x="79.56" y="48.96" width="6.12" height="6.12"/>
      <rect class="cls-6" x="73.44" y="48.96" width="6.12" height="6.12"/>
      <rect class="cls-6" x="67.32" y="48.96" width="6.12" height="6.12"/>
      <rect class="cls-24" x="61.2" y="48.96" width="6.12" height="6.12"/>
      <rect class="cls-35" x="55.08" y="48.96" width="6.12" height="6.12"/>
      <rect class="cls-12" x="48.96" y="48.96" width="6.12" height="6.12"/>
      <rect class="cls-12" x="42.84" y="48.96" width="6.12" height="6.12"/>
      <rect class="cls-27" x="36.72" y="48.96" width="6.12" height="6.12"/>
      <rect class="cls-19" x="30.6" y="48.96" width="6.12" height="6.12"/>
      <rect class="cls-41" x="24.48" y="48.96" width="6.12" height="6.12"/>
      <rect class="cls-4" x="18.36" y="48.96" width="6.12" height="6.12"/>
      <rect class="cls-4" x="220.32" y="42.84" width="6.12" height="6.12"/>
      <rect class="cls-4" x="214.2" y="42.84" width="6.12" height="6.12"/>
      <rect class="cls-4" x="208.08" y="42.84" width="6.12" height="6.12"/>
      <rect class="cls-4" x="201.96" y="42.84" width="6.12" height="6.12"/>
      <rect class="cls-47" x="195.84" y="42.84" width="6.12" height="6.12"/>
      <rect class="cls-5" x="189.72" y="42.84" width="6.12" height="6.12"/>
      <rect class="cls-5" x="183.6" y="42.84" width="6.12" height="6.12"/>
      <rect class="cls-4" x="177.48" y="42.84" width="6.12" height="6.12"/>
      <rect class="cls-4" x="171.36" y="42.84" width="6.12" height="6.12"/>
      <rect class="cls-4" x="165.24" y="42.84" width="6.12" height="6.12"/>
      <rect class="cls-4" x="159.12" y="42.84" width="6.12" height="6.12"/>
      <rect class="cls-47" x="153" y="42.84" width="6.12" height="6.12"/>
      <rect class="cls-47" x="146.88" y="42.84" width="6.12" height="6.12"/>
      <rect class="cls-47" x="140.76" y="42.84" width="6.12" height="6.12"/>
      <rect class="cls-46" x="134.64" y="42.84" width="6.12" height="6.12"/>
      <rect class="cls-31" x="128.52" y="42.84" width="6.12" height="6.12"/>
      <rect class="cls-32" x="122.4" y="42.84" width="6.12" height="6.12"/>
      <rect class="cls-4" x="116.28" y="42.84" width="6.12" height="6.12"/>
      <rect class="cls-4" x="110.16" y="42.84" width="6.12" height="6.12"/>
      <rect class="cls-4" x="104.04" y="42.84" width="6.12" height="6.12"/>
      <rect class="cls-4" x="97.92" y="42.84" width="6.12" height="6.12"/>
      <rect class="cls-4" x="91.8" y="42.84" width="6.12" height="6.12"/>
      <rect class="cls-5" x="85.68" y="42.84" width="6.12" height="6.12"/>
      <rect class="cls-22" x="79.56" y="42.84" width="6.12" height="6.12"/>
      <rect class="cls-31" x="73.44" y="42.84" width="6.12" height="6.12"/>
      <rect class="cls-32" x="67.32" y="42.84" width="6.12" height="6.12"/>
      <rect class="cls-9" x="61.2" y="42.84" width="6.12" height="6.12"/>
      <rect class="cls-9" x="55.08" y="42.84" width="6.12" height="6.12"/>
      <rect class="cls-9" x="48.96" y="42.84" width="6.12" height="6.12"/>
      <rect class="cls-9" x="42.84" y="42.84" width="6.12" height="6.12"/>
      <rect class="cls-23" x="36.72" y="42.84" width="6.12" height="6.12"/>
      <rect class="cls-41" x="30.6" y="42.84" width="6.12" height="6.12"/>
      <rect class="cls-4" x="220.32" y="36.72" width="6.12" height="6.12"/>
      <rect class="cls-4" x="214.2" y="36.72" width="6.12" height="6.12"/>
      <rect class="cls-4" x="208.08" y="36.72" width="6.12" height="6.12"/>
      <rect class="cls-4" x="201.96" y="36.72" width="6.12" height="6.12"/>
      <rect class="cls-4" x="195.84" y="36.72" width="6.12" height="6.12"/>
      <rect class="cls-26" x="189.72" y="36.72" width="6.12" height="6.12"/>
      <rect class="cls-26" x="183.6" y="36.72" width="6.12" height="6.12"/>
      <rect class="cls-4" x="177.48" y="36.72" width="6.12" height="6.12"/>
      <rect class="cls-4" x="171.36" y="36.72" width="6.12" height="6.12"/>
      <rect class="cls-4" x="165.24" y="36.72" width="6.12" height="6.12"/>
      <rect class="cls-4" x="159.12" y="36.72" width="6.12" height="6.12"/>
      <rect class="cls-13" x="153" y="36.72" width="6.12" height="6.12"/>
      <rect class="cls-47" x="146.88" y="36.72" width="6.12" height="6.12"/>
      <rect class="cls-48" x="140.76" y="36.72" width="6.12" height="6.12"/>
      <rect class="cls-6" x="134.64" y="36.72" width="6.12" height="6.12"/>
      <rect class="cls-31" x="128.52" y="36.72" width="6.12" height="6.12"/>
      <rect class="cls-39" x="122.4" y="36.72" width="6.12" height="6.12"/>
      <rect class="cls-4" x="116.28" y="36.72" width="6.12" height="6.12"/>
      <rect class="cls-4" x="110.16" y="36.72" width="6.12" height="6.12"/>
      <rect class="cls-4" x="104.04" y="36.72" width="6.12" height="6.12"/>
      <rect class="cls-4" x="97.92" y="36.72" width="6.12" height="6.12"/>
      <rect class="cls-4" x="91.8" y="36.72" width="6.12" height="6.12"/>
      <rect class="cls-30" x="85.68" y="36.72" width="6.12" height="6.12"/>
      <rect class="cls-27" x="79.56" y="36.72" width="6.12" height="6.12"/>
      <rect class="cls-45" x="73.44" y="36.72" width="6.12" height="6.12"/>
      <rect class="cls-14" x="67.32" y="36.72" width="6.12" height="6.12"/>
      <rect class="cls-15" x="61.2" y="36.72" width="6.12" height="6.12"/>
      <rect class="cls-5" x="55.08" y="36.72" width="6.12" height="6.12"/>
      <rect class="cls-5" x="48.96" y="36.72" width="6.12" height="6.12"/>
      <rect class="cls-28" x="42.84" y="36.72" width="6.12" height="6.12"/>
      <rect class="cls-30" x="36.72" y="36.72" width="6.12" height="6.12"/>
      <rect class="cls-4" x="30.6" y="36.72" width="6.12" height="6.12"/>
      <rect class="cls-6" x="208.08" y="30.6" width="6.12" height="6.12"/>
      <rect class="cls-4" x="201.96" y="30.6" width="6.12" height="6.12"/>
      <rect class="cls-11" x="195.84" y="30.6" width="6.12" height="6.12"/>
      <rect class="cls-45" x="189.72" y="30.6" width="6.12" height="6.12"/>
      <rect class="cls-31" x="183.6" y="30.6" width="6.12" height="6.12"/>
      <rect class="cls-11" x="177.48" y="30.6" width="6.12" height="6.12"/>
      <rect class="cls-5" x="171.36" y="30.6" width="6.12" height="6.12"/>
      <rect class="cls-4" x="165.24" y="30.6" width="6.12" height="6.12"/>
      <rect class="cls-4" x="159.12" y="30.6" width="6.12" height="6.12"/>
      <rect class="cls-4" x="153" y="30.6" width="6.12" height="6.12"/>
      <rect class="cls-5" x="146.88" y="30.6" width="6.12" height="6.12"/>
      <rect class="cls-37" x="140.76" y="30.6" width="6.12" height="6.12"/>
      <rect class="cls-9" x="134.64" y="30.6" width="6.12" height="6.12"/>
      <rect class="cls-31" x="128.52" y="30.6" width="6.12" height="6.12"/>
      <rect class="cls-24" x="122.4" y="30.6" width="6.12" height="6.12"/>
      <rect class="cls-5" x="116.28" y="30.6" width="6.12" height="6.12"/>
      <rect class="cls-5" x="110.16" y="30.6" width="6.12" height="6.12"/>
      <rect class="cls-4" x="104.04" y="30.6" width="6.12" height="6.12"/>
      <rect class="cls-5" x="97.92" y="30.6" width="6.12" height="6.12"/>
      <rect class="cls-14" x="91.8" y="30.6" width="6.12" height="6.12"/>
      <rect class="cls-1" x="85.68" y="30.6" width="6.12" height="6.12"/>
      <rect class="cls-30" x="79.56" y="30.6" width="6.12" height="6.12"/>
      <rect class="cls-34" x="195.84" y="24.48" width="6.12" height="6.12"/>
      <rect class="cls-44" x="189.72" y="24.48" width="6.12" height="6.12"/>
      <rect class="cls-48" x="183.6" y="24.48" width="6.12" height="6.12"/>
      <rect class="cls-25" x="177.48" y="24.48" width="6.12" height="6.12"/>
      <rect class="cls-5" x="171.36" y="24.48" width="6.12" height="6.12"/>
      <rect class="cls-47" x="165.24" y="24.48" width="6.12" height="6.12"/>
      <rect class="cls-6" x="159.12" y="24.48" width="6.12" height="6.12"/>
      <rect class="cls-6" x="153" y="24.48" width="6.12" height="6.12"/>
      <rect class="cls-6" x="146.88" y="24.48" width="6.12" height="6.12"/>
      <rect class="cls-47" x="140.76" y="24.48" width="6.12" height="6.12"/>
      <rect class="cls-6" x="134.64" y="24.48" width="6.12" height="6.12"/>
      <rect class="cls-31" x="128.52" y="24.48" width="6.12" height="6.12"/>
      <rect class="cls-31" x="122.4" y="24.48" width="6.12" height="6.12"/>
      <rect class="cls-9" x="116.28" y="24.48" width="6.12" height="6.12"/>
      <rect class="cls-47" x="110.16" y="24.48" width="6.12" height="6.12"/>
      <rect class="cls-47" x="104.04" y="24.48" width="6.12" height="6.12"/>
      <rect class="cls-44" x="97.92" y="24.48" width="6.12" height="6.12"/>
      <rect class="cls-40" x="91.8" y="24.48" width="6.12" height="6.12"/>
      <rect class="cls-11" x="85.68" y="24.48" width="6.12" height="6.12"/>
      <rect class="cls-5" x="79.56" y="24.48" width="6.12" height="6.12"/>
      <rect class="cls-4" x="171.36" y="18.36" width="6.12" height="6.12"/>
      <rect class="cls-30" x="165.24" y="18.36" width="6.12" height="6.12"/>
      <rect class="cls-39" x="159.12" y="18.36" width="6.12" height="6.12"/>
      <rect class="cls-6" x="153" y="18.36" width="6.12" height="6.12"/>
      <rect class="cls-6" x="146.88" y="18.36" width="6.12" height="6.12"/>
      <rect class="cls-5" x="140.76" y="18.36" width="6.12" height="6.12"/>
      <rect class="cls-5" x="134.64" y="18.36" width="6.12" height="6.12"/>
      <rect class="cls-6" x="128.52" y="18.36" width="6.12" height="6.12"/>
      <rect class="cls-6" x="122.4" y="18.36" width="6.12" height="6.12"/>
      <rect class="cls-5" x="116.28" y="18.36" width="6.12" height="6.12"/>
      <rect class="cls-6" x="110.16" y="18.36" width="6.12" height="6.12"/>
      <rect class="cls-31" x="104.04" y="18.36" width="6.12" height="6.12"/>
      <rect class="cls-23" x="97.92" y="18.36" width="6.12" height="6.12"/>
      <rect class="cls-25" x="91.8" y="18.36" width="6.12" height="6.12"/>
      <rect class="cls-16" x="85.68" y="18.36" width="6.12" height="6.12"/>
      <rect class="cls-21" x="165.24" y="12.24" width="6.12" height="6.12"/>
      <rect class="cls-48" x="159.12" y="12.24" width="6.12" height="6.12"/>
      <rect class="cls-6" x="153" y="12.24" width="6.12" height="6.12"/>
      <rect class="cls-6" x="146.88" y="12.24" width="6.12" height="6.12"/>
      <rect class="cls-5" x="140.76" y="12.24" width="6.12" height="6.12"/>
      <rect class="cls-47" x="134.64" y="12.24" width="6.12" height="6.12"/>
      <rect class="cls-6" x="128.52" y="12.24" width="6.12" height="6.12"/>
      <rect class="cls-6" x="122.4" y="12.24" width="6.12" height="6.12"/>
      <rect class="cls-6" x="116.28" y="12.24" width="6.12" height="6.12"/>
      <rect class="cls-6" x="110.16" y="12.24" width="6.12" height="6.12"/>
      <rect class="cls-31" x="104.04" y="12.24" width="6.12" height="6.12"/>
      <rect class="cls-15" x="97.92" y="12.24" width="6.12" height="6.12"/>
      <rect class="cls-10" x="91.8" y="12.24" width="6.12" height="6.12"/>
      <rect class="cls-30" x="153" y="6.12" width="6.12" height="6.12"/>
      <rect class="cls-10" x="146.88" y="6.12" width="6.12" height="6.12"/>
      <rect class="cls-36" x="140.76" y="6.12" width="6.12" height="6.12"/>
      <rect class="cls-1" x="134.64" y="6.12" width="6.12" height="6.12"/>
      <rect class="cls-1" x="128.52" y="6.12" width="6.12" height="6.12"/>
      <rect class="cls-1" x="122.4" y="6.12" width="6.12" height="6.12"/>
      <rect class="cls-49" x="116.28" y="6.12" width="6.12" height="6.12"/>
      <rect class="cls-49" x="110.16" y="6.12" width="6.12" height="6.12"/>
      <rect class="cls-32" x="104.04" y="6.12" width="6.12" height="6.12"/>
      <rect class="cls-4" x="146.88" width="6.12" height="6.12"/>
      <rect class="cls-23" x="140.76" width="6.12" height="6.12"/>
      <rect class="cls-25" x="134.64" width="6.12" height="6.12"/>
      <rect class="cls-20" x="128.52" width="6.12" height="6.12"/>
      <rect class="cls-44" x="122.4" width="6.12" height="6.12"/>
      <rect class="cls-12" x="116.28" width="6.12" height="6.12"/>
      <rect class="cls-5" x="110.16" width="6.12" height="6.12"/>
    </g>
  </g>
</svg>