<?xml version="1.0" encoding="UTF-8"?>
<svg id="Layer_2" data-name="Layer 2" xmlns="http://www.w3.org/2000/svg" viewBox="0 0 362.6 68.6">
  <defs>
    <style>
      .cls-1 {
        fill: #d2a7f1;
      }

      .cls-2 {
        fill: #e6cef7;
      }

      .cls-3 {
        fill: #b66fe8;
      }

      .cls-4 {
        fill: #f3ecfa;
      }

      .cls-5 {
        fill: #b6e3f2;
      }

      .cls-6 {
        fill: #c791ee;
      }

      .cls-7 {
        fill: #e6d1f5;
      }

      .cls-8 {
        fill: #ede3f8;
      }

      .cls-9 {
        fill: #bc7bea;
      }

      .cls-10 {
        fill: #bd7eeb;
      }

      .cls-11 {
        fill: #e4c9f7;
      }

      .cls-12 {
        fill: #bc94e5;
      }

      .cls-13 {
        fill: #e1c8f3;
      }

      .cls-14 {
        fill: #aa76de;
      }

      .cls-15 {
        fill: #b78ae3;
      }

      .cls-16 {
        fill: #e1cef3;
      }

      .cls-17 {
        fill: #cd9df0;
      }

      .cls-18 {
        fill: #c185ec;
      }

      .cls-19 {
        fill: #b587e2;
      }

      .cls-20 {
        fill: #bb79ea;
      }

      .cls-21 {
        fill: #e7d8f5;
      }

      .cls-22 {
        fill: #dcc6f1;
      }

      .cls-23 {
        fill: #fffdf6;
      }

      .cls-24 {
        fill: #dcbbf4;
      }

      .cls-25 {
        fill: #a873dd;
      }

      .cls-26 {
        fill: #dec3f2;
      }

      .cls-27 {
        fill: #e1c4f6;
      }

      .cls-28 {
        fill: #e5cff5;
      }

      .cls-29 {
        fill: #d9b3f3;
      }

      .cls-30 {
        fill: #fefefc;
      }

      .cls-31 {
        fill: #e0c6f3;
      }

      .cls-32 {
        fill: #c082eb;
      }

      .cls-33 {
        fill: #d7b5ef;
      }

      .cls-34 {
        fill: #debdf5;
      }

      .cls-35 {
        fill: #cfa0f0;
      }

      .cls-36 {
        fill: #bb92e5;
      }

      .cls-37 {
        fill: #d5bbef;
      }

      .cls-38 {
        fill: #d0a2f0;
      }

      .cls-39 {
        fill: #a56edc;
      }

      .cls-40 {
        fill: #cfb2ec;
      }

      .cls-41 {
        fill: #e9d3f8;
      }

      .cls-42 {
        fill: #e2c9f3;
      }

      .cls-43 {
        fill: #c287ec;
      }

      .cls-44 {
        fill: #fefeff;
      }

      .cls-45 {
        fill: #9d62d9;
      }

      .cls-46 {
        fill: #b98ee3;
      }

      .cls-47 {
        fill: #e3cbf4;
      }

      .cls-48 {
        fill: #e0c2f5;
      }

      .cls-49 {
        fill: #d5acf2;
      }

      .cls-50 {
        fill: #e4cdf4;
      }

      .cls-51 {
        fill: #d8c0f0;
      }

      .cls-52 {
        fill: #c6a4e9;
      }

      .cls-53 {
        fill: #a36bdb;
      }

      .cls-54 {
        fill: #c38aed;
      }

      .cls-55 {
        fill: #e8d9f6;
      }

      .cls-56 {
        fill: #c8a7ea;
      }

      .cls-57 {
        fill: #b07fe0;
      }

      .cls-58 {
        fill: #fffef9;
      }

      .cls-59 {
        fill: #fefefe;
      }

      .cls-60 {
        fill: #c68fed;
      }

      .cls-61 {
        fill: #dac3f0;
      }

      .cls-62 {
        fill: #dfcbf2;
      }

      .cls-63 {
        fill: #d2b7ed;
      }

      .cls-64 {
        fill: #caaaea;
      }

      .cls-65 {
        fill: #cdafeb;
      }

      .cls-66 {
        fill: #ddc1f1;
      }

      .cls-67 {
        fill: #a854e4;
      }

      .cls-68 {
        fill: #cb98ef;
      }
    </style>
  </defs>
  <g id="Layer_3" data-name="Layer 3">
    <g>
      <rect class="cls-31" x="343" y="63.7" width="4.9" height="4.9"/>
      <rect class="cls-32" x="338.1" y="63.7" width="4.9" height="4.9"/>
      <rect class="cls-9" x="333.2" y="63.7" width="4.9" height="4.9"/>
      <rect class="cls-13" x="328.3" y="63.7" width="4.9" height="4.9"/>
      <rect class="cls-10" x="323.4" y="63.7" width="4.9" height="4.9"/>
      <rect class="cls-32" x="318.5" y="63.7" width="4.9" height="4.9"/>
      <rect class="cls-20" x="313.6" y="63.7" width="4.9" height="4.9"/>
      <rect class="cls-32" x="308.7" y="63.7" width="4.9" height="4.9"/>
      <rect class="cls-32" x="303.8" y="63.7" width="4.9" height="4.9"/>
      <rect class="cls-32" x="298.9" y="63.7" width="4.9" height="4.9"/>
      <rect class="cls-32" x="294" y="63.7" width="4.9" height="4.9"/>
      <rect class="cls-32" x="289.1" y="63.7" width="4.9" height="4.9"/>
      <rect class="cls-32" x="284.2" y="63.7" width="4.9" height="4.9"/>
      <rect class="cls-32" x="279.3" y="63.7" width="4.9" height="4.9"/>
      <rect class="cls-32" x="274.4" y="63.7" width="4.9" height="4.9"/>
      <rect class="cls-32" x="269.5" y="63.7" width="4.9" height="4.9"/>
      <rect class="cls-32" x="264.6" y="63.7" width="4.9" height="4.9"/>
      <rect class="cls-3" x="225.4" y="63.7" width="4.9" height="4.9"/>
      <rect class="cls-32" x="220.5" y="63.7" width="4.9" height="4.9"/>
      <rect class="cls-10" x="215.6" y="63.7" width="4.9" height="4.9"/>
      <rect class="cls-13" x="210.7" y="63.7" width="4.9" height="4.9"/>
      <rect class="cls-42" x="205.8" y="63.7" width="4.9" height="4.9"/>
      <rect class="cls-13" x="200.9" y="63.7" width="4.9" height="4.9"/>
      <rect class="cls-42" x="196" y="63.7" width="4.9" height="4.9"/>
      <rect class="cls-42" x="191.1" y="63.7" width="4.9" height="4.9"/>
      <rect class="cls-10" x="186.2" y="63.7" width="4.9" height="4.9"/>
      <rect class="cls-10" x="181.3" y="63.7" width="4.9" height="4.9"/>
      <rect class="cls-10" x="176.4" y="63.7" width="4.9" height="4.9"/>
      <rect class="cls-9" x="171.5" y="63.7" width="4.9" height="4.9"/>
      <rect class="cls-9" x="166.6" y="63.7" width="4.9" height="4.9"/>
      <rect class="cls-20" x="161.7" y="63.7" width="4.9" height="4.9"/>
      <rect class="cls-10" x="156.8" y="63.7" width="4.9" height="4.9"/>
      <rect class="cls-32" x="151.9" y="63.7" width="4.9" height="4.9"/>
      <rect class="cls-32" x="147" y="63.7" width="4.9" height="4.9"/>
      <rect class="cls-32" x="142.1" y="63.7" width="4.9" height="4.9"/>
      <rect class="cls-10" x="137.2" y="63.7" width="4.9" height="4.9"/>
      <rect class="cls-32" x="132.3" y="63.7" width="4.9" height="4.9"/>
      <rect class="cls-32" x="127.4" y="63.7" width="4.9" height="4.9"/>
      <rect class="cls-32" x="122.5" y="63.7" width="4.9" height="4.9"/>
      <rect class="cls-32" x="117.6" y="63.7" width="4.9" height="4.9"/>
      <rect class="cls-32" x="112.7" y="63.7" width="4.9" height="4.9"/>
      <rect class="cls-32" x="107.8" y="63.7" width="4.9" height="4.9"/>
      <rect class="cls-32" x="102.9" y="63.7" width="4.9" height="4.9"/>
      <rect class="cls-10" x="98" y="63.7" width="4.9" height="4.9"/>
      <rect class="cls-32" x="93.1" y="63.7" width="4.9" height="4.9"/>
      <rect class="cls-32" x="88.2" y="63.7" width="4.9" height="4.9"/>
      <rect class="cls-32" x="83.3" y="63.7" width="4.9" height="4.9"/>
      <rect class="cls-32" x="78.4" y="63.7" width="4.9" height="4.9"/>
      <rect class="cls-32" x="73.5" y="63.7" width="4.9" height="4.9"/>
      <rect class="cls-10" x="68.6" y="63.7" width="4.9" height="4.9"/>
      <rect class="cls-67" x="63.7" y="63.7" width="4.9" height="4.9"/>
      <rect class="cls-7" x="357.7" y="58.8" width="4.9" height="4.9"/>
      <rect class="cls-65" x="352.8" y="58.8" width="4.9" height="4.9"/>
      <rect class="cls-29" x="347.9" y="58.8" width="4.9" height="4.9"/>
      <rect class="cls-35" x="343" y="58.8" width="4.9" height="4.9"/>
      <rect class="cls-53" x="338.1" y="58.8" width="4.9" height="4.9"/>
      <rect class="cls-42" x="333.2" y="58.8" width="4.9" height="4.9"/>
      <rect class="cls-9" x="328.3" y="58.8" width="4.9" height="4.9"/>
      <rect class="cls-9" x="323.4" y="58.8" width="4.9" height="4.9"/>
      <rect class="cls-10" x="318.5" y="58.8" width="4.9" height="4.9"/>
      <rect class="cls-10" x="313.6" y="58.8" width="4.9" height="4.9"/>
      <rect class="cls-32" x="308.7" y="58.8" width="4.9" height="4.9"/>
      <rect class="cls-32" x="303.8" y="58.8" width="4.9" height="4.9"/>
      <rect class="cls-32" x="298.9" y="58.8" width="4.9" height="4.9"/>
      <rect class="cls-32" x="294" y="58.8" width="4.9" height="4.9"/>
      <rect class="cls-32" x="289.1" y="58.8" width="4.9" height="4.9"/>
      <rect class="cls-32" x="284.2" y="58.8" width="4.9" height="4.9"/>
      <rect class="cls-32" x="279.3" y="58.8" width="4.9" height="4.9"/>
      <rect class="cls-32" x="274.4" y="58.8" width="4.9" height="4.9"/>
      <rect class="cls-10" x="269.5" y="58.8" width="4.9" height="4.9"/>
      <rect class="cls-32" x="264.6" y="58.8" width="4.9" height="4.9"/>
      <rect class="cls-9" x="259.7" y="58.8" width="4.9" height="4.9"/>
      <rect class="cls-10" x="254.8" y="58.8" width="4.9" height="4.9"/>
      <rect class="cls-9" x="249.9" y="58.8" width="4.9" height="4.9"/>
      <rect class="cls-9" x="245" y="58.8" width="4.9" height="4.9"/>
      <rect class="cls-9" x="240.1" y="58.8" width="4.9" height="4.9"/>
      <rect class="cls-10" x="235.2" y="58.8" width="4.9" height="4.9"/>
      <rect class="cls-35" x="230.3" y="58.8" width="4.9" height="4.9"/>
      <rect class="cls-9" x="225.4" y="58.8" width="4.9" height="4.9"/>
      <rect class="cls-9" x="220.5" y="58.8" width="4.9" height="4.9"/>
      <rect class="cls-9" x="215.6" y="58.8" width="4.9" height="4.9"/>
      <rect class="cls-10" x="210.7" y="58.8" width="4.9" height="4.9"/>
      <rect class="cls-38" x="205.8" y="58.8" width="4.9" height="4.9"/>
      <rect class="cls-12" x="200.9" y="58.8" width="4.9" height="4.9"/>
      <rect class="cls-56" x="196" y="58.8" width="4.9" height="4.9"/>
      <rect class="cls-46" x="191.1" y="58.8" width="4.9" height="4.9"/>
      <rect class="cls-64" x="186.2" y="58.8" width="4.9" height="4.9"/>
      <rect class="cls-38" x="181.3" y="58.8" width="4.9" height="4.9"/>
      <rect class="cls-10" x="176.4" y="58.8" width="4.9" height="4.9"/>
      <rect class="cls-10" x="171.5" y="58.8" width="4.9" height="4.9"/>
      <rect class="cls-9" x="166.6" y="58.8" width="4.9" height="4.9"/>
      <rect class="cls-10" x="161.7" y="58.8" width="4.9" height="4.9"/>
      <rect class="cls-32" x="156.8" y="58.8" width="4.9" height="4.9"/>
      <rect class="cls-32" x="151.9" y="58.8" width="4.9" height="4.9"/>
      <rect class="cls-32" x="147" y="58.8" width="4.9" height="4.9"/>
      <rect class="cls-32" x="142.1" y="58.8" width="4.9" height="4.9"/>
      <rect class="cls-10" x="137.2" y="58.8" width="4.9" height="4.9"/>
      <rect class="cls-32" x="132.3" y="58.8" width="4.9" height="4.9"/>
      <rect class="cls-32" x="127.4" y="58.8" width="4.9" height="4.9"/>
      <rect class="cls-32" x="122.5" y="58.8" width="4.9" height="4.9"/>
      <rect class="cls-32" x="117.6" y="58.8" width="4.9" height="4.9"/>
      <rect class="cls-32" x="112.7" y="58.8" width="4.9" height="4.9"/>
      <rect class="cls-32" x="107.8" y="58.8" width="4.9" height="4.9"/>
      <rect class="cls-32" x="102.9" y="58.8" width="4.9" height="4.9"/>
      <rect class="cls-10" x="98" y="58.8" width="4.9" height="4.9"/>
      <rect class="cls-10" x="93.1" y="58.8" width="4.9" height="4.9"/>
      <rect class="cls-32" x="88.2" y="58.8" width="4.9" height="4.9"/>
      <rect class="cls-32" x="83.3" y="58.8" width="4.9" height="4.9"/>
      <rect class="cls-32" x="78.4" y="58.8" width="4.9" height="4.9"/>
      <rect class="cls-32" x="73.5" y="58.8" width="4.9" height="4.9"/>
      <rect class="cls-10" x="68.6" y="58.8" width="4.9" height="4.9"/>
      <rect class="cls-9" x="63.7" y="58.8" width="4.9" height="4.9"/>
      <rect class="cls-13" x="58.8" y="58.8" width="4.9" height="4.9"/>
      <rect class="cls-9" x="53.9" y="58.8" width="4.9" height="4.9"/>
      <rect class="cls-47" x="49" y="58.8" width="4.9" height="4.9"/>
      <rect class="cls-9" x="44.1" y="58.8" width="4.9" height="4.9"/>
      <rect class="cls-20" x="39.2" y="58.8" width="4.9" height="4.9"/>
      <rect class="cls-9" x="34.3" y="58.8" width="4.9" height="4.9"/>
      <rect class="cls-20" x="29.4" y="58.8" width="4.9" height="4.9"/>
      <rect class="cls-9" x="24.5" y="58.8" width="4.9" height="4.9"/>
      <rect class="cls-10" x="19.6" y="58.8" width="4.9" height="4.9"/>
      <rect class="cls-9" x="14.7" y="58.8" width="4.9" height="4.9"/>
      <rect class="cls-43" x="9.8" y="58.8" width="4.9" height="4.9"/>
      <rect class="cls-52" x="4.9" y="58.8" width="4.9" height="4.9"/>
      <rect class="cls-26" y="58.8" width="4.9" height="4.9"/>
      <rect class="cls-63" x="313.6" y="53.9" width="4.9" height="4.9"/>
      <rect class="cls-18" x="308.7" y="53.9" width="4.9" height="4.9"/>
      <rect class="cls-32" x="303.8" y="53.9" width="4.9" height="4.9"/>
      <rect class="cls-32" x="298.9" y="53.9" width="4.9" height="4.9"/>
      <rect class="cls-32" x="294" y="53.9" width="4.9" height="4.9"/>
      <rect class="cls-10" x="289.1" y="53.9" width="4.9" height="4.9"/>
      <rect class="cls-10" x="284.2" y="53.9" width="4.9" height="4.9"/>
      <rect class="cls-15" x="279.3" y="53.9" width="4.9" height="4.9"/>
      <rect class="cls-43" x="274.4" y="53.9" width="4.9" height="4.9"/>
      <rect class="cls-40" x="269.5" y="53.9" width="4.9" height="4.9"/>
      <rect class="cls-68" x="264.6" y="53.9" width="4.9" height="4.9"/>
      <rect class="cls-9" x="259.7" y="53.9" width="4.9" height="4.9"/>
      <rect class="cls-17" x="254.8" y="53.9" width="4.9" height="4.9"/>
      <rect class="cls-10" x="249.9" y="53.9" width="4.9" height="4.9"/>
      <rect class="cls-16" x="245" y="53.9" width="4.9" height="4.9"/>
      <rect class="cls-48" x="240.1" y="53.9" width="4.9" height="4.9"/>
      <rect class="cls-10" x="235.2" y="53.9" width="4.9" height="4.9"/>
      <rect class="cls-10" x="230.3" y="53.9" width="4.9" height="4.9"/>
      <rect class="cls-32" x="225.4" y="53.9" width="4.9" height="4.9"/>
      <rect class="cls-32" x="220.5" y="53.9" width="4.9" height="4.9"/>
      <rect class="cls-32" x="215.6" y="53.9" width="4.9" height="4.9"/>
      <rect class="cls-32" x="210.7" y="53.9" width="4.9" height="4.9"/>
      <rect class="cls-10" x="205.8" y="53.9" width="4.9" height="4.9"/>
      <rect class="cls-10" x="200.9" y="53.9" width="4.9" height="4.9"/>
      <rect class="cls-32" x="196" y="53.9" width="4.9" height="4.9"/>
      <rect class="cls-9" x="191.1" y="53.9" width="4.9" height="4.9"/>
      <rect class="cls-38" x="186.2" y="53.9" width="4.9" height="4.9"/>
      <rect class="cls-2" x="181.3" y="53.9" width="4.9" height="4.9"/>
      <rect class="cls-56" x="176.4" y="53.9" width="4.9" height="4.9"/>
      <rect class="cls-32" x="171.5" y="53.9" width="4.9" height="4.9"/>
      <rect class="cls-32" x="166.6" y="53.9" width="4.9" height="4.9"/>
      <rect class="cls-32" x="161.7" y="53.9" width="4.9" height="4.9"/>
      <rect class="cls-32" x="156.8" y="53.9" width="4.9" height="4.9"/>
      <rect class="cls-32" x="151.9" y="53.9" width="4.9" height="4.9"/>
      <rect class="cls-20" x="147" y="53.9" width="4.9" height="4.9"/>
      <rect class="cls-32" x="142.1" y="53.9" width="4.9" height="4.9"/>
      <rect class="cls-32" x="137.2" y="53.9" width="4.9" height="4.9"/>
      <rect class="cls-32" x="132.3" y="53.9" width="4.9" height="4.9"/>
      <rect class="cls-32" x="127.4" y="53.9" width="4.9" height="4.9"/>
      <rect class="cls-32" x="122.5" y="53.9" width="4.9" height="4.9"/>
      <rect class="cls-10" x="117.6" y="53.9" width="4.9" height="4.9"/>
      <rect class="cls-11" x="112.7" y="53.9" width="4.9" height="4.9"/>
      <rect class="cls-35" x="107.8" y="53.9" width="4.9" height="4.9"/>
      <rect class="cls-49" x="102.9" y="53.9" width="4.9" height="4.9"/>
      <rect class="cls-46" x="98" y="53.9" width="4.9" height="4.9"/>
      <rect class="cls-32" x="93.1" y="53.9" width="4.9" height="4.9"/>
      <rect class="cls-32" x="88.2" y="53.9" width="4.9" height="4.9"/>
      <rect class="cls-32" x="83.3" y="53.9" width="4.9" height="4.9"/>
      <rect class="cls-32" x="78.4" y="53.9" width="4.9" height="4.9"/>
      <rect class="cls-32" x="73.5" y="53.9" width="4.9" height="4.9"/>
      <rect class="cls-32" x="68.6" y="53.9" width="4.9" height="4.9"/>
      <rect class="cls-32" x="63.7" y="53.9" width="4.9" height="4.9"/>
      <rect class="cls-32" x="58.8" y="53.9" width="4.9" height="4.9"/>
      <rect class="cls-32" x="53.9" y="53.9" width="4.9" height="4.9"/>
      <rect class="cls-32" x="49" y="53.9" width="4.9" height="4.9"/>
      <rect class="cls-32" x="44.1" y="53.9" width="4.9" height="4.9"/>
      <rect class="cls-32" x="39.2" y="53.9" width="4.9" height="4.9"/>
      <rect class="cls-32" x="34.3" y="53.9" width="4.9" height="4.9"/>
      <rect class="cls-10" x="29.4" y="53.9" width="4.9" height="4.9"/>
      <rect class="cls-9" x="24.5" y="53.9" width="4.9" height="4.9"/>
      <rect class="cls-8" x="19.6" y="53.9" width="4.9" height="4.9"/>
      <rect class="cls-11" x="308.7" y="49" width="4.9" height="4.9"/>
      <rect class="cls-9" x="303.8" y="49" width="4.9" height="4.9"/>
      <rect class="cls-1" x="298.9" y="49" width="4.9" height="4.9"/>
      <rect class="cls-9" x="294" y="49" width="4.9" height="4.9"/>
      <rect class="cls-10" x="289.1" y="49" width="4.9" height="4.9"/>
      <rect class="cls-9" x="284.2" y="49" width="4.9" height="4.9"/>
      <rect class="cls-10" x="279.3" y="49" width="4.9" height="4.9"/>
      <rect class="cls-10" x="274.4" y="49" width="4.9" height="4.9"/>
      <rect class="cls-10" x="269.5" y="49" width="4.9" height="4.9"/>
      <rect class="cls-10" x="264.6" y="49" width="4.9" height="4.9"/>
      <rect class="cls-10" x="259.7" y="49" width="4.9" height="4.9"/>
      <rect class="cls-6" x="254.8" y="49" width="4.9" height="4.9"/>
      <rect class="cls-22" x="249.9" y="49" width="4.9" height="4.9"/>
      <rect class="cls-18" x="245" y="49" width="4.9" height="4.9"/>
      <rect class="cls-32" x="240.1" y="49" width="4.9" height="4.9"/>
      <rect class="cls-32" x="235.2" y="49" width="4.9" height="4.9"/>
      <rect class="cls-32" x="230.3" y="49" width="4.9" height="4.9"/>
      <rect class="cls-10" x="225.4" y="49" width="4.9" height="4.9"/>
      <rect class="cls-10" x="220.5" y="49" width="4.9" height="4.9"/>
      <rect class="cls-10" x="215.6" y="49" width="4.9" height="4.9"/>
      <rect class="cls-10" x="210.7" y="49" width="4.9" height="4.9"/>
      <rect class="cls-57" x="205.8" y="49" width="4.9" height="4.9"/>
      <rect class="cls-10" x="200.9" y="49" width="4.9" height="4.9"/>
      <rect class="cls-63" x="196" y="49" width="4.9" height="4.9"/>
      <rect class="cls-20" x="166.6" y="49" width="4.9" height="4.9"/>
      <rect class="cls-1" x="161.7" y="49" width="4.9" height="4.9"/>
      <rect class="cls-57" x="156.8" y="49" width="4.9" height="4.9"/>
      <rect class="cls-61" x="151.9" y="49" width="4.9" height="4.9"/>
      <rect class="cls-36" x="147" y="49" width="4.9" height="4.9"/>
      <rect class="cls-10" x="142.1" y="49" width="4.9" height="4.9"/>
      <rect class="cls-10" x="137.2" y="49" width="4.9" height="4.9"/>
      <rect class="cls-9" x="132.3" y="49" width="4.9" height="4.9"/>
      <rect class="cls-10" x="127.4" y="49" width="4.9" height="4.9"/>
      <rect class="cls-10" x="122.5" y="49" width="4.9" height="4.9"/>
      <rect class="cls-10" x="117.6" y="49" width="4.9" height="4.9"/>
      <rect class="cls-16" x="112.7" y="49" width="4.9" height="4.9"/>
      <rect class="cls-10" x="107.8" y="49" width="4.9" height="4.9"/>
      <rect class="cls-10" x="102.9" y="49" width="4.9" height="4.9"/>
      <rect class="cls-10" x="98" y="49" width="4.9" height="4.9"/>
      <rect class="cls-10" x="93.1" y="49" width="4.9" height="4.9"/>
      <rect class="cls-10" x="88.2" y="49" width="4.9" height="4.9"/>
      <rect class="cls-10" x="83.3" y="49" width="4.9" height="4.9"/>
      <rect class="cls-10" x="78.4" y="49" width="4.9" height="4.9"/>
      <rect class="cls-10" x="73.5" y="49" width="4.9" height="4.9"/>
      <rect class="cls-32" x="68.6" y="49" width="4.9" height="4.9"/>
      <rect class="cls-32" x="63.7" y="49" width="4.9" height="4.9"/>
      <rect class="cls-32" x="58.8" y="49" width="4.9" height="4.9"/>
      <rect class="cls-32" x="53.9" y="49" width="4.9" height="4.9"/>
      <rect class="cls-20" x="49" y="49" width="4.9" height="4.9"/>
      <rect class="cls-47" x="44.1" y="49" width="4.9" height="4.9"/>
      <rect class="cls-10" x="39.2" y="49" width="4.9" height="4.9"/>
      <rect class="cls-32" x="34.3" y="49" width="4.9" height="4.9"/>
      <rect class="cls-47" x="29.4" y="49" width="4.9" height="4.9"/>
      <rect class="cls-2" x="24.5" y="49" width="4.9" height="4.9"/>
      <rect class="cls-66" x="19.6" y="49" width="4.9" height="4.9"/>
      <rect class="cls-37" x="303.8" y="44.1" width="4.9" height="4.9"/>
      <rect class="cls-37" x="298.9" y="44.1" width="4.9" height="4.9"/>
      <rect class="cls-64" x="294" y="44.1" width="4.9" height="4.9"/>
      <rect class="cls-9" x="289.1" y="44.1" width="4.9" height="4.9"/>
      <rect class="cls-27" x="284.2" y="44.1" width="4.9" height="4.9"/>
      <rect class="cls-9" x="279.3" y="44.1" width="4.9" height="4.9"/>
      <rect class="cls-9" x="274.4" y="44.1" width="4.9" height="4.9"/>
      <rect class="cls-49" x="269.5" y="44.1" width="4.9" height="4.9"/>
      <rect class="cls-10" x="264.6" y="44.1" width="4.9" height="4.9"/>
      <rect class="cls-9" x="259.7" y="44.1" width="4.9" height="4.9"/>
      <rect class="cls-32" x="254.8" y="44.1" width="4.9" height="4.9"/>
      <rect class="cls-10" x="249.9" y="44.1" width="4.9" height="4.9"/>
      <rect class="cls-32" x="245" y="44.1" width="4.9" height="4.9"/>
      <rect class="cls-32" x="240.1" y="44.1" width="4.9" height="4.9"/>
      <rect class="cls-32" x="235.2" y="44.1" width="4.9" height="4.9"/>
      <rect class="cls-35" x="230.3" y="44.1" width="4.9" height="4.9"/>
      <rect class="cls-22" x="225.4" y="44.1" width="4.9" height="4.9"/>
      <rect class="cls-9" x="220.5" y="44.1" width="4.9" height="4.9"/>
      <rect class="cls-9" x="215.6" y="44.1" width="4.9" height="4.9"/>
      <rect class="cls-32" x="210.7" y="44.1" width="4.9" height="4.9"/>
      <rect class="cls-60" x="205.8" y="44.1" width="4.9" height="4.9"/>
      <rect class="cls-10" x="200.9" y="44.1" width="4.9" height="4.9"/>
      <rect class="cls-12" x="196" y="44.1" width="4.9" height="4.9"/>
      <rect class="cls-54" x="132.3" y="44.1" width="4.9" height="4.9"/>
      <rect class="cls-10" x="127.4" y="44.1" width="4.9" height="4.9"/>
      <rect class="cls-24" x="122.5" y="44.1" width="4.9" height="4.9"/>
      <rect class="cls-64" x="117.6" y="44.1" width="4.9" height="4.9"/>
      <rect class="cls-24" x="112.7" y="44.1" width="4.9" height="4.9"/>
      <rect class="cls-32" x="107.8" y="44.1" width="4.9" height="4.9"/>
      <rect class="cls-32" x="102.9" y="44.1" width="4.9" height="4.9"/>
      <rect class="cls-32" x="98" y="44.1" width="4.9" height="4.9"/>
      <rect class="cls-10" x="93.1" y="44.1" width="4.9" height="4.9"/>
      <rect class="cls-57" x="88.2" y="44.1" width="4.9" height="4.9"/>
      <rect class="cls-10" x="83.3" y="44.1" width="4.9" height="4.9"/>
      <rect class="cls-9" x="78.4" y="44.1" width="4.9" height="4.9"/>
      <rect class="cls-10" x="73.5" y="44.1" width="4.9" height="4.9"/>
      <rect class="cls-10" x="68.6" y="44.1" width="4.9" height="4.9"/>
      <rect class="cls-32" x="63.7" y="44.1" width="4.9" height="4.9"/>
      <rect class="cls-32" x="58.8" y="44.1" width="4.9" height="4.9"/>
      <rect class="cls-32" x="53.9" y="44.1" width="4.9" height="4.9"/>
      <rect class="cls-9" x="49" y="44.1" width="4.9" height="4.9"/>
      <rect class="cls-8" x="44.1" y="44.1" width="4.9" height="4.9"/>
      <rect class="cls-49" x="39.2" y="44.1" width="4.9" height="4.9"/>
      <rect class="cls-35" x="34.3" y="44.1" width="4.9" height="4.9"/>
      <rect class="cls-4" x="29.4" y="44.1" width="4.9" height="4.9"/>
      <rect class="cls-8" x="24.5" y="44.1" width="4.9" height="4.9"/>
      <rect class="cls-25" x="269.5" y="39.2" width="4.9" height="4.9"/>
      <rect class="cls-34" x="264.6" y="39.2" width="4.9" height="4.9"/>
      <rect class="cls-10" x="259.7" y="39.2" width="4.9" height="4.9"/>
      <rect class="cls-10" x="254.8" y="39.2" width="4.9" height="4.9"/>
      <rect class="cls-32" x="249.9" y="39.2" width="4.9" height="4.9"/>
      <rect class="cls-32" x="245" y="39.2" width="4.9" height="4.9"/>
      <rect class="cls-32" x="240.1" y="39.2" width="4.9" height="4.9"/>
      <rect class="cls-32" x="235.2" y="39.2" width="4.9" height="4.9"/>
      <rect class="cls-32" x="230.3" y="39.2" width="4.9" height="4.9"/>
      <rect class="cls-9" x="225.4" y="39.2" width="4.9" height="4.9"/>
      <rect class="cls-10" x="220.5" y="39.2" width="4.9" height="4.9"/>
      <rect class="cls-15" x="215.6" y="39.2" width="4.9" height="4.9"/>
      <rect class="cls-9" x="210.7" y="39.2" width="4.9" height="4.9"/>
      <rect class="cls-41" x="205.8" y="39.2" width="4.9" height="4.9"/>
      <rect class="cls-28" x="200.9" y="39.2" width="4.9" height="4.9"/>
      <rect class="cls-56" x="132.3" y="39.2" width="4.9" height="4.9"/>
      <rect class="cls-8" x="127.4" y="39.2" width="4.9" height="4.9"/>
      <rect class="cls-50" x="122.5" y="39.2" width="4.9" height="4.9"/>
      <rect class="cls-32" x="117.6" y="39.2" width="4.9" height="4.9"/>
      <rect class="cls-32" x="112.7" y="39.2" width="4.9" height="4.9"/>
      <rect class="cls-32" x="107.8" y="39.2" width="4.9" height="4.9"/>
      <rect class="cls-10" x="102.9" y="39.2" width="4.9" height="4.9"/>
      <rect class="cls-60" x="98" y="39.2" width="4.9" height="4.9"/>
      <rect class="cls-9" x="93.1" y="39.2" width="4.9" height="4.9"/>
      <rect class="cls-51" x="88.2" y="39.2" width="4.9" height="4.9"/>
      <rect class="cls-9" x="83.3" y="39.2" width="4.9" height="4.9"/>
      <rect class="cls-10" x="78.4" y="39.2" width="4.9" height="4.9"/>
      <rect class="cls-32" x="73.5" y="39.2" width="4.9" height="4.9"/>
      <rect class="cls-10" x="68.6" y="39.2" width="4.9" height="4.9"/>
      <rect class="cls-20" x="63.7" y="39.2" width="4.9" height="4.9"/>
      <rect class="cls-42" x="58.8" y="39.2" width="4.9" height="4.9"/>
      <rect class="cls-10" x="53.9" y="39.2" width="4.9" height="4.9"/>
      <rect class="cls-64" x="49" y="39.2" width="4.9" height="4.9"/>
      <rect class="cls-62" x="44.1" y="39.2" width="4.9" height="4.9"/>
      <rect class="cls-56" x="264.6" y="34.3" width="4.9" height="4.9"/>
      <rect class="cls-39" x="259.7" y="34.3" width="4.9" height="4.9"/>
      <rect class="cls-40" x="254.8" y="34.3" width="4.9" height="4.9"/>
      <rect class="cls-10" x="249.9" y="34.3" width="4.9" height="4.9"/>
      <rect class="cls-32" x="245" y="34.3" width="4.9" height="4.9"/>
      <rect class="cls-32" x="240.1" y="34.3" width="4.9" height="4.9"/>
      <rect class="cls-32" x="235.2" y="34.3" width="4.9" height="4.9"/>
      <rect class="cls-32" x="230.3" y="34.3" width="4.9" height="4.9"/>
      <rect class="cls-32" x="225.4" y="34.3" width="4.9" height="4.9"/>
      <rect class="cls-9" x="220.5" y="34.3" width="4.9" height="4.9"/>
      <rect class="cls-9" x="215.6" y="34.3" width="4.9" height="4.9"/>
      <rect class="cls-10" x="210.7" y="34.3" width="4.9" height="4.9"/>
      <rect class="cls-8" x="205.8" y="34.3" width="4.9" height="4.9"/>
      <rect class="cls-16" x="127.4" y="34.3" width="4.9" height="4.9"/>
      <rect class="cls-10" x="122.5" y="34.3" width="4.9" height="4.9"/>
      <rect class="cls-32" x="117.6" y="34.3" width="4.9" height="4.9"/>
      <rect class="cls-32" x="112.7" y="34.3" width="4.9" height="4.9"/>
      <rect class="cls-32" x="107.8" y="34.3" width="4.9" height="4.9"/>
      <rect class="cls-10" x="102.9" y="34.3" width="4.9" height="4.9"/>
      <rect class="cls-10" x="98" y="34.3" width="4.9" height="4.9"/>
      <rect class="cls-1" x="93.1" y="34.3" width="4.9" height="4.9"/>
      <rect class="cls-9" x="88.2" y="34.3" width="4.9" height="4.9"/>
      <rect class="cls-10" x="83.3" y="34.3" width="4.9" height="4.9"/>
      <rect class="cls-10" x="78.4" y="34.3" width="4.9" height="4.9"/>
      <rect class="cls-32" x="73.5" y="34.3" width="4.9" height="4.9"/>
      <rect class="cls-10" x="68.6" y="34.3" width="4.9" height="4.9"/>
      <rect class="cls-28" x="63.7" y="34.3" width="4.9" height="4.9"/>
      <rect class="cls-15" x="58.8" y="34.3" width="4.9" height="4.9"/>
      <rect class="cls-11" x="53.9" y="34.3" width="4.9" height="4.9"/>
      <rect class="cls-16" x="49" y="34.3" width="4.9" height="4.9"/>
      <rect class="cls-2" x="249.9" y="29.4" width="4.9" height="4.9"/>
      <rect class="cls-42" x="245" y="29.4" width="4.9" height="4.9"/>
      <rect class="cls-49" x="240.1" y="29.4" width="4.9" height="4.9"/>
      <rect class="cls-32" x="235.2" y="29.4" width="4.9" height="4.9"/>
      <rect class="cls-32" x="230.3" y="29.4" width="4.9" height="4.9"/>
      <rect class="cls-32" x="225.4" y="29.4" width="4.9" height="4.9"/>
      <rect class="cls-10" x="220.5" y="29.4" width="4.9" height="4.9"/>
      <rect class="cls-29" x="215.6" y="29.4" width="4.9" height="4.9"/>
      <rect class="cls-10" x="210.7" y="29.4" width="4.9" height="4.9"/>
      <rect class="cls-26" x="205.8" y="29.4" width="4.9" height="4.9"/>
      <rect class="cls-33" x="122.5" y="29.4" width="4.9" height="4.9"/>
      <rect class="cls-10" x="117.6" y="29.4" width="4.9" height="4.9"/>
      <rect class="cls-32" x="112.7" y="29.4" width="4.9" height="4.9"/>
      <rect class="cls-32" x="107.8" y="29.4" width="4.9" height="4.9"/>
      <rect class="cls-32" x="102.9" y="29.4" width="4.9" height="4.9"/>
      <rect class="cls-32" x="98" y="29.4" width="4.9" height="4.9"/>
      <rect class="cls-32" x="93.1" y="29.4" width="4.9" height="4.9"/>
      <rect class="cls-32" x="88.2" y="29.4" width="4.9" height="4.9"/>
      <rect class="cls-32" x="83.3" y="29.4" width="4.9" height="4.9"/>
      <rect class="cls-32" x="78.4" y="29.4" width="4.9" height="4.9"/>
      <rect class="cls-32" x="73.5" y="29.4" width="4.9" height="4.9"/>
      <rect class="cls-10" x="68.6" y="29.4" width="4.9" height="4.9"/>
      <rect class="cls-21" x="63.7" y="29.4" width="4.9" height="4.9"/>
      <rect class="cls-9" x="240.1" y="24.5" width="4.9" height="4.9"/>
      <rect class="cls-32" x="235.2" y="24.5" width="4.9" height="4.9"/>
      <rect class="cls-32" x="230.3" y="24.5" width="4.9" height="4.9"/>
      <rect class="cls-32" x="225.4" y="24.5" width="4.9" height="4.9"/>
      <rect class="cls-9" x="220.5" y="24.5" width="4.9" height="4.9"/>
      <rect class="cls-48" x="215.6" y="24.5" width="4.9" height="4.9"/>
      <rect class="cls-8" x="122.5" y="24.5" width="4.9" height="4.9"/>
      <rect class="cls-10" x="117.6" y="24.5" width="4.9" height="4.9"/>
      <rect class="cls-32" x="112.7" y="24.5" width="4.9" height="4.9"/>
      <rect class="cls-32" x="107.8" y="24.5" width="4.9" height="4.9"/>
      <rect class="cls-32" x="102.9" y="24.5" width="4.9" height="4.9"/>
      <rect class="cls-32" x="98" y="24.5" width="4.9" height="4.9"/>
      <rect class="cls-32" x="93.1" y="24.5" width="4.9" height="4.9"/>
      <rect class="cls-32" x="88.2" y="24.5" width="4.9" height="4.9"/>
      <rect class="cls-10" x="83.3" y="24.5" width="4.9" height="4.9"/>
      <rect class="cls-10" x="78.4" y="24.5" width="4.9" height="4.9"/>
      <rect class="cls-32" x="73.5" y="24.5" width="4.9" height="4.9"/>
      <rect class="cls-55" x="68.6" y="24.5" width="4.9" height="4.9"/>
      <rect class="cls-68" x="240.1" y="19.6" width="4.9" height="4.9"/>
      <rect class="cls-10" x="235.2" y="19.6" width="4.9" height="4.9"/>
      <rect class="cls-10" x="230.3" y="19.6" width="4.9" height="4.9"/>
      <rect class="cls-10" x="225.4" y="19.6" width="4.9" height="4.9"/>
      <rect class="cls-9" x="220.5" y="19.6" width="4.9" height="4.9"/>
      <rect class="cls-16" x="215.6" y="19.6" width="4.9" height="4.9"/>
      <rect class="cls-55" x="122.5" y="19.6" width="4.9" height="4.9"/>
      <rect class="cls-32" x="117.6" y="19.6" width="4.9" height="4.9"/>
      <rect class="cls-32" x="112.7" y="19.6" width="4.9" height="4.9"/>
      <rect class="cls-32" x="107.8" y="19.6" width="4.9" height="4.9"/>
      <rect class="cls-32" x="102.9" y="19.6" width="4.9" height="4.9"/>
      <rect class="cls-32" x="98" y="19.6" width="4.9" height="4.9"/>
      <rect class="cls-32" x="93.1" y="19.6" width="4.9" height="4.9"/>
      <rect class="cls-32" x="88.2" y="19.6" width="4.9" height="4.9"/>
      <rect class="cls-10" x="83.3" y="19.6" width="4.9" height="4.9"/>
      <rect class="cls-65" x="78.4" y="19.6" width="4.9" height="4.9"/>
      <rect class="cls-9" x="73.5" y="19.6" width="4.9" height="4.9"/>
      <rect class="cls-19" x="68.6" y="19.6" width="4.9" height="4.9"/>
      <rect class="cls-45" x="235.2" y="14.7" width="4.9" height="4.9"/>
      <rect class="cls-42" x="230.3" y="14.7" width="4.9" height="4.9"/>
      <rect class="cls-35" x="225.4" y="14.7" width="4.9" height="4.9"/>
      <rect class="cls-21" x="220.5" y="14.7" width="4.9" height="4.9"/>
      <rect class="cls-58" x="122.5" y="14.7" width="4.9" height="4.9"/>
      <rect class="cls-10" x="117.6" y="14.7" width="4.9" height="4.9"/>
      <rect class="cls-32" x="112.7" y="14.7" width="4.9" height="4.9"/>
      <rect class="cls-32" x="107.8" y="14.7" width="4.9" height="4.9"/>
      <rect class="cls-32" x="102.9" y="14.7" width="4.9" height="4.9"/>
      <rect class="cls-32" x="98" y="14.7" width="4.9" height="4.9"/>
      <rect class="cls-32" x="93.1" y="14.7" width="4.9" height="4.9"/>
      <rect class="cls-32" x="88.2" y="14.7" width="4.9" height="4.9"/>
      <rect class="cls-17" x="83.3" y="14.7" width="4.9" height="4.9"/>
      <rect class="cls-4" x="78.4" y="14.7" width="4.9" height="4.9"/>
      <rect class="cls-15" x="73.5" y="14.7" width="4.9" height="4.9"/>
      <rect class="cls-5" x="68.6" y="14.7" width="4.9" height="4.9"/>
      <rect class="cls-14" x="122.5" y="9.8" width="4.9" height="4.9"/>
      <rect class="cls-10" x="117.6" y="9.8" width="4.9" height="4.9"/>
      <rect class="cls-10" x="112.7" y="9.8" width="4.9" height="4.9"/>
      <rect class="cls-10" x="107.8" y="9.8" width="4.9" height="4.9"/>
      <rect class="cls-10" x="102.9" y="9.8" width="4.9" height="4.9"/>
      <rect class="cls-9" x="98" y="9.8" width="4.9" height="4.9"/>
      <rect class="cls-9" x="93.1" y="9.8" width="4.9" height="4.9"/>
      <rect class="cls-47" x="88.2" y="9.8" width="4.9" height="4.9"/>
      <rect class="cls-59" x="83.3" y="9.8" width="4.9" height="4.9"/>
      <rect class="cls-55" x="78.4" y="9.8" width="4.9" height="4.9"/>
      <rect class="cls-4" x="117.6" y="4.9" width="4.9" height="4.9"/>
      <rect class="cls-35" x="112.7" y="4.9" width="4.9" height="4.9"/>
      <rect class="cls-9" x="107.8" y="4.9" width="4.9" height="4.9"/>
      <rect class="cls-9" x="102.9" y="4.9" width="4.9" height="4.9"/>
      <rect class="cls-10" x="98" y="4.9" width="4.9" height="4.9"/>
      <rect class="cls-46" x="93.1" y="4.9" width="4.9" height="4.9"/>
      <rect class="cls-44" x="88.2" y="4.9" width="4.9" height="4.9"/>
      <rect class="cls-21" x="83.3" y="4.9" width="4.9" height="4.9"/>
      <rect class="cls-23" x="112.7" width="4.9" height="4.9"/>
      <rect class="cls-30" x="107.8" width="4.9" height="4.9"/>
      <rect class="cls-4" x="102.9" width="4.9" height="4.9"/>
      <rect class="cls-59" x="98" width="4.9" height="4.9"/>
      <rect class="cls-4" x="93.1" width="4.9" height="4.9"/>
      <rect class="cls-8" x="88.2" width="4.9" height="4.9"/>
    </g>
  </g>
</svg>