<?xml version="1.0" encoding="UTF-8"?>
<svg id="Layer_2" data-name="Layer 2" xmlns="http://www.w3.org/2000/svg" viewBox="0 0 147 58.8">
  <defs>
    <style>
      .cls-1 {
        fill: #d2a7f1;
      }

      .cls-2 {
        fill: #e6cef7;
      }

      .cls-3 {
        fill: #f3ecfa;
      }

      .cls-4 {
        fill: #ede3f8;
      }

      .cls-5 {
        fill: #bc7bea;
      }

      .cls-6 {
        fill: #bd7eeb;
      }

      .cls-7 {
        fill: #b78ae3;
      }

      .cls-8 {
        fill: #e1cef3;
      }

      .cls-9 {
        fill: #bf8ae6;
      }

      .cls-10 {
        fill: #c185ec;
      }

      .cls-11 {
        fill: #dbc5f1;
      }

      .cls-12 {
        fill: #bb79ea;
      }

      .cls-13 {
        fill: #e7d8f5;
      }

      .cls-14 {
        fill: #dcc6f1;
      }

      .cls-15 {
        fill: #e5ccf7;
      }

      .cls-16 {
        fill: #a873dd;
      }

      .cls-17 {
        fill: #e1c4f6;
      }

      .cls-18 {
        fill: #c082eb;
      }

      .cls-19 {
        fill: #ca9eea;
      }

      .cls-20 {
        fill: #bb92e5;
      }

      .cls-21 {
        fill: #e2c9f3;
      }

      .cls-22 {
        fill: #c287ec;
      }

      .cls-23 {
        fill: #e4cef4;
      }

      .cls-24 {
        fill: #e3cbf4;
      }

      .cls-25 {
        fill: #d5acf2;
      }

      .cls-26 {
        fill: #c38aed;
      }

      .cls-27 {
        fill: #e8d9f6;
      }

      .cls-28 {
        fill: #b07fe0;
      }

      .cls-29 {
        fill: #c68fed;
      }

      .cls-30 {
        fill: #caaaea;
      }
    </style>
  </defs>
  <g id="Layer_3" data-name="Layer 3">
    <g>
      <rect class="cls-5" x="127.4" y="53.9" width="4.9" height="4.9"/>
      <rect class="cls-6" x="122.5" y="53.9" width="4.9" height="4.9"/>
      <rect class="cls-5" x="117.6" y="53.9" width="4.9" height="4.9"/>
      <rect class="cls-5" x="112.7" y="53.9" width="4.9" height="4.9"/>
      <rect class="cls-5" x="107.8" y="53.9" width="4.9" height="4.9"/>
      <rect class="cls-21" x="102.9" y="53.9" width="4.9" height="4.9"/>
      <rect class="cls-6" x="98" y="53.9" width="4.9" height="4.9"/>
      <rect class="cls-5" x="93.1" y="53.9" width="4.9" height="4.9"/>
      <rect class="cls-5" x="88.2" y="53.9" width="4.9" height="4.9"/>
      <rect class="cls-5" x="83.3" y="53.9" width="4.9" height="4.9"/>
      <rect class="cls-5" x="78.4" y="53.9" width="4.9" height="4.9"/>
      <rect class="cls-5" x="73.5" y="53.9" width="4.9" height="4.9"/>
      <rect class="cls-6" x="68.6" y="53.9" width="4.9" height="4.9"/>
      <rect class="cls-5" x="63.7" y="53.9" width="4.9" height="4.9"/>
      <rect class="cls-5" x="58.8" y="53.9" width="4.9" height="4.9"/>
      <rect class="cls-5" x="53.9" y="53.9" width="4.9" height="4.9"/>
      <rect class="cls-21" x="49" y="53.9" width="4.9" height="4.9"/>
      <rect class="cls-28" x="142.1" y="49" width="4.9" height="4.9"/>
      <rect class="cls-5" x="137.2" y="49" width="4.9" height="4.9"/>
      <rect class="cls-6" x="132.3" y="49" width="4.9" height="4.9"/>
      <rect class="cls-6" x="127.4" y="49" width="4.9" height="4.9"/>
      <rect class="cls-6" x="122.5" y="49" width="4.9" height="4.9"/>
      <rect class="cls-6" x="117.6" y="49" width="4.9" height="4.9"/>
      <rect class="cls-6" x="112.7" y="49" width="4.9" height="4.9"/>
      <rect class="cls-6" x="107.8" y="49" width="4.9" height="4.9"/>
      <rect class="cls-18" x="102.9" y="49" width="4.9" height="4.9"/>
      <rect class="cls-18" x="98" y="49" width="4.9" height="4.9"/>
      <rect class="cls-6" x="93.1" y="49" width="4.9" height="4.9"/>
      <rect class="cls-6" x="88.2" y="49" width="4.9" height="4.9"/>
      <rect class="cls-6" x="83.3" y="49" width="4.9" height="4.9"/>
      <rect class="cls-6" x="78.4" y="49" width="4.9" height="4.9"/>
      <rect class="cls-6" x="73.5" y="49" width="4.9" height="4.9"/>
      <rect class="cls-6" x="68.6" y="49" width="4.9" height="4.9"/>
      <rect class="cls-6" x="63.7" y="49" width="4.9" height="4.9"/>
      <rect class="cls-6" x="58.8" y="49" width="4.9" height="4.9"/>
      <rect class="cls-6" x="53.9" y="49" width="4.9" height="4.9"/>
      <rect class="cls-6" x="49" y="49" width="4.9" height="4.9"/>
      <rect class="cls-5" x="44.1" y="49" width="4.9" height="4.9"/>
      <rect class="cls-5" x="39.2" y="49" width="4.9" height="4.9"/>
      <rect class="cls-5" x="34.3" y="49" width="4.9" height="4.9"/>
      <rect class="cls-6" x="29.4" y="49" width="4.9" height="4.9"/>
      <rect class="cls-5" x="24.5" y="49" width="4.9" height="4.9"/>
      <rect class="cls-6" x="19.6" y="49" width="4.9" height="4.9"/>
      <rect class="cls-6" x="14.7" y="49" width="4.9" height="4.9"/>
      <rect class="cls-10" x="9.8" y="49" width="4.9" height="4.9"/>
      <rect class="cls-6" x="4.9" y="49" width="4.9" height="4.9"/>
      <rect class="cls-7" y="49" width="4.9" height="4.9"/>
      <rect class="cls-25" x="137.2" y="44.1" width="4.9" height="4.9"/>
      <rect class="cls-6" x="132.3" y="44.1" width="4.9" height="4.9"/>
      <rect class="cls-6" x="127.4" y="44.1" width="4.9" height="4.9"/>
      <rect class="cls-18" x="122.5" y="44.1" width="4.9" height="4.9"/>
      <rect class="cls-18" x="117.6" y="44.1" width="4.9" height="4.9"/>
      <rect class="cls-18" x="112.7" y="44.1" width="4.9" height="4.9"/>
      <rect class="cls-18" x="107.8" y="44.1" width="4.9" height="4.9"/>
      <rect class="cls-18" x="102.9" y="44.1" width="4.9" height="4.9"/>
      <rect class="cls-18" x="98" y="44.1" width="4.9" height="4.9"/>
      <rect class="cls-18" x="93.1" y="44.1" width="4.9" height="4.9"/>
      <rect class="cls-6" x="88.2" y="44.1" width="4.9" height="4.9"/>
      <rect class="cls-26" x="83.3" y="44.1" width="4.9" height="4.9"/>
      <rect class="cls-18" x="78.4" y="44.1" width="4.9" height="4.9"/>
      <rect class="cls-30" x="73.5" y="44.1" width="4.9" height="4.9"/>
      <rect class="cls-18" x="68.6" y="44.1" width="4.9" height="4.9"/>
      <rect class="cls-18" x="63.7" y="44.1" width="4.9" height="4.9"/>
      <rect class="cls-18" x="58.8" y="44.1" width="4.9" height="4.9"/>
      <rect class="cls-18" x="53.9" y="44.1" width="4.9" height="4.9"/>
      <rect class="cls-18" x="49" y="44.1" width="4.9" height="4.9"/>
      <rect class="cls-18" x="44.1" y="44.1" width="4.9" height="4.9"/>
      <rect class="cls-6" x="39.2" y="44.1" width="4.9" height="4.9"/>
      <rect class="cls-6" x="34.3" y="44.1" width="4.9" height="4.9"/>
      <rect class="cls-18" x="29.4" y="44.1" width="4.9" height="4.9"/>
      <rect class="cls-6" x="24.5" y="44.1" width="4.9" height="4.9"/>
      <rect class="cls-6" x="19.6" y="44.1" width="4.9" height="4.9"/>
      <rect class="cls-5" x="14.7" y="44.1" width="4.9" height="4.9"/>
      <rect class="cls-4" x="9.8" y="44.1" width="4.9" height="4.9"/>
      <rect class="cls-21" x="127.4" y="39.2" width="4.9" height="4.9"/>
      <rect class="cls-20" x="107.8" y="39.2" width="4.9" height="4.9"/>
      <rect class="cls-1" x="102.9" y="39.2" width="4.9" height="4.9"/>
      <rect class="cls-6" x="98" y="39.2" width="4.9" height="4.9"/>
      <rect class="cls-24" x="93.1" y="39.2" width="4.9" height="4.9"/>
      <rect class="cls-17" x="88.2" y="39.2" width="4.9" height="4.9"/>
      <rect class="cls-5" x="83.3" y="39.2" width="4.9" height="4.9"/>
      <rect class="cls-18" x="78.4" y="39.2" width="4.9" height="4.9"/>
      <rect class="cls-18" x="73.5" y="39.2" width="4.9" height="4.9"/>
      <rect class="cls-18" x="68.6" y="39.2" width="4.9" height="4.9"/>
      <rect class="cls-6" x="63.7" y="39.2" width="4.9" height="4.9"/>
      <rect class="cls-6" x="58.8" y="39.2" width="4.9" height="4.9"/>
      <rect class="cls-10" x="53.9" y="39.2" width="4.9" height="4.9"/>
      <rect class="cls-18" x="49" y="39.2" width="4.9" height="4.9"/>
      <rect class="cls-18" x="44.1" y="39.2" width="4.9" height="4.9"/>
      <rect class="cls-18" x="39.2" y="39.2" width="4.9" height="4.9"/>
      <rect class="cls-6" x="34.3" y="39.2" width="4.9" height="4.9"/>
      <rect class="cls-14" x="29.4" y="39.2" width="4.9" height="4.9"/>
      <rect class="cls-5" x="24.5" y="39.2" width="4.9" height="4.9"/>
      <rect class="cls-5" x="19.6" y="39.2" width="4.9" height="4.9"/>
      <rect class="cls-3" x="14.7" y="39.2" width="4.9" height="4.9"/>
      <rect class="cls-14" x="102.9" y="34.3" width="4.9" height="4.9"/>
      <rect class="cls-5" x="98" y="34.3" width="4.9" height="4.9"/>
      <rect class="cls-18" x="93.1" y="34.3" width="4.9" height="4.9"/>
      <rect class="cls-23" x="88.2" y="34.3" width="4.9" height="4.9"/>
      <rect class="cls-6" x="83.3" y="34.3" width="4.9" height="4.9"/>
      <rect class="cls-18" x="78.4" y="34.3" width="4.9" height="4.9"/>
      <rect class="cls-5" x="73.5" y="34.3" width="4.9" height="4.9"/>
      <rect class="cls-18" x="68.6" y="34.3" width="4.9" height="4.9"/>
      <rect class="cls-30" x="63.7" y="34.3" width="4.9" height="4.9"/>
      <rect class="cls-14" x="58.8" y="34.3" width="4.9" height="4.9"/>
      <rect class="cls-6" x="53.9" y="34.3" width="4.9" height="4.9"/>
      <rect class="cls-6" x="49" y="34.3" width="4.9" height="4.9"/>
      <rect class="cls-6" x="44.1" y="34.3" width="4.9" height="4.9"/>
      <rect class="cls-18" x="39.2" y="34.3" width="4.9" height="4.9"/>
      <rect class="cls-6" x="34.3" y="34.3" width="4.9" height="4.9"/>
      <rect class="cls-13" x="29.4" y="34.3" width="4.9" height="4.9"/>
      <rect class="cls-19" x="24.5" y="34.3" width="4.9" height="4.9"/>
      <rect class="cls-11" x="19.6" y="34.3" width="4.9" height="4.9"/>
      <rect class="cls-6" x="93.1" y="29.4" width="4.9" height="4.9"/>
      <rect class="cls-6" x="88.2" y="29.4" width="4.9" height="4.9"/>
      <rect class="cls-18" x="83.3" y="29.4" width="4.9" height="4.9"/>
      <rect class="cls-6" x="78.4" y="29.4" width="4.9" height="4.9"/>
      <rect class="cls-6" x="73.5" y="29.4" width="4.9" height="4.9"/>
      <rect class="cls-6" x="68.6" y="29.4" width="4.9" height="4.9"/>
      <rect class="cls-18" x="63.7" y="29.4" width="4.9" height="4.9"/>
      <rect class="cls-18" x="58.8" y="29.4" width="4.9" height="4.9"/>
      <rect class="cls-18" x="53.9" y="29.4" width="4.9" height="4.9"/>
      <rect class="cls-29" x="49" y="29.4" width="4.9" height="4.9"/>
      <rect class="cls-9" x="44.1" y="29.4" width="4.9" height="4.9"/>
      <rect class="cls-4" x="39.2" y="29.4" width="4.9" height="4.9"/>
      <rect class="cls-28" x="34.3" y="29.4" width="4.9" height="4.9"/>
      <rect class="cls-30" x="93.1" y="24.5" width="4.9" height="4.9"/>
      <rect class="cls-6" x="88.2" y="24.5" width="4.9" height="4.9"/>
      <rect class="cls-18" x="83.3" y="24.5" width="4.9" height="4.9"/>
      <rect class="cls-18" x="78.4" y="24.5" width="4.9" height="4.9"/>
      <rect class="cls-6" x="73.5" y="24.5" width="4.9" height="4.9"/>
      <rect class="cls-18" x="68.6" y="24.5" width="4.9" height="4.9"/>
      <rect class="cls-18" x="63.7" y="24.5" width="4.9" height="4.9"/>
      <rect class="cls-6" x="58.8" y="24.5" width="4.9" height="4.9"/>
      <rect class="cls-5" x="53.9" y="24.5" width="4.9" height="4.9"/>
      <rect class="cls-2" x="49" y="24.5" width="4.9" height="4.9"/>
      <rect class="cls-21" x="93.1" y="19.6" width="4.9" height="4.9"/>
      <rect class="cls-18" x="88.2" y="19.6" width="4.9" height="4.9"/>
      <rect class="cls-18" x="83.3" y="19.6" width="4.9" height="4.9"/>
      <rect class="cls-18" x="78.4" y="19.6" width="4.9" height="4.9"/>
      <rect class="cls-18" x="73.5" y="19.6" width="4.9" height="4.9"/>
      <rect class="cls-18" x="68.6" y="19.6" width="4.9" height="4.9"/>
      <rect class="cls-6" x="63.7" y="19.6" width="4.9" height="4.9"/>
      <rect class="cls-5" x="58.8" y="19.6" width="4.9" height="4.9"/>
      <rect class="cls-5" x="53.9" y="19.6" width="4.9" height="4.9"/>
      <rect class="cls-22" x="93.1" y="14.7" width="4.9" height="4.9"/>
      <rect class="cls-6" x="88.2" y="14.7" width="4.9" height="4.9"/>
      <rect class="cls-18" x="83.3" y="14.7" width="4.9" height="4.9"/>
      <rect class="cls-18" x="78.4" y="14.7" width="4.9" height="4.9"/>
      <rect class="cls-18" x="73.5" y="14.7" width="4.9" height="4.9"/>
      <rect class="cls-18" x="68.6" y="14.7" width="4.9" height="4.9"/>
      <rect class="cls-6" x="63.7" y="14.7" width="4.9" height="4.9"/>
      <rect class="cls-4" x="58.8" y="14.7" width="4.9" height="4.9"/>
      <rect class="cls-6" x="53.9" y="14.7" width="4.9" height="4.9"/>
      <rect class="cls-27" x="93.1" y="9.8" width="4.9" height="4.9"/>
      <rect class="cls-5" x="88.2" y="9.8" width="4.9" height="4.9"/>
      <rect class="cls-6" x="83.3" y="9.8" width="4.9" height="4.9"/>
      <rect class="cls-6" x="78.4" y="9.8" width="4.9" height="4.9"/>
      <rect class="cls-5" x="73.5" y="9.8" width="4.9" height="4.9"/>
      <rect class="cls-12" x="68.6" y="9.8" width="4.9" height="4.9"/>
      <rect class="cls-15" x="63.7" y="9.8" width="4.9" height="4.9"/>
      <rect class="cls-8" x="58.8" y="9.8" width="4.9" height="4.9"/>
      <rect class="cls-3" x="88.2" y="4.9" width="4.9" height="4.9"/>
      <rect class="cls-5" x="83.3" y="4.9" width="4.9" height="4.9"/>
      <rect class="cls-6" x="78.4" y="4.9" width="4.9" height="4.9"/>
      <rect class="cls-6" x="73.5" y="4.9" width="4.9" height="4.9"/>
      <rect class="cls-4" x="68.6" y="4.9" width="4.9" height="4.9"/>
      <rect class="cls-4" x="63.7" y="4.9" width="4.9" height="4.9"/>
      <rect class="cls-16" x="83.3" width="4.9" height="4.9"/>
      <rect class="cls-4" x="78.4" width="4.9" height="4.9"/>
      <rect class="cls-3" x="73.5" width="4.9" height="4.9"/>
      <rect class="cls-24" x="68.6" width="4.9" height="4.9"/>
    </g>
  </g>
</svg>