<?xml version="1.0" encoding="UTF-8"?>
<svg id="Layer_2" data-name="Layer 2" xmlns="http://www.w3.org/2000/svg" viewBox="0 0 88.2 19.6">
  <defs>
    <style>
      .cls-1 {
        fill: #d2a7f1;
      }

      .cls-2 {
        fill: #dfc0f5;
      }

      .cls-3 {
        fill: #bc7bea;
      }

      .cls-4 {
        fill: #bd7eeb;
      }

      .cls-5 {
        fill: #bb79ea;
      }

      .cls-6 {
        fill: #e5ccf7;
      }

      .cls-7 {
        fill: #a873dd;
      }

      .cls-8 {
        fill: #dec3f2;
      }

      .cls-9 {
        fill: #c082eb;
      }

      .cls-10 {
        fill: #e2c9f3;
      }

      .cls-11 {
        fill: #c287ec;
      }

      .cls-12 {
        fill: #e4cef4;
      }

      .cls-13 {
        fill: #d5acf2;
      }

      .cls-14 {
        fill: #e4cdf4;
      }

      .cls-15 {
        fill: #a36bdb;
      }

      .cls-16 {
        fill: #d4b0ee;
      }

      .cls-17 {
        fill: #c68fed;
      }

      .cls-18 {
        fill: #d2b7ed;
      }

      .cls-19 {
        fill: #cb98ef;
      }
    </style>
  </defs>
  <g id="Layer_3" data-name="Layer 3">
    <g>
      <rect class="cls-16" x="83.3" y="14.7" width="4.9" height="4.9"/>
      <rect class="cls-4" x="78.4" y="14.7" width="4.9" height="4.9"/>
      <rect class="cls-3" x="73.5" y="14.7" width="4.9" height="4.9"/>
      <rect class="cls-3" x="68.6" y="14.7" width="4.9" height="4.9"/>
      <rect class="cls-10" x="63.7" y="14.7" width="4.9" height="4.9"/>
      <rect class="cls-3" x="58.8" y="14.7" width="4.9" height="4.9"/>
      <rect class="cls-4" x="53.9" y="14.7" width="4.9" height="4.9"/>
      <rect class="cls-3" x="49" y="14.7" width="4.9" height="4.9"/>
      <rect class="cls-14" x="44.1" y="14.7" width="4.9" height="4.9"/>
      <rect class="cls-4" x="39.2" y="14.7" width="4.9" height="4.9"/>
      <rect class="cls-9" x="34.3" y="14.7" width="4.9" height="4.9"/>
      <rect class="cls-9" x="29.4" y="14.7" width="4.9" height="4.9"/>
      <rect class="cls-9" x="24.5" y="14.7" width="4.9" height="4.9"/>
      <rect class="cls-9" x="19.6" y="14.7" width="4.9" height="4.9"/>
      <rect class="cls-3" x="14.7" y="14.7" width="4.9" height="4.9"/>
      <rect class="cls-3" x="9.8" y="14.7" width="4.9" height="4.9"/>
      <rect class="cls-17" x="4.9" y="14.7" width="4.9" height="4.9"/>
      <rect class="cls-3" y="14.7" width="4.9" height="4.9"/>
      <rect class="cls-8" x="78.4" y="9.8" width="4.9" height="4.9"/>
      <rect class="cls-13" x="73.5" y="9.8" width="4.9" height="4.9"/>
      <rect class="cls-18" x="68.6" y="9.8" width="4.9" height="4.9"/>
      <rect class="cls-4" x="63.7" y="9.8" width="4.9" height="4.9"/>
      <rect class="cls-3" x="58.8" y="9.8" width="4.9" height="4.9"/>
      <rect class="cls-3" x="53.9" y="9.8" width="4.9" height="4.9"/>
      <rect class="cls-3" x="49" y="9.8" width="4.9" height="4.9"/>
      <rect class="cls-1" x="44.1" y="9.8" width="4.9" height="4.9"/>
      <rect class="cls-2" x="39.2" y="9.8" width="4.9" height="4.9"/>
      <rect class="cls-11" x="34.3" y="9.8" width="4.9" height="4.9"/>
      <rect class="cls-3" x="29.4" y="9.8" width="4.9" height="4.9"/>
      <rect class="cls-3" x="24.5" y="9.8" width="4.9" height="4.9"/>
      <rect class="cls-9" x="19.6" y="9.8" width="4.9" height="4.9"/>
      <rect class="cls-6" x="14.7" y="9.8" width="4.9" height="4.9"/>
      <rect class="cls-12" x="9.8" y="9.8" width="4.9" height="4.9"/>
      <rect class="cls-11" x="53.9" y="4.9" width="4.9" height="4.9"/>
      <rect class="cls-3" x="49" y="4.9" width="4.9" height="4.9"/>
      <rect class="cls-4" x="44.1" y="4.9" width="4.9" height="4.9"/>
      <rect class="cls-3" x="39.2" y="4.9" width="4.9" height="4.9"/>
      <rect class="cls-7" x="34.3" y="4.9" width="4.9" height="4.9"/>
      <rect class="cls-19" x="29.4" y="4.9" width="4.9" height="4.9"/>
      <rect class="cls-5" x="24.5" y="4.9" width="4.9" height="4.9"/>
      <rect class="cls-3" x="44.1" width="4.9" height="4.9"/>
      <rect class="cls-4" x="39.2" width="4.9" height="4.9"/>
      <rect class="cls-3" x="34.3" width="4.9" height="4.9"/>
      <rect class="cls-15" x="29.4" width="4.9" height="4.9"/>
    </g>
  </g>
</svg>