<?xml version="1.0" encoding="UTF-8"?>
<svg id="Layer_2" data-name="Layer 2" xmlns="http://www.w3.org/2000/svg" viewBox="0 0 166.6 19.6">
  <defs>
    <style>
      .cls-1 {
        fill: #d2a7f1;
      }

      .cls-2 {
        fill: #b66fe8;
      }

      .cls-3 {
        fill: #d2aced;
      }

      .cls-4 {
        fill: #b874e9;
      }

      .cls-5 {
        fill: #f3ecfa;
      }

      .cls-6 {
        fill: #ede3f8;
      }

      .cls-7 {
        fill: #bc7bea;
      }

      .cls-8 {
        fill: #bd7eeb;
      }

      .cls-9 {
        fill: #bc94e5;
      }

      .cls-10 {
        fill: #cd9df0;
      }

      .cls-11 {
        fill: #bb79ea;
      }

      .cls-12 {
        fill: #e7d8f5;
      }

      .cls-13 {
        fill: #dcc6f1;
      }

      .cls-14 {
        fill: #e5cff5;
      }

      .cls-15 {
        fill: #c082eb;
      }

      .cls-16 {
        fill: #cfa0f0;
      }

      .cls-17 {
        fill: #d0a2f0;
      }

      .cls-18 {
        fill: #d7b1f3;
      }

      .cls-19 {
        fill: #cfb2ec;
      }

      .cls-20 {
        fill: #e2c9f3;
      }

      .cls-21 {
        fill: #c287ec;
      }

      .cls-22 {
        fill: #a752e4;
      }

      .cls-23 {
        fill: #b98ee3;
      }

      .cls-24 {
        fill: #b181e0;
      }

      .cls-25 {
        fill: #e3cbf4;
      }

      .cls-26 {
        fill: #e0c2f5;
      }

      .cls-27 {
        fill: #e4cdf4;
      }

      .cls-28 {
        fill: #e8d9f6;
      }

      .cls-29 {
        fill: #c8a7ea;
      }

      .cls-30 {
        fill: #b36ae8;
      }

      .cls-31 {
        fill: #d2b7ed;
      }

      .cls-32 {
        fill: #cdafeb;
      }
    </style>
  </defs>
  <g id="Layer_3" data-name="Layer 3">
    <g>
      <rect class="cls-7" x="161.7" y="14.7" width="4.9" height="4.9"/>
      <rect class="cls-25" x="156.8" y="14.7" width="4.9" height="4.9"/>
      <rect class="cls-27" x="151.9" y="14.7" width="4.9" height="4.9"/>
      <rect class="cls-27" x="147" y="14.7" width="4.9" height="4.9"/>
      <rect class="cls-7" x="142.1" y="14.7" width="4.9" height="4.9"/>
      <rect class="cls-7" x="137.2" y="14.7" width="4.9" height="4.9"/>
      <rect class="cls-7" x="132.3" y="14.7" width="4.9" height="4.9"/>
      <rect class="cls-4" x="127.4" y="14.7" width="4.9" height="4.9"/>
      <rect class="cls-11" x="122.5" y="14.7" width="4.9" height="4.9"/>
      <rect class="cls-4" x="117.6" y="14.7" width="4.9" height="4.9"/>
      <rect class="cls-2" x="112.7" y="14.7" width="4.9" height="4.9"/>
      <rect class="cls-30" x="107.8" y="14.7" width="4.9" height="4.9"/>
      <rect class="cls-22" x="102.9" y="14.7" width="4.9" height="4.9"/>
      <rect class="cls-20" x="98" y="14.7" width="4.9" height="4.9"/>
      <rect class="cls-7" x="93.1" y="14.7" width="4.9" height="4.9"/>
      <rect class="cls-8" x="88.2" y="14.7" width="4.9" height="4.9"/>
      <rect class="cls-7" x="78.4" y="14.7" width="4.9" height="4.9"/>
      <rect class="cls-7" x="73.5" y="14.7" width="4.9" height="4.9"/>
      <rect class="cls-20" x="68.6" y="14.7" width="4.9" height="4.9"/>
      <rect class="cls-8" x="63.7" y="14.7" width="4.9" height="4.9"/>
      <rect class="cls-8" x="58.8" y="14.7" width="4.9" height="4.9"/>
      <rect class="cls-7" x="53.9" y="14.7" width="4.9" height="4.9"/>
      <rect class="cls-7" x="49" y="14.7" width="4.9" height="4.9"/>
      <rect class="cls-8" x="44.1" y="14.7" width="4.9" height="4.9"/>
      <rect class="cls-7" x="39.2" y="14.7" width="4.9" height="4.9"/>
      <rect class="cls-15" x="34.3" y="14.7" width="4.9" height="4.9"/>
      <rect class="cls-7" x="29.4" y="14.7" width="4.9" height="4.9"/>
      <rect class="cls-7" x="24.5" y="14.7" width="4.9" height="4.9"/>
      <rect class="cls-8" x="19.6" y="14.7" width="4.9" height="4.9"/>
      <rect class="cls-7" x="14.7" y="14.7" width="4.9" height="4.9"/>
      <rect class="cls-7" x="9.8" y="14.7" width="4.9" height="4.9"/>
      <rect class="cls-11" x="4.9" y="14.7" width="4.9" height="4.9"/>
      <rect class="cls-14" x="142.1" y="9.8" width="4.9" height="4.9"/>
      <rect class="cls-29" x="137.2" y="9.8" width="4.9" height="4.9"/>
      <rect class="cls-9" x="132.3" y="9.8" width="4.9" height="4.9"/>
      <rect class="cls-18" x="127.4" y="9.8" width="4.9" height="4.9"/>
      <rect class="cls-32" x="122.5" y="9.8" width="4.9" height="4.9"/>
      <rect class="cls-31" x="117.6" y="9.8" width="4.9" height="4.9"/>
      <rect class="cls-14" x="112.7" y="9.8" width="4.9" height="4.9"/>
      <rect class="cls-15" x="98" y="9.8" width="4.9" height="4.9"/>
      <rect class="cls-8" x="93.1" y="9.8" width="4.9" height="4.9"/>
      <rect class="cls-8" x="88.2" y="9.8" width="4.9" height="4.9"/>
      <rect class="cls-8" x="83.3" y="9.8" width="4.9" height="4.9"/>
      <rect class="cls-7" x="78.4" y="9.8" width="4.9" height="4.9"/>
      <rect class="cls-8" x="73.5" y="9.8" width="4.9" height="4.9"/>
      <rect class="cls-8" x="68.6" y="9.8" width="4.9" height="4.9"/>
      <rect class="cls-8" x="63.7" y="9.8" width="4.9" height="4.9"/>
      <rect class="cls-15" x="58.8" y="9.8" width="4.9" height="4.9"/>
      <rect class="cls-17" x="53.9" y="9.8" width="4.9" height="4.9"/>
      <rect class="cls-10" x="49" y="9.8" width="4.9" height="4.9"/>
      <rect class="cls-24" x="44.1" y="9.8" width="4.9" height="4.9"/>
      <rect class="cls-9" x="39.2" y="9.8" width="4.9" height="4.9"/>
      <rect class="cls-13" x="34.3" y="9.8" width="4.9" height="4.9"/>
      <rect class="cls-19" x="29.4" y="9.8" width="4.9" height="4.9"/>
      <rect class="cls-26" x="24.5" y="9.8" width="4.9" height="4.9"/>
      <rect class="cls-23" x="19.6" y="9.8" width="4.9" height="4.9"/>
      <rect class="cls-13" x="14.7" y="9.8" width="4.9" height="4.9"/>
      <rect class="cls-15" x="9.8" y="9.8" width="4.9" height="4.9"/>
      <rect class="cls-7" x="4.9" y="9.8" width="4.9" height="4.9"/>
      <rect class="cls-8" y="9.8" width="4.9" height="4.9"/>
      <rect class="cls-12" x="93.1" y="4.9" width="4.9" height="4.9"/>
      <rect class="cls-16" x="88.2" y="4.9" width="4.9" height="4.9"/>
      <rect class="cls-1" x="83.3" y="4.9" width="4.9" height="4.9"/>
      <rect class="cls-6" x="78.4" y="4.9" width="4.9" height="4.9"/>
      <rect class="cls-6" x="73.5" y="4.9" width="4.9" height="4.9"/>
      <rect class="cls-32" x="68.6" y="4.9" width="4.9" height="4.9"/>
      <rect class="cls-28" x="63.7" y="4.9" width="4.9" height="4.9"/>
      <rect class="cls-8" x="58.8" y="4.9" width="4.9" height="4.9"/>
      <rect class="cls-8" x="53.9" y="4.9" width="4.9" height="4.9"/>
      <rect class="cls-8" x="49" y="4.9" width="4.9" height="4.9"/>
      <rect class="cls-8" x="44.1" y="4.9" width="4.9" height="4.9"/>
      <rect class="cls-21" x="39.2" y="4.9" width="4.9" height="4.9"/>
      <rect class="cls-11" x="34.3" y="4.9" width="4.9" height="4.9"/>
      <rect class="cls-7" x="29.4" y="4.9" width="4.9" height="4.9"/>
      <rect class="cls-7" x="24.5" y="4.9" width="4.9" height="4.9"/>
      <rect class="cls-7" x="19.6" y="4.9" width="4.9" height="4.9"/>
      <rect class="cls-5" x="14.7" y="4.9" width="4.9" height="4.9"/>
      <rect class="cls-3" x="9.8" y="4.9" width="4.9" height="4.9"/>
      <rect class="cls-7" x="34.3" width="4.9" height="4.9"/>
      <rect class="cls-7" x="29.4" width="4.9" height="4.9"/>
      <rect class="cls-7" x="24.5" width="4.9" height="4.9"/>
      <rect class="cls-7" x="19.6" width="4.9" height="4.9"/>
      <rect class="cls-28" x="14.7" width="4.9" height="4.9"/>
    </g>
  </g>
</svg>