<?xml version="1.0" encoding="UTF-8"?>
<svg id="Layer_2" data-name="Layer 2" xmlns="http://www.w3.org/2000/svg" viewBox="0 0 245 112.7">
  <defs>
    <style>
      .cls-1 {
        fill: #d2a7f1;
      }

      .cls-2 {
        fill: #e6cef7;
      }

      .cls-3 {
        fill: #fdfffc;
      }

      .cls-4 {
        fill: #dbb8f4;
      }

      .cls-5 {
        fill: #c19ce7;
      }

      .cls-6 {
        fill: #f3ecfa;
      }

      .cls-7 {
        fill: #d4aaf2;
      }

      .cls-8 {
        fill: #e6d1f5;
      }

      .cls-9 {
        fill: #ede3f8;
      }

      .cls-10 {
        fill: #bc7bea;
      }

      .cls-11 {
        fill: #bd7eeb;
      }

      .cls-12 {
        fill: #e4c9f7;
      }

      .cls-13 {
        fill: #fefff9;
      }

      .cls-14 {
        fill: #e1c8f3;
      }

      .cls-15 {
        fill: #aa76de;
      }

      .cls-16 {
        fill: #e2c7f6;
      }

      .cls-17 {
        fill: #fff;
      }

      .cls-18 {
        fill: #b78ae3;
      }

      .cls-19 {
        fill: #e1cef3;
      }

      .cls-20 {
        fill: #c185ec;
      }

      .cls-21 {
        fill: #b587e2;
      }

      .cls-22 {
        fill: #d3b8ee;
      }

      .cls-23 {
        fill: #bb79ea;
      }

      .cls-24 {
        fill: #dcc6f1;
      }

      .cls-25 {
        fill: #a873dd;
      }

      .cls-26 {
        fill: #e1c4f6;
      }

      .cls-27 {
        fill: #e5cff5;
      }

      .cls-28 {
        fill: #d9b3f3;
      }

      .cls-29 {
        fill: #fefefc;
      }

      .cls-30 {
        fill: #fefffd;
      }

      .cls-31 {
        fill: #e0c7f3;
      }

      .cls-32 {
        fill: #fffefe;
      }

      .cls-33 {
        fill: #c082eb;
      }

      .cls-34 {
        fill: #debdf5;
      }

      .cls-35 {
        fill: #cfa0f0;
      }

      .cls-36 {
        fill: #fdfeff;
      }

      .cls-37 {
        fill: #bb92e5;
      }

      .cls-38 {
        fill: #d5bbef;
      }

      .cls-39 {
        fill: #ebe0f7;
      }

      .cls-40 {
        fill: #b8c2e6;
      }

      .cls-41 {
        fill: #d0a2f0;
      }

      .cls-42 {
        fill: #a56edc;
      }

      .cls-43 {
        fill: #cfb2ec;
      }

      .cls-44 {
        fill: #e9d3f8;
      }

      .cls-45 {
        fill: #e2c9f3;
      }

      .cls-46 {
        fill: #c287ec;
      }

      .cls-47 {
        fill: #fefeff;
      }

      .cls-48 {
        fill: #9d62d9;
      }

      .cls-49 {
        fill: #b98ee3;
      }

      .cls-50 {
        fill: #b181e0;
      }

      .cls-51 {
        fill: #ca96ef;
      }

      .cls-52 {
        fill: #e3cbf4;
      }

      .cls-53 {
        fill: #d5acf2;
      }

      .cls-54 {
        fill: #e4cdf4;
      }

      .cls-55 {
        fill: #d8c0f0;
      }

      .cls-56 {
        fill: #c38aed;
      }

      .cls-57 {
        fill: #e8d9f6;
      }

      .cls-58 {
        fill: #c8a7ea;
      }

      .cls-59 {
        fill: #b07fe0;
      }

      .cls-60 {
        fill: #fffffd;
      }

      .cls-61 {
        fill: #fefefe;
      }

      .cls-62 {
        fill: #c68fed;
      }

      .cls-63 {
        fill: #fdfffb;
      }

      .cls-64 {
        fill: #feffff;
      }

      .cls-65 {
        fill: #dfcbf2;
      }

      .cls-66 {
        fill: #caaaea;
      }

      .cls-67 {
        fill: #cdafeb;
      }

      .cls-68 {
        fill: #cb98ef;
      }
    </style>
  </defs>
  <g id="Layer_3" data-name="Layer 3">
    <g>
      <rect class="cls-11" x="240.1" y="107.8" width="4.9" height="4.9"/>
      <rect class="cls-10" x="235.2" y="107.8" width="4.9" height="4.9"/>
      <rect class="cls-11" x="230.3" y="107.8" width="4.9" height="4.9"/>
      <rect class="cls-10" x="225.4" y="107.8" width="4.9" height="4.9"/>
      <rect class="cls-10" x="220.5" y="107.8" width="4.9" height="4.9"/>
      <rect class="cls-11" x="215.6" y="107.8" width="4.9" height="4.9"/>
      <rect class="cls-33" x="210.7" y="107.8" width="4.9" height="4.9"/>
      <rect class="cls-33" x="205.8" y="107.8" width="4.9" height="4.9"/>
      <rect class="cls-33" x="200.9" y="107.8" width="4.9" height="4.9"/>
      <rect class="cls-10" x="196" y="107.8" width="4.9" height="4.9"/>
      <rect class="cls-45" x="191.1" y="107.8" width="4.9" height="4.9"/>
      <rect class="cls-33" x="186.2" y="107.8" width="4.9" height="4.9"/>
      <rect class="cls-11" x="181.3" y="107.8" width="4.9" height="4.9"/>
      <rect class="cls-11" x="176.4" y="107.8" width="4.9" height="4.9"/>
      <rect class="cls-11" x="171.5" y="107.8" width="4.9" height="4.9"/>
      <rect class="cls-11" x="166.6" y="107.8" width="4.9" height="4.9"/>
      <rect class="cls-33" x="161.7" y="107.8" width="4.9" height="4.9"/>
      <rect class="cls-33" x="156.8" y="107.8" width="4.9" height="4.9"/>
      <rect class="cls-33" x="151.9" y="107.8" width="4.9" height="4.9"/>
      <rect class="cls-33" x="147" y="107.8" width="4.9" height="4.9"/>
      <rect class="cls-10" x="142.1" y="107.8" width="4.9" height="4.9"/>
      <rect class="cls-53" x="137.2" y="107.8" width="4.9" height="4.9"/>
      <rect class="cls-61" x="132.3" y="107.8" width="4.9" height="4.9"/>
      <rect class="cls-6" x="127.4" y="107.8" width="4.9" height="4.9"/>
      <rect class="cls-61" x="122.5" y="107.8" width="4.9" height="4.9"/>
      <rect class="cls-64" x="117.6" y="107.8" width="4.9" height="4.9"/>
      <rect class="cls-17" x="112.7" y="107.8" width="4.9" height="4.9"/>
      <rect class="cls-17" x="107.8" y="107.8" width="4.9" height="4.9"/>
      <rect class="cls-17" x="102.9" y="107.8" width="4.9" height="4.9"/>
      <rect class="cls-30" x="98" y="107.8" width="4.9" height="4.9"/>
      <rect class="cls-10" x="93.1" y="107.8" width="4.9" height="4.9"/>
      <rect class="cls-33" x="88.2" y="107.8" width="4.9" height="4.9"/>
      <rect class="cls-11" x="83.3" y="107.8" width="4.9" height="4.9"/>
      <rect class="cls-11" x="78.4" y="107.8" width="4.9" height="4.9"/>
      <rect class="cls-11" x="73.5" y="107.8" width="4.9" height="4.9"/>
      <rect class="cls-11" x="68.6" y="107.8" width="4.9" height="4.9"/>
      <rect class="cls-33" x="63.7" y="107.8" width="4.9" height="4.9"/>
      <rect class="cls-33" x="58.8" y="107.8" width="4.9" height="4.9"/>
      <rect class="cls-33" x="53.9" y="107.8" width="4.9" height="4.9"/>
      <rect class="cls-33" x="49" y="107.8" width="4.9" height="4.9"/>
      <rect class="cls-33" x="44.1" y="107.8" width="4.9" height="4.9"/>
      <rect class="cls-33" x="39.2" y="107.8" width="4.9" height="4.9"/>
      <rect class="cls-33" x="34.3" y="107.8" width="4.9" height="4.9"/>
      <rect class="cls-33" x="29.4" y="107.8" width="4.9" height="4.9"/>
      <rect class="cls-33" x="24.5" y="107.8" width="4.9" height="4.9"/>
      <rect class="cls-33" x="19.6" y="107.8" width="4.9" height="4.9"/>
      <rect class="cls-33" x="14.7" y="107.8" width="4.9" height="4.9"/>
      <rect class="cls-33" x="9.8" y="107.8" width="4.9" height="4.9"/>
      <rect class="cls-33" x="4.9" y="107.8" width="4.9" height="4.9"/>
      <rect class="cls-33" y="107.8" width="4.9" height="4.9"/>
      <rect class="cls-59" x="240.1" y="102.9" width="4.9" height="4.9"/>
      <rect class="cls-19" x="235.2" y="102.9" width="4.9" height="4.9"/>
      <rect class="cls-24" x="230.3" y="102.9" width="4.9" height="4.9"/>
      <rect class="cls-49" x="225.4" y="102.9" width="4.9" height="4.9"/>
      <rect class="cls-55" x="220.5" y="102.9" width="4.9" height="4.9"/>
      <rect class="cls-10" x="215.6" y="102.9" width="4.9" height="4.9"/>
      <rect class="cls-33" x="210.7" y="102.9" width="4.9" height="4.9"/>
      <rect class="cls-33" x="205.8" y="102.9" width="4.9" height="4.9"/>
      <rect class="cls-23" x="200.9" y="102.9" width="4.9" height="4.9"/>
      <rect class="cls-10" x="196" y="102.9" width="4.9" height="4.9"/>
      <rect class="cls-10" x="191.1" y="102.9" width="4.9" height="4.9"/>
      <rect class="cls-10" x="186.2" y="102.9" width="4.9" height="4.9"/>
      <rect class="cls-33" x="181.3" y="102.9" width="4.9" height="4.9"/>
      <rect class="cls-23" x="176.4" y="102.9" width="4.9" height="4.9"/>
      <rect class="cls-46" x="171.5" y="102.9" width="4.9" height="4.9"/>
      <rect class="cls-11" x="166.6" y="102.9" width="4.9" height="4.9"/>
      <rect class="cls-33" x="161.7" y="102.9" width="4.9" height="4.9"/>
      <rect class="cls-33" x="156.8" y="102.9" width="4.9" height="4.9"/>
      <rect class="cls-33" x="151.9" y="102.9" width="4.9" height="4.9"/>
      <rect class="cls-11" x="147" y="102.9" width="4.9" height="4.9"/>
      <rect class="cls-52" x="142.1" y="102.9" width="4.9" height="4.9"/>
      <rect class="cls-68" x="137.2" y="102.9" width="4.9" height="4.9"/>
      <rect class="cls-8" x="132.3" y="102.9" width="4.9" height="4.9"/>
      <rect class="cls-10" x="127.4" y="102.9" width="4.9" height="4.9"/>
      <rect class="cls-44" x="122.5" y="102.9" width="4.9" height="4.9"/>
      <rect class="cls-29" x="117.6" y="102.9" width="4.9" height="4.9"/>
      <rect class="cls-17" x="112.7" y="102.9" width="4.9" height="4.9"/>
      <rect class="cls-17" x="107.8" y="102.9" width="4.9" height="4.9"/>
      <rect class="cls-17" x="102.9" y="102.9" width="4.9" height="4.9"/>
      <rect class="cls-36" x="98" y="102.9" width="4.9" height="4.9"/>
      <rect class="cls-53" x="93.1" y="102.9" width="4.9" height="4.9"/>
      <rect class="cls-10" x="88.2" y="102.9" width="4.9" height="4.9"/>
      <rect class="cls-23" x="83.3" y="102.9" width="4.9" height="4.9"/>
      <rect class="cls-4" x="78.4" y="102.9" width="4.9" height="4.9"/>
      <rect class="cls-11" x="73.5" y="102.9" width="4.9" height="4.9"/>
      <rect class="cls-33" x="68.6" y="102.9" width="4.9" height="4.9"/>
      <rect class="cls-33" x="63.7" y="102.9" width="4.9" height="4.9"/>
      <rect class="cls-33" x="58.8" y="102.9" width="4.9" height="4.9"/>
      <rect class="cls-33" x="53.9" y="102.9" width="4.9" height="4.9"/>
      <rect class="cls-33" x="49" y="102.9" width="4.9" height="4.9"/>
      <rect class="cls-33" x="44.1" y="102.9" width="4.9" height="4.9"/>
      <rect class="cls-33" x="39.2" y="102.9" width="4.9" height="4.9"/>
      <rect class="cls-33" x="34.3" y="102.9" width="4.9" height="4.9"/>
      <rect class="cls-33" x="29.4" y="102.9" width="4.9" height="4.9"/>
      <rect class="cls-33" x="24.5" y="102.9" width="4.9" height="4.9"/>
      <rect class="cls-33" x="19.6" y="102.9" width="4.9" height="4.9"/>
      <rect class="cls-33" x="14.7" y="102.9" width="4.9" height="4.9"/>
      <rect class="cls-33" x="9.8" y="102.9" width="4.9" height="4.9"/>
      <rect class="cls-33" x="4.9" y="102.9" width="4.9" height="4.9"/>
      <rect class="cls-33" y="102.9" width="4.9" height="4.9"/>
      <rect class="cls-11" x="240.1" y="98" width="4.9" height="4.9"/>
      <rect class="cls-33" x="235.2" y="98" width="4.9" height="4.9"/>
      <rect class="cls-33" x="230.3" y="98" width="4.9" height="4.9"/>
      <rect class="cls-11" x="225.4" y="98" width="4.9" height="4.9"/>
      <rect class="cls-33" x="220.5" y="98" width="4.9" height="4.9"/>
      <rect class="cls-62" x="215.6" y="98" width="4.9" height="4.9"/>
      <rect class="cls-19" x="210.7" y="98" width="4.9" height="4.9"/>
      <rect class="cls-9" x="205.8" y="98" width="4.9" height="4.9"/>
      <rect class="cls-55" x="200.9" y="98" width="4.9" height="4.9"/>
      <rect class="cls-18" x="196" y="98" width="4.9" height="4.9"/>
      <rect class="cls-6" x="191.1" y="98" width="4.9" height="4.9"/>
      <rect class="cls-6" x="186.2" y="98" width="4.9" height="4.9"/>
      <rect class="cls-61" x="181.3" y="98" width="4.9" height="4.9"/>
      <rect class="cls-32" x="176.4" y="98" width="4.9" height="4.9"/>
      <rect class="cls-57" x="171.5" y="98" width="4.9" height="4.9"/>
      <rect class="cls-11" x="166.6" y="98" width="4.9" height="4.9"/>
      <rect class="cls-33" x="161.7" y="98" width="4.9" height="4.9"/>
      <rect class="cls-33" x="156.8" y="98" width="4.9" height="4.9"/>
      <rect class="cls-33" x="151.9" y="98" width="4.9" height="4.9"/>
      <rect class="cls-33" x="147" y="98" width="4.9" height="4.9"/>
      <rect class="cls-33" x="142.1" y="98" width="4.9" height="4.9"/>
      <rect class="cls-33" x="137.2" y="98" width="4.9" height="4.9"/>
      <rect class="cls-33" x="132.3" y="98" width="4.9" height="4.9"/>
      <rect class="cls-33" x="127.4" y="98" width="4.9" height="4.9"/>
      <rect class="cls-33" x="122.5" y="98" width="4.9" height="4.9"/>
      <rect class="cls-10" x="117.6" y="98" width="4.9" height="4.9"/>
      <rect class="cls-35" x="112.7" y="98" width="4.9" height="4.9"/>
      <rect class="cls-53" x="107.8" y="98" width="4.9" height="4.9"/>
      <rect class="cls-11" x="102.9" y="98" width="4.9" height="4.9"/>
      <rect class="cls-10" x="98" y="98" width="4.9" height="4.9"/>
      <rect class="cls-11" x="93.1" y="98" width="4.9" height="4.9"/>
      <rect class="cls-56" x="88.2" y="98" width="4.9" height="4.9"/>
      <rect class="cls-10" x="83.3" y="98" width="4.9" height="4.9"/>
      <rect class="cls-7" x="78.4" y="98" width="4.9" height="4.9"/>
      <rect class="cls-46" x="73.5" y="98" width="4.9" height="4.9"/>
      <rect class="cls-11" x="68.6" y="98" width="4.9" height="4.9"/>
      <rect class="cls-33" x="63.7" y="98" width="4.9" height="4.9"/>
      <rect class="cls-33" x="58.8" y="98" width="4.9" height="4.9"/>
      <rect class="cls-33" x="53.9" y="98" width="4.9" height="4.9"/>
      <rect class="cls-33" x="49" y="98" width="4.9" height="4.9"/>
      <rect class="cls-33" x="44.1" y="98" width="4.9" height="4.9"/>
      <rect class="cls-33" x="39.2" y="98" width="4.9" height="4.9"/>
      <rect class="cls-33" x="34.3" y="98" width="4.9" height="4.9"/>
      <rect class="cls-33" x="29.4" y="98" width="4.9" height="4.9"/>
      <rect class="cls-33" x="24.5" y="98" width="4.9" height="4.9"/>
      <rect class="cls-33" x="19.6" y="98" width="4.9" height="4.9"/>
      <rect class="cls-33" x="14.7" y="98" width="4.9" height="4.9"/>
      <rect class="cls-33" x="9.8" y="98" width="4.9" height="4.9"/>
      <rect class="cls-33" x="4.9" y="98" width="4.9" height="4.9"/>
      <rect class="cls-33" y="98" width="4.9" height="4.9"/>
      <rect class="cls-24" x="240.1" y="93.1" width="4.9" height="4.9"/>
      <rect class="cls-56" x="235.2" y="93.1" width="4.9" height="4.9"/>
      <rect class="cls-46" x="230.3" y="93.1" width="4.9" height="4.9"/>
      <rect class="cls-2" x="225.4" y="93.1" width="4.9" height="4.9"/>
      <rect class="cls-11" x="220.5" y="93.1" width="4.9" height="4.9"/>
      <rect class="cls-10" x="215.6" y="93.1" width="4.9" height="4.9"/>
      <rect class="cls-11" x="210.7" y="93.1" width="4.9" height="4.9"/>
      <rect class="cls-11" x="205.8" y="93.1" width="4.9" height="4.9"/>
      <rect class="cls-11" x="200.9" y="93.1" width="4.9" height="4.9"/>
      <rect class="cls-11" x="196" y="93.1" width="4.9" height="4.9"/>
      <rect class="cls-11" x="191.1" y="93.1" width="4.9" height="4.9"/>
      <rect class="cls-62" x="186.2" y="93.1" width="4.9" height="4.9"/>
      <rect class="cls-10" x="181.3" y="93.1" width="4.9" height="4.9"/>
      <rect class="cls-57" x="176.4" y="93.1" width="4.9" height="4.9"/>
      <rect class="cls-64" x="171.5" y="93.1" width="4.9" height="4.9"/>
      <rect class="cls-19" x="166.6" y="93.1" width="4.9" height="4.9"/>
      <rect class="cls-23" x="161.7" y="93.1" width="4.9" height="4.9"/>
      <rect class="cls-33" x="156.8" y="93.1" width="4.9" height="4.9"/>
      <rect class="cls-33" x="151.9" y="93.1" width="4.9" height="4.9"/>
      <rect class="cls-33" x="147" y="93.1" width="4.9" height="4.9"/>
      <rect class="cls-33" x="142.1" y="93.1" width="4.9" height="4.9"/>
      <rect class="cls-33" x="137.2" y="93.1" width="4.9" height="4.9"/>
      <rect class="cls-33" x="132.3" y="93.1" width="4.9" height="4.9"/>
      <rect class="cls-11" x="127.4" y="93.1" width="4.9" height="4.9"/>
      <rect class="cls-33" x="122.5" y="93.1" width="4.9" height="4.9"/>
      <rect class="cls-33" x="117.6" y="93.1" width="4.9" height="4.9"/>
      <rect class="cls-11" x="112.7" y="93.1" width="4.9" height="4.9"/>
      <rect class="cls-11" x="107.8" y="93.1" width="4.9" height="4.9"/>
      <rect class="cls-11" x="102.9" y="93.1" width="4.9" height="4.9"/>
      <rect class="cls-33" x="98" y="93.1" width="4.9" height="4.9"/>
      <rect class="cls-11" x="93.1" y="93.1" width="4.9" height="4.9"/>
      <rect class="cls-11" x="88.2" y="93.1" width="4.9" height="4.9"/>
      <rect class="cls-11" x="83.3" y="93.1" width="4.9" height="4.9"/>
      <rect class="cls-11" x="78.4" y="93.1" width="4.9" height="4.9"/>
      <rect class="cls-6" x="73.5" y="93.1" width="4.9" height="4.9"/>
      <rect class="cls-33" x="68.6" y="93.1" width="4.9" height="4.9"/>
      <rect class="cls-33" x="63.7" y="93.1" width="4.9" height="4.9"/>
      <rect class="cls-11" x="58.8" y="93.1" width="4.9" height="4.9"/>
      <rect class="cls-11" x="53.9" y="93.1" width="4.9" height="4.9"/>
      <rect class="cls-33" x="49" y="93.1" width="4.9" height="4.9"/>
      <rect class="cls-33" x="44.1" y="93.1" width="4.9" height="4.9"/>
      <rect class="cls-33" x="39.2" y="93.1" width="4.9" height="4.9"/>
      <rect class="cls-33" x="34.3" y="93.1" width="4.9" height="4.9"/>
      <rect class="cls-33" x="29.4" y="93.1" width="4.9" height="4.9"/>
      <rect class="cls-33" x="24.5" y="93.1" width="4.9" height="4.9"/>
      <rect class="cls-33" x="19.6" y="93.1" width="4.9" height="4.9"/>
      <rect class="cls-33" x="14.7" y="93.1" width="4.9" height="4.9"/>
      <rect class="cls-11" x="9.8" y="93.1" width="4.9" height="4.9"/>
      <rect class="cls-11" x="4.9" y="93.1" width="4.9" height="4.9"/>
      <rect class="cls-33" y="93.1" width="4.9" height="4.9"/>
      <rect class="cls-9" x="220.5" y="88.2" width="4.9" height="4.9"/>
      <rect class="cls-37" x="215.6" y="88.2" width="4.9" height="4.9"/>
      <rect class="cls-11" x="210.7" y="88.2" width="4.9" height="4.9"/>
      <rect class="cls-11" x="205.8" y="88.2" width="4.9" height="4.9"/>
      <rect class="cls-26" x="200.9" y="88.2" width="4.9" height="4.9"/>
      <rect class="cls-59" x="196" y="88.2" width="4.9" height="4.9"/>
      <rect class="cls-11" x="191.1" y="88.2" width="4.9" height="4.9"/>
      <rect class="cls-33" x="186.2" y="88.2" width="4.9" height="4.9"/>
      <rect class="cls-11" x="181.3" y="88.2" width="4.9" height="4.9"/>
      <rect class="cls-11" x="176.4" y="88.2" width="4.9" height="4.9"/>
      <rect class="cls-68" x="171.5" y="88.2" width="4.9" height="4.9"/>
      <rect class="cls-9" x="166.6" y="88.2" width="4.9" height="4.9"/>
      <rect class="cls-61" x="161.7" y="88.2" width="4.9" height="4.9"/>
      <rect class="cls-6" x="156.8" y="88.2" width="4.9" height="4.9"/>
      <rect class="cls-24" x="151.9" y="88.2" width="4.9" height="4.9"/>
      <rect class="cls-33" x="147" y="88.2" width="4.9" height="4.9"/>
      <rect class="cls-23" x="142.1" y="88.2" width="4.9" height="4.9"/>
      <rect class="cls-33" x="137.2" y="88.2" width="4.9" height="4.9"/>
      <rect class="cls-68" x="132.3" y="88.2" width="4.9" height="4.9"/>
      <rect class="cls-6" x="127.4" y="88.2" width="4.9" height="4.9"/>
      <rect class="cls-6" x="122.5" y="88.2" width="4.9" height="4.9"/>
      <rect class="cls-6" x="117.6" y="88.2" width="4.9" height="4.9"/>
      <rect class="cls-24" x="112.7" y="88.2" width="4.9" height="4.9"/>
      <rect class="cls-24" x="107.8" y="88.2" width="4.9" height="4.9"/>
      <rect class="cls-23" x="102.9" y="88.2" width="4.9" height="4.9"/>
      <rect class="cls-33" x="98" y="88.2" width="4.9" height="4.9"/>
      <rect class="cls-33" x="93.1" y="88.2" width="4.9" height="4.9"/>
      <rect class="cls-33" x="88.2" y="88.2" width="4.9" height="4.9"/>
      <rect class="cls-33" x="83.3" y="88.2" width="4.9" height="4.9"/>
      <rect class="cls-33" x="78.4" y="88.2" width="4.9" height="4.9"/>
      <rect class="cls-23" x="73.5" y="88.2" width="4.9" height="4.9"/>
      <rect class="cls-66" x="68.6" y="88.2" width="4.9" height="4.9"/>
      <rect class="cls-47" x="63.7" y="88.2" width="4.9" height="4.9"/>
      <rect class="cls-61" x="58.8" y="88.2" width="4.9" height="4.9"/>
      <rect class="cls-9" x="53.9" y="88.2" width="4.9" height="4.9"/>
      <rect class="cls-11" x="49" y="88.2" width="4.9" height="4.9"/>
      <rect class="cls-33" x="44.1" y="88.2" width="4.9" height="4.9"/>
      <rect class="cls-33" x="39.2" y="88.2" width="4.9" height="4.9"/>
      <rect class="cls-33" x="34.3" y="88.2" width="4.9" height="4.9"/>
      <rect class="cls-33" x="29.4" y="88.2" width="4.9" height="4.9"/>
      <rect class="cls-33" x="24.5" y="88.2" width="4.9" height="4.9"/>
      <rect class="cls-33" x="19.6" y="88.2" width="4.9" height="4.9"/>
      <rect class="cls-33" x="14.7" y="88.2" width="4.9" height="4.9"/>
      <rect class="cls-10" x="9.8" y="88.2" width="4.9" height="4.9"/>
      <rect class="cls-19" x="4.9" y="88.2" width="4.9" height="4.9"/>
      <rect class="cls-46" y="88.2" width="4.9" height="4.9"/>
      <rect class="cls-25" x="210.7" y="83.3" width="4.9" height="4.9"/>
      <rect class="cls-54" x="205.8" y="83.3" width="4.9" height="4.9"/>
      <rect class="cls-19" x="196" y="83.3" width="4.9" height="4.9"/>
      <rect class="cls-11" x="191.1" y="83.3" width="4.9" height="4.9"/>
      <rect class="cls-10" x="186.2" y="83.3" width="4.9" height="4.9"/>
      <rect class="cls-10" x="181.3" y="83.3" width="4.9" height="4.9"/>
      <rect class="cls-10" x="176.4" y="83.3" width="4.9" height="4.9"/>
      <rect class="cls-10" x="171.5" y="83.3" width="4.9" height="4.9"/>
      <rect class="cls-10" x="166.6" y="83.3" width="4.9" height="4.9"/>
      <rect class="cls-11" x="161.7" y="83.3" width="4.9" height="4.9"/>
      <rect class="cls-51" x="156.8" y="83.3" width="4.9" height="4.9"/>
      <rect class="cls-53" x="151.9" y="83.3" width="4.9" height="4.9"/>
      <rect class="cls-66" x="147" y="83.3" width="4.9" height="4.9"/>
      <rect class="cls-22" x="142.1" y="83.3" width="4.9" height="4.9"/>
      <rect class="cls-66" x="137.2" y="83.3" width="4.9" height="4.9"/>
      <rect class="cls-53" x="132.3" y="83.3" width="4.9" height="4.9"/>
      <rect class="cls-33" x="127.4" y="83.3" width="4.9" height="4.9"/>
      <rect class="cls-11" x="122.5" y="83.3" width="4.9" height="4.9"/>
      <rect class="cls-53" x="117.6" y="83.3" width="4.9" height="4.9"/>
      <rect class="cls-60" x="112.7" y="83.3" width="4.9" height="4.9"/>
      <rect class="cls-3" x="107.8" y="83.3" width="4.9" height="4.9"/>
      <rect class="cls-16" x="102.9" y="83.3" width="4.9" height="4.9"/>
      <rect class="cls-10" x="98" y="83.3" width="4.9" height="4.9"/>
      <rect class="cls-10" x="93.1" y="83.3" width="4.9" height="4.9"/>
      <rect class="cls-11" x="88.2" y="83.3" width="4.9" height="4.9"/>
      <rect class="cls-56" x="83.3" y="83.3" width="4.9" height="4.9"/>
      <rect class="cls-11" x="78.4" y="83.3" width="4.9" height="4.9"/>
      <rect class="cls-11" x="73.5" y="83.3" width="4.9" height="4.9"/>
      <rect class="cls-11" x="68.6" y="83.3" width="4.9" height="4.9"/>
      <rect class="cls-11" x="63.7" y="83.3" width="4.9" height="4.9"/>
      <rect class="cls-10" x="58.8" y="83.3" width="4.9" height="4.9"/>
      <rect class="cls-55" x="53.9" y="83.3" width="4.9" height="4.9"/>
      <rect class="cls-11" x="49" y="83.3" width="4.9" height="4.9"/>
      <rect class="cls-23" x="44.1" y="83.3" width="4.9" height="4.9"/>
      <rect class="cls-11" x="39.2" y="83.3" width="4.9" height="4.9"/>
      <rect class="cls-10" x="34.3" y="83.3" width="4.9" height="4.9"/>
      <rect class="cls-11" x="29.4" y="83.3" width="4.9" height="4.9"/>
      <rect class="cls-10" x="24.5" y="83.3" width="4.9" height="4.9"/>
      <rect class="cls-45" x="19.6" y="83.3" width="4.9" height="4.9"/>
      <rect class="cls-10" x="14.7" y="83.3" width="4.9" height="4.9"/>
      <rect class="cls-6" x="9.8" y="83.3" width="4.9" height="4.9"/>
      <rect class="cls-2" x="4.9" y="83.3" width="4.9" height="4.9"/>
      <rect class="cls-9" y="83.3" width="4.9" height="4.9"/>
      <rect class="cls-22" x="191.1" y="78.4" width="4.9" height="4.9"/>
      <rect class="cls-48" x="186.2" y="78.4" width="4.9" height="4.9"/>
      <rect class="cls-11" x="181.3" y="78.4" width="4.9" height="4.9"/>
      <rect class="cls-23" x="176.4" y="78.4" width="4.9" height="4.9"/>
      <rect class="cls-19" x="171.5" y="78.4" width="4.9" height="4.9"/>
      <rect class="cls-57" x="166.6" y="78.4" width="4.9" height="4.9"/>
      <rect class="cls-11" x="161.7" y="78.4" width="4.9" height="4.9"/>
      <rect class="cls-11" x="156.8" y="78.4" width="4.9" height="4.9"/>
      <rect class="cls-11" x="151.9" y="78.4" width="4.9" height="4.9"/>
      <rect class="cls-11" x="147" y="78.4" width="4.9" height="4.9"/>
      <rect class="cls-11" x="142.1" y="78.4" width="4.9" height="4.9"/>
      <rect class="cls-11" x="137.2" y="78.4" width="4.9" height="4.9"/>
      <rect class="cls-11" x="132.3" y="78.4" width="4.9" height="4.9"/>
      <rect class="cls-11" x="127.4" y="78.4" width="4.9" height="4.9"/>
      <rect class="cls-33" x="122.5" y="78.4" width="4.9" height="4.9"/>
      <rect class="cls-33" x="117.6" y="78.4" width="4.9" height="4.9"/>
      <rect class="cls-4" x="112.7" y="78.4" width="4.9" height="4.9"/>
      <rect class="cls-9" x="107.8" y="78.4" width="4.9" height="4.9"/>
      <rect class="cls-61" x="102.9" y="78.4" width="4.9" height="4.9"/>
      <rect class="cls-61" x="98" y="78.4" width="4.9" height="4.9"/>
      <rect class="cls-66" x="93.1" y="78.4" width="4.9" height="4.9"/>
      <rect class="cls-22" x="88.2" y="78.4" width="4.9" height="4.9"/>
      <rect class="cls-10" x="83.3" y="78.4" width="4.9" height="4.9"/>
      <rect class="cls-10" x="78.4" y="78.4" width="4.9" height="4.9"/>
      <rect class="cls-33" x="73.5" y="78.4" width="4.9" height="4.9"/>
      <rect class="cls-33" x="68.6" y="78.4" width="4.9" height="4.9"/>
      <rect class="cls-33" x="63.7" y="78.4" width="4.9" height="4.9"/>
      <rect class="cls-11" x="58.8" y="78.4" width="4.9" height="4.9"/>
      <rect class="cls-1" x="53.9" y="78.4" width="4.9" height="4.9"/>
      <rect class="cls-6" x="49" y="78.4" width="4.9" height="4.9"/>
      <rect class="cls-9" x="44.1" y="78.4" width="4.9" height="4.9"/>
      <rect class="cls-33" x="39.2" y="78.4" width="4.9" height="4.9"/>
      <rect class="cls-11" x="34.3" y="78.4" width="4.9" height="4.9"/>
      <rect class="cls-21" x="29.4" y="78.4" width="4.9" height="4.9"/>
      <rect class="cls-10" x="24.5" y="78.4" width="4.9" height="4.9"/>
      <rect class="cls-23" x="19.6" y="78.4" width="4.9" height="4.9"/>
      <rect class="cls-9" x="14.7" y="78.4" width="4.9" height="4.9"/>
      <rect class="cls-20" x="9.8" y="78.4" width="4.9" height="4.9"/>
      <rect class="cls-11" x="4.9" y="78.4" width="4.9" height="4.9"/>
      <rect class="cls-11" y="78.4" width="4.9" height="4.9"/>
      <rect class="cls-57" x="156.8" y="73.5" width="4.9" height="4.9"/>
      <rect class="cls-43" x="151.9" y="73.5" width="4.9" height="4.9"/>
      <rect class="cls-11" x="147" y="73.5" width="4.9" height="4.9"/>
      <rect class="cls-10" x="142.1" y="73.5" width="4.9" height="4.9"/>
      <rect class="cls-10" x="137.2" y="73.5" width="4.9" height="4.9"/>
      <rect class="cls-10" x="132.3" y="73.5" width="4.9" height="4.9"/>
      <rect class="cls-10" x="127.4" y="73.5" width="4.9" height="4.9"/>
      <rect class="cls-46" x="122.5" y="73.5" width="4.9" height="4.9"/>
      <rect class="cls-11" x="117.6" y="73.5" width="4.9" height="4.9"/>
      <rect class="cls-33" x="112.7" y="73.5" width="4.9" height="4.9"/>
      <rect class="cls-33" x="107.8" y="73.5" width="4.9" height="4.9"/>
      <rect class="cls-33" x="102.9" y="73.5" width="4.9" height="4.9"/>
      <rect class="cls-33" x="98" y="73.5" width="4.9" height="4.9"/>
      <rect class="cls-11" x="93.1" y="73.5" width="4.9" height="4.9"/>
      <rect class="cls-11" x="88.2" y="73.5" width="4.9" height="4.9"/>
      <rect class="cls-57" x="83.3" y="73.5" width="4.9" height="4.9"/>
      <rect class="cls-6" x="78.4" y="73.5" width="4.9" height="4.9"/>
      <rect class="cls-58" x="73.5" y="73.5" width="4.9" height="4.9"/>
      <rect class="cls-11" x="68.6" y="73.5" width="4.9" height="4.9"/>
      <rect class="cls-33" x="63.7" y="73.5" width="4.9" height="4.9"/>
      <rect class="cls-33" x="58.8" y="73.5" width="4.9" height="4.9"/>
      <rect class="cls-33" x="53.9" y="73.5" width="4.9" height="4.9"/>
      <rect class="cls-33" x="49" y="73.5" width="4.9" height="4.9"/>
      <rect class="cls-10" x="44.1" y="73.5" width="4.9" height="4.9"/>
      <rect class="cls-61" x="39.2" y="73.5" width="4.9" height="4.9"/>
      <rect class="cls-5" x="34.3" y="73.5" width="4.9" height="4.9"/>
      <rect class="cls-11" x="29.4" y="73.5" width="4.9" height="4.9"/>
      <rect class="cls-12" x="24.5" y="73.5" width="4.9" height="4.9"/>
      <rect class="cls-57" x="19.6" y="73.5" width="4.9" height="4.9"/>
      <rect class="cls-33" x="14.7" y="73.5" width="4.9" height="4.9"/>
      <rect class="cls-33" x="9.8" y="73.5" width="4.9" height="4.9"/>
      <rect class="cls-33" x="4.9" y="73.5" width="4.9" height="4.9"/>
      <rect class="cls-33" y="73.5" width="4.9" height="4.9"/>
      <rect class="cls-31" x="142.1" y="68.6" width="4.9" height="4.9"/>
      <rect class="cls-6" x="127.4" y="68.6" width="4.9" height="4.9"/>
      <rect class="cls-52" x="122.5" y="68.6" width="4.9" height="4.9"/>
      <rect class="cls-11" x="117.6" y="68.6" width="4.9" height="4.9"/>
      <rect class="cls-33" x="112.7" y="68.6" width="4.9" height="4.9"/>
      <rect class="cls-33" x="107.8" y="68.6" width="4.9" height="4.9"/>
      <rect class="cls-33" x="102.9" y="68.6" width="4.9" height="4.9"/>
      <rect class="cls-33" x="98" y="68.6" width="4.9" height="4.9"/>
      <rect class="cls-11" x="93.1" y="68.6" width="4.9" height="4.9"/>
      <rect class="cls-11" x="88.2" y="68.6" width="4.9" height="4.9"/>
      <rect class="cls-11" x="83.3" y="68.6" width="4.9" height="4.9"/>
      <rect class="cls-11" x="78.4" y="68.6" width="4.9" height="4.9"/>
      <rect class="cls-61" x="73.5" y="68.6" width="4.9" height="4.9"/>
      <rect class="cls-33" x="68.6" y="68.6" width="4.9" height="4.9"/>
      <rect class="cls-33" x="63.7" y="68.6" width="4.9" height="4.9"/>
      <rect class="cls-33" x="58.8" y="68.6" width="4.9" height="4.9"/>
      <rect class="cls-33" x="53.9" y="68.6" width="4.9" height="4.9"/>
      <rect class="cls-33" x="49" y="68.6" width="4.9" height="4.9"/>
      <rect class="cls-11" x="44.1" y="68.6" width="4.9" height="4.9"/>
      <rect class="cls-11" x="39.2" y="68.6" width="4.9" height="4.9"/>
      <rect class="cls-33" x="34.3" y="68.6" width="4.9" height="4.9"/>
      <rect class="cls-10" x="29.4" y="68.6" width="4.9" height="4.9"/>
      <rect class="cls-10" x="24.5" y="68.6" width="4.9" height="4.9"/>
      <rect class="cls-11" x="19.6" y="68.6" width="4.9" height="4.9"/>
      <rect class="cls-11" x="14.7" y="68.6" width="4.9" height="4.9"/>
      <rect class="cls-33" x="9.8" y="68.6" width="4.9" height="4.9"/>
      <rect class="cls-33" x="4.9" y="68.6" width="4.9" height="4.9"/>
      <rect class="cls-33" y="68.6" width="4.9" height="4.9"/>
      <rect class="cls-58" x="127.4" y="63.7" width="4.9" height="4.9"/>
      <rect class="cls-49" x="122.5" y="63.7" width="4.9" height="4.9"/>
      <rect class="cls-11" x="117.6" y="63.7" width="4.9" height="4.9"/>
      <rect class="cls-33" x="112.7" y="63.7" width="4.9" height="4.9"/>
      <rect class="cls-10" x="107.8" y="63.7" width="4.9" height="4.9"/>
      <rect class="cls-56" x="102.9" y="63.7" width="4.9" height="4.9"/>
      <rect class="cls-33" x="98" y="63.7" width="4.9" height="4.9"/>
      <rect class="cls-33" x="93.1" y="63.7" width="4.9" height="4.9"/>
      <rect class="cls-33" x="88.2" y="63.7" width="4.9" height="4.9"/>
      <rect class="cls-33" x="83.3" y="63.7" width="4.9" height="4.9"/>
      <rect class="cls-56" x="78.4" y="63.7" width="4.9" height="4.9"/>
      <rect class="cls-47" x="73.5" y="63.7" width="4.9" height="4.9"/>
      <rect class="cls-11" x="68.6" y="63.7" width="4.9" height="4.9"/>
      <rect class="cls-33" x="63.7" y="63.7" width="4.9" height="4.9"/>
      <rect class="cls-33" x="58.8" y="63.7" width="4.9" height="4.9"/>
      <rect class="cls-33" x="53.9" y="63.7" width="4.9" height="4.9"/>
      <rect class="cls-33" x="49" y="63.7" width="4.9" height="4.9"/>
      <rect class="cls-33" x="44.1" y="63.7" width="4.9" height="4.9"/>
      <rect class="cls-33" x="39.2" y="63.7" width="4.9" height="4.9"/>
      <rect class="cls-10" x="34.3" y="63.7" width="4.9" height="4.9"/>
      <rect class="cls-20" x="29.4" y="63.7" width="4.9" height="4.9"/>
      <rect class="cls-33" x="24.5" y="63.7" width="4.9" height="4.9"/>
      <rect class="cls-33" x="19.6" y="63.7" width="4.9" height="4.9"/>
      <rect class="cls-33" x="14.7" y="63.7" width="4.9" height="4.9"/>
      <rect class="cls-33" x="9.8" y="63.7" width="4.9" height="4.9"/>
      <rect class="cls-33" x="4.9" y="63.7" width="4.9" height="4.9"/>
      <rect class="cls-33" y="63.7" width="4.9" height="4.9"/>
      <rect class="cls-19" x="112.7" y="58.8" width="4.9" height="4.9"/>
      <rect class="cls-57" x="107.8" y="58.8" width="4.9" height="4.9"/>
      <rect class="cls-46" x="102.9" y="58.8" width="4.9" height="4.9"/>
      <rect class="cls-33" x="98" y="58.8" width="4.9" height="4.9"/>
      <rect class="cls-33" x="93.1" y="58.8" width="4.9" height="4.9"/>
      <rect class="cls-33" x="88.2" y="58.8" width="4.9" height="4.9"/>
      <rect class="cls-33" x="83.3" y="58.8" width="4.9" height="4.9"/>
      <rect class="cls-11" x="78.4" y="58.8" width="4.9" height="4.9"/>
      <rect class="cls-36" x="73.5" y="58.8" width="4.9" height="4.9"/>
      <rect class="cls-19" x="68.6" y="58.8" width="4.9" height="4.9"/>
      <rect class="cls-10" x="63.7" y="58.8" width="4.9" height="4.9"/>
      <rect class="cls-11" x="58.8" y="58.8" width="4.9" height="4.9"/>
      <rect class="cls-11" x="53.9" y="58.8" width="4.9" height="4.9"/>
      <rect class="cls-11" x="49" y="58.8" width="4.9" height="4.9"/>
      <rect class="cls-33" x="44.1" y="58.8" width="4.9" height="4.9"/>
      <rect class="cls-33" x="39.2" y="58.8" width="4.9" height="4.9"/>
      <rect class="cls-11" x="34.3" y="58.8" width="4.9" height="4.9"/>
      <rect class="cls-9" x="29.4" y="58.8" width="4.9" height="4.9"/>
      <rect class="cls-10" x="24.5" y="58.8" width="4.9" height="4.9"/>
      <rect class="cls-11" x="19.6" y="58.8" width="4.9" height="4.9"/>
      <rect class="cls-52" x="14.7" y="58.8" width="4.9" height="4.9"/>
      <rect class="cls-33" x="9.8" y="58.8" width="4.9" height="4.9"/>
      <rect class="cls-11" x="4.9" y="58.8" width="4.9" height="4.9"/>
      <rect class="cls-11" y="58.8" width="4.9" height="4.9"/>
      <rect class="cls-6" x="107.8" y="53.9" width="4.9" height="4.9"/>
      <rect class="cls-46" x="102.9" y="53.9" width="4.9" height="4.9"/>
      <rect class="cls-33" x="98" y="53.9" width="4.9" height="4.9"/>
      <rect class="cls-33" x="93.1" y="53.9" width="4.9" height="4.9"/>
      <rect class="cls-33" x="88.2" y="53.9" width="4.9" height="4.9"/>
      <rect class="cls-33" x="83.3" y="53.9" width="4.9" height="4.9"/>
      <rect class="cls-33" x="78.4" y="53.9" width="4.9" height="4.9"/>
      <rect class="cls-11" x="73.5" y="53.9" width="4.9" height="4.9"/>
      <rect class="cls-49" x="68.6" y="53.9" width="4.9" height="4.9"/>
      <rect class="cls-6" x="63.7" y="53.9" width="4.9" height="4.9"/>
      <rect class="cls-61" x="58.8" y="53.9" width="4.9" height="4.9"/>
      <rect class="cls-6" x="53.9" y="53.9" width="4.9" height="4.9"/>
      <rect class="cls-11" x="49" y="53.9" width="4.9" height="4.9"/>
      <rect class="cls-11" x="44.1" y="53.9" width="4.9" height="4.9"/>
      <rect class="cls-33" x="39.2" y="53.9" width="4.9" height="4.9"/>
      <rect class="cls-11" x="34.3" y="53.9" width="4.9" height="4.9"/>
      <rect class="cls-11" x="29.4" y="53.9" width="4.9" height="4.9"/>
      <rect class="cls-6" x="24.5" y="53.9" width="4.9" height="4.9"/>
      <rect class="cls-24" x="19.6" y="53.9" width="4.9" height="4.9"/>
      <rect class="cls-11" x="14.7" y="53.9" width="4.9" height="4.9"/>
      <rect class="cls-33" x="9.8" y="53.9" width="4.9" height="4.9"/>
      <rect class="cls-50" x="4.9" y="53.9" width="4.9" height="4.9"/>
      <rect class="cls-6" y="53.9" width="4.9" height="4.9"/>
      <rect class="cls-8" x="107.8" y="49" width="4.9" height="4.9"/>
      <rect class="cls-40" x="102.9" y="49" width="4.9" height="4.9"/>
      <rect class="cls-56" x="98" y="49" width="4.9" height="4.9"/>
      <rect class="cls-11" x="93.1" y="49" width="4.9" height="4.9"/>
      <rect class="cls-11" x="88.2" y="49" width="4.9" height="4.9"/>
      <rect class="cls-11" x="83.3" y="49" width="4.9" height="4.9"/>
      <rect class="cls-11" x="78.4" y="49" width="4.9" height="4.9"/>
      <rect class="cls-11" x="73.5" y="49" width="4.9" height="4.9"/>
      <rect class="cls-11" x="68.6" y="49" width="4.9" height="4.9"/>
      <rect class="cls-10" x="63.7" y="49" width="4.9" height="4.9"/>
      <rect class="cls-45" x="58.8" y="49" width="4.9" height="4.9"/>
      <rect class="cls-6" x="53.9" y="49" width="4.9" height="4.9"/>
      <rect class="cls-11" x="49" y="49" width="4.9" height="4.9"/>
      <rect class="cls-11" x="44.1" y="49" width="4.9" height="4.9"/>
      <rect class="cls-11" x="39.2" y="49" width="4.9" height="4.9"/>
      <rect class="cls-33" x="34.3" y="49" width="4.9" height="4.9"/>
      <rect class="cls-11" x="29.4" y="49" width="4.9" height="4.9"/>
      <rect class="cls-10" x="24.5" y="49" width="4.9" height="4.9"/>
      <rect class="cls-28" x="19.6" y="49" width="4.9" height="4.9"/>
      <rect class="cls-61" x="14.7" y="49" width="4.9" height="4.9"/>
      <rect class="cls-17" x="9.8" y="49" width="4.9" height="4.9"/>
      <rect class="cls-6" x="4.9" y="49" width="4.9" height="4.9"/>
      <rect class="cls-22" y="49" width="4.9" height="4.9"/>
      <rect class="cls-38" x="98" y="44.1" width="4.9" height="4.9"/>
      <rect class="cls-6" x="93.1" y="44.1" width="4.9" height="4.9"/>
      <rect class="cls-6" x="88.2" y="44.1" width="4.9" height="4.9"/>
      <rect class="cls-9" x="83.3" y="44.1" width="4.9" height="4.9"/>
      <rect class="cls-6" x="78.4" y="44.1" width="4.9" height="4.9"/>
      <rect class="cls-64" x="73.5" y="44.1" width="4.9" height="4.9"/>
      <rect class="cls-6" x="68.6" y="44.1" width="4.9" height="4.9"/>
      <rect class="cls-57" x="63.7" y="44.1" width="4.9" height="4.9"/>
      <rect class="cls-33" x="58.8" y="44.1" width="4.9" height="4.9"/>
      <rect class="cls-11" x="53.9" y="44.1" width="4.9" height="4.9"/>
      <rect class="cls-33" x="49" y="44.1" width="4.9" height="4.9"/>
      <rect class="cls-41" x="44.1" y="44.1" width="4.9" height="4.9"/>
      <rect class="cls-45" x="39.2" y="44.1" width="4.9" height="4.9"/>
      <rect class="cls-11" x="34.3" y="44.1" width="4.9" height="4.9"/>
      <rect class="cls-11" x="29.4" y="44.1" width="4.9" height="4.9"/>
      <rect class="cls-11" x="24.5" y="44.1" width="4.9" height="4.9"/>
      <rect class="cls-33" x="19.6" y="44.1" width="4.9" height="4.9"/>
      <rect class="cls-33" x="14.7" y="44.1" width="4.9" height="4.9"/>
      <rect class="cls-11" x="9.8" y="44.1" width="4.9" height="4.9"/>
      <rect class="cls-33" x="4.9" y="44.1" width="4.9" height="4.9"/>
      <rect class="cls-11" y="44.1" width="4.9" height="4.9"/>
      <rect class="cls-17" x="73.5" y="39.2" width="4.9" height="4.9"/>
      <rect class="cls-2" x="68.6" y="39.2" width="4.9" height="4.9"/>
      <rect class="cls-11" x="63.7" y="39.2" width="4.9" height="4.9"/>
      <rect class="cls-33" x="58.8" y="39.2" width="4.9" height="4.9"/>
      <rect class="cls-33" x="53.9" y="39.2" width="4.9" height="4.9"/>
      <rect class="cls-33" x="49" y="39.2" width="4.9" height="4.9"/>
      <rect class="cls-57" x="44.1" y="39.2" width="4.9" height="4.9"/>
      <rect class="cls-34" x="39.2" y="39.2" width="4.9" height="4.9"/>
      <rect class="cls-10" x="34.3" y="39.2" width="4.9" height="4.9"/>
      <rect class="cls-11" x="29.4" y="39.2" width="4.9" height="4.9"/>
      <rect class="cls-11" x="24.5" y="39.2" width="4.9" height="4.9"/>
      <rect class="cls-33" x="19.6" y="39.2" width="4.9" height="4.9"/>
      <rect class="cls-33" x="14.7" y="39.2" width="4.9" height="4.9"/>
      <rect class="cls-33" x="9.8" y="39.2" width="4.9" height="4.9"/>
      <rect class="cls-33" x="4.9" y="39.2" width="4.9" height="4.9"/>
      <rect class="cls-33" y="39.2" width="4.9" height="4.9"/>
      <rect class="cls-15" x="78.4" y="34.3" width="4.9" height="4.9"/>
      <rect class="cls-9" x="73.5" y="34.3" width="4.9" height="4.9"/>
      <rect class="cls-55" x="68.6" y="34.3" width="4.9" height="4.9"/>
      <rect class="cls-11" x="63.7" y="34.3" width="4.9" height="4.9"/>
      <rect class="cls-33" x="58.8" y="34.3" width="4.9" height="4.9"/>
      <rect class="cls-33" x="53.9" y="34.3" width="4.9" height="4.9"/>
      <rect class="cls-11" x="49" y="34.3" width="4.9" height="4.9"/>
      <rect class="cls-11" x="44.1" y="34.3" width="4.9" height="4.9"/>
      <rect class="cls-5" x="39.2" y="34.3" width="4.9" height="4.9"/>
      <rect class="cls-66" x="34.3" y="34.3" width="4.9" height="4.9"/>
      <rect class="cls-6" x="29.4" y="34.3" width="4.9" height="4.9"/>
      <rect class="cls-62" x="24.5" y="34.3" width="4.9" height="4.9"/>
      <rect class="cls-11" x="19.6" y="34.3" width="4.9" height="4.9"/>
      <rect class="cls-11" x="14.7" y="34.3" width="4.9" height="4.9"/>
      <rect class="cls-11" x="9.8" y="34.3" width="4.9" height="4.9"/>
      <rect class="cls-33" x="4.9" y="34.3" width="4.9" height="4.9"/>
      <rect class="cls-33" y="34.3" width="4.9" height="4.9"/>
      <rect class="cls-67" x="73.5" y="29.4" width="4.9" height="4.9"/>
      <rect class="cls-63" x="68.6" y="29.4" width="4.9" height="4.9"/>
      <rect class="cls-61" x="63.7" y="29.4" width="4.9" height="4.9"/>
      <rect class="cls-33" x="58.8" y="29.4" width="4.9" height="4.9"/>
      <rect class="cls-56" x="53.9" y="29.4" width="4.9" height="4.9"/>
      <rect class="cls-62" x="49" y="29.4" width="4.9" height="4.9"/>
      <rect class="cls-45" x="44.1" y="29.4" width="4.9" height="4.9"/>
      <rect class="cls-11" x="39.2" y="29.4" width="4.9" height="4.9"/>
      <rect class="cls-11" x="34.3" y="29.4" width="4.9" height="4.9"/>
      <rect class="cls-68" x="29.4" y="29.4" width="4.9" height="4.9"/>
      <rect class="cls-67" x="24.5" y="29.4" width="4.9" height="4.9"/>
      <rect class="cls-28" x="19.6" y="29.4" width="4.9" height="4.9"/>
      <rect class="cls-61" x="14.7" y="29.4" width="4.9" height="4.9"/>
      <rect class="cls-11" x="9.8" y="29.4" width="4.9" height="4.9"/>
      <rect class="cls-33" x="4.9" y="29.4" width="4.9" height="4.9"/>
      <rect class="cls-33" y="29.4" width="4.9" height="4.9"/>
      <rect class="cls-14" x="73.5" y="24.5" width="4.9" height="4.9"/>
      <rect class="cls-9" x="68.6" y="24.5" width="4.9" height="4.9"/>
      <rect class="cls-6" x="63.7" y="24.5" width="4.9" height="4.9"/>
      <rect class="cls-6" x="58.8" y="24.5" width="4.9" height="4.9"/>
      <rect class="cls-61" x="53.9" y="24.5" width="4.9" height="4.9"/>
      <rect class="cls-11" x="49" y="24.5" width="4.9" height="4.9"/>
      <rect class="cls-33" x="44.1" y="24.5" width="4.9" height="4.9"/>
      <rect class="cls-33" x="39.2" y="24.5" width="4.9" height="4.9"/>
      <rect class="cls-33" x="34.3" y="24.5" width="4.9" height="4.9"/>
      <rect class="cls-33" x="29.4" y="24.5" width="4.9" height="4.9"/>
      <rect class="cls-33" x="24.5" y="24.5" width="4.9" height="4.9"/>
      <rect class="cls-10" x="19.6" y="24.5" width="4.9" height="4.9"/>
      <rect class="cls-13" x="14.7" y="24.5" width="4.9" height="4.9"/>
      <rect class="cls-10" x="9.8" y="24.5" width="4.9" height="4.9"/>
      <rect class="cls-33" x="4.9" y="24.5" width="4.9" height="4.9"/>
      <rect class="cls-33" y="24.5" width="4.9" height="4.9"/>
      <rect class="cls-9" x="58.8" y="19.6" width="4.9" height="4.9"/>
      <rect class="cls-61" x="53.9" y="19.6" width="4.9" height="4.9"/>
      <rect class="cls-11" x="49" y="19.6" width="4.9" height="4.9"/>
      <rect class="cls-11" x="44.1" y="19.6" width="4.9" height="4.9"/>
      <rect class="cls-11" x="39.2" y="19.6" width="4.9" height="4.9"/>
      <rect class="cls-33" x="34.3" y="19.6" width="4.9" height="4.9"/>
      <rect class="cls-33" x="29.4" y="19.6" width="4.9" height="4.9"/>
      <rect class="cls-33" x="24.5" y="19.6" width="4.9" height="4.9"/>
      <rect class="cls-33" x="19.6" y="19.6" width="4.9" height="4.9"/>
      <rect class="cls-11" x="14.7" y="19.6" width="4.9" height="4.9"/>
      <rect class="cls-11" x="9.8" y="19.6" width="4.9" height="4.9"/>
      <rect class="cls-33" x="4.9" y="19.6" width="4.9" height="4.9"/>
      <rect class="cls-33" y="19.6" width="4.9" height="4.9"/>
      <rect class="cls-65" x="58.8" y="14.7" width="4.9" height="4.9"/>
      <rect class="cls-57" x="53.9" y="14.7" width="4.9" height="4.9"/>
      <rect class="cls-24" x="49" y="14.7" width="4.9" height="4.9"/>
      <rect class="cls-23" x="44.1" y="14.7" width="4.9" height="4.9"/>
      <rect class="cls-33" x="39.2" y="14.7" width="4.9" height="4.9"/>
      <rect class="cls-33" x="34.3" y="14.7" width="4.9" height="4.9"/>
      <rect class="cls-33" x="29.4" y="14.7" width="4.9" height="4.9"/>
      <rect class="cls-33" x="24.5" y="14.7" width="4.9" height="4.9"/>
      <rect class="cls-10" x="19.6" y="14.7" width="4.9" height="4.9"/>
      <rect class="cls-10" x="14.7" y="14.7" width="4.9" height="4.9"/>
      <rect class="cls-33" x="9.8" y="14.7" width="4.9" height="4.9"/>
      <rect class="cls-33" x="4.9" y="14.7" width="4.9" height="4.9"/>
      <rect class="cls-33" y="14.7" width="4.9" height="4.9"/>
      <rect class="cls-39" x="49" y="9.8" width="4.9" height="4.9"/>
      <rect class="cls-61" x="44.1" y="9.8" width="4.9" height="4.9"/>
      <rect class="cls-61" x="39.2" y="9.8" width="4.9" height="4.9"/>
      <rect class="cls-6" x="34.3" y="9.8" width="4.9" height="4.9"/>
      <rect class="cls-9" x="29.4" y="9.8" width="4.9" height="4.9"/>
      <rect class="cls-42" x="24.5" y="9.8" width="4.9" height="4.9"/>
      <rect class="cls-61" x="19.6" y="9.8" width="4.9" height="4.9"/>
      <rect class="cls-11" x="14.7" y="9.8" width="4.9" height="4.9"/>
      <rect class="cls-33" x="9.8" y="9.8" width="4.9" height="4.9"/>
      <rect class="cls-33" x="4.9" y="9.8" width="4.9" height="4.9"/>
      <rect class="cls-33" y="9.8" width="4.9" height="4.9"/>
      <rect class="cls-61" x="19.6" y="4.9" width="4.9" height="4.9"/>
      <rect class="cls-51" x="14.7" y="4.9" width="4.9" height="4.9"/>
      <rect class="cls-11" x="9.8" y="4.9" width="4.9" height="4.9"/>
      <rect class="cls-11" x="4.9" y="4.9" width="4.9" height="4.9"/>
      <rect class="cls-11" y="4.9" width="4.9" height="4.9"/>
      <rect class="cls-27" x="9.8" width="4.9" height="4.9"/>
    </g>
  </g>
</svg>