<?xml version="1.0" encoding="UTF-8"?>
<svg id="Layer_2" data-name="Layer 2" xmlns="http://www.w3.org/2000/svg" viewBox="0 0 214.2 85.68">
  <defs>
    <style>
      .cls-1 {
        fill: #cc7adc;
      }

      .cls-2 {
        fill: #cd7ddd;
      }

      .cls-3 {
        fill: #e3b7ec;
      }

      .cls-4 {
        fill: #b399ff;
      }

      .cls-5 {
        fill: #fdffff;
      }

      .cls-6 {
        fill: #bca6ff;
      }

      .cls-7 {
        fill: #fff;
      }

      .cls-8 {
        fill: #d797e4;
      }

      .cls-9 {
        fill: #a385ff;
      }

      .cls-10 {
        fill: #b39aff;
      }

      .cls-11 {
        fill: #bc89e1;
      }

      .cls-12 {
        fill: #b9a2ff;
      }

      .cls-13 {
        fill: #ca75db;
      }

      .cls-14 {
        fill: #a688ff;
      }

      .cls-15 {
        fill: #d187e0;
      }

      .cls-16 {
        fill: #d99be5;
      }

      .cls-17 {
        fill: #fefefc;
      }

      .cls-18 {
        fill: #d694e3;
      }

      .cls-19 {
        fill: #c76cd9;
      }

      .cls-20 {
        fill: #fcffff;
      }

      .cls-21 {
        fill: #bba4ff;
      }

      .cls-22 {
        fill: #da9ee6;
      }

      .cls-23 {
        fill: #fefffb;
      }

      .cls-24 {
        fill: #e3b6ec;
      }

      .cls-25 {
        fill: #fefefd;
      }

      .cls-26 {
        fill: #c0abff;
      }

      .cls-27 {
        fill: #dda7e8;
      }

      .cls-28 {
        fill: #ac90ff;
      }

      .cls-29 {
        fill: #dfabe9;
      }

      .cls-30 {
        fill: #fefeff;
      }

      .cls-31 {
        fill: #fefffc;
      }

      .cls-32 {
        fill: #c1acff;
      }

      .cls-33 {
        fill: #d084df;
      }

      .cls-34 {
        fill: #c972da;
      }

      .cls-35 {
        fill: #af94ff;
      }

      .cls-36 {
        fill: #fdfffd;
      }

      .cls-37 {
        fill: #fcfffe;
      }

      .cls-38 {
        fill: #be8be2;
      }

      .cls-39 {
        fill: #fffffd;
      }

      .cls-40 {
        fill: #fefefe;
      }

      .cls-41 {
        fill: #dda6e8;
      }

      .cls-42 {
        fill: #e9a6ff;
      }

      .cls-43 {
        fill: #e7c0ef;
      }

      .cls-44 {
        fill: #fffffe;
      }

      .cls-45 {
        fill: #feffff;
      }

      .cls-46 {
        fill: #b59dff;
      }

      .cls-47 {
        fill: #e1b0ea;
      }
    </style>
  </defs>
  <g id="Layer_1-2" data-name="Layer 1">
    <g>
      <rect class="cls-38" x="97.92" y="79.56" width="6.12" height="6.12"/>
      <rect class="cls-38" x="91.8" y="79.56" width="6.12" height="6.12"/>
      <rect class="cls-38" x="85.68" y="79.56" width="6.12" height="6.12"/>
      <rect class="cls-38" x="79.56" y="79.56" width="6.12" height="6.12"/>
      <rect class="cls-38" x="73.44" y="79.56" width="6.12" height="6.12"/>
      <rect class="cls-38" x="67.32" y="79.56" width="6.12" height="6.12"/>
      <rect class="cls-38" x="61.2" y="79.56" width="6.12" height="6.12"/>
      <rect class="cls-38" x="55.08" y="79.56" width="6.12" height="6.12"/>
      <rect class="cls-38" x="42.84" y="79.56" width="6.12" height="6.12"/>
      <rect class="cls-38" x="36.72" y="79.56" width="6.12" height="6.12"/>
      <rect class="cls-38" x="97.92" y="73.44" width="6.12" height="6.12"/>
      <rect class="cls-38" x="91.8" y="73.44" width="6.12" height="6.12"/>
      <rect class="cls-38" x="85.68" y="73.44" width="6.12" height="6.12"/>
      <rect class="cls-38" x="79.56" y="73.44" width="6.12" height="6.12"/>
      <rect class="cls-38" x="73.44" y="73.44" width="6.12" height="6.12"/>
      <rect class="cls-38" x="67.32" y="73.44" width="6.12" height="6.12"/>
      <rect class="cls-38" x="61.2" y="73.44" width="6.12" height="6.12"/>
      <rect class="cls-38" x="55.08" y="73.44" width="6.12" height="6.12"/>
      <rect class="cls-38" x="48.96" y="73.44" width="6.12" height="6.12"/>
      <rect class="cls-38" x="42.84" y="73.44" width="6.12" height="6.12"/>
      <rect class="cls-38" x="36.72" y="73.44" width="6.12" height="6.12"/>
      <rect class="cls-38" x="30.6" y="73.44" width="6.12" height="6.12"/>
      <rect class="cls-38" x="128.52" y="67.32" width="6.12" height="6.12"/>
      <rect class="cls-38" x="122.4" y="67.32" width="6.12" height="6.12"/>
      <rect class="cls-38" x="116.28" y="67.32" width="6.12" height="6.12"/>
      <rect class="cls-38" x="110.16" y="67.32" width="6.12" height="6.12"/>
      <rect class="cls-38" x="104.04" y="67.32" width="6.12" height="6.12"/>
      <rect class="cls-38" x="97.92" y="67.32" width="6.12" height="6.12"/>
      <rect class="cls-38" x="91.8" y="67.32" width="6.12" height="6.12"/>
      <rect class="cls-38" x="85.68" y="67.32" width="6.12" height="6.12"/>
      <rect class="cls-38" x="79.56" y="67.32" width="6.12" height="6.12"/>
      <rect class="cls-38" x="73.44" y="67.32" width="6.12" height="6.12"/>
      <rect class="cls-38" x="67.32" y="67.32" width="6.12" height="6.12"/>
      <rect class="cls-38" x="61.2" y="67.32" width="6.12" height="6.12"/>
      <rect class="cls-38" x="55.08" y="67.32" width="6.12" height="6.12"/>
      <rect class="cls-38" x="48.96" y="67.32" width="6.12" height="6.12"/>
      <rect class="cls-38" x="42.84" y="67.32" width="6.12" height="6.12"/>
      <rect class="cls-38" x="36.72" y="67.32" width="6.12" height="6.12"/>
      <rect class="cls-38" x="30.6" y="67.32" width="6.12" height="6.12"/>
      <rect class="cls-38" x="24.48" y="67.32" width="6.12" height="6.12"/>
      <rect class="cls-38" x="18.36" y="67.32" width="6.12" height="6.12"/>
      <rect class="cls-38" x="12.24" y="67.32" width="6.12" height="6.12"/>
      <rect class="cls-38" x="6.12" y="67.32" width="6.12" height="6.12"/>
      <rect class="cls-38" x="134.64" y="61.2" width="6.12" height="6.12"/>
      <rect class="cls-38" x="128.52" y="61.2" width="6.12" height="6.12"/>
      <rect class="cls-38" x="122.4" y="61.2" width="6.12" height="6.12"/>
      <rect class="cls-38" x="116.28" y="61.2" width="6.12" height="6.12"/>
      <rect class="cls-38" x="110.16" y="61.2" width="6.12" height="6.12"/>
      <rect class="cls-38" x="104.04" y="61.2" width="6.12" height="6.12"/>
      <rect class="cls-38" x="97.92" y="61.2" width="6.12" height="6.12"/>
      <rect class="cls-38" x="91.8" y="61.2" width="6.12" height="6.12"/>
      <rect class="cls-38" x="85.68" y="61.2" width="6.12" height="6.12"/>
      <rect class="cls-38" x="79.56" y="61.2" width="6.12" height="6.12"/>
      <rect class="cls-38" x="73.44" y="61.2" width="6.12" height="6.12"/>
      <rect class="cls-38" x="67.32" y="61.2" width="6.12" height="6.12"/>
      <rect class="cls-38" x="61.2" y="61.2" width="6.12" height="6.12"/>
      <rect class="cls-38" x="55.08" y="61.2" width="6.12" height="6.12"/>
      <rect class="cls-38" x="48.96" y="61.2" width="6.12" height="6.12"/>
      <rect class="cls-38" x="42.84" y="61.2" width="6.12" height="6.12"/>
      <rect class="cls-38" x="36.72" y="61.2" width="6.12" height="6.12"/>
      <rect class="cls-38" x="30.6" y="61.2" width="6.12" height="6.12"/>
      <rect class="cls-38" x="24.48" y="61.2" width="6.12" height="6.12"/>
      <rect class="cls-38" x="18.36" y="61.2" width="6.12" height="6.12"/>
      <rect class="cls-38" x="12.24" y="61.2" width="6.12" height="6.12"/>
      <rect class="cls-38" x="6.12" y="61.2" width="6.12" height="6.12"/>
      <rect class="cls-38" x="153" y="55.08" width="6.12" height="6.12"/>
      <rect class="cls-38" x="146.88" y="55.08" width="6.12" height="6.12"/>
      <rect class="cls-38" x="140.76" y="55.08" width="6.12" height="6.12"/>
      <rect class="cls-38" x="134.64" y="55.08" width="6.12" height="6.12"/>
      <rect class="cls-38" x="128.52" y="55.08" width="6.12" height="6.12"/>
      <rect class="cls-38" x="122.4" y="55.08" width="6.12" height="6.12"/>
      <rect class="cls-38" x="116.28" y="55.08" width="6.12" height="6.12"/>
      <rect class="cls-38" x="110.16" y="55.08" width="6.12" height="6.12"/>
      <rect class="cls-38" x="104.04" y="55.08" width="6.12" height="6.12"/>
      <rect class="cls-38" x="97.92" y="55.08" width="6.12" height="6.12"/>
      <rect class="cls-38" x="91.8" y="55.08" width="6.12" height="6.12"/>
      <rect class="cls-38" x="85.68" y="55.08" width="6.12" height="6.12"/>
      <rect class="cls-38" x="79.56" y="55.08" width="6.12" height="6.12"/>
      <rect class="cls-38" x="73.44" y="55.08" width="6.12" height="6.12"/>
      <rect class="cls-38" x="67.32" y="55.08" width="6.12" height="6.12"/>
      <rect class="cls-29" x="61.2" y="55.08" width="6.12" height="6.12"/>
      <rect class="cls-5" x="55.08" y="55.08" width="6.12" height="6.12"/>
      <rect class="cls-38" x="48.96" y="55.08" width="6.12" height="6.12"/>
      <rect class="cls-38" x="42.84" y="55.08" width="6.12" height="6.12"/>
      <rect class="cls-38" x="36.72" y="55.08" width="6.12" height="6.12"/>
      <rect class="cls-38" x="30.6" y="55.08" width="6.12" height="6.12"/>
      <rect class="cls-38" x="24.48" y="55.08" width="6.12" height="6.12"/>
      <rect class="cls-38" x="18.36" y="55.08" width="6.12" height="6.12"/>
      <rect class="cls-38" x="12.24" y="55.08" width="6.12" height="6.12"/>
      <rect class="cls-38" x="6.12" y="55.08" width="6.12" height="6.12"/>
      <rect class="cls-38" y="55.08" width="6.12" height="6.12"/>
      <rect class="cls-38" x="183.6" y="48.96" width="6.12" height="6.12"/>
      <rect class="cls-38" x="177.48" y="48.96" width="6.12" height="6.12"/>
      <rect class="cls-38" x="171.36" y="48.96" width="6.12" height="6.12"/>
      <rect class="cls-38" x="165.24" y="48.96" width="6.12" height="6.12"/>
      <rect class="cls-38" x="159.12" y="48.96" width="6.12" height="6.12"/>
      <rect class="cls-38" x="153" y="48.96" width="6.12" height="6.12"/>
      <rect class="cls-38" x="146.88" y="48.96" width="6.12" height="6.12"/>
      <rect class="cls-38" x="140.76" y="48.96" width="6.12" height="6.12"/>
      <rect class="cls-38" x="134.64" y="48.96" width="6.12" height="6.12"/>
      <rect class="cls-38" x="128.52" y="48.96" width="6.12" height="6.12"/>
      <rect class="cls-38" x="122.4" y="48.96" width="6.12" height="6.12"/>
      <rect class="cls-38" x="116.28" y="48.96" width="6.12" height="6.12"/>
      <rect class="cls-38" x="110.16" y="48.96" width="6.12" height="6.12"/>
      <rect class="cls-38" x="104.04" y="48.96" width="6.12" height="6.12"/>
      <rect class="cls-38" x="97.92" y="48.96" width="6.12" height="6.12"/>
      <rect class="cls-38" x="91.8" y="48.96" width="6.12" height="6.12"/>
      <rect class="cls-38" x="85.68" y="48.96" width="6.12" height="6.12"/>
      <rect class="cls-38" x="79.56" y="48.96" width="6.12" height="6.12"/>
      <rect class="cls-38" x="73.44" y="48.96" width="6.12" height="6.12"/>
      <rect class="cls-38" x="67.32" y="48.96" width="6.12" height="6.12"/>
      <rect class="cls-47" x="61.2" y="48.96" width="6.12" height="6.12"/>
      <rect class="cls-5" x="55.08" y="48.96" width="6.12" height="6.12"/>
      <rect class="cls-38" x="48.96" y="48.96" width="6.12" height="6.12"/>
      <rect class="cls-38" x="42.84" y="48.96" width="6.12" height="6.12"/>
      <rect class="cls-38" x="36.72" y="48.96" width="6.12" height="6.12"/>
      <rect class="cls-38" x="30.6" y="48.96" width="6.12" height="6.12"/>
      <rect class="cls-38" x="24.48" y="48.96" width="6.12" height="6.12"/>
      <rect class="cls-38" x="18.36" y="48.96" width="6.12" height="6.12"/>
      <rect class="cls-5" x="12.24" y="48.96" width="6.12" height="6.12"/>
      <rect class="cls-38" x="6.12" y="48.96" width="6.12" height="6.12"/>
      <rect class="cls-38" y="48.96" width="6.12" height="6.12"/>
      <rect class="cls-38" x="208.08" y="42.84" width="6.12" height="6.12"/>
      <rect class="cls-38" x="201.96" y="42.84" width="6.12" height="6.12"/>
      <rect class="cls-38" x="195.84" y="42.84" width="6.12" height="6.12"/>
      <rect class="cls-38" x="189.72" y="42.84" width="6.12" height="6.12"/>
      <rect class="cls-38" x="183.6" y="42.84" width="6.12" height="6.12"/>
      <rect class="cls-38" x="177.48" y="42.84" width="6.12" height="6.12"/>
      <rect class="cls-38" x="171.36" y="42.84" width="6.12" height="6.12"/>
      <rect class="cls-38" x="165.24" y="42.84" width="6.12" height="6.12"/>
      <rect class="cls-38" x="159.12" y="42.84" width="6.12" height="6.12"/>
      <rect class="cls-5" x="153" y="42.84" width="6.12" height="6.12"/>
      <rect class="cls-2" x="146.88" y="42.84" width="6.12" height="6.12"/>
      <rect class="cls-38" x="140.76" y="42.84" width="6.12" height="6.12"/>
      <rect class="cls-38" x="134.64" y="42.84" width="6.12" height="6.12"/>
      <rect class="cls-38" x="128.52" y="42.84" width="6.12" height="6.12"/>
      <rect class="cls-38" x="122.4" y="42.84" width="6.12" height="6.12"/>
      <rect class="cls-38" x="116.28" y="42.84" width="6.12" height="6.12"/>
      <rect class="cls-38" x="110.16" y="42.84" width="6.12" height="6.12"/>
      <rect class="cls-38" x="104.04" y="42.84" width="6.12" height="6.12"/>
      <rect class="cls-38" x="97.92" y="42.84" width="6.12" height="6.12"/>
      <rect class="cls-38" x="91.8" y="42.84" width="6.12" height="6.12"/>
      <rect class="cls-38" x="85.68" y="42.84" width="6.12" height="6.12"/>
      <rect class="cls-38" x="79.56" y="42.84" width="6.12" height="6.12"/>
      <rect class="cls-38" x="73.44" y="42.84" width="6.12" height="6.12"/>
      <rect class="cls-5" x="67.32" y="42.84" width="6.12" height="6.12"/>
      <rect class="cls-40" x="61.2" y="42.84" width="6.12" height="6.12"/>
      <rect class="cls-26" x="55.08" y="42.84" width="6.12" height="6.12"/>
      <rect class="cls-38" x="48.96" y="42.84" width="6.12" height="6.12"/>
      <rect class="cls-38" x="42.84" y="42.84" width="6.12" height="6.12"/>
      <rect class="cls-38" x="36.72" y="42.84" width="6.12" height="6.12"/>
      <rect class="cls-38" x="30.6" y="42.84" width="6.12" height="6.12"/>
      <rect class="cls-38" x="24.48" y="42.84" width="6.12" height="6.12"/>
      <rect class="cls-38" x="18.36" y="42.84" width="6.12" height="6.12"/>
      <rect class="cls-27" x="12.24" y="42.84" width="6.12" height="6.12"/>
      <rect class="cls-1" x="6.12" y="42.84" width="6.12" height="6.12"/>
      <rect class="cls-38" y="42.84" width="6.12" height="6.12"/>
      <rect class="cls-5" x="208.08" y="36.72" width="6.12" height="6.12"/>
      <rect class="cls-5" x="201.96" y="36.72" width="6.12" height="6.12"/>
      <rect class="cls-5" x="195.84" y="36.72" width="6.12" height="6.12"/>
      <rect class="cls-38" x="189.72" y="36.72" width="6.12" height="6.12"/>
      <rect class="cls-38" x="183.6" y="36.72" width="6.12" height="6.12"/>
      <rect class="cls-5" x="177.48" y="36.72" width="6.12" height="6.12"/>
      <rect class="cls-5" x="171.36" y="36.72" width="6.12" height="6.12"/>
      <rect class="cls-41" x="165.24" y="36.72" width="6.12" height="6.12"/>
      <rect class="cls-18" x="159.12" y="36.72" width="6.12" height="6.12"/>
      <rect class="cls-41" x="153" y="36.72" width="6.12" height="6.12"/>
      <rect class="cls-43" x="146.88" y="36.72" width="6.12" height="6.12"/>
      <rect class="cls-38" x="140.76" y="36.72" width="6.12" height="6.12"/>
      <rect class="cls-38" x="134.64" y="36.72" width="6.12" height="6.12"/>
      <rect class="cls-38" x="128.52" y="36.72" width="6.12" height="6.12"/>
      <rect class="cls-38" x="122.4" y="36.72" width="6.12" height="6.12"/>
      <rect class="cls-5" x="116.28" y="36.72" width="6.12" height="6.12"/>
      <rect class="cls-5" x="110.16" y="36.72" width="6.12" height="6.12"/>
      <rect class="cls-38" x="104.04" y="36.72" width="6.12" height="6.12"/>
      <rect class="cls-38" x="97.92" y="36.72" width="6.12" height="6.12"/>
      <rect class="cls-38" x="91.8" y="36.72" width="6.12" height="6.12"/>
      <rect class="cls-38" x="85.68" y="36.72" width="6.12" height="6.12"/>
      <rect class="cls-38" x="79.56" y="36.72" width="6.12" height="6.12"/>
      <rect class="cls-38" x="73.44" y="36.72" width="6.12" height="6.12"/>
      <rect class="cls-36" x="67.32" y="36.72" width="6.12" height="6.12"/>
      <rect class="cls-7" x="61.2" y="36.72" width="6.12" height="6.12"/>
      <rect class="cls-27" x="55.08" y="36.72" width="6.12" height="6.12"/>
      <rect class="cls-38" x="48.96" y="36.72" width="6.12" height="6.12"/>
      <rect class="cls-11" x="42.84" y="36.72" width="6.12" height="6.12"/>
      <rect class="cls-38" x="36.72" y="36.72" width="6.12" height="6.12"/>
      <rect class="cls-38" x="30.6" y="36.72" width="6.12" height="6.12"/>
      <rect class="cls-38" x="24.48" y="36.72" width="6.12" height="6.12"/>
      <rect class="cls-38" x="18.36" y="36.72" width="6.12" height="6.12"/>
      <rect class="cls-20" x="12.24" y="36.72" width="6.12" height="6.12"/>
      <rect class="cls-18" x="6.12" y="36.72" width="6.12" height="6.12"/>
      <rect class="cls-5" y="36.72" width="6.12" height="6.12"/>
      <rect class="cls-12" x="165.24" y="30.6" width="6.12" height="6.12"/>
      <rect class="cls-24" x="159.12" y="30.6" width="6.12" height="6.12"/>
      <rect class="cls-40" x="153" y="30.6" width="6.12" height="6.12"/>
      <rect class="cls-24" x="146.88" y="30.6" width="6.12" height="6.12"/>
      <rect class="cls-16" x="140.76" y="30.6" width="6.12" height="6.12"/>
      <rect class="cls-47" x="134.64" y="30.6" width="6.12" height="6.12"/>
      <rect class="cls-47" x="128.52" y="30.6" width="6.12" height="6.12"/>
      <rect class="cls-1" x="122.4" y="30.6" width="6.12" height="6.12"/>
      <rect class="cls-16" x="116.28" y="30.6" width="6.12" height="6.12"/>
      <rect class="cls-43" x="110.16" y="30.6" width="6.12" height="6.12"/>
      <rect class="cls-26" x="104.04" y="30.6" width="6.12" height="6.12"/>
      <rect class="cls-5" x="97.92" y="30.6" width="6.12" height="6.12"/>
      <rect class="cls-5" x="91.8" y="30.6" width="6.12" height="6.12"/>
      <rect class="cls-5" x="85.68" y="30.6" width="6.12" height="6.12"/>
      <rect class="cls-47" x="79.56" y="30.6" width="6.12" height="6.12"/>
      <rect class="cls-30" x="73.44" y="30.6" width="6.12" height="6.12"/>
      <rect class="cls-7" x="67.32" y="30.6" width="6.12" height="6.12"/>
      <rect class="cls-31" x="61.2" y="30.6" width="6.12" height="6.12"/>
      <rect class="cls-40" x="55.08" y="30.6" width="6.12" height="6.12"/>
      <rect class="cls-32" x="48.96" y="30.6" width="6.12" height="6.12"/>
      <rect class="cls-8" x="42.84" y="30.6" width="6.12" height="6.12"/>
      <rect class="cls-15" x="36.72" y="30.6" width="6.12" height="6.12"/>
      <rect class="cls-16" x="30.6" y="30.6" width="6.12" height="6.12"/>
      <rect class="cls-41" x="24.48" y="30.6" width="6.12" height="6.12"/>
      <rect class="cls-32" x="18.36" y="30.6" width="6.12" height="6.12"/>
      <rect class="cls-47" x="12.24" y="30.6" width="6.12" height="6.12"/>
      <rect class="cls-13" x="6.12" y="30.6" width="6.12" height="6.12"/>
      <rect class="cls-38" x="165.24" y="24.48" width="6.12" height="6.12"/>
      <rect class="cls-22" x="159.12" y="24.48" width="6.12" height="6.12"/>
      <rect class="cls-37" x="153" y="24.48" width="6.12" height="6.12"/>
      <rect class="cls-47" x="146.88" y="24.48" width="6.12" height="6.12"/>
      <rect class="cls-3" x="140.76" y="24.48" width="6.12" height="6.12"/>
      <rect class="cls-17" x="134.64" y="24.48" width="6.12" height="6.12"/>
      <rect class="cls-3" x="128.52" y="24.48" width="6.12" height="6.12"/>
      <rect class="cls-2" x="122.4" y="24.48" width="6.12" height="6.12"/>
      <rect class="cls-5" x="116.28" y="24.48" width="6.12" height="6.12"/>
      <rect class="cls-41" x="110.16" y="24.48" width="6.12" height="6.12"/>
      <rect class="cls-47" x="104.04" y="24.48" width="6.12" height="6.12"/>
      <rect class="cls-17" x="97.92" y="24.48" width="6.12" height="6.12"/>
      <rect class="cls-39" x="91.8" y="24.48" width="6.12" height="6.12"/>
      <rect class="cls-39" x="85.68" y="24.48" width="6.12" height="6.12"/>
      <rect class="cls-39" x="79.56" y="24.48" width="6.12" height="6.12"/>
      <rect class="cls-7" x="73.44" y="24.48" width="6.12" height="6.12"/>
      <rect class="cls-5" x="67.32" y="24.48" width="6.12" height="6.12"/>
      <rect class="cls-36" x="61.2" y="24.48" width="6.12" height="6.12"/>
      <rect class="cls-41" x="55.08" y="24.48" width="6.12" height="6.12"/>
      <rect class="cls-14" x="48.96" y="24.48" width="6.12" height="6.12"/>
      <rect class="cls-6" x="42.84" y="24.48" width="6.12" height="6.12"/>
      <rect class="cls-5" x="30.6" y="24.48" width="6.12" height="6.12"/>
      <rect class="cls-33" x="24.48" y="24.48" width="6.12" height="6.12"/>
      <rect class="cls-35" x="18.36" y="24.48" width="6.12" height="6.12"/>
      <rect class="cls-38" x="12.24" y="24.48" width="6.12" height="6.12"/>
      <rect class="cls-10" x="153" y="18.36" width="6.12" height="6.12"/>
      <rect class="cls-9" x="146.88" y="18.36" width="6.12" height="6.12"/>
      <rect class="cls-28" x="140.76" y="18.36" width="6.12" height="6.12"/>
      <rect class="cls-34" x="134.64" y="18.36" width="6.12" height="6.12"/>
      <rect class="cls-38" x="128.52" y="18.36" width="6.12" height="6.12"/>
      <rect class="cls-5" x="116.28" y="18.36" width="6.12" height="6.12"/>
      <rect class="cls-47" x="110.16" y="18.36" width="6.12" height="6.12"/>
      <rect class="cls-4" x="104.04" y="18.36" width="6.12" height="6.12"/>
      <rect class="cls-42" x="97.92" y="18.36" width="6.12" height="6.12"/>
      <rect class="cls-21" x="91.8" y="18.36" width="6.12" height="6.12"/>
      <rect class="cls-7" x="85.68" y="18.36" width="6.12" height="6.12"/>
      <rect class="cls-7" x="79.56" y="18.36" width="6.12" height="6.12"/>
      <rect class="cls-44" x="73.44" y="18.36" width="6.12" height="6.12"/>
      <rect class="cls-39" x="67.32" y="18.36" width="6.12" height="6.12"/>
      <rect class="cls-31" x="61.2" y="18.36" width="6.12" height="6.12"/>
      <rect class="cls-5" x="55.08" y="18.36" width="6.12" height="6.12"/>
      <rect class="cls-40" x="140.76" y="12.24" width="6.12" height="6.12"/>
      <rect class="cls-43" x="116.28" y="12.24" width="6.12" height="6.12"/>
      <rect class="cls-32" x="110.16" y="12.24" width="6.12" height="6.12"/>
      <rect class="cls-5" x="104.04" y="12.24" width="6.12" height="6.12"/>
      <rect class="cls-38" x="97.92" y="12.24" width="6.12" height="6.12"/>
      <rect class="cls-19" x="91.8" y="12.24" width="6.12" height="6.12"/>
      <rect class="cls-45" x="85.68" y="12.24" width="6.12" height="6.12"/>
      <rect class="cls-44" x="79.56" y="12.24" width="6.12" height="6.12"/>
      <rect class="cls-44" x="73.44" y="12.24" width="6.12" height="6.12"/>
      <rect class="cls-25" x="67.32" y="12.24" width="6.12" height="6.12"/>
      <rect class="cls-41" x="61.2" y="12.24" width="6.12" height="6.12"/>
      <rect class="cls-46" x="55.08" y="12.24" width="6.12" height="6.12"/>
      <rect class="cls-2" x="85.68" y="6.12" width="6.12" height="6.12"/>
      <rect class="cls-23" x="79.56" y="6.12" width="6.12" height="6.12"/>
      <rect class="cls-41" x="73.44" y="6.12" width="6.12" height="6.12"/>
      <rect class="cls-43" x="67.32" y="6.12" width="6.12" height="6.12"/>
      <rect class="cls-38" x="61.2" y="6.12" width="6.12" height="6.12"/>
      <rect class="cls-38" x="79.56" width="6.12" height="6.12"/>
      <rect class="cls-47" x="73.44" width="6.12" height="6.12"/>
    </g>
  </g>
</svg>